<svg xmlns="http://www.w3.org/2000/svg" viewBox="0 0 226.2 182.7"><defs><style>.cls-1{fill:#ffe98c;}.cls-1,.cls-2,.cls-3,.cls-4,.cls-5{stroke:#ed1973;stroke-linecap:round;stroke-linejoin:round;}.cls-2{fill:#b8aef8;}.cls-3{fill:none;stroke-dasharray:4 4;}.cls-4{fill:#ffe166;}.cls-5{fill:#fff1b3;}</style></defs><title>Asset 5abstract</title><g id="Layer_2" data-name="Layer 2"><g id="letters"><path class="cls-1" d="M82.2,137.5a13.2,13.2,0,0,0,1.1-5.3,13.5,13.5,0,0,0-27,0,13.2,13.2,0,0,0,1.1,5.3,17,17,0,0,0-4.9,12.1,17.3,17.3,0,1,0,29.7-12.1Z"/><line class="cls-2" x1="69.8" y1="147.2" x2="69.8" y2="182.2"/><path class="cls-3" d="M220.8,56.6a13.2,13.2,0,0,0,1-5.3,13.5,13.5,0,1,0-26.9,0,13.2,13.2,0,0,0,1,5.3,17.4,17.4,0,1,0,24.9,0Z"/><line class="cls-3" x1="208.3" y1="66.3" x2="208.3" y2="101.3"/><polygon class="cls-4" points="121.7 0.5 87.1 20.5 121.7 40.5 156.4 20.5 121.7 0.5"/><polygon class="cls-5" points="87.1 50.5 87.1 90.5 121.7 110.5 121.7 70.5 87.1 50.5"/><polygon class="cls-1" points="156.4 50.5 121.7 70.5 121.7 110.5 156.4 90.5 156.4 50.5"/><line class="cls-3" x1="87.1" y1="20.5" x2="87.1" y2="50.5"/><line class="cls-3" x1="121.7" y1="40.5" x2="121.7" y2="70.5"/><line class="cls-3" x1="156.4" y1="20.5" x2="156.4" y2="50.5"/><circle class="cls-4" cx="177.9" cy="135.5" r="17.3"/><polygon class="cls-5" points="17.8 50.5 0.5 100.5 17.8 110.5 17.8 50.5"/><polygon class="cls-1" points="17.8 50.5 35.1 100.5 17.8 110.5 17.8 50.5"/></g></g></svg>