<svg xmlns="http://www.w3.org/2000/svg" viewBox="0 0 301.6 249.2"><defs><style>.cls-1,.cls-4{fill:#ed8eb7;}.cls-1,.cls-2,.cls-3,.cls-5,.cls-6{stroke:#6046f8;stroke-linecap:round;stroke-linejoin:round;stroke-width:1.18px;}.cls-2{fill:#fff;}.cls-3{fill:#ed478e;}.cls-5{fill:none;}.cls-6{fill:#ed6ba3;}</style></defs><title>Asset 14</title><g id="Layer_2" data-name="Layer 2"><g id="letters"><polyline class="cls-1" points="48.4 193.3 36.2 200.3 36.2 129.7 100.2 92.8 100.2 148.2 84.2 157.4 84.2 172.5"/><polyline class="cls-2" points="48.4 193.3 48.4 146.3 89.2 122.8 89.2 169.8"/><polygon class="cls-3" points="89.2 169.8 48.4 146.3 68.8 134.5 89.2 122.8 89.2 169.8"/><polygon class="cls-2" points="0.6 109.1 0.6 179.7 36.2 200.3 36.2 129.7 0.6 109.1"/><polygon class="cls-2" points="84.2 157.4 84.2 228 119.8 248.6 119.8 178 84.2 157.4"/><polygon class="cls-2" points="100.2 92.8 148.1 120.5 100.2 148.2 100.2 92.8"/><polygon class="cls-1" points="277.3 157.7 283.1 154.3 283.1 83.7 119.8 178 119.8 248.6 236.5 181.2 277.3 157.7"/><polygon class="cls-4" points="199.5 35.5 199.5 90.8 182.5 100.7 134.5 73 199.5 35.5"/><polygon class="cls-5" points="199.5 35.5 199.5 90.8 182.5 100.7 134.5 73 199.5 35.5"/><polygon class="cls-2" points="88.3 229.9 108.7 241.7 108.6 246.4 88.3 234.6 88.3 229.9"/><polygon class="cls-3" points="88.3 229.9 91.8 227.9 112.1 239.7 108.7 241.7 88.3 229.9"/><polygon class="cls-6" points="108.6 246.4 112.1 244.2 112.1 239.7 108.7 241.7 108.6 246.4"/><polygon class="cls-3" points="91.8 171.4 91.8 227.9 112.2 239.7 112.2 183.2 91.8 171.4"/><polygon class="cls-1" points="107.4 106.8 107.4 130.3 148.1 153.9 148.1 130.3 107.4 106.8"/><polygon class="cls-3" points="107.4 130.3 110 128.8 110 108.4 107.4 106.8 107.4 130.3"/><polygon class="cls-3" points="107.4 130.3 148.1 153.9 148.1 150.8 110 128.8 107.4 130.3"/><polygon class="cls-1" points="8.2 137.1 8.2 160.6 28.6 172.4 28.6 148.8 8.2 137.1"/><polygon class="cls-3" points="8.2 160.6 28.6 148.8 8.2 137.1 8.2 160.6"/><polygon class="cls-1" points="91.8 227.9 112.2 216.1 112.2 239.7 91.8 227.9"/><polygon class="cls-3" points="172.4 65.6 172.4 89.1 162.2 95 162.2 71.5 172.4 65.6"/><polygon class="cls-2" points="172.4 89.1 169.8 87.6 169.8 67.1 172.4 65.6 172.4 89.1"/><polygon class="cls-6" points="172.4 89.1 162.2 95 162.2 92.1 169.8 87.6 172.4 89.1"/><polygon class="cls-3" points="152 77.4 152 100.9 141.8 106.8 141.8 83.2 152 77.4"/><polygon class="cls-2" points="152 100.9 149.4 99.4 149.4 78.9 152 77.4 152 100.9"/><polygon class="cls-6" points="152 100.9 141.8 106.8 141.9 103.8 149.4 99.4 152 100.9"/><polygon class="cls-3" points="192.8 53.8 192.8 77.4 182.6 83.2 182.6 59.7 192.8 53.8"/><polygon class="cls-2" points="192.8 77.4 190.1 75.8 190.1 55.4 192.8 53.8 192.8 77.4"/><polygon class="cls-6" points="192.8 77.4 182.6 83.2 182.6 80.3 190.1 75.8 192.8 77.4"/><polygon class="cls-3" points="182.5 100.7 134.5 73 199.5 35.5 163.9 14.9 0.6 109.1 36.2 129.7 100.2 92.8 148.1 120.5 84.2 157.4 119.8 178 283.1 83.7 247.5 63.1 182.5 100.7"/><polygon class="cls-2" points="15.8 104 36.2 115.7 36.2 120.4 15.8 108.7 15.8 104"/><polygon class="cls-3" points="15.8 104 19.3 102 39.6 113.7 36.2 115.7 15.8 104"/><polygon class="cls-6" points="36.2 120.4 39.6 118.3 39.6 113.7 36.2 115.7 36.2 120.4"/><polygon class="cls-2" points="27.7 97.1 48.1 108.8 48.1 113.6 27.7 101.8 27.7 97.1"/><polygon class="cls-3" points="27.7 97.1 31.2 95.1 51.5 106.8 48.1 108.8 27.7 97.1"/><polygon class="cls-6" points="48.1 113.6 51.5 111.4 51.5 106.8 48.1 108.8 48.1 113.6"/><polygon class="cls-2" points="39.6 90.2 60 102 60 106.7 39.6 94.9 39.6 90.2"/><polygon class="cls-3" points="39.6 90.2 43.1 88.2 63.4 100 60 102 39.6 90.2"/><polygon class="cls-6" points="60 106.7 63.4 104.5 63.4 100 60 102 60 106.7"/><polygon class="cls-2" points="51.5 83.3 71.9 95.1 71.9 99.8 51.5 88 51.5 83.3"/><polygon class="cls-3" points="51.5 83.3 55 81.3 75.3 93.1 71.9 95.1 51.5 83.3"/><polygon class="cls-6" points="71.9 99.8 75.3 97.7 75.3 93.1 71.9 95.1 71.9 99.8"/><polygon class="cls-2" points="63.4 76.4 83.8 88.2 83.8 92.9 63.4 81.2 63.4 76.4"/><polygon class="cls-3" points="63.4 76.4 66.9 74.4 87.3 86.2 83.8 88.2 63.4 76.4"/><polygon class="cls-6" points="83.8 92.9 87.3 90.8 87.3 86.2 83.8 88.2 83.8 92.9"/><polygon class="cls-2" points="194.1 99.3 214.5 111.1 214.5 115.8 194.1 104.1 194.1 99.3"/><polygon class="cls-3" points="194.1 99.3 197.6 97.3 218 109.1 214.5 111.1 194.1 99.3"/><polygon class="cls-6" points="214.5 115.8 218 113.7 218 109.1 214.5 111.1 214.5 115.8"/><polygon class="cls-2" points="206 92.5 226.4 104.2 226.4 108.9 206 97.2 206 92.5"/><polygon class="cls-3" points="206 92.5 209.5 90.4 229.9 102.2 226.4 104.2 206 92.5"/><polygon class="cls-6" points="226.4 108.9 229.9 106.8 229.9 102.2 226.4 104.2 226.4 108.9"/><polygon class="cls-2" points="218 85.6 238.3 97.3 238.3 102.1 218 90.3 218 85.6"/><polygon class="cls-3" points="218 85.6 221.5 83.6 241.8 95.3 238.3 97.3 218 85.6"/><polygon class="cls-6" points="238.3 102.1 241.8 99.9 241.8 95.3 238.3 97.3 238.3 102.1"/><polygon class="cls-2" points="229.9 78.7 250.2 90.5 250.2 95.2 229.9 83.4 229.9 78.7"/><polygon class="cls-3" points="229.9 78.7 233.4 76.7 253.7 88.4 250.2 90.5 229.9 78.7"/><polygon class="cls-6" points="250.2 95.2 253.7 93 253.7 88.4 250.2 90.5 250.2 95.2"/><polygon class="cls-2" points="241.8 71.8 262.1 83.6 262.1 88.3 241.8 76.5 241.8 71.8"/><polygon class="cls-3" points="241.8 71.8 245.3 69.8 265.6 81.6 262.1 83.6 241.8 71.8"/><polygon class="cls-6" points="262.1 88.3 265.6 86.2 265.6 81.6 262.1 83.6 262.1 88.3"/><polygon class="cls-2" points="201.5 130.9 181.1 142.7 181.1 189.1 191.3 173.2 201.5 177.9 201.5 130.9"/><polygon class="cls-3" points="119.8 127.9 102.7 137.8 119.8 157.6 137 147.7 119.8 127.9"/><polygon class="cls-2" points="102.7 137.8 102.7 158.6 119.8 168.4 119.8 157.6 102.7 137.8"/><polygon class="cls-4" points="137 147.7 119.8 157.6 119.8 168.4 137 158.6 137 147.7"/><polygon class="cls-5" points="137 147.7 119.8 157.6 119.8 168.4 137 158.6 137 147.7"/><polygon class="cls-3" points="163.6 0.6 143.2 12.3 163.6 24.1 183.9 12.3 163.6 0.6"/><polygon class="cls-2" points="143.2 12.3 122.8 47.6 143.2 59.4 163.6 24.1 143.2 12.3"/><polygon class="cls-4" points="183.9 12.3 163.6 24.1 143.2 59.4 184 35.9 183.9 12.3"/><polygon class="cls-5" points="183.9 12.3 163.6 24.1 143.2 59.4 184 35.9 183.9 12.3"/><polyline class="cls-3" points="283.1 96.1 219.6 132.7 229.8 138.6 301 97.5 290.8 91.6"/><polygon class="cls-2" points="219.6 132.7 219.6 141 229.8 146.9 229.8 138.6 219.6 132.7"/><polygon class="cls-4" points="301 97.5 229.8 138.6 229.8 146.9 301 105.7 301 97.5"/><polygon class="cls-5" points="301 97.5 229.8 138.6 229.8 146.9 301 105.7 301 97.5"/><polyline class="cls-3" points="290.8 91.6 283.1 87.1 283.1 96.2"/><polyline class="cls-3" points="283.1 125.2 219.6 161.8 229.8 167.7 301 126.6 290.8 120.7"/><polygon class="cls-2" points="219.6 161.8 219.6 170.1 229.8 175.9 229.8 167.7 219.6 161.8"/><polygon class="cls-4" points="301 126.6 229.8 167.7 229.8 175.9 301 134.8 301 126.6"/><polygon class="cls-5" points="301 126.6 229.8 167.7 229.8 175.9 301 134.8 301 126.6"/><polyline class="cls-3" points="290.8 120.7 283.1 116.2 283.1 125.3"/><polygon class="cls-2" points="163.6 152.8 143.2 164.6 143.2 211.1 153.4 195.2 163.6 199.9 163.6 152.8"/></g></g></svg>