<svg xmlns="http://www.w3.org/2000/svg" xmlns:xlink="http://www.w3.org/1999/xlink" viewBox="0 0 256.3 259.1"><defs><style>.cls-1,.cls-7{fill:#ed6ba3;}.cls-1,.cls-3,.cls-4,.cls-5,.cls-6{stroke:#6046f8;stroke-linecap:round;stroke-linejoin:round;stroke-width:1.18px;}.cls-2,.cls-5{fill:#ed8eb7;}.cls-3{fill:none;}.cls-4{fill:#fff;}.cls-6{fill:#ed478e;}.cls-8{clip-path:url(#clip-path);}</style><clipPath id="clip-path"><polygon class="cls-1" points="101.4 70 81 81.7 101.4 93.5 121.8 81.7 101.4 70"/></clipPath></defs><title>Asset 12</title><g id="Layer_2" data-name="Layer 2"><g id="letters"><path class="cls-2" d="M172.1,61.2v55.5L98.7,158.9a58.1,58.1,0,0,1-17.6.1L50.9,141.5s-2.3-2.2-.1-10.3Z"/><path class="cls-3" d="M172.1,61.2v55.5L98.7,158.9a58.1,58.1,0,0,1-17.6.1L50.9,141.5s-2.3-2.2-.1-10.3Z"/><path class="cls-4" d="M255.7,109.4,133.5,180a55.9,55.9,0,0,1-22,7.1c-7.4.7-29.7,1.5-40.2-.2-8.3-1.1-17.4-4-23.2-7.3l-32.9-19c-6-3.5-10.9-8.7-12.9-13.6C1.1,144.4.6,140.5.6,136.5v70.6c0,4,.5,7.9,1.7,10.5,2,4.9,6.9,10.1,12.9,13.6l32.9,19c5.8,3.3,14.9,6.1,23.2,7.3,10.5,1.7,32.8.9,40.2.2a57.6,57.6,0,0,0,22-7.1L255.7,180Z"/><polygon class="cls-5" points="14.2 168.8 14.2 192.3 55 215.8 55 192.3 14.2 168.8"/><polygon class="cls-6" points="14.2 192.3 16.9 190.8 16.9 170.3 14.2 168.8 14.2 192.3"/><polygon class="cls-6" points="14.2 192.3 55 215.8 55 212.7 16.9 190.8 14.2 192.3"/><polygon class="cls-5" points="14.2 199.5 14.2 223 55 246.5 55 223 14.2 199.5"/><polygon class="cls-6" points="14.2 223 16.9 221.5 16.9 201 14.2 199.5 14.2 223"/><polygon class="cls-6" points="14.2 223 55 246.5 55 243.4 16.9 221.5 14.2 223"/><polygon class="cls-6" points="107 104.4 107 127.9 96.8 133.8 96.8 110.3 107 104.4"/><polygon class="cls-4" points="107 127.9 104.4 126.4 104.4 105.9 107 104.4 107 127.9"/><polygon class="cls-1" points="107 127.9 96.8 133.8 96.8 130.9 104.4 126.4 107 127.9"/><polygon class="cls-6" points="122.4 95.8 122.4 119.3 112.2 125.2 112.2 101.6 122.4 95.8"/><polygon class="cls-4" points="122.4 119.3 119.7 117.7 119.7 97.3 122.4 95.8 122.4 119.3"/><polygon class="cls-1" points="122.4 119.3 112.2 125.2 112.2 122.2 119.7 117.7 122.4 119.3"/><polygon class="cls-6" points="107 133.8 107 157.3 96.8 163.2 96.8 139.7 107 133.8"/><polygon class="cls-4" points="107 157.3 104.4 155.8 104.4 135.4 107 133.8 107 157.3"/><polygon class="cls-1" points="107 157.3 96.8 163.2 96.8 160.3 104.4 155.8 107 157.3"/><polygon class="cls-6" points="122.4 125.2 122.4 148.7 112.2 154.6 112.2 131 122.4 125.2"/><polygon class="cls-4" points="122.4 148.7 119.7 147.2 119.7 126.7 122.4 125.2 122.4 148.7"/><polygon class="cls-1" points="122.4 148.7 112.2 154.6 112.2 151.6 119.7 147.2 122.4 148.7"/><polygon class="cls-6" points="138.5 87.1 138.5 110.7 128.3 116.5 128.3 93 138.5 87.1"/><polygon class="cls-4" points="138.5 110.7 135.8 109.1 135.8 88.7 138.5 87.1 138.5 110.7"/><polygon class="cls-1" points="138.5 110.7 128.3 116.5 128.3 113.6 135.8 109.1 138.5 110.7"/><polygon class="cls-6" points="138.5 116.5 138.5 140.1 128.3 145.9 128.3 122.4 138.5 116.5"/><polygon class="cls-4" points="138.5 140.1 135.8 138.5 135.8 118.1 138.5 116.5 138.5 140.1"/><polygon class="cls-1" points="138.5 140.1 128.3 145.9 128.3 143 135.8 138.5 138.5 140.1"/><polygon class="cls-6" points="217.5 138.7 217.5 162.3 207.3 168.1 207.3 144.6 217.5 138.7"/><polygon class="cls-4" points="217.5 162.3 214.9 160.7 214.9 140.3 217.5 138.7 217.5 162.3"/><polygon class="cls-1" points="217.5 162.3 207.3 168.1 207.3 165.2 214.9 160.7 217.5 162.3"/><polygon class="cls-6" points="233.2 129.7 233.2 153.3 223 159.1 223 135.6 233.2 129.7"/><polygon class="cls-4" points="233.2 153.3 230.6 151.7 230.6 131.3 233.2 129.7 233.2 153.3"/><polygon class="cls-1" points="233.2 153.3 223 159.1 223 156.2 230.6 151.7 233.2 153.3"/><polygon class="cls-6" points="217.5 168.1 217.5 191.7 207.3 197.5 207.3 174 217.5 168.1"/><polygon class="cls-4" points="217.5 191.7 214.9 190.1 214.9 169.7 217.5 168.1 217.5 191.7"/><polygon class="cls-1" points="217.5 191.7 207.3 197.5 207.3 194.6 214.9 190.1 217.5 191.7"/><polygon class="cls-6" points="233.2 159.1 233.2 182.7 223 188.5 223 165 233.2 159.1"/><polygon class="cls-4" points="233.2 182.7 230.6 181.1 230.6 160.7 233.2 159.1 233.2 182.7"/><polygon class="cls-1" points="233.2 182.7 223 188.5 223 185.6 230.6 181.1 233.2 182.7"/><polygon class="cls-6" points="249 120.3 249 143.8 238.8 149.7 238.8 126.2 249 120.3"/><polygon class="cls-4" points="249 143.8 246.3 142.3 246.3 121.8 249 120.3 249 143.8"/><polygon class="cls-1" points="249 143.8 238.8 149.7 238.8 146.8 246.3 142.3 249 143.8"/><polygon class="cls-6" points="249 149.7 249 173.2 238.8 179.1 238.8 155.6 249 149.7"/><polygon class="cls-4" points="249 173.2 246.3 171.7 246.3 151.2 249 149.7 249 173.2"/><polygon class="cls-1" points="249 173.2 238.8 179.1 238.8 176.2 246.3 171.7 249 173.2"/><polygon class="cls-6" points="155.3 174.9 155.3 198.4 145.1 204.3 145.1 180.8 155.3 174.9"/><polygon class="cls-4" points="155.3 198.4 152.6 196.9 152.6 176.4 155.3 174.9 155.3 198.4"/><polygon class="cls-1" points="155.3 198.4 145.1 204.3 145.1 201.3 152.6 196.9 155.3 198.4"/><polygon class="cls-6" points="171 165.9 171 189.4 160.8 195.3 160.8 171.7 171 165.9"/><polygon class="cls-4" points="171 189.4 168.4 187.9 168.4 167.4 171 165.9 171 189.4"/><polygon class="cls-1" points="171 189.4 160.8 195.3 160.8 192.3 168.4 187.9 171 189.4"/><polygon class="cls-6" points="155.3 204.3 155.3 227.8 145.1 233.7 145.1 210.2 155.3 204.3"/><polygon class="cls-4" points="155.3 227.8 152.6 226.3 152.6 205.8 155.3 204.3 155.3 227.8"/><polygon class="cls-1" points="155.3 227.8 145.1 233.7 145.1 230.7 152.6 226.3 155.3 227.8"/><polygon class="cls-6" points="171 195.3 171 218.8 160.8 224.7 160.8 201.2 171 195.3"/><polygon class="cls-4" points="171 218.8 168.4 217.3 168.4 196.8 171 195.3 171 218.8"/><polygon class="cls-1" points="171 218.8 160.8 224.7 160.8 221.7 168.4 217.3 171 218.8"/><polygon class="cls-6" points="186.7 156.4 186.7 180 176.6 185.8 176.6 162.3 186.7 156.4"/><polygon class="cls-4" points="186.7 180 184.1 178.4 184.1 158 186.7 156.4 186.7 180"/><polygon class="cls-1" points="186.7 180 176.6 185.8 176.6 182.9 184.1 178.4 186.7 180"/><polygon class="cls-6" points="186.7 185.8 186.7 209.4 176.6 215.2 176.6 191.7 186.7 185.8"/><polygon class="cls-4" points="186.7 209.4 184.1 207.8 184.1 187.4 186.7 185.8 186.7 209.4"/><polygon class="cls-1" points="186.7 209.4 176.6 215.2 176.6 212.3 184.1 207.8 186.7 209.4"/><polygon class="cls-6" points="165.9 71.9 165.9 95.4 155.7 101.3 155.7 77.8 165.9 71.9"/><polygon class="cls-4" points="165.9 95.4 163.3 93.9 163.3 73.4 165.9 71.9 165.9 95.4"/><polygon class="cls-1" points="165.9 95.4 155.7 101.3 155.7 98.4 163.3 93.9 165.9 95.4"/><polygon class="cls-6" points="165.9 101.3 165.9 124.8 155.7 130.7 155.7 107.2 165.9 101.3"/><polygon class="cls-4" points="165.9 124.8 163.3 123.3 163.3 102.8 165.9 101.3 165.9 124.8"/><polygon class="cls-1" points="165.9 124.8 155.7 130.7 155.7 127.8 163.3 123.3 165.9 124.8"/><polygon class="cls-6" points="79 120.1 79 143.7 68.8 149.5 68.8 126 79 120.1"/><polygon class="cls-4" points="79 143.7 76.3 142.1 76.3 121.7 79 120.1 79 143.7"/><polygon class="cls-1" points="79 143.7 68.8 149.5 68.8 146.6 76.3 142.1 79 143.7"/><polygon class="cls-6" points="79 149.5 79 173.1 68.8 178.9 68.8 155.4 79 149.5"/><polygon class="cls-4" points="79 173.1 76.3 171.5 76.3 151.1 79 149.5 79 173.1"/><polygon class="cls-1" points="79 173.1 68.8 178.9 68.8 176 76.3 171.5 79 173.1"/><path class="cls-6" d="M98.7,158.9a93.9,93.9,0,0,1-17.6.1L50.9,141.5c-1-2.1-1.2-6.6-.1-10.3l121.3-70L136.5,40.6,14.2,111.2c-6.5,3.7-10.6,8-12.3,12.7s-2.4,17.2.4,23.1,6.9,10.1,12.9,13.6l32.9,19c5.8,3.3,14.9,6.2,23.2,7.3,10.5,1.7,32.8.9,40.2.2a55.9,55.9,0,0,0,22-7.1l122.2-70.6L220.1,88.8Z"/><polygon class="cls-7" points="101.4 70 81 81.7 101.4 93.5 121.8 81.7 101.4 70"/><g class="cls-8"><polygon class="cls-4" points="91.2 85.6 111.6 97.4 111.6 102.1 91.2 90.3 91.2 85.6"/><polygon class="cls-6" points="91.2 85.6 94.7 83.6 115 95.4 111.6 97.4 91.2 85.6"/><polygon class="cls-1" points="111.6 102.1 115 100 115 95.4 111.6 97.4 111.6 102.1"/><polygon class="cls-4" points="87.8 92.5 108.2 104.3 108.1 109 87.8 97.2 87.8 92.5"/><polygon class="cls-6" points="87.8 92.5 91.3 90.5 111.6 102.2 108.2 104.3 87.8 92.5"/><polygon class="cls-1" points="108.1 109 111.6 106.8 111.6 102.2 108.2 104.3 108.1 109"/><polygon class="cls-4" points="98 72 118.3 83.8 118.3 88.5 98 76.7 98 72"/><polygon class="cls-6" points="98 72 101.5 70 121.8 81.7 118.3 83.8 98 72"/><polygon class="cls-1" points="118.3 88.5 121.8 86.3 121.8 81.7 118.3 83.8 118.3 88.5"/><polygon class="cls-4" points="94.5 78.9 114.9 90.6 114.9 95.4 94.5 83.6 94.5 78.9"/><polygon class="cls-6" points="94.5 78.9 98 76.9 118.3 88.6 114.9 90.6 94.5 78.9"/><polygon class="cls-1" points="114.9 95.4 118.3 93.2 118.3 88.6 114.9 90.6 114.9 95.4"/></g><polygon class="cls-3" points="101.4 70 81 81.7 101.4 93.5 121.8 81.7 101.4 70"/><polygon class="cls-5" points="28.6 73.3 28.6 92.1 49 103.9 38.8 88.6 49 85.1 28.6 73.3"/><line class="cls-3" x1="28.6" y1="120.4" x2="28.6" y2="73.3"/><polygon class="cls-5" points="112.3 122.5 112.3 141.4 132.7 153.1 122.5 137.8 132.7 134.3 112.3 122.5"/><line class="cls-3" x1="112.3" y1="169.6" x2="112.3" y2="122.5"/><polygon class="cls-4" points="138.5 141.5 158.9 153.3 158.8 158 138.5 146.2 138.5 141.5"/><polygon class="cls-6" points="138.5 141.5 142 139.5 162.3 151.3 158.9 153.3 138.5 141.5"/><polygon class="cls-1" points="158.8 158 162.3 155.9 162.3 151.3 158.9 153.3 158.8 158"/><polygon class="cls-4" points="162.3 127.8 182.7 139.5 182.7 144.2 162.3 132.5 162.3 127.8"/><polygon class="cls-6" points="162.3 127.8 165.8 125.8 186.1 137.5 182.7 139.5 162.3 127.8"/><polygon class="cls-1" points="182.7 144.2 186.1 142.1 186.1 137.5 182.7 139.5 182.7 144.2"/><polygon class="cls-4" points="186.1 114 206.5 125.8 206.5 130.5 186.1 118.7 186.1 114"/><polygon class="cls-6" points="186.1 114 189.6 112 209.9 123.8 206.5 125.8 186.1 114"/><polygon class="cls-1" points="206.5 130.5 209.9 128.3 209.9 123.8 206.5 125.8 206.5 130.5"/><ellipse class="cls-5" cx="22.3" cy="128.4" rx="5.4" ry="3.1"/><line class="cls-3" x1="22.3" y1="134.3" x2="22.3" y2="131.7"/><ellipse class="cls-5" cx="93.3" cy="170.1" rx="5.4" ry="3.1"/><line class="cls-3" x1="93.3" y1="176.1" x2="93.3" y2="173.4"/><ellipse class="cls-5" cx="28.8" cy="147.1" rx="5.4" ry="3.1"/><line class="cls-3" x1="28.8" y1="153.1" x2="28.8" y2="150.4"/><ellipse class="cls-5" cx="67" cy="168.5" rx="5.4" ry="3.1"/><line class="cls-3" x1="67" y1="174.5" x2="67" y2="171.9"/><ellipse class="cls-5" cx="46" cy="159.2" rx="5.4" ry="3.1"/><line class="cls-3" x1="46" y1="165.2" x2="46" y2="162.6"/><line class="cls-3" x1="137.1" y1="248.2" x2="137.1" y2="178.3"/><path class="cls-1" d="M112.1,195.9c-7.4.7-29.7,1.5-40.2-.2v23.5c10.5,1.8,32.8,1,40.2.2Z"/><path class="cls-6" d="M112.1,216.7c-7.4.7-29.7,1.5-40.2-.2v2.7c10.5,1.8,32.8,1,40.2.2Z"/><path class="cls-1" d="M112.1,227.1c-7.4.8-29.7,1.6-40.2-.2v23.6c10.5,1.7,32.8.9,40.2.2Z"/><path class="cls-6" d="M112.1,247.9c-7.4.8-29.7,1.6-40.2-.2v2.8c10.5,1.7,32.8.9,40.2.2Z"/><polygon class="cls-6" points="136.4 37 116.1 48.8 136.4 60.6 156.8 48.8 136.4 37"/><polygon class="cls-4" points="116.1 48.8 116.1 60.6 136.4 72.3 136.4 60.6 116.1 48.8"/><polygon class="cls-5" points="156.8 48.8 136.4 60.6 136.4 72.3 156.8 60.6 156.8 48.8"/><polygon class="cls-6" points="220.2 85 199.8 96.8 220.2 108.6 240.6 96.8 220.2 85"/><polygon class="cls-4" points="199.8 96.8 199.8 108.6 220.2 120.3 220.2 108.6 199.8 96.8"/><polygon class="cls-5" points="240.6 96.8 220.2 108.6 220.2 120.3 240.6 108.6 240.6 96.8"/><polygon class="cls-5" points="136.5 0.6 136.5 19.4 156.8 31.2 146.6 15.9 156.8 12.3 136.5 0.6"/><line class="cls-3" x1="136.5" y1="47.6" x2="136.5" y2="0.6"/><polygon class="cls-5" points="220.2 49.8 220.2 68.6 240.6 80.4 230.4 65.1 240.6 61.6 220.2 49.8"/><line class="cls-3" x1="220.2" y1="96.9" x2="220.2" y2="49.8"/></g></g></svg>