<svg xmlns="http://www.w3.org/2000/svg" xmlns:xlink="http://www.w3.org/1999/xlink" viewBox="0 0 276.9 231.3"><defs><style>.cls-1,.cls-4{fill:#ed478e;}.cls-1,.cls-2,.cls-3,.cls-6,.cls-7,.cls-9{stroke:#6046f8;stroke-linecap:round;stroke-linejoin:round;}.cls-1,.cls-2,.cls-3,.cls-7,.cls-9{stroke-width:1.18px;}.cls-2,.cls-8{fill:#ed8eb7;}.cls-3{fill:#fff;}.cls-5{clip-path:url(#clip-path);}.cls-6,.cls-7{fill:none;}.cls-6{stroke-width:0.59px;}.cls-9{fill:#ed6ba3;}</style><clipPath id="clip-path"><polygon class="cls-1" points="113.6 97.3 113.6 120.9 96.1 131 96.1 107.4 113.6 97.3"/></clipPath></defs><title>Asset 13</title><g id="Layer_2" data-name="Layer 2"><g id="letters"><path class="cls-1" d="M121.3,86.9,162,110.4s1.7,2.7-.2,7l-18.1,10.4s-3,1.9-11.8.3L121.3,122Z"/><polygon class="cls-2" points="121.3 86.9 121.3 122 91 104.4 121.3 86.9"/><path class="cls-1" d="M185.5,49.8l40.7,23.5s1.9,4.2-.5,7.2L207.3,91.1s-6.4,1.6-11.4.1l-10.4-6Z"/><polygon class="cls-2" points="185.5 49.8 185.5 85.2 154.9 67.5 185.5 49.8"/><path class="cls-3" d="M211.8,190.5c-.5,5.7-3,11.5-13.8,17.7l-19.6,11.4a60.4,60.4,0,0,1-23,7.4h-.1c-6.2.6-22.7.8-29.8.1-9.7-1-20.3-4.2-27.6-8.4L21,174.3V103.7l77,44.4c7.3,4.2,17.9,7.5,27.6,8.5a226.9,226.9,0,0,0,29.8-.2h.1a59.4,59.4,0,0,0,22.9-7.4L198,137.7c10.8-6.3,13.3-12,13.8-17.8Z"/><path class="cls-2" d="M275.3,157.7c-2,6.1-8.3,10.7-13.3,13.6l-19.2,11.1c-10.1,5.8-19.6,7.7-31,8.1-.5,5.7-.5-64.8,0-70.6,11.3-.4,20.9-2.3,31-8.1L262,100.7c4.9-2.8,11.3-7.5,13.3-13.6a40.7,40.7,0,0,0,1-10.9Z"/><path class="cls-3" d="M217.7,146.6c-.5,5.7-8.9,11.5-19.7,17.7l-19.6,11.4a60.4,60.4,0,0,1-23,7.4h-.1c-6.2.6-22.7.8-29.8.1-9.7-1-20.3-4.2-27.6-8.4L10.8,124.9V116l87.1,49.4c7.3,4.2,17.9,7.4,27.6,8.4,7.1.7,23.5.5,29.8-.1h.1a61.1,61.1,0,0,0,22.9-7.4L198,154.9c10.8-6.2,19.8-11.4,20.3-17.2Z"/><path class="cls-1" d="M20.9,115.8l77,44.2c7.3,4.3,17.9,7.5,27.6,8.5a210.8,210.8,0,0,0,29.8-.2h.1a57.8,57.8,0,0,0,22.9-7.4l18.6-11.3c2.3-1.2,14.7-10.5,14.9-11.9h6.5c-.5,5.8-9.5,11.6-20.3,17.8l-19.6,11.3a60.4,60.4,0,0,1-23,7.4h-.1a210.7,210.7,0,0,1-29.8.2c-9.7-1-20.3-4.2-27.6-8.5L10.8,116l5.4-2.9"/><polyline class="cls-1" points="16.2 113.1 20.9 111 20.9 115.8"/><path class="cls-3" d="M217.7,170.1c-.5,5.8-8.9,11.5-19.7,17.8l-19.6,11.3a60.4,60.4,0,0,1-23,7.4h-.1a226.8,226.8,0,0,1-29.8.2c-9.7-1-20.3-4.3-27.6-8.5L10.8,148.4v-8.9l87.1,49.4c7.3,4.2,17.9,7.5,27.6,8.4,7.1.7,23.5.5,29.8-.1h.1a59.4,59.4,0,0,0,22.9-7.4L198,178.4c10.8-6.2,19.8-11.4,20.3-17.1Z"/><path class="cls-1" d="M20.9,139.3l77,44.3c7.3,4.2,17.9,7.4,27.6,8.4,7.1.7,23.5.5,29.8-.1h.1a59.3,59.3,0,0,0,22.9-7.3l18.6-11.4c2.3-1.2,14.7-10.5,14.9-11.9h6.5c-.5,5.7-9.5,11.5-20.3,17.7l-19.6,11.4a60.3,60.3,0,0,1-23,7.3h-.1a210.7,210.7,0,0,1-29.8.2c-9.7-1-20.3-4.2-27.6-8.4l-87.1-50,5.4-2.9"/><polyline class="cls-1" points="16.2 136.6 20.9 134.5 20.9 139.3"/><path class="cls-3" d="M217.7,193.6c-.5,5.8-8.9,11.6-19.7,17.8l-19.6,11.3a60.4,60.4,0,0,1-23,7.4h-.1a210.7,210.7,0,0,1-29.8.2c-9.7-1-20.3-4.2-27.6-8.5L10.8,171.9V163l87.1,49.4c7.3,4.2,17.9,7.5,27.6,8.5a210.8,210.8,0,0,0,29.8-.2h.1a59.4,59.4,0,0,0,22.9-7.4L198,202c10.8-6.2,19.8-11.5,20.3-17.2Z"/><path class="cls-1" d="M20.9,162.9l77,44.2c7.3,4.2,17.9,7.4,27.6,8.4,7.1.7,23.5.5,29.8-.1h.1a59.4,59.4,0,0,0,22.9-7.4l18.6-11.4c2.3-1.2,14.7-10.4,14.9-11.8h6.5c-.5,5.7-9.5,11.5-20.3,17.7l-19.6,11.4a62.2,62.2,0,0,1-23,7.4h-.1c-6.2.6-22.7.8-29.8.1-9.7-1-20.3-4.2-27.6-8.4L10.8,163l5.4-2.9"/><polyline class="cls-1" points="16.2 160.1 20.9 158.1 20.9 162.9"/><polygon class="cls-2" points="192.4 60.2 192.4 83.7 202.6 89.6 202.6 66.1 192.4 60.2"/><polygon class="cls-1" points="192.4 83.7 195.1 82.2 195.1 61.8 192.4 60.2 192.4 83.7"/><polygon class="cls-1" points="192.4 83.7 202.6 89.6 202.6 86.7 195.1 82.2 192.4 83.7"/><polygon class="cls-2" points="209.4 69.9 209.4 93.4 219.6 99.3 219.6 75.8 209.4 69.9"/><polygon class="cls-1" points="209.4 93.4 212 91.9 212 71.4 209.4 69.9 209.4 93.4"/><polygon class="cls-1" points="209.4 93.4 219.6 99.3 219.6 96.4 212 91.9 209.4 93.4"/><polygon class="cls-2" points="127.8 97 127.8 120.6 137.9 126.4 137.9 102.9 127.8 97"/><polygon class="cls-1" points="127.8 120.6 130.4 119 130.4 98.6 127.8 97 127.8 120.6"/><polygon class="cls-1" points="127.8 120.6 137.9 126.4 137.9 123.5 130.4 119 127.8 120.6"/><polygon class="cls-2" points="144.7 106.7 144.7 130.3 154.9 136.1 154.9 112.6 144.7 106.7"/><polygon class="cls-1" points="144.7 130.3 147.3 128.7 147.3 108.3 144.7 106.7 144.7 130.3"/><polygon class="cls-1" points="144.7 130.3 154.9 136.1 154.9 133.2 147.3 128.7 144.7 130.3"/><polygon class="cls-4" points="113.6 97.3 113.6 120.9 96.1 131 96.1 107.4 113.6 97.3"/><g class="cls-5"><line class="cls-6" x1="0.3" y1="78.4" x2="0.3" y2="196"/><line class="cls-6" x1="3.8" y1="78.4" x2="3.8" y2="196"/><line class="cls-6" x1="7.4" y1="78.4" x2="7.4" y2="196"/><line class="cls-6" x1="10.9" y1="78.4" x2="10.9" y2="196"/><line class="cls-6" x1="14.4" y1="78.4" x2="14.4" y2="196"/><line class="cls-6" x1="17.9" y1="78.4" x2="17.9" y2="196"/><line class="cls-6" x1="21.5" y1="78.4" x2="21.5" y2="196"/><line class="cls-6" x1="25" y1="78.4" x2="25" y2="196"/><line class="cls-6" x1="28.5" y1="78.4" x2="28.5" y2="196"/><line class="cls-6" x1="32.1" y1="78.4" x2="32.1" y2="196"/><line class="cls-6" x1="35.6" y1="78.4" x2="35.6" y2="196"/><line class="cls-6" x1="39.1" y1="78.4" x2="39.1" y2="196"/><line class="cls-6" x1="42.6" y1="78.4" x2="42.6" y2="196"/><line class="cls-6" x1="46.2" y1="78.4" x2="46.2" y2="196"/><line class="cls-6" x1="49.7" y1="78.4" x2="49.7" y2="196"/><line class="cls-6" x1="53.2" y1="78.4" x2="53.2" y2="196"/><line class="cls-6" x1="56.8" y1="78.4" x2="56.8" y2="196"/><line class="cls-6" x1="60.3" y1="78.4" x2="60.3" y2="196"/><line class="cls-6" x1="63.8" y1="78.4" x2="63.8" y2="196"/><line class="cls-6" x1="67.3" y1="78.4" x2="67.3" y2="196"/><line class="cls-6" x1="70.9" y1="78.4" x2="70.9" y2="196"/><line class="cls-6" x1="74.4" y1="78.4" x2="74.4" y2="196"/><line class="cls-6" x1="77.9" y1="78.4" x2="77.9" y2="196"/><line class="cls-6" x1="81.5" y1="78.4" x2="81.5" y2="196"/><line class="cls-6" x1="85" y1="78.4" x2="85" y2="196"/><line class="cls-6" x1="88.5" y1="78.4" x2="88.5" y2="196"/><line class="cls-6" x1="92" y1="78.4" x2="92" y2="196"/><line class="cls-6" x1="95.6" y1="78.4" x2="95.6" y2="196"/><line class="cls-6" x1="99.1" y1="78.4" x2="99.1" y2="196"/><line class="cls-6" x1="102.6" y1="78.4" x2="102.6" y2="196"/><line class="cls-6" x1="106.2" y1="78.4" x2="106.2" y2="196"/><line class="cls-6" x1="109.7" y1="78.4" x2="109.7" y2="196"/><line class="cls-6" x1="113.2" y1="78.4" x2="113.2" y2="196"/><line class="cls-6" x1="116.7" y1="78.4" x2="116.7" y2="196"/><line class="cls-6" x1="120.3" y1="78.4" x2="120.3" y2="196"/><line class="cls-6" x1="123.8" y1="78.4" x2="123.8" y2="196"/><line class="cls-6" x1="127.3" y1="78.4" x2="127.3" y2="196"/><line class="cls-6" x1="130.9" y1="78.4" x2="130.9" y2="196"/><line class="cls-6" x1="134.4" y1="78.4" x2="134.4" y2="196"/><line class="cls-6" x1="137.9" y1="78.4" x2="137.9" y2="196"/><line class="cls-6" x1="141.4" y1="78.4" x2="141.4" y2="196"/></g><polygon class="cls-7" points="113.6 97.3 113.6 120.9 96.1 131 96.1 107.4 113.6 97.3"/><path class="cls-1" d="M275.5,69.9c-1.8-6-7-11.8-14.3-16l-77-44.5L20.9,103.7l77,44.4c7.3,4.2,17.9,7.5,27.6,8.5a226.9,226.9,0,0,0,29.8-.2h.1a59.4,59.4,0,0,0,22.9-7.4L198,137.7c10.8-6.3,13.3-12,13.8-17.8,11.3-.4,20.9-2.3,31-8.1L262,100.7c4.9-2.8,11.3-7.5,13.3-13.6C276.4,83.5,276.7,74,275.5,69.9Zm-67.8,21-.4.2a39.5,39.5,0,0,1-11.4.1l-41-23.7,30.6-17.7,40.7,23.5a10.9,10.9,0,0,1-.5,7.2Zm-86.4-4L162,110.4c.6,1,.9,4.3-.2,7l-18.1,10.4-.3.2a40.2,40.2,0,0,1-11.5.1L91,104.4Z"/><path class="cls-3" d="M238,50.2c0-2.1,1.4-4.1,4.2-5.7,5.5-3.2,14.4-3.2,19.9,0,2.8,1.6,4.2,3.6,4.2,5.7v20m0,0c0,2.1-1.4,4.2-4.2,5.8-5.5,3.1-14.4,3.1-19.9,0-2.8-1.6-4.2-3.7-4.2-5.8v-20"/><ellipse class="cls-1" cx="252.2" cy="50.2" rx="14.1" ry="8.2"/><polygon class="cls-1" points="181.7 0.6 164.6 10.5 181.7 30.3 198.8 20.4 181.7 0.6"/><polygon class="cls-3" points="164.6 10.5 164.6 31.2 181.7 41.1 181.7 30.3 164.6 10.5"/><polygon class="cls-8" points="198.8 20.4 181.7 30.3 181.7 41.1 198.8 31.2 198.8 20.4"/><polygon class="cls-7" points="198.8 20.4 181.7 30.3 181.7 41.1 198.8 31.2 198.8 20.4"/><polygon class="cls-1" points="159.6 13.8 142.5 23.7 159.6 43.5 176.8 33.6 159.6 13.8"/><polygon class="cls-3" points="142.5 23.7 142.5 44.5 159.6 54.4 159.6 43.5 142.5 23.7"/><polygon class="cls-8" points="176.8 33.6 159.6 43.5 159.6 54.4 176.8 44.5 176.8 33.6"/><polygon class="cls-7" points="176.8 33.6 159.6 43.5 159.6 54.4 176.8 44.5 176.8 33.6"/><polygon class="cls-1" points="61.7 71.7 44.6 81.5 61.7 101.3 78.8 91.4 61.7 71.7"/><polygon class="cls-3" points="44.6 81.5 44.6 102.3 61.7 112.2 61.7 101.3 44.6 81.5"/><polygon class="cls-8" points="78.8 91.4 61.7 101.3 61.7 112.2 78.8 102.3 78.8 91.4"/><polygon class="cls-7" points="78.8 91.4 61.7 101.3 61.7 112.2 78.8 102.3 78.8 91.4"/><polygon class="cls-3" points="265.4 99 245 110.7 245 139 255.2 123.7 265.4 127.2 265.4 99"/><polygon class="cls-3" points="93 67.5 113.4 79.3 113.4 84 93 72.2 93 67.5"/><polygon class="cls-1" points="93 67.5 96.5 65.5 116.8 77.3 113.4 79.3 93 67.5"/><polygon class="cls-9" points="113.4 84 116.8 81.9 116.8 77.3 113.4 79.3 113.4 84"/><polygon class="cls-3" points="104.9 60.7 125.3 72.4 125.3 77.1 104.9 65.4 104.9 60.7"/><polygon class="cls-1" points="104.9 60.7 108.4 58.6 128.7 70.4 125.3 72.4 104.9 60.7"/><polygon class="cls-9" points="125.3 77.1 128.7 75 128.7 70.4 125.3 72.4 125.3 77.1"/><polygon class="cls-3" points="116.8 53.8 137.2 65.5 137.2 70.2 116.8 58.5 116.8 53.8"/><polygon class="cls-1" points="116.8 53.8 120.3 51.7 140.7 63.5 137.2 65.5 116.8 53.8"/><polygon class="cls-9" points="137.2 70.2 140.7 68.1 140.7 63.5 137.2 65.5 137.2 70.2"/><polygon class="cls-3" points="128.7 46.9 149.1 58.7 149.1 63.4 128.7 51.6 128.7 46.9"/><polygon class="cls-1" points="128.7 46.9 132.3 44.9 152.6 56.6 149.1 58.7 128.7 46.9"/><polygon class="cls-9" points="149.1 63.4 152.6 61.2 152.6 56.6 149.1 58.7 149.1 63.4"/><path class="cls-3" d="M84.8,117.1a3.1,3.1,0,0,1,1.8-2.5,9.5,9.5,0,0,1,8.7,0,3.1,3.1,0,0,1,1.8,2.5v8.7m0,0a3.1,3.1,0,0,1-1.8,2.5,9.5,9.5,0,0,1-8.7,0,3.1,3.1,0,0,1-1.8-2.5v-8.7"/><ellipse class="cls-1" cx="91" cy="117.1" rx="6.2" ry="3.6"/><path class="cls-3" d="M109,131.8a3.1,3.1,0,0,1,1.8-2.5,9.5,9.5,0,0,1,8.7,0,3.1,3.1,0,0,1,1.8,2.5v8.7m0,0a3.1,3.1,0,0,1-1.8,2.5,9.5,9.5,0,0,1-8.7,0,3.1,3.1,0,0,1-1.8-2.5v-8.7"/><ellipse class="cls-1" cx="115.1" cy="131.8" rx="6.2" ry="3.6"/><path class="cls-3" d="M141.2,134a3.1,3.1,0,0,1,1.8-2.5,9.5,9.5,0,0,1,8.7,0,3.1,3.1,0,0,1,1.8,2.5v8.7m0,0a3.1,3.1,0,0,1-1.8,2.5,9.5,9.5,0,0,1-8.7,0,3.1,3.1,0,0,1-1.8-2.5V134"/><ellipse class="cls-1" cx="147.3" cy="134" rx="6.2" ry="3.6"/><path class="cls-3" d="M168.2,121.4a3.1,3.1,0,0,1,1.8-2.5,9.5,9.5,0,0,1,8.7,0,3.1,3.1,0,0,1,1.8,2.5v8.8m0,0a3.1,3.1,0,0,1-1.8,2.5,9.5,9.5,0,0,1-8.7,0,3.1,3.1,0,0,1-1.8-2.5v-8.8"/><ellipse class="cls-1" cx="174.4" cy="121.4" rx="6.2" ry="3.6"/><path class="cls-3" d="M216.8,44.2a3.1,3.1,0,0,1,1.8-2.5,9.5,9.5,0,0,1,8.7,0,3.1,3.1,0,0,1,1.8,2.5v8.7m0,0a3.1,3.1,0,0,1-1.8,2.5,9.5,9.5,0,0,1-8.7,0,3.1,3.1,0,0,1-1.8-2.5V44.2"/><ellipse class="cls-1" cx="223" cy="44.2" rx="6.2" ry="3.6"/></g></g></svg>