<svg width="124px" height="71px" viewBox="0 0 124 71" version="1.1" xmlns="http://www.w3.org/2000/svg" xmlns:xlink="http://www.w3.org/1999/xlink">
    <g stroke="none" stroke-width="1" fill="none" fill-rule="evenodd" transform="translate(-382.000000, -704.000000)">
        <g transform="translate(382.000000, 704.000000)" fill="#68217A" fill-rule="nonzero">
            <path d="M60.5,58.6915637 L59.9945795,58.4633709 L30,45 L30,57.3666488 C30,62.8502597 43.6557999,71 60.5,71 C77.3442001,71 91,62.8479312 91,57.3666488 L91,45 L60.5,58.6915637 Z"></path>
            <polygon points="60.5023898 0 0 27.501193 60.5023898 55 121 27.501193"></polygon>
            <path d="M119.527063,49.7630531 L119.522158,49.4680403 C120.831669,48.6743151 121.837099,47.1360337 121.837099,45.5368766 C121.837099,43.2985249 120.309336,41.348162 117.987038,40.9969562 L117.987038,28 L116.753547,28 L116.753547,41.0695387 C114.58329,41.5705924 112.780872,43.3032077 112.780872,45.3917115 C112.780872,46.9908686 113.41601,48.383985 114.725521,49.1777101 L114.593099,49.7607118 L110,68 L117.001226,68 L124,68 L119.527063,49.7630531 Z"></path>
        </g>
    </g>
</svg>