<svg width="77px" height="104px" viewBox="0 0 77 104" version="1.1" xmlns="http://www.w3.org/2000/svg" xmlns:xlink="http://www.w3.org/1999/xlink">
    <g  stroke="none" stroke-width="1" fill="none" fill-rule="evenodd" transform="translate(-804.000000, -671.000000)">
        <g  transform="translate(804.000000, 675.000000)">
            <g  transform="translate(0.000000, 0.022308)">
                <path d="M31.7257232,0.265153846 C54.4571547,0.265153846 72.88466,18.7120769 72.88466,41.4682308 C72.88466,64.2251538 54.4571547,82.6728462 31.7257232,82.6728462"  stroke="#333333" stroke-width="6.748" stroke-linecap="round"></path>
                <path d="M47.0491147,99.2307692 C44.5909358,93.1676923 38.6610305,88.8892308 31.7260305,88.8892308 C24.7856516,88.8892308 18.8549779,93.1676923 16.3975674,99.2307692 L47.0491147,99.2307692 Z"  fill="#333333"></path>
                <path d="M31.7257232,0.265153846 L31.7257232,95.7536154"  stroke="#333333" stroke-width="6.748" stroke-linecap="round"></path>
                <path d="M63.4216316,41.4686154 C63.4216316,58.9932308 49.2296632,73.1993846 31.7227263,73.1993846 C14.2173263,73.1993846 0.0238210526,58.9932308 0.0238210526,41.4686154 C0.0238210526,23.9424615 14.2173263,9.73630769 31.7227263,9.73630769 C49.2296632,9.73630769 63.4216316,23.9424615 63.4216316,41.4686154" fill="#00BCF2"></path>
            </g>
            <g  transform="translate(0.000000, 9.253077)">
                <g >
                    <mask fill="white">
                        <use xlink:href="#path-1"></use>
                    </mask>
                    <g ></g>
                    <path d="M2.59626421,11.7683077 C3.87338,11.886 5.96886421,11.9829231 7.25366421,11.9829231 L17.7349274,11.9829231 C19.0181905,11.9829231 20.0686221,13.0344615 20.0686221,14.3190769 L20.0686221,17.5206154 C20.0686221,18.8052308 19.0181905,19.8567692 17.7349274,19.8567692 L15.1338221,19.8567692 C13.8505589,19.8567692 13.5431905,20.5990769 14.4514642,21.5083077 L17.3745379,24.4352308 C18.2828116,25.3436923 19.0243379,27.1375385 19.0243379,28.4229231 L19.0243379,31.4583077 C19.0243379,32.7436923 18.2828116,34.5383077 17.3745379,35.446 L14.1779063,38.6467692 C13.2704011,39.556 11.7858116,39.556 10.8775379,38.6467692 L10.1483063,37.916 C9.24003263,37.0083077 7.44807474,36.2644615 6.16558,36.2644615 L4.53499053,36.2644615 C3.25095895,36.2644615 2.20129579,37.3152308 2.20129579,38.6006154 L2.20129579,47.9344615 C2.20129579,49.2198462 1.15086421,50.2706154 -0.132398947,50.2706154 L-5.47062,50.2706154 C-6.75542,50.2706154 -7.80431474,49.2198462 -7.80431474,47.9344615 L-7.80431474,13.1421538 C-7.80431474,11.8567692 -6.76003053,10.9029231 -5.48137789,11.0206154 L2.59626421,11.7683077 Z"  stroke="#FFFFFF" stroke-width="1.687" mask="url(#mask-2)"></path>
                </g>
                <g >
                    <mask  fill="white">
                        <use xlink:href="#path-3"></use>
                    </mask>
                    <g ></g>
                    <path d="M45.0891032,0.501769231 C43.8043032,0.501769231 42.7554084,1.55253846 42.7554084,2.83792308 L42.7554084,20.5048462 C42.7554084,21.7902308 43.4054926,22.841 44.2008084,22.841 C44.9945874,22.841 45.6462084,21.7902308 45.6462084,20.5048462 L45.6462084,20.4879231 C45.6462084,19.2033077 46.2040821,18.7125385 46.8887453,19.3963846 C47.5711032,20.081 49.1801768,20.6417692 50.4649768,20.6417692 L55.9791663,20.6417692 C57.2624295,20.6417692 58.3128611,21.6925385 58.3128611,22.9779231 L58.3128611,24.3317692 C58.3128611,25.6163846 57.2624295,26.6679231 55.9791663,26.6679231 L45.0891032,26.6679231 C43.8043032,26.6679231 42.7554084,27.7186923 42.7554084,29.0040769 L42.7554084,37.8286923 C42.7554084,39.1140769 43.6091242,40.7756154 44.6541768,41.5233077 L48.6353663,44.371 C49.6804189,45.1179231 50.5341347,46.7802308 50.5341347,48.0656154 L50.5341347,63.8325385 C50.5341347,65.1179231 51.5845663,66.1686923 52.8678295,66.1686923 L68.2931137,66.1686923 C69.5779137,66.1686923 70.6268084,65.1179231 70.6268084,63.8325385 L70.6268084,2.84176923 C70.6268084,1.55638462 69.5779137,0.505615385 68.2931137,0.505615385 L45.0891032,0.501769231 Z" stroke="#FFFFFF" stroke-width="1.687" mask="url(#mask-4)"></path>
                </g>
                <g >
                    <mask  fill="white">
                        <use xlink:href="#path-5"></use>
                    </mask>
                    <g ></g>
                    <path d="M4.96461474,54.3915385 C4.18082526,53.3753846 4.58962526,52.5430769 5.87288842,52.5430769 L12.2269621,52.5430769 C13.5102253,52.5430769 15.3021832,53.2861538 16.2104568,54.1946154 L19.0682147,57.0546154 C19.97572,57.9638462 19.97572,59.4492308 19.0682147,60.3584615 L15.3559726,64.0730769 C14.4484674,64.9823077 13.0645411,64.8923077 12.2807516,63.8761538 L4.96461474,54.3915385 Z"  stroke="#FFFFFF" stroke-width="1.687" mask="url(#mask-6)"></path>
                </g>
                <g >
                    <mask  fill="white">
                        <use xlink:href="#path-7"></use>
                    </mask>
                    <g ></g>
                    <path d="M37.0671716,22.8410769 C38.0369189,22.8410769 38.8306979,23.8918462 38.8306979,25.1772308 L38.8306979,28.2026154 C38.8306979,29.488 38.0369189,30.5387692 37.0671716,30.5387692 C36.0974242,30.5387692 35.3036453,29.488 35.3036453,28.2026154 L35.3036453,25.1772308 C35.3036453,23.8918462 36.0974242,22.8410769 37.0671716,22.8410769 Z"  stroke="#FFFFFF" stroke-width="1.687" mask="url(#mask-8)"></path>
                </g>
                <g >
                    <mask  fill="white">
                        <use xlink:href="#path-9"></use>
                    </mask>
                    <g ></g>
                    <path d="M34.7318632,-1.36046154 C36.0166632,-1.36046154 37.0655579,-0.309692308 37.0655579,0.975692308 L37.0655579,5.13953846 C37.0655579,6.42492308 36.0166632,7.47569231 34.7318632,7.47569231 L22.4025474,7.47569231 C21.1177474,7.47569231 20.0688526,6.42492308 20.0688526,5.13953846 L20.0688526,0.975692308 C20.0688526,-0.309692308 21.1177474,-1.36046154 22.4025474,-1.36046154 L34.7318632,-1.36046154 Z"  stroke="#FFFFFF" stroke-width="1.687" mask="url(#mask-10)"></path>
                </g>
            </g>
        </g>
    </g>
</svg>