<svg xmlns="http://www.w3.org/2000/svg" width="2000" height="1000" display="block"><path stroke-linejoin="round" stroke-miterlimit="1" fill="#5e43b3" stroke="#5e43b3" d="M1001 1099l-515-3-248 3z"/><path stroke-linejoin="round" stroke-miterlimit="1" fill="#6344be" stroke="#6344be" d="M1685-101h-684l310 21z"/><path stroke-linejoin="round" stroke-miterlimit="1" fill="#6143b9" stroke="#6143b9" d="M2201-101h-516l180 66z"/><path stroke-linejoin="round" stroke-miterlimit="1" fill="#6c46d0" stroke="#6c46d0" d="M2201 499l-250-104 70 245z"/><path stroke-linejoin="round" stroke-miterlimit="1" fill="#6444c0" stroke="#6444c0" d="M2201 1099l-33-105-27 4z"/><path stroke-linejoin="round" stroke-miterlimit="1" fill="#6545c1" stroke="#6545c1" d="M2201 1099l-60-101-87 101z"/><path stroke-linejoin="round" stroke-miterlimit="1" fill="#6946ca" stroke="#6946ca" d="M2201 907l-37-116-207 77z"/><path stroke-linejoin="round" stroke-miterlimit="1" fill="#6946c9" stroke="#6946c9" d="M2201 907l-244-39 184 130z"/><path stroke-linejoin="round" stroke-miterlimit="1" fill="#6545c2" stroke="#6545c2" d="M2201 907l-60 91 27-4z"/><path stroke-linejoin="round" stroke-miterlimit="1" fill="#6444bf" stroke="#6444bf" d="M2201 907l-33 87 33 105z"/><path stroke-linejoin="round" stroke-miterlimit="1" fill="#6645c4" stroke="#6645c4" d="M2201 788l-37 3 37 116z"/><path stroke-linejoin="round" stroke-miterlimit="1" fill="#6443be" stroke="#6443be" d="M2201 234l-145-95 35 95z"/><path stroke-linejoin="round" stroke-miterlimit="1" fill="#6343bd" stroke="#6343bd" d="M2201 234l-144-116-1 21z"/><path stroke-linejoin="round" stroke-miterlimit="1" fill="#6444bf" stroke="#6444bf" d="M2201 234h-110l83 121z"/><path stroke-linejoin="round" stroke-miterlimit="1" fill="#6644c3" stroke="#6644c3" d="M2201 453l-27-98-127-34z"/><path stroke-linejoin="round" stroke-miterlimit="1" fill="#6845c8" stroke="#6845c8" d="M2201 453l-250-58 250 104z"/><path stroke-linejoin="round" stroke-miterlimit="1" fill="#6945ca" stroke="#6945ca" d="M2201 453l-154-132-96 74z"/><path stroke-linejoin="round" stroke-miterlimit="1" fill="#6444bf" stroke="#6444bf" d="M2201 453V234l-27 121z"/><path stroke-linejoin="round" stroke-miterlimit="1" fill="#6945c8" stroke="#6945c8" d="M2201 595v-96l-180 141z"/><path stroke-linejoin="round" stroke-miterlimit="1" fill="#6a45ca" stroke="#6a45ca" d="M2201 595l-180 45 143 151z"/><path stroke-linejoin="round" stroke-miterlimit="1" fill="#6745c5" stroke="#6745c5" d="M2201 595l-37 196 37-3z"/><path stroke-linejoin="round" stroke-miterlimit="1" fill="#5f42b5" stroke="#5f42b5" d="M2201-50v-51l-336 66z"/><path stroke-linejoin="round" stroke-miterlimit="1" fill="#6143b9" stroke="#6143b9" d="M2201-50l-336 15 192 153z"/><path stroke-linejoin="round" stroke-miterlimit="1" fill="#6042b6" stroke="#6042b6" d="M2201 18v-68l-144 168z"/><path stroke-linejoin="round" stroke-miterlimit="1" fill="#6143b9" stroke="#6143b9" d="M2201 18l-144 100 144 116z"/><path stroke-linejoin="round" stroke-miterlimit="1" fill="#6644c3" stroke="#6644c3" d="M2174 355l-83-121-44 87z"/><path stroke-linejoin="round" stroke-miterlimit="1" fill="#6e47d3" stroke="#6e47d3" d="M2164 791l-143-151-64 228z"/><path stroke-linejoin="round" stroke-miterlimit="1" fill="#6846c7" stroke="#6846c7" d="M2141 998l-183 43 96 58z"/><path stroke-linejoin="round" stroke-miterlimit="1" fill="#6c47ce" stroke="#6c47ce" d="M2141 998l-184-130 1 173z"/><path stroke-linejoin="round" stroke-miterlimit="1" fill="#7247db" stroke="#7247db" d="M2021 640l-70-245 25 244z"/><path stroke-linejoin="round" stroke-miterlimit="1" fill="#7348dd" stroke="#7348dd" d="M2021 640l-45-1-19 229z"/><path stroke-linejoin="round" stroke-miterlimit="1" fill="#6b47cd" stroke="#6b47cd" d="M2054 1099l-99-47-117 47z"/><path stroke-linejoin="round" stroke-miterlimit="1" fill="#6644c2" stroke="#6644c2" d="M2091 234l-35-95-9 182z"/><path stroke-linejoin="round" stroke-miterlimit="1" fill="#6f46d6" stroke="#6f46d6" d="M2047 321l-280 8 184 66z"/><path stroke-linejoin="round" stroke-miterlimit="1" fill="#6a46cb" stroke="#6a46cb" d="M2054 1099l-96-58-3 11z"/><path stroke-linejoin="round" stroke-miterlimit="1" fill="#6b45cc" stroke="#6b45cc" d="M2056 139l-289 190 280-8z"/><path stroke-linejoin="round" stroke-miterlimit="1" fill="#6945c9" stroke="#6945c9" d="M2056 139L1844 22l-77 307z"/><path stroke-linejoin="round" stroke-miterlimit="1" fill="#6444c0" stroke="#6444c0" d="M2057 118l-213-96 212 117z"/><path stroke-linejoin="round" stroke-miterlimit="1" fill="#6444bf" stroke="#6444bf" d="M2057 118L1865-35l-21 57z"/><path stroke-linejoin="round" stroke-miterlimit="1" fill="#6f48d6" stroke="#6f48d6" d="M1958 1041l-1-173-53 151z"/><path stroke-linejoin="round" stroke-miterlimit="1" fill="#6d46d1" stroke="#6d46d1" d="M1844 22l-148 152 71 155z"/><path stroke-linejoin="round" stroke-miterlimit="1" fill="#7949e8" stroke="#7949e8" d="M1976 639l-25-244-199 130z"/><path stroke-linejoin="round" stroke-miterlimit="1" fill="#7649e4" stroke="#7649e4" d="M1976 639l-118 221 99 8z"/><path stroke-linejoin="round" stroke-miterlimit="1" fill="#774ae6" stroke="#774ae6" d="M1957 868l-99-8 7 4z"/><path stroke-linejoin="round" stroke-miterlimit="1" fill="#7449df" stroke="#7449df" d="M1957 868l-92-4 39 155z"/><path stroke-linejoin="round" stroke-miterlimit="1" fill="#804bf7" stroke="#804bf7" d="M1976 639l-224-114 106 335z"/><path stroke-linejoin="round" stroke-miterlimit="1" fill="#6e48d4" stroke="#6e48d4" d="M1955 1052l-51-33-66 80z"/><path stroke-linejoin="round" stroke-miterlimit="1" fill="#6d47d2" stroke="#6d47d2" d="M1958 1041l-54-22 51 33z"/><path stroke-linejoin="round" stroke-miterlimit="1" fill="#7a49ea" stroke="#7a49ea" d="M1951 395l-184-66-15 196z"/><path stroke-linejoin="round" stroke-miterlimit="1" fill="#6b45cc" stroke="#6b45cc" d="M1844 22l-155 118 7 34z"/><path stroke-linejoin="round" stroke-miterlimit="1" fill="#9d53ff" stroke="#9d53ff" d="M1858 860l-106-335-218 154z"/><path stroke-linejoin="round" stroke-miterlimit="1" fill="#7d4cf2" stroke="#7d4cf2" d="M1865 864l-7-4-140 109z"/><path stroke-linejoin="round" stroke-miterlimit="1" fill="#784be8" stroke="#784be8" d="M1904 1019l-39-155-147 105z"/><path stroke-linejoin="round" stroke-miterlimit="1" fill="#744adf" stroke="#744adf" d="M1904 1019l-186-50 120 130z"/><path stroke-linejoin="round" stroke-miterlimit="1" fill="#7e4ff5" stroke="#7e4ff5" d="M1838 1099l-415-105-87 105z"/><path stroke-linejoin="round" stroke-miterlimit="1" fill="#9253ff" stroke="#9253ff" d="M1858 860l-324-181 184 290z"/><path stroke-linejoin="round" stroke-miterlimit="1" fill="#6443bf" stroke="#6443bf" d="M1865-35l-180-66 159 123z"/><path stroke-linejoin="round" stroke-miterlimit="1" fill="#7e4ef5" stroke="#7e4ef5" d="M1838 1099l-120-130-295 25z"/><path stroke-linejoin="round" stroke-miterlimit="1" fill="#814bf9" stroke="#814bf9" d="M1767 329l-90 37 75 159z"/><path stroke-linejoin="round" stroke-miterlimit="1" fill="#6744c4" stroke="#6744c4" d="M1844 22l-159-123 4 241z"/><path stroke-linejoin="round" stroke-miterlimit="1" fill="#af63ff" stroke="#af63ff" d="M1718 969l-184-290-108 195z"/><path stroke-linejoin="round" stroke-miterlimit="1" fill="#874cff" stroke="#874cff" d="M1752 525l-75-159-31 10z"/><path stroke-linejoin="round" stroke-miterlimit="1" fill="#7748e5" stroke="#7748e5" d="M1767 329l-71-155-19 192z"/><path stroke-linejoin="round" stroke-miterlimit="1" fill="#924eff" stroke="#924eff" d="M1752 525l-106-149-111 87z"/><path stroke-linejoin="round" stroke-miterlimit="1" fill="#b255ff" stroke="#b255ff" d="M1752 525l-217-62-1 216z"/><path stroke-linejoin="round" stroke-miterlimit="1" fill="#e282ff" stroke="#e282ff" d="M1534 679l-75 48-33 147z"/><path stroke-linejoin="round" stroke-miterlimit="1" fill="#6945c8" stroke="#6945c8" d="M1689 140l-4-241-235 153z"/><path stroke-linejoin="round" stroke-miterlimit="1" fill="#7b49ec" stroke="#7b49ec" d="M1696 174l-50 202 31-10z"/><path stroke-linejoin="round" stroke-miterlimit="1" fill="#7b49ed" stroke="#7b49ed" d="M1696 174l-190 143 140 59z"/><path stroke-linejoin="round" stroke-miterlimit="1" fill="#9359ff" stroke="#9359ff" d="M1718 969l-292-95-3 120z"/><path stroke-linejoin="round" stroke-miterlimit="1" fill="#7347de" stroke="#7347de" d="M1696 174l-7-34-183 177z"/><path stroke-linejoin="round" stroke-miterlimit="1" fill="#7347dd" stroke="#7347dd" d="M1689 140l-283-24 100 201z"/><path stroke-linejoin="round" stroke-miterlimit="1" fill="#6d46d1" stroke="#6d46d1" d="M1689 140l-239-88-44 64z"/><path stroke-linejoin="round" stroke-miterlimit="1" fill="#6644c3" stroke="#6644c3" d="M1685-101l-374 21 139 132z"/><path stroke-linejoin="round" stroke-miterlimit="1" fill="#8b4dff" stroke="#8b4dff" d="M1646 376l-140-59 29 146z"/><path stroke-linejoin="round" stroke-miterlimit="1" fill="#7648e2" stroke="#7648e2" d="M1506 317l-100-201-40 122z"/><path stroke-linejoin="round" stroke-miterlimit="1" fill="#e175ff" stroke="#e175ff" d="M1534 679l-238-35 163 83z"/><path stroke-linejoin="round" stroke-miterlimit="1" fill="#9b52ff" stroke="#9b52ff" d="M1535 463l-104-126-160 251z"/><path stroke-linejoin="round" stroke-miterlimit="1" fill="#d261ff" stroke="#d261ff" d="M1535 463l-239 181 238 35z"/><path stroke-linejoin="round" stroke-miterlimit="1" fill="#ad59ff" stroke="#ad59ff" d="M1535 463l-264 125 25 56z"/><path stroke-linejoin="round" stroke-miterlimit="1" fill="#8a4dff" stroke="#8a4dff" d="M1535 463l-29-146-75 20z"/><path stroke-linejoin="round" stroke-miterlimit="1" fill="#7e4af2" stroke="#7e4af2" d="M1506 317l-140-79 65 99z"/><path stroke-linejoin="round" stroke-miterlimit="1" fill="#884eff" stroke="#884eff" d="M1431 337l-246 37 86 214z"/><path stroke-linejoin="round" stroke-miterlimit="1" fill="#6845c7" stroke="#6845c7" d="M1450 52L1311-80l1 176z"/><path stroke-linejoin="round" stroke-miterlimit="1" fill="#c073ff" stroke="#c073ff" d="M1459 727l-204 4 171 143z"/><path stroke-linejoin="round" stroke-miterlimit="1" fill="#b566ff" stroke="#b566ff" d="M1459 727l-163-83-41 87z"/><path stroke-linejoin="round" stroke-miterlimit="1" fill="#8f58ff" stroke="#8f58ff" d="M1426 874l-104 109 101 11z"/><path stroke-linejoin="round" stroke-miterlimit="1" fill="#9f60ff" stroke="#9f60ff" d="M1426 874l-171-143-21 75z"/><path stroke-linejoin="round" stroke-miterlimit="1" fill="#6c46ce" stroke="#6c46ce" d="M1450 52l-138 44 94 20z"/><path stroke-linejoin="round" stroke-miterlimit="1" fill="#8151fb" stroke="#8151fb" d="M1423 994l-101-11 14 116z"/><path stroke-linejoin="round" stroke-miterlimit="1" fill="#7c4aef" stroke="#7c4aef" d="M1431 337l-65-99-181 136z"/><path stroke-linejoin="round" stroke-miterlimit="1" fill="#955bff" stroke="#955bff" d="M1426 874l-192-68 88 177z"/><path stroke-linejoin="round" stroke-miterlimit="1" fill="#6f47d5" stroke="#6f47d5" d="M1406 116l-94-20 54 142z"/><path stroke-linejoin="round" stroke-miterlimit="1" fill="#6e47d3" stroke="#6e47d3" d="M1366 238l-54-142-184 82z"/><path stroke-linejoin="round" stroke-miterlimit="1" fill="#7348dc" stroke="#7348dc" d="M1366 238l-238-60 57 196z"/><path stroke-linejoin="round" stroke-miterlimit="1" fill="#704ad7" stroke="#704ad7" d="M1228 1008l-168 19-59 72z"/><path stroke-linejoin="round" stroke-miterlimit="1" fill="#6745c5" stroke="#6745c5" d="M1312 96l-1-176-277 177z"/><path stroke-linejoin="round" stroke-miterlimit="1" fill="#8553ff" stroke="#8553ff" d="M1322 983l-88-177-6 202z"/><path stroke-linejoin="round" stroke-miterlimit="1" fill="#7c4ff2" stroke="#7c4ff2" d="M1336 1099l-14-116-94 25z"/><path stroke-linejoin="round" stroke-miterlimit="1" fill="#734bdf" stroke="#734bdf" d="M1336 1099l-108-91-227 91z"/><path stroke-linejoin="round" stroke-miterlimit="1" fill="#6945c9" stroke="#6945c9" d="M1312 96l-278 1 94 81z"/><path stroke-linejoin="round" stroke-miterlimit="1" fill="#6344bd" stroke="#6344bd" d="M1311-80l-310-21 33 198z"/><path stroke-linejoin="round" stroke-miterlimit="1" fill="#9958ff" stroke="#9958ff" d="M1296 644l-25-56-63 136z"/><path stroke-linejoin="round" stroke-miterlimit="1" fill="#9859ff" stroke="#9859ff" d="M1296 644l-88 80 47 7z"/><path stroke-linejoin="round" stroke-miterlimit="1" fill="#7148da" stroke="#7148da" d="M1185 374l-136-1-82 89z"/><path stroke-linejoin="round" stroke-miterlimit="1" fill="#7b4eee" stroke="#7b4eee" d="M1234 806l-174 221 168-19z"/><path stroke-linejoin="round" stroke-miterlimit="1" fill="#7b4bed" stroke="#7b4bed" d="M1271 588l-86-214-218 88z"/><path stroke-linejoin="round" stroke-miterlimit="1" fill="#7d4df1" stroke="#7d4df1" d="M1271 588L967 462l136 236z"/><path stroke-linejoin="round" stroke-miterlimit="1" fill="#8852ff" stroke="#8852ff" d="M1271 588l-168 110 55 15z"/><path stroke-linejoin="round" stroke-miterlimit="1" fill="#8e54ff" stroke="#8e54ff" d="M1271 588l-113 125 50 11z"/><path stroke-linejoin="round" stroke-miterlimit="1" fill="#764ce5" stroke="#764ce5" d="M1104 754l-58 17 14 256z"/><path stroke-linejoin="round" stroke-miterlimit="1" fill="#7c4ef0" stroke="#7c4ef0" d="M1234 806l-130-52-44 273z"/><path stroke-linejoin="round" stroke-miterlimit="1" fill="#9157ff" stroke="#9157ff" d="M1255 731l-47-7 26 82z"/><path stroke-linejoin="round" stroke-miterlimit="1" fill="#6144ba" stroke="#6144ba" d="M1001 1099l-311-69-204 66z"/><path stroke-linejoin="round" stroke-miterlimit="1" fill="#8451ff" stroke="#8451ff" d="M1208 724l-50-11-54 41z"/><path stroke-linejoin="round" stroke-miterlimit="1" fill="#8753ff" stroke="#8753ff" d="M1234 806l-26-82-104 30z"/><path stroke-linejoin="round" stroke-miterlimit="1" fill="#6d47d2" stroke="#6d47d2" d="M1185 374l-57-196-95 43z"/><path stroke-linejoin="round" stroke-miterlimit="1" fill="#6f47d6" stroke="#6f47d6" d="M1185 374l-152-153 16 152z"/><path stroke-linejoin="round" stroke-miterlimit="1" fill="#7f4ff7" stroke="#7f4ff7" d="M1158 713l-55-15 1 56z"/><path stroke-linejoin="round" stroke-miterlimit="1" fill="#704ad9" stroke="#704ad9" d="M1060 1027l-14-256-34 269z"/><path stroke-linejoin="round" stroke-miterlimit="1" fill="#7049d8" stroke="#7049d8" d="M1103 698L967 462l-80 33z"/><path stroke-linejoin="round" stroke-miterlimit="1" fill="#6845c7" stroke="#6845c7" d="M1128 178l-94-81-1 124z"/><path stroke-linejoin="round" stroke-miterlimit="1" fill="#6f49d5" stroke="#6f49d5" d="M1046 771l-69 272 35-3z"/><path stroke-linejoin="round" stroke-miterlimit="1" fill="#6c48d1" stroke="#6c48d1" d="M1046 771L841 923l136 120z"/><path stroke-linejoin="round" stroke-miterlimit="1" fill="#6c48cf" stroke="#6c48cf" d="M1060 1027l-41 14-18 58z"/><path stroke-linejoin="round" stroke-miterlimit="1" fill="#724adc" stroke="#724adc" d="M1103 698l-281-87 224 160z"/><path stroke-linejoin="round" stroke-miterlimit="1" fill="#6e48d3" stroke="#6e48d3" d="M1103 698L887 495l-65 116z"/><path stroke-linejoin="round" stroke-miterlimit="1" fill="#7a4ded" stroke="#7a4ded" d="M1104 754l-1-56-57 73z"/><path stroke-linejoin="round" stroke-miterlimit="1" fill="#6143b9" stroke="#6143b9" d="M1034 97l-33-198h-76z"/><path stroke-linejoin="round" stroke-miterlimit="1" fill="#6243ba" stroke="#6243ba" d="M1034 97L925-101l-25 204z"/><path stroke-linejoin="round" stroke-miterlimit="1" fill="#6645c4" stroke="#6645c4" d="M1034 97L921 206l112 15z"/><path stroke-linejoin="round" stroke-miterlimit="1" fill="#6946ca" stroke="#6946ca" d="M1049 373l-16-152-112-15z"/><path stroke-linejoin="round" stroke-miterlimit="1" fill="#6d48d1" stroke="#6d48d1" d="M1060 1027l-48 13 7 1z"/><path stroke-linejoin="round" stroke-miterlimit="1" fill="#6b46cd" stroke="#6b46cd" d="M1049 373L921 206l46 256z"/><path stroke-linejoin="round" stroke-miterlimit="1" fill="#6444bf" stroke="#6444bf" d="M1034 97l-134 6 21 103z"/><path stroke-linejoin="round" stroke-miterlimit="1" fill="#6c48cf" stroke="#6c48cf" d="M1046 771L822 611l19 312z"/><path stroke-linejoin="round" stroke-miterlimit="1" fill="#6b48ce" stroke="#6b48ce" d="M1019 1041l-7-1-11 59z"/><path stroke-linejoin="round" stroke-miterlimit="1" fill="#6745c4" stroke="#6745c4" d="M967 462l-46-256-80-4z"/><path stroke-linejoin="round" stroke-miterlimit="1" fill="#6846c8" stroke="#6846c8" d="M967 462L841 202l46 293z"/><path stroke-linejoin="round" stroke-miterlimit="1" fill="#6a48cc" stroke="#6a48cc" d="M1012 1040l-35 3 24 56z"/><path stroke-linejoin="round" stroke-miterlimit="1" fill="#6646c4" stroke="#6646c4" d="M1001 1099l-24-56-287-13z"/><path stroke-linejoin="round" stroke-miterlimit="1" fill="#6646c3" stroke="#6646c3" d="M977 1043L841 923l-151 107z"/><path stroke-linejoin="round" stroke-miterlimit="1" fill="#5f43b5" stroke="#5f43b5" d="M925-101H788l112 204z"/><path stroke-linejoin="round" stroke-miterlimit="1" fill="#6645c3" stroke="#6645c3" d="M841 923l-19-312-144 315z"/><path stroke-linejoin="round" stroke-miterlimit="1" fill="#6444be" stroke="#6444be" d="M887 495l-46-293-273 295z"/><path stroke-linejoin="round" stroke-miterlimit="1" fill="#6043b7" stroke="#6043b7" d="M900 103L788-101l65 217z"/><path stroke-linejoin="round" stroke-miterlimit="1" fill="#6344bd" stroke="#6344bd" d="M921 206l-21-103-47 13zM921 206l-68-90-12 86zM822 611L576 789l102 137z"/><path stroke-linejoin="round" stroke-miterlimit="1" fill="#6143ba" stroke="#6143ba" d="M841 202l-59-36-214 331z"/><path stroke-linejoin="round" stroke-miterlimit="1" fill="#5640a4" stroke="#5640a4" d="M419-101H-47l158 35z"/><path stroke-linejoin="round" stroke-miterlimit="1" fill="#5e42b3" stroke="#5e42b3" d="M853 116l-65-217h-27z"/><path stroke-linejoin="round" stroke-miterlimit="1" fill="#6545c1" stroke="#6545c1" d="M887 495l-319 2 254 114z"/><path stroke-linejoin="round" stroke-miterlimit="1" fill="#6043b7" stroke="#6043b7" d="M782 166L556 488l12 9z"/><path stroke-linejoin="round" stroke-miterlimit="1" fill="#6345bd" stroke="#6345bd" d="M841 923l-163 3 12 104z"/><path stroke-linejoin="round" stroke-miterlimit="1" fill="#5f43b6" stroke="#5f43b6" d="M853 116l-92-217 21 267z"/><path stroke-linejoin="round" stroke-miterlimit="1" fill="#6243ba" stroke="#6243ba" d="M853 116l-71 50 59 36z"/><path stroke-linejoin="round" stroke-miterlimit="1" fill="#6044b8" stroke="#6044b8" d="M678 926L576 789l5 41z"/><path stroke-linejoin="round" stroke-miterlimit="1" fill="#5e43b3" stroke="#5e43b3" d="M782 166l-328 2 102 320z"/><path stroke-linejoin="round" stroke-miterlimit="1" fill="#6244bb" stroke="#6244bb" d="M822 611L568 497l8 292z"/><path stroke-linejoin="round" stroke-miterlimit="1" fill="#5b41ad" stroke="#5b41ad" d="M761-101L436-70l18 238z"/><path stroke-linejoin="round" stroke-miterlimit="1" fill="#5d42b2" stroke="#5d42b2" d="M782 166l-21-267-307 269z"/><path stroke-linejoin="round" stroke-miterlimit="1" fill="#5c42af" stroke="#5c42af" d="M556 488L454 168l-45 67z"/><path stroke-linejoin="round" stroke-miterlimit="1" fill="#5a41ab" stroke="#5a41ab" d="M761-101H419l17 31z"/><path stroke-linejoin="round" stroke-miterlimit="1" fill="#5c42b0" stroke="#5c42b0" d="M556 488L409 235l4 201z"/><path stroke-linejoin="round" stroke-miterlimit="1" fill="#6144b8" stroke="#6144b8" d="M678 926l-97-96 65 106z"/><path stroke-linejoin="round" stroke-miterlimit="1" fill="#5f43b6" stroke="#5f43b6" d="M690 1030l-44-94-128 96z"/><path stroke-linejoin="round" stroke-miterlimit="1" fill="#5e43b3" stroke="#5e43b3" d="M690 1030l-172 2-32 64z"/><path stroke-linejoin="round" stroke-miterlimit="1" fill="#6144b9" stroke="#6144b9" d="M690 1030l-12-104-32 10z"/><path stroke-linejoin="round" stroke-miterlimit="1" fill="#5e43b3" stroke="#5e43b3" d="M568 497l-141-6 90 315z"/><path stroke-linejoin="round" stroke-miterlimit="1" fill="#5f43b5" stroke="#5f43b5" d="M576 789l-8-292-51 309z"/><path stroke-linejoin="round" stroke-miterlimit="1" fill="#6043b6" stroke="#6043b6" d="M646 936l-65-106-29 27z"/><path stroke-linejoin="round" stroke-miterlimit="1" fill="#5f43b5" stroke="#5f43b5" d="M646 936l-94-79-34 175z"/><path stroke-linejoin="round" stroke-miterlimit="1" fill="#5d43b2" stroke="#5d43b2" d="M552 857l-93 62 59 113z"/><path stroke-linejoin="round" stroke-miterlimit="1" fill="#5e43b3" stroke="#5e43b3" d="M568 497l-12-9-129 3z"/><path stroke-linejoin="round" stroke-miterlimit="1" fill="#5f43b5" stroke="#5f43b5" d="M581 830l-5-41-59 17zM581 830l-64-24 35 51z"/><path stroke-linejoin="round" stroke-miterlimit="1" fill="#5d42b1" stroke="#5d42b1" d="M556 488l-143-52 14 55z"/><path stroke-linejoin="round" stroke-miterlimit="1" fill="#5b42ae" stroke="#5b42ae" d="M517 806l-90-315-274 165z"/><path stroke-linejoin="round" stroke-miterlimit="1" fill="#5e43b3" stroke="#5e43b3" d="M552 857l-46-18-47 80z"/><path stroke-linejoin="round" stroke-miterlimit="1" fill="#5e43b4" stroke="#5e43b4" d="M552 857l-35-51-11 33z"/><path stroke-linejoin="round" stroke-miterlimit="1" fill="#5a41ab" stroke="#5a41ab" d="M427 491l-126-20-148 185z"/><path stroke-linejoin="round" stroke-miterlimit="1" fill="#5941a9" stroke="#5941a9" d="M454 168L436-70 257 58z"/><path stroke-linejoin="round" stroke-miterlimit="1" fill="#5c42af" stroke="#5c42af" d="M517 806L153 656l353 183z"/><path stroke-linejoin="round" stroke-miterlimit="1" fill="#5d42b0" stroke="#5d42b0" d="M518 1032l-59-113 27 177z"/><path stroke-linejoin="round" stroke-miterlimit="1" fill="#5b42ae" stroke="#5b42ae" d="M506 839L153 656l306 263z"/><path stroke-linejoin="round" stroke-miterlimit="1" fill="#5941aa" stroke="#5941aa" d="M459 919L153 656 92 854z"/><path stroke-linejoin="round" stroke-miterlimit="1" fill="#5b42ad" stroke="#5b42ad" d="M486 1096l-27-177-221 180z"/><path stroke-linejoin="round" stroke-miterlimit="1" fill="#5941aa" stroke="#5941aa" d="M459 919L92 854l146 245zM301 471l-81 25-67 160z"/><path stroke-linejoin="round" stroke-miterlimit="1" fill="#5b42ad" stroke="#5b42ad" d="M413 436l-4-201-108 236z"/><path stroke-linejoin="round" stroke-miterlimit="1" fill="#5a41ab" stroke="#5a41ab" d="M454 168L257 58l152 177z"/><path stroke-linejoin="round" stroke-miterlimit="1" fill="#5941a8" stroke="#5941a8" d="M436-70l-17-31L257 58z"/><path stroke-linejoin="round" stroke-miterlimit="1" fill="#5941aa" stroke="#5941aa" d="M409 235l-271 15 163 221z"/><path stroke-linejoin="round" stroke-miterlimit="1" fill="#5b42ae" stroke="#5b42ae" d="M427 491l-14-55-112 35z"/><path stroke-linejoin="round" stroke-miterlimit="1" fill="#5840a6" stroke="#5840a6" d="M419-101L111-66 257 58z"/><path stroke-linejoin="round" stroke-miterlimit="1" fill="#5941a8" stroke="#5941a8" d="M409 235L257 58 138 250z"/><path stroke-linejoin="round" stroke-miterlimit="1" fill="#5841a7" stroke="#5841a7" d="M195 1099L92 854l4 200z"/><path stroke-linejoin="round" stroke-miterlimit="1" fill="#5841a8" stroke="#5841a8" d="M238 1099L92 854l103 245z"/><path stroke-linejoin="round" stroke-miterlimit="1" fill="#5740a6" stroke="#5740a6" d="M257 58L80 120l58 130z"/><path stroke-linejoin="round" stroke-miterlimit="1" fill="#5941a9" stroke="#5941a9" d="M301 471l-180-69 99 94z"/><path stroke-linejoin="round" stroke-miterlimit="1" fill="#5841a8" stroke="#5841a8" d="M301 471L138 250l-17 152z"/><path stroke-linejoin="round" stroke-miterlimit="1" fill="#5740a4" stroke="#5740a4" d="M156 1099l-69-37-262 37z"/><path stroke-linejoin="round" stroke-miterlimit="1" fill="#5841a8" stroke="#5841a8" d="M178 500l-43 32 18 124z"/><path stroke-linejoin="round" stroke-miterlimit="1" fill="#5841a7" stroke="#5841a7" d="M195 1099l-99-45 60 45z"/><path stroke-linejoin="round" stroke-miterlimit="1" fill="#5841a8" stroke="#5841a8" d="M220 496l-99-94 57 98z"/><path stroke-linejoin="round" stroke-miterlimit="1" fill="#5941a9" stroke="#5941a9" d="M220 496l-42 4-25 156z"/><path stroke-linejoin="round" stroke-miterlimit="1" fill="#5740a5" stroke="#5740a5" d="M257 58L111-66 80 120z"/><path stroke-linejoin="round" stroke-miterlimit="1" fill="#5741a6" stroke="#5741a6" d="M156 1099l-58-32-11-5zM153 656L-34 817l126 37zM156 1099l-60-45 2 13z"/><path stroke-linejoin="round" stroke-miterlimit="1" fill="#5841a7" stroke="#5841a7" d="M178 500l-57-98 14 130z"/><path stroke-linejoin="round" stroke-miterlimit="1" fill="#5740a5" stroke="#5740a5" d="M138 250L-79 383l200 19z"/><path stroke-linejoin="round" stroke-miterlimit="1" fill="#5841a6" stroke="#5841a6" d="M153 656l-18-124-182-86z"/><path stroke-linejoin="round" stroke-miterlimit="1" fill="#5640a4" stroke="#5640a4" d="M153 656L-47 446l-152 180z"/><path stroke-linejoin="round" stroke-miterlimit="1" fill="#5740a4" stroke="#5740a4" d="M153 656l-352-30 165 191z"/><path stroke-linejoin="round" stroke-miterlimit="1" fill="#5740a6" stroke="#5740a6" d="M135 532l-14-130-168 44z"/><path stroke-linejoin="round" stroke-miterlimit="1" fill="#5740a4" stroke="#5740a4" d="M138 250L80 120-79 383z"/><path stroke-linejoin="round" stroke-miterlimit="1" fill="#5740a5" stroke="#5740a5" d="M96 1054l-4-200-126-37z"/><path stroke-linejoin="round" stroke-miterlimit="1" fill="#5640a3" stroke="#5640a3" d="M111-66l-158-35L80 120z"/><path stroke-linejoin="round" stroke-miterlimit="1" fill="#5640a2" stroke="#5640a2" d="M-34 817l-165-191 2 59z"/><path stroke-linejoin="round" stroke-miterlimit="1" fill="#5740a5" stroke="#5740a5" d="M96 1054L-34 817l121 245z"/><path stroke-linejoin="round" stroke-miterlimit="1" fill="#5740a4" stroke="#5740a4" d="M121 402l-200-19 32 63z"/><path stroke-linejoin="round" stroke-miterlimit="1" fill="#5640a2" stroke="#5640a2" d="M80 120l-279 58 120 205z"/><path stroke-linejoin="round" stroke-miterlimit="1" fill="#5640a3" stroke="#5640a3" d="M87 1062L-34 817l-165 192z"/><path stroke-linejoin="round" stroke-miterlimit="1" fill="#5540a1" stroke="#5540a1" d="M80 120L-47-101-187-5z"/><path stroke-linejoin="round" stroke-miterlimit="1" fill="#5640a2" stroke="#5640a2" d="M87 1062l-286-53 6 31z"/><path stroke-linejoin="round" stroke-miterlimit="1" fill="#5741a6" stroke="#5741a6" d="M98 1067l-2-13-9 8z"/><path stroke-linejoin="round" stroke-miterlimit="1" fill="#493c88" stroke="#493c88" d="M80 120l-279 58z"/><path stroke-linejoin="round" stroke-miterlimit="1" fill="#5640a2" stroke="#5640a2" d="M87 1062l-280-22 18 59z"/><path stroke-linejoin="round" stroke-miterlimit="1" fill="#5540a2" stroke="#5540a2" d="M-47 446l-152 103v77z"/><path stroke-linejoin="round" stroke-miterlimit="1" fill="#5540a1" stroke="#5540a1" d="M80 120L-187-5l-12 183zM-79 383l-120-205v149z"/><path stroke-linejoin="round" stroke-miterlimit="1" fill="#5540a0" stroke="#5540a0" d="M-47-101h-88l-52 96z"/><path stroke-linejoin="round" stroke-miterlimit="1" fill="#5540a2" stroke="#5540a2" d="M-47 446l-152 53v50z"/><path stroke-linejoin="round" stroke-miterlimit="1" fill="#5640a2" stroke="#5640a2" d="M-34 817l-163-132-2 324zM-47 446l-32-63-120 116z"/><path stroke-linejoin="round" stroke-miterlimit="1" fill="#5540a2" stroke="#5540a2" d="M-79 383l-120-56v172z"/><path stroke-linejoin="round" stroke-miterlimit="1" fill="#5540a1" stroke="#5540a1" d="M-175 1099l-18-59-6 10z"/><path stroke-linejoin="round" stroke-miterlimit="1" fill="#543f9f" stroke="#543f9f" d="M-135-101h-64l12 96z"/><path stroke-linejoin="round" stroke-miterlimit="1" fill="#5540a1" stroke="#5540a1" d="M-175 1099l-24-49v49z"/><path stroke-linejoin="round" stroke-miterlimit="1" fill="#543fa0" stroke="#543fa0" d="M-187-5l-12-96v279z"/><path stroke-linejoin="round" stroke-miterlimit="1" fill="#5540a1" stroke="#5540a1" d="M-193 1040l-6-31v41zM-197 685l-2-59v383z"/></svg>