<svg width="98" height="139" viewBox="0 0 98 139" xmlns="http://www.w3.org/2000/svg" xmlns:xlink="http://www.w3.org/1999/xlink"><title>Group 27</title><defs><radialGradient cx="14.499%" cy="5.257%" fx="14.499%" fy="5.257%" r="113.015%" gradientTransform="matrix(.39293 .65303 -.91957 .27904 .136 -.057)" id="b"><stop stop-color="#7AC6B6" offset="0%"/><stop stop-color="#525E9B" offset="100%"/></radialGradient><path d="M40.28 121H58c.09 0 .18.006.266.018L61.391 114H37.164l3.117 7zm-1.03.145L36.07 114H36C25 95 0 72.596 0 49 0 21.938 21.938 0 49 0s49 21.938 49 49c0 23.566-21.596 45.592-34.763 63.313l-4.044 9.082c.49.364.807.948.807 1.605v13a2 2 0 0 1-2 2H40a2 2 0 0 1-2-2v-13a2 2 0 0 1 1.25-1.855z" id="a"/></defs><g transform="translate(0 .5)" fill="none" fill-rule="evenodd"><mask id="c" fill="#fff"><use xlink:href="#a"/></mask><use fill="url(#b)" xlink:href="#a"/><path d="M45 0c-5.333 23.454-8 40.787-8 52 0 11.213 3.333 31.88 10 62h-4C25 90.333 16 69.667 16 52c0-17.231 10.682-35.403 24-52 .225-.28 1.891-.28 5 0z" fill-opacity=".063" fill="#000" mask="url(#c)"/><path d="M55 .096c5.333 23.453 8 40.787 8 52 0 11.213-3.333 31.88-10 62h4c18-23.667 27-44.334 27-62 0-17.231-10.682-35.403-24-52-.225-.28-1.891-.28-5 0z" fill-opacity=".09" fill="#000" mask="url(#c)"/></g></svg>