<svg width="1440" height="147" viewBox="0 0 1440 147" xmlns="http://www.w3.org/2000/svg" xmlns:xlink="http://www.w3.org/1999/xlink"><title>earthTop</title><defs><path id="a" d="M0 0h1440v148H0z"/><linearGradient x1="31.49%" y1="21.713%" x2="22.182%" y2="8.436%" id="c"><stop stop-color="#5E9FC7" offset="0%"/><stop stop-color="#3B79AA" offset="100%"/></linearGradient><path d="M1350.841 209.7s200.13-62.54 231.342-68.525c25.954-4.976 345.186-114.234 397.83-65.475 11.425 10.583 32.182 150.743 42.083 291.625 8.025 114.191 226.5-86.324 209.51-39.804-37.953 103.913-303.794 153.44-311.796 25.44-2.951-47.199-19.935 72.795-3.815 29.74 16.12-43.056 18.222-131.115 14.004-130-53.014 14-36.01-33-79.021-33-43.012 0-71.87 40.033-68.019 58 6.002 28-45.597 55.276-46.013 83-.196 13.088-8.002 51.519-8.002 97 0 48-60.323 157.335-115.031 144-54.708-13.337-73.02-48-81.022-81-9.439-38.924 4.18-92.514-23.007-107-57.606-30.698-142.287 106.15-188.05 26-21.785-38.154 61.472-98.056 87.023-151 25.55-52.946-58.016-79-58.016-79z" id="e"/><filter x="-.5%" y="-.9%" width="102.2%" height="103.7%" filterUnits="objectBoundingBox" id="d"><feOffset dx="10" dy="10" in="SourceAlpha" result="shadowOffsetOuter1"/><feColorMatrix values="0 0 0 0 0 0 0 0 0 0 0 0 0 0 0 0 0 0 0.36645154 0" in="shadowOffsetOuter1"/></filter><path d="M642.89 744.672c29.784 9.452 41.5 5.246 54.014 29 12.514 23.753 46.652 44.354 29.074 73.886-13.046 21.918-40.395-25.828-78.346-32-37.95-6.172-148.328-1.692-132.778-33.915 14.413-29.866 66.26-60.503 92.025-69.971 25.766-9.47 8.541 24.282 36.01 33z" id="g"/><filter x="-2.3%" y="-3.5%" width="109.2%" height="114%" filterUnits="objectBoundingBox" id="f"><feOffset dx="10" dy="10" in="SourceAlpha" result="shadowOffsetOuter1"/><feColorMatrix values="0 0 0 0 0 0 0 0 0 0 0 0 0 0 0 0 0 0 0.36645154 0" in="shadowOffsetOuter1"/></filter><path d="M408.034 1059.416c21.895 6.729 19.47 59.493 76.19 27.83 20.232-11.293 49.605-98.556 88.88-131.601 39.273-33.045 153.78-71.276 173.825-54.707 20.661 17.08-9.247 53.314 7.002 82.462 16.249 29.148 89.214 61.99 69.889 104.18-33.804 73.798-78.274 171.457-73.162 185.897 4.163 11.76-174.189 68.13-152.554 95.902 21.635 27.773 7.135 95.002-38.592 105.845-19.81 4.698-50.7-24.827-103.468-37.283-10.871-2.566-21.935-4.397-32.719-5.957-41.562-6.01-78.96-7.99-85.088-32.462-5.007-19.995-19.764-85.936-24.565-154.944-4.802-69.007 2.114-117.037-2.034-138.845-9.22-48.467 35.612-64.997 96.396-46.317z" id="i"/><filter x="-1%" y="-.9%" width="103.9%" height="103.5%" filterUnits="objectBoundingBox" id="h"><feOffset dx="10" dy="10" in="SourceAlpha" result="shadowOffsetOuter1"/><feColorMatrix values="0 0 0 0 0 0 0 0 0 0 0 0 0 0 0 0 0 0 0.36645154 0" in="shadowOffsetOuter1"/></filter><path d="M917.68 527.504c-26.538 40.556 72.02 67.986 123.125-38.603 51.105-106.59 50.775-121.008 92.552-150.26 26.367-18.463 92.407-46.568 86.523-60.584-3.439-8.191-142.004 48.054-275.076 132.95-133.07 84.897-242.905 177.963-235.12 192.545 3.039 5.694 72.332 4.774 99.208-29.173 49.882-63.006 124.305-70.59 108.787-46.875z" id="k"/><filter x="-1%" y="-1.5%" width="103.9%" height="106.1%" filterUnits="objectBoundingBox" id="j"><feOffset dx="10" dy="10" in="SourceAlpha" result="shadowOffsetOuter1"/><feColorMatrix values="0 0 0 0 0 0 0 0 0 0 0 0 0 0 0 0 0 0 0.36645154 0" in="shadowOffsetOuter1"/></filter></defs><g transform="translate(0 -1)" fill="none" fill-rule="evenodd"><mask id="b" fill="#fff"><use xlink:href="#a"/></mask><use fill-opacity="0" fill="#D8D8D8" xlink:href="#a"/><g mask="url(#b)"><path d="M1942.03 3789.468c1011.786 0 1832-819.99 1832-1831.5s-820.214-1831.5-1832-1831.5c-369.772 0-713.957 109.522-1001.869 297.887-499.884 327.048-830.13 891.775-830.13 1533.613 0 1011.51 820.213 1831.5 1832 1831.5z" fill="url(#c)" transform="rotate(35 1501.133 -82.864)"/><g transform="rotate(35 1501.133 -82.864)"><use fill="#000" filter="url(#d)" xlink:href="#e"/><use fill="#58A294" xlink:href="#e"/></g><g transform="rotate(21 2235.601 -457.479)"><use fill="#000" filter="url(#f)" xlink:href="#g"/><use fill="#58A294" xlink:href="#g"/></g><g transform="rotate(68 855.644 389.526)"><use fill="#000" filter="url(#h)" xlink:href="#i"/><use fill="#58A294" xlink:href="#i"/></g><g transform="rotate(34 1521.109 -92.983)"><use fill="#000" filter="url(#j)" xlink:href="#k"/><use fill="#58A294" xlink:href="#k"/></g></g></g></svg>