<svg width="172" height="112" viewBox="0 0 172 112" xmlns="http://www.w3.org/2000/svg"><title>food truck</title><g fill="none" fill-rule="evenodd"><path fill="#49535F" d="M5 21.286h151v77.143H5z"/><path fill="#2D333B" d="M156 21.571L171.443 1v78.857L156 98.714z"/><path fill="#626F80" d="M20.443.714l151 .715L156 22 5 21.286z"/><ellipse fill="#2B2B2B" cx="34.869" cy="98.857" rx="12.869" ry="12.857"/><ellipse fill="#2B2B2B" cx="125.869" cy="98.857" rx="12.869" ry="12.857"/><ellipse fill="#FFF" cx="126.006" cy="99" rx="6.006" ry="6"/><ellipse fill="#FFF" cx="35.006" cy="99" rx="6.006" ry="6"/><path fill="#F8CA23" d="M5 50l151 16.26V84L5 67.74z"/><path fill="#8CC0FD" d="M109 43h30v20h-30zm-89 0h30v20H20z"/><path d="M.014 38.455C.247 42.109 3.267 45 6.958 45c3.548 0 6.475-2.67 6.904-6.123C14.292 42.33 17.22 45 20.767 45s6.475-2.67 6.904-6.123C28.1 42.33 31.027 45 34.575 45s6.475-2.67 6.904-6.123C41.91 42.33 44.836 45 48.383 45c3.548 0 6.476-2.67 6.904-6.123.43 3.452 3.357 6.123 6.905 6.123 3.547 0 6.475-2.67 6.904-6.123C69.525 42.33 72.452 45 76 45s6.475-2.67 6.904-6.123C83.334 42.33 86.261 45 89.808 45c3.548 0 6.476-2.67 6.905-6.123.428 3.452 3.356 6.123 6.904 6.123 3.547 0 6.475-2.67 6.904-6.123.429 3.452 3.356 6.123 6.904 6.123s6.475-2.67 6.904-6.123c.43 3.452 3.357 6.123 6.904 6.123 3.548 0 6.476-2.67 6.905-6.123.429 3.452 3.356 6.123 6.904 6.123 3.69 0 6.71-2.891 6.944-6.545H152V27H0v11.455h.014z" fill="#D6AE1E"/><path fill="#F8CA23" d="M20.284 1H172l-20.284 26H0z"/><path fill="#BD9A1A" d="M171.5 47L156 66.26V84l15.5-19.26z"/></g></svg>