<svg viewBox="0 0 1440 675" xmlns="http://www.w3.org/2000/svg"><title>Group 49</title><defs><linearGradient x1="50%" y1="0%" x2="50%" y2="86.681%" id="a"><stop stop-color="#79C5B6" offset="0%"/><stop stop-color="#62A194" offset="100%"/></linearGradient></defs><g fill="none" fill-rule="evenodd"><path d="M0 456h1440v189c-327.617 20-573.284 30-737 30S304.95 665 0 645V456z" fill="#F7EFD2"/><path d="M0 0h1440v189c-327.617 20-573.284 30-737 30S304.95 209 0 189V0z" fill="url(#a)" transform="translate(0 326)"/><path d="M944 326h24c44.08 25.126 66.413 43.084 67 53.874 1 18.396-19.957 48.754 5 91.98 8.58 14.86 35.58 35.135 81 60.824L888 542c7.171-28.78 9.504-50.847 7-66.204-7-42.924 60.91-81.232 65-94.17 6-18.98.667-37.522-16-55.626z" fill-opacity=".105" fill="#000"/><path d="M67.085 270.335h26.428c-2.136 10.388-3.204 26.903-3.204 49.544 0 22.642 1.602 45.283 4.805 67.925C88.681 389.934 83.742 391 80.3 391c-3.444 0-8.382-1.065-14.816-3.196 2.67-28.768 4.004-51.41 4.004-67.925 0-16.514-.8-33.03-2.402-49.544z" fill="#6C624C"/><path d="M73.13 200.813c9.566 0 25.445 8.484 43.034 25.454 1.343 1.295-13.364-5.512-11.941-3.879 4.104 4.714 24.63 19.108 29.4 26.64 1.08 1.704-11.568-4.925-10.266-2.666 2.652 4.6 17.212 16.564 20.786 23.465.783 1.511-9.829-4.679-8.827-2.689 2.1 4.171 16.184 18.134 19.246 24.409.85 1.743-9.26-4.583-8.027-2.034 3.636 7.52 27.807 20.313 29.442 26.37.845 3.133-21.464-8.016-24.483-7.99-6.336.055 3.247 8.174 0 8.202-5.877.05-18.072-7.44-22.654-7.403-6.18.05-4.216 7.621-8.038 7.648-7.466.053-17.842-10.875-23.755-10.844-8.997.046-12.509 11.037-17.908 11.033-7.456-.005-19.208-6.989-25.144-7.038-11.928-.099-15.732 6.67-21.526 6.393-15.796-.754-19.486-8.173-21.527-7.192-8.308 3.995-24.659 10.433-23.918 7.837 1.085-3.797 20.965-19.216 23.918-24.618 4.188-7.66-15.505 4.717-14.35 2.397 5.826-11.71 22.796-21.11 26.31-27.969 1.415-2.762-16.65 6.478-15.61 4.503 2.79-5.302 22.886-20.365 25.177-24.48 3.13-5.625-16.547 7.404-14.351 3.995 7.088-11.003 23.353-21.053 26.31-25.571 3.645-5.571-19.084 7.419-15.882 4.026 17.613-18.666 35.016-28 44.583-28z" fill="#3B6159"/><path d="M71.222 125.696c5.797 0 15.419 8.485 26.077 25.455.813 1.295-8.098-5.512-7.236-3.879 2.487 4.714 14.924 19.108 17.815 26.64.654 1.704-7.01-4.925-6.221-2.666 1.607 4.6 10.43 16.564 12.595 23.465.474 1.511-5.956-4.679-5.349-2.689 1.272 4.171 9.807 18.134 11.662 24.409.515 1.743-5.61-4.584-4.864-2.034 2.204 7.52 16.85 20.313 17.84 26.37.512 3.133-13.006-8.016-14.835-7.99-3.839.055 1.968 8.174 0 8.202-3.56.05-10.95-7.44-13.727-7.403-3.745.05-2.554 7.621-4.87 7.648-4.524.052-10.811-10.875-14.394-10.845-5.451.047-7.58 11.038-10.851 11.034-4.518-.005-11.639-6.989-15.236-7.038-7.227-.099-9.532 6.67-13.043 6.393-9.571-.754-11.807-8.173-13.044-7.192-5.034 3.995-14.941 10.433-14.492 7.837.657-3.797 12.703-19.216 14.492-24.618 2.538-7.66-9.395 4.717-8.695 2.397 3.53-11.71 13.813-21.11 15.942-27.969.857-2.763-10.089 6.478-9.459 4.503 1.691-5.302 13.868-20.365 15.256-24.48 1.896-5.625-10.026 7.404-8.696 3.995 4.295-11.003 14.15-21.053 15.942-25.571 2.209-5.572-11.563 7.419-9.623 4.026 10.672-18.666 21.217-28 27.014-28z" fill="#436E65"/><path d="M69.487 45.786c3.204 0 8.52 8.485 14.41 25.454.45 1.295-4.475-5.512-3.999-3.878 1.374 4.713 8.247 19.107 9.845 26.639.361 1.704-3.874-4.924-3.438-2.666.888 4.6 5.763 16.564 6.96 23.465.262 1.511-3.291-4.678-2.956-2.688.703 4.17 5.42 18.133 6.444 24.408.285 1.743-3.1-4.583-2.687-2.033 1.217 7.519 9.31 20.312 9.858 26.37.283 3.132-7.187-8.017-8.198-7.99-2.121.054 1.088 8.173 0 8.2-1.968.05-6.051-7.439-7.585-7.402-2.07.05-1.412 7.621-2.691 7.648-2.5.053-5.974-10.875-7.954-10.844-3.013.046-4.189 11.037-5.997 11.033-2.496-.005-6.43-6.988-8.418-7.038-3.994-.099-5.268 6.67-7.208 6.393-5.289-.754-6.525-8.173-7.208-7.192-2.782 3.996-8.256 10.433-8.008 7.837.363-3.797 7.02-19.216 8.008-24.618 1.402-7.66-5.191 4.717-4.805 2.397 1.951-11.71 7.633-21.11 8.81-27.969.473-2.762-5.575 6.478-5.227 4.503.934-5.302 7.663-20.365 8.43-24.48 1.048-5.625-5.54 7.404-4.805 3.995 2.373-11.002 7.82-21.053 8.81-25.571 1.22-5.571-6.39 7.42-5.319 4.026 5.898-18.666 11.725-28 14.928-28z" fill="#4B7A71"/><path d="M69.103 33c2.27 0 6.038 5.046 10.211 15.137.319.77-3.17-3.278-2.833-2.307.974 2.803 5.844 11.363 6.976 15.842.256 1.013-2.745-2.929-2.436-1.586.63 2.736 4.084 9.85 4.932 13.954.186.899-2.332-2.782-2.094-1.599.498 2.48 3.84 10.784 4.567 14.515.202 1.037-2.198-2.725-1.905-1.209.863 4.471 6.598 12.079 6.986 15.682.2 1.862-5.093-4.768-5.81-4.752-1.503.032.771 4.86 0 4.877-1.394.03-4.288-4.424-5.375-4.402-1.466.03-1 4.532-1.907 4.548-1.772.03-4.234-6.467-5.637-6.45-2.135.029-2.968 6.564-4.25 6.562-1.768-.003-4.557-4.156-5.966-4.185-2.83-.059-3.733 3.966-5.108 3.802-3.748-.449-4.623-4.86-5.108-4.277-1.971 2.376-5.85 6.204-5.675 4.66.257-2.258 4.975-11.427 5.675-14.64.994-4.555-3.679 2.806-3.405 1.426 1.383-6.963 5.41-12.554 6.243-16.632.336-1.643-3.95 3.852-3.704 2.678.662-3.153 5.431-12.11 5.974-14.558.743-3.344-3.926 4.403-3.405 2.376 1.682-6.543 5.542-12.52 6.243-15.206.865-3.313-4.528 4.412-3.768 2.394C62.703 38.55 66.833 33 69.103 33z" fill="#51857A"/><path d="M173.085 237.335h26.428c-2.136 10.388-3.204 26.903-3.204 49.544 0 22.642 1.602 45.283 4.805 67.925-6.433 2.13-11.372 3.196-14.815 3.196-3.444 0-8.382-1.065-14.816-3.196 2.67-28.768 4.004-51.41 4.004-67.925 0-16.514-.8-33.03-2.402-49.544z" fill="#6C624C"/><path d="M179.13 167.813c9.566 0 25.445 8.484 43.034 25.454 1.343 1.295-13.364-5.512-11.941-3.879 4.104 4.714 24.63 19.108 29.4 26.64 1.08 1.704-11.568-4.925-10.266-2.666 2.652 4.6 17.212 16.564 20.786 23.465.783 1.511-9.829-4.679-8.827-2.689 2.1 4.171 16.184 18.134 19.246 24.409.85 1.743-9.26-4.583-8.027-2.034 3.636 7.52 27.807 20.313 29.442 26.37.845 3.133-21.464-8.016-24.483-7.99-6.336.055 3.247 8.174 0 8.202-5.877.05-18.072-7.44-22.654-7.403-6.18.05-4.216 7.621-8.038 7.648-7.466.053-17.842-10.875-23.755-10.844-8.997.046-12.509 11.037-17.908 11.033-7.456-.005-19.208-6.989-25.144-7.038-11.928-.099-15.732 6.67-21.526 6.393-15.796-.754-19.486-8.173-21.527-7.192-8.308 3.995-24.659 10.433-23.918 7.837 1.085-3.797 20.965-19.216 23.918-24.618 4.188-7.66-15.505 4.717-14.35 2.397 5.826-11.71 22.796-21.11 26.31-27.969 1.415-2.762-16.65 6.478-15.61 4.503 2.79-5.302 22.886-20.365 25.177-24.48 3.13-5.625-16.547 7.404-14.351 3.995 7.088-11.003 23.353-21.053 26.31-25.571 3.645-5.571-19.084 7.419-15.882 4.026 17.613-18.666 35.016-28 44.583-28z" fill="#3B6159"/><path d="M177.222 92.696c5.797 0 15.419 8.485 26.077 25.455.813 1.295-8.098-5.512-7.236-3.879 2.487 4.714 14.924 19.108 17.815 26.64.654 1.704-7.01-4.925-6.221-2.666 1.607 4.6 10.43 16.564 12.595 23.465.474 1.511-5.956-4.679-5.349-2.689 1.272 4.171 9.807 18.134 11.662 24.409.515 1.743-5.61-4.584-4.864-2.034 2.204 7.52 16.85 20.313 17.84 26.37.512 3.133-13.006-8.016-14.835-7.99-3.839.055 1.968 8.174 0 8.202-3.56.05-10.95-7.44-13.727-7.403-3.745.05-2.554 7.621-4.87 7.648-4.524.052-10.811-10.875-14.394-10.845-5.451.047-7.58 11.038-10.851 11.034-4.518-.005-11.639-6.989-15.236-7.038-7.227-.099-9.532 6.67-13.043 6.393-9.571-.754-11.807-8.173-13.044-7.192-5.034 3.995-14.941 10.433-14.492 7.837.657-3.797 12.703-19.216 14.492-24.618 2.538-7.66-9.395 4.717-8.695 2.397 3.53-11.71 13.813-21.11 15.942-27.969.857-2.763-10.089 6.478-9.459 4.503 1.691-5.302 13.868-20.365 15.256-24.48 1.896-5.625-10.026 7.404-8.696 3.995 4.295-11.003 14.15-21.053 15.942-25.571 2.209-5.572-11.563 7.419-9.623 4.026 10.672-18.666 21.217-28 27.014-28z" fill="#436E65"/><path d="M175.487 12.786c3.204 0 8.52 8.485 14.41 25.454.45 1.295-4.475-5.512-3.999-3.878 1.374 4.713 8.247 19.107 9.845 26.639.361 1.704-3.874-4.924-3.438-2.666.888 4.6 5.763 16.564 6.96 23.465.262 1.511-3.291-4.678-2.956-2.688.703 4.17 5.42 18.133 6.444 24.408.285 1.743-3.1-4.583-2.687-2.033 1.217 7.519 9.31 20.312 9.858 26.37.283 3.132-7.187-8.017-8.198-7.99-2.121.054 1.088 8.173 0 8.2-1.968.05-6.051-7.439-7.585-7.402-2.07.05-1.412 7.621-2.691 7.648-2.5.053-5.974-10.875-7.954-10.844-3.013.046-4.189 11.037-5.997 11.033-2.496-.005-6.43-6.988-8.418-7.038-3.994-.099-5.268 6.67-7.208 6.393-5.289-.754-6.525-8.173-7.208-7.192-2.782 3.996-8.256 10.433-8.008 7.837.363-3.797 7.02-19.216 8.008-24.618 1.402-7.66-5.191 4.717-4.805 2.397 1.951-11.71 7.633-21.11 8.81-27.969.473-2.762-5.575 6.478-5.227 4.503.934-5.302 7.663-20.365 8.43-24.48 1.048-5.625-5.54 7.404-4.805 3.995 2.373-11.002 7.82-21.053 8.81-25.571 1.22-5.571-6.39 7.42-5.319 4.026 5.898-18.666 11.725-28 14.928-28z" fill="#4B7A71"/><path d="M175.103 0c2.27 0 6.038 5.046 10.211 15.137.319.77-3.17-3.278-2.833-2.307.974 2.803 5.844 11.363 6.976 15.842.256 1.013-2.745-2.929-2.436-1.586.63 2.736 4.084 9.85 4.932 13.954.186.899-2.332-2.782-2.094-1.599.498 2.48 3.84 10.784 4.567 14.515.202 1.037-2.198-2.725-1.905-1.209.863 4.471 6.598 12.079 6.986 15.682.2 1.862-5.093-4.768-5.81-4.752-1.503.032.771 4.86 0 4.877-1.394.03-4.288-4.424-5.375-4.402-1.466.03-1 4.532-1.907 4.548-1.772.03-4.234-6.467-5.637-6.45-2.135.029-2.968 6.564-4.25 6.562-1.768-.003-4.557-4.156-5.966-4.185-2.83-.059-3.733 3.966-5.108 3.802-3.748-.449-4.623-4.86-5.108-4.277-1.971 2.376-5.85 6.204-5.675 4.66.257-2.258 4.975-11.427 5.675-14.64.994-4.555-3.679 2.806-3.405 1.426 1.383-6.963 5.41-12.554 6.243-16.632.336-1.643-3.95 3.852-3.704 2.678.662-3.153 5.431-12.11 5.974-14.558.743-3.344-3.926 4.403-3.405 2.376 1.682-6.543 5.542-12.52 6.243-15.206.865-3.313-4.528 4.412-3.768 2.394C168.703 5.55 172.833 0 175.103 0z" fill="#51857A"/><path d="M24.085 302.335h26.428c-2.136 10.388-3.204 26.903-3.204 49.544 0 22.642 1.602 45.283 4.805 67.925C45.681 421.934 40.742 423 37.3 423c-3.444 0-8.382-1.065-14.816-3.196 2.67-28.768 4.004-51.41 4.004-67.925 0-16.514-.8-33.03-2.402-49.544z" fill="#6C624C"/><path d="M30.13 232.813c9.566 0 25.445 8.484 43.034 25.454 1.343 1.295-13.364-5.512-11.941-3.879 4.104 4.714 24.63 19.108 29.4 26.64 1.08 1.704-11.568-4.925-10.266-2.666 2.652 4.6 17.212 16.564 20.786 23.465.783 1.511-9.829-4.679-8.827-2.689 2.1 4.171 16.184 18.134 19.246 24.409.85 1.743-9.26-4.583-8.027-2.034 3.636 7.52 27.807 20.313 29.442 26.37.845 3.133-21.464-8.016-24.483-7.99-6.336.055 3.247 8.174 0 8.202-5.877.05-18.072-7.44-22.654-7.403-6.18.05-4.216 7.621-8.038 7.648-7.466.053-17.842-10.875-23.755-10.844-8.997.046-12.509 11.037-17.908 11.033-7.456-.005-19.208-6.989-25.144-7.038-11.928-.099-15.732 6.67-21.526 6.393-15.796-.754-19.486-8.173-21.527-7.192-8.308 3.995-24.659 10.433-23.918 7.837 1.085-3.797 20.965-19.216 23.918-24.618 4.188-7.66-15.505 4.717-14.35 2.397 5.826-11.71 22.796-21.11 26.31-27.969 1.415-2.762-16.65 6.478-15.61 4.503 2.79-5.302 22.886-20.365 25.177-24.48 3.13-5.625-16.547 7.404-14.351 3.995 7.088-11.003 23.353-21.053 26.31-25.571 3.645-5.571-19.084 7.419-15.882 4.026 17.613-18.666 35.016-28 44.583-28z" fill="#3B6159"/><path d="M28.222 157.696c5.797 0 15.419 8.485 26.077 25.455.813 1.295-8.098-5.512-7.236-3.879 2.487 4.714 14.924 19.108 17.815 26.64.654 1.704-7.01-4.925-6.221-2.666 1.607 4.6 10.43 16.564 12.595 23.465.474 1.511-5.956-4.679-5.349-2.689 1.272 4.171 9.807 18.134 11.662 24.409.515 1.743-5.61-4.584-4.864-2.034 2.204 7.52 16.85 20.313 17.84 26.37.512 3.133-13.006-8.016-14.835-7.99-3.839.055 1.968 8.174 0 8.202-3.56.05-10.95-7.44-13.727-7.403-3.745.05-2.554 7.621-4.87 7.648-4.524.052-10.811-10.875-14.394-10.845-5.451.047-7.58 11.038-10.851 11.034-4.518-.005-11.639-6.989-15.236-7.038-7.227-.099-9.532 6.67-13.043 6.393-9.571-.754-11.807-8.173-13.044-7.192-5.034 3.995-14.941 10.433-14.492 7.837.657-3.797 12.703-19.216 14.492-24.618 2.538-7.66-9.395 4.717-8.695 2.397 3.53-11.71 13.813-21.11 15.942-27.969.857-2.763-10.089 6.478-9.459 4.503 1.691-5.302 13.868-20.365 15.256-24.48 1.896-5.625-10.026 7.404-8.696 3.995 4.295-11.003 14.15-21.053 15.942-25.571 2.209-5.572-11.563 7.419-9.623 4.026 10.672-18.666 21.217-28 27.014-28z" fill="#436E65"/><path d="M26.487 77.786c3.204 0 8.52 8.485 14.41 25.454.45 1.295-4.475-5.512-3.999-3.878 1.374 4.713 8.247 19.107 9.845 26.639.361 1.704-3.874-4.924-3.438-2.666.888 4.6 5.763 16.564 6.96 23.465.262 1.511-3.291-4.678-2.956-2.688.703 4.17 5.42 18.133 6.444 24.408.285 1.743-3.1-4.583-2.687-2.033 1.217 7.519 9.31 20.312 9.858 26.37.283 3.132-7.187-8.017-8.198-7.99-2.121.054 1.088 8.173 0 8.2-1.968.05-6.051-7.439-7.585-7.402-2.07.05-1.412 7.621-2.691 7.648-2.5.053-5.974-10.875-7.954-10.844-3.013.046-4.189 11.037-5.997 11.033-2.496-.005-6.43-6.988-8.418-7.038-3.994-.099-5.268 6.67-7.208 6.393-5.289-.754-6.525-8.173-7.208-7.192-2.782 3.996-8.256 10.433-8.008 7.837.363-3.797 7.02-19.216 8.008-24.618C7.067 161.224.474 173.6.86 171.28c1.951-11.71 7.633-21.11 8.81-27.969.473-2.762-5.575 6.478-5.227 4.503.934-5.302 7.663-20.365 8.43-24.48 1.048-5.625-5.54 7.404-4.805 3.995 2.373-11.002 7.82-21.053 8.81-25.571 1.22-5.571-6.39 7.42-5.319 4.026 5.898-18.666 11.725-28 14.928-28z" fill="#4B7A71"/><path d="M26.103 65c2.27 0 6.038 5.046 10.211 15.137.319.77-3.17-3.278-2.833-2.307.974 2.803 5.844 11.363 6.976 15.842.256 1.013-2.745-2.929-2.436-1.586.63 2.736 4.084 9.85 4.932 13.954.186.899-2.332-2.782-2.094-1.599.498 2.48 3.84 10.784 4.567 14.515.202 1.037-2.198-2.725-1.905-1.209.863 4.471 6.598 12.079 6.986 15.682.2 1.862-5.093-4.768-5.81-4.752-1.503.032.771 4.86 0 4.877-1.394.03-4.288-4.424-5.375-4.402-1.466.03-1 4.532-1.907 4.548-1.772.03-4.234-6.467-5.637-6.45-2.135.029-2.968 6.564-4.25 6.562-1.768-.003-4.557-4.156-5.966-4.185-2.83-.059-3.733 3.966-5.108 3.802-3.748-.449-4.623-4.86-5.108-4.277-1.971 2.376-5.85 6.204-5.675 4.66.257-2.258 4.975-11.427 5.675-14.64.994-4.555-3.679 2.806-3.405 1.426 1.383-6.963 5.41-12.554 6.243-16.632.336-1.643-3.95 3.852-3.704 2.678.662-3.153 5.431-12.11 5.974-14.558.743-3.344-3.926 4.403-3.405 2.376 1.682-6.543 5.542-12.52 6.243-15.206.865-3.313-4.528 4.412-3.768 2.394C19.703 70.55 23.833 65 26.103 65z" fill="#51857A"/><path d="M119.085 335.335h26.428c-2.136 10.388-3.204 26.903-3.204 49.544 0 22.642 1.602 45.283 4.805 67.925-6.433 2.13-11.372 3.196-14.815 3.196-3.444 0-8.382-1.065-14.816-3.196 2.67-28.768 4.004-51.41 4.004-67.925 0-16.514-.8-33.03-2.402-49.544z" fill="#6C624C"/><path d="M125.13 265.813c9.566 0 25.445 8.484 43.034 25.454 1.343 1.295-13.364-5.512-11.941-3.879 4.104 4.714 24.63 19.108 29.4 26.64 1.08 1.704-11.568-4.925-10.266-2.666 2.652 4.6 17.212 16.564 20.786 23.465.783 1.511-9.829-4.679-8.827-2.689 2.1 4.171 16.184 18.134 19.246 24.409.85 1.743-9.26-4.583-8.027-2.034 3.636 7.52 27.807 20.313 29.442 26.37.845 3.133-21.464-8.016-24.483-7.99-6.336.055 3.247 8.174 0 8.202-5.877.05-18.072-7.44-22.654-7.403-6.18.05-4.216 7.621-8.038 7.648-7.466.053-17.842-10.875-23.755-10.844-8.997.046-12.509 11.037-17.908 11.033-7.456-.005-19.208-6.989-25.144-7.038-11.928-.099-15.732 6.67-21.526 6.393-15.796-.754-19.486-8.173-21.527-7.192-8.308 3.995-24.659 10.433-23.918 7.837 1.085-3.797 20.965-19.216 23.918-24.618 4.188-7.66-15.505 4.717-14.35 2.397 5.826-11.71 22.796-21.11 26.31-27.969 1.415-2.762-16.65 6.478-15.61 4.503 2.79-5.302 22.886-20.365 25.177-24.48 3.13-5.625-16.547 7.404-14.351 3.995 7.088-11.003 23.353-21.053 26.31-25.571 3.645-5.571-19.084 7.419-15.882 4.026 17.613-18.666 35.016-28 44.583-28z" fill="#3B6159"/><path d="M123.222 190.696c5.797 0 15.419 8.485 26.077 25.455.813 1.295-8.098-5.512-7.236-3.879 2.487 4.714 14.924 19.108 17.815 26.64.654 1.704-7.01-4.925-6.221-2.666 1.607 4.6 10.43 16.564 12.595 23.465.474 1.511-5.956-4.679-5.349-2.689 1.272 4.171 9.807 18.134 11.662 24.409.515 1.743-5.61-4.584-4.864-2.034 2.204 7.52 16.85 20.313 17.84 26.37.512 3.133-13.006-8.016-14.835-7.99-3.839.055 1.968 8.174 0 8.202-3.56.05-10.95-7.44-13.727-7.403-3.745.05-2.554 7.621-4.87 7.648-4.524.052-10.811-10.875-14.394-10.845-5.451.047-7.58 11.038-10.851 11.034-4.518-.005-11.639-6.989-15.236-7.038-7.227-.099-9.532 6.67-13.043 6.393-9.571-.754-11.807-8.173-13.044-7.192-5.034 3.995-14.941 10.433-14.492 7.837.657-3.797 12.703-19.216 14.492-24.618 2.538-7.66-9.395 4.717-8.695 2.397 3.53-11.71 13.813-21.11 15.942-27.969.857-2.763-10.089 6.478-9.459 4.503 1.691-5.302 13.868-20.365 15.256-24.48 1.896-5.625-10.026 7.404-8.696 3.995 4.295-11.003 14.15-21.053 15.942-25.571 2.209-5.572-11.563 7.419-9.623 4.026 10.672-18.666 21.217-28 27.014-28z" fill="#436E65"/><path d="M121.487 110.786c3.204 0 8.52 8.485 14.41 25.454.45 1.295-4.475-5.512-3.999-3.878 1.374 4.713 8.247 19.107 9.845 26.639.361 1.704-3.874-4.924-3.438-2.666.888 4.6 5.763 16.564 6.96 23.465.262 1.511-3.291-4.678-2.956-2.688.703 4.17 5.42 18.133 6.444 24.408.285 1.743-3.1-4.583-2.687-2.033 1.217 7.519 9.31 20.312 9.858 26.37.283 3.132-7.187-8.017-8.198-7.99-2.121.054 1.088 8.173 0 8.2-1.968.05-6.051-7.439-7.585-7.402-2.07.05-1.412 7.621-2.691 7.648-2.5.053-5.974-10.875-7.954-10.844-3.013.046-4.189 11.037-5.997 11.033-2.496-.005-6.43-6.988-8.418-7.038-3.994-.099-5.268 6.67-7.208 6.393-5.289-.754-6.525-8.173-7.208-7.192-2.782 3.996-8.256 10.433-8.008 7.837.363-3.797 7.02-19.216 8.008-24.618 1.402-7.66-5.191 4.717-4.805 2.397 1.951-11.71 7.633-21.11 8.81-27.969.473-2.762-5.575 6.478-5.227 4.503.934-5.302 7.663-20.365 8.43-24.48 1.048-5.625-5.54 7.404-4.805 3.995 2.373-11.002 7.82-21.053 8.81-25.571 1.22-5.571-6.39 7.42-5.319 4.026 5.898-18.666 11.725-28 14.928-28z" fill="#4B7A71"/><path d="M121.103 98c2.27 0 6.038 5.046 10.211 15.137.319.77-3.17-3.278-2.833-2.307.974 2.803 5.844 11.363 6.976 15.842.256 1.013-2.745-2.929-2.436-1.586.63 2.736 4.084 9.85 4.932 13.954.186.899-2.332-2.782-2.094-1.599.498 2.48 3.84 10.784 4.567 14.515.202 1.037-2.198-2.725-1.905-1.209.863 4.471 6.598 12.079 6.986 15.682.2 1.862-5.093-4.768-5.81-4.752-1.503.032.771 4.86 0 4.877-1.394.03-4.288-4.424-5.375-4.402-1.466.03-1 4.532-1.907 4.548-1.772.03-4.234-6.467-5.637-6.45-2.135.029-2.968 6.564-4.25 6.562-1.768-.003-4.557-4.156-5.966-4.185-2.83-.059-3.733 3.966-5.108 3.802-3.748-.449-4.623-4.86-5.108-4.277-1.971 2.376-5.85 6.204-5.675 4.66.257-2.258 4.975-11.427 5.675-14.64.994-4.555-3.679 2.806-3.405 1.426 1.383-6.963 5.41-12.554 6.243-16.632.336-1.643-3.95 3.852-3.704 2.678.662-3.153 5.431-12.11 5.974-14.558.743-3.344-3.926 4.403-3.405 2.376 1.682-6.543 5.542-12.52 6.243-15.206.865-3.313-4.528 4.412-3.768 2.394 4.179-11.1 8.309-16.65 10.579-16.65z" fill="#51857A"/><path d="M228.085 302.335h26.428c-2.136 10.388-3.204 26.903-3.204 49.544 0 22.642 1.602 45.283 4.805 67.925-6.433 2.13-11.372 3.196-14.815 3.196-3.444 0-8.382-1.065-14.816-3.196 2.67-28.768 4.004-51.41 4.004-67.925 0-16.514-.8-33.03-2.402-49.544z" fill="#6C624C"/><path d="M234.13 232.813c9.566 0 25.445 8.484 43.034 25.454 1.343 1.295-13.364-5.512-11.941-3.879 4.104 4.714 24.63 19.108 29.4 26.64 1.08 1.704-11.568-4.925-10.266-2.666 2.652 4.6 17.212 16.564 20.786 23.465.783 1.511-9.829-4.679-8.827-2.689 2.1 4.171 16.184 18.134 19.246 24.409.85 1.743-9.26-4.583-8.027-2.034 3.636 7.52 27.807 20.313 29.442 26.37.845 3.133-21.464-8.016-24.483-7.99-6.336.055 3.247 8.174 0 8.202-5.877.05-18.072-7.44-22.654-7.403-6.18.05-4.216 7.621-8.038 7.648-7.466.053-17.842-10.875-23.755-10.844-8.997.046-12.509 11.037-17.908 11.033-7.456-.005-19.208-6.989-25.144-7.038-11.928-.099-15.732 6.67-21.526 6.393-15.796-.754-19.486-8.173-21.527-7.192-8.308 3.995-24.659 10.433-23.918 7.837 1.085-3.797 20.965-19.216 23.918-24.618 4.188-7.66-15.505 4.717-14.35 2.397 5.826-11.71 22.796-21.11 26.31-27.969 1.415-2.762-16.65 6.478-15.61 4.503 2.79-5.302 22.886-20.365 25.177-24.48 3.13-5.625-16.547 7.404-14.351 3.995 7.088-11.003 23.353-21.053 26.31-25.571 3.645-5.571-19.084 7.419-15.882 4.026 17.613-18.666 35.016-28 44.583-28z" fill="#3B6159"/><path d="M232.222 157.696c5.797 0 15.419 8.485 26.077 25.455.813 1.295-8.098-5.512-7.236-3.879 2.487 4.714 14.924 19.108 17.815 26.64.654 1.704-7.01-4.925-6.221-2.666 1.607 4.6 10.43 16.564 12.595 23.465.474 1.511-5.956-4.679-5.349-2.689 1.272 4.171 9.807 18.134 11.662 24.409.515 1.743-5.61-4.584-4.864-2.034 2.204 7.52 16.85 20.313 17.84 26.37.512 3.133-13.006-8.016-14.835-7.99-3.839.055 1.968 8.174 0 8.202-3.56.05-10.95-7.44-13.727-7.403-3.745.05-2.554 7.621-4.87 7.648-4.524.052-10.811-10.875-14.394-10.845-5.451.047-7.58 11.038-10.851 11.034-4.518-.005-11.639-6.989-15.236-7.038-7.227-.099-9.532 6.67-13.043 6.393-9.571-.754-11.807-8.173-13.044-7.192-5.034 3.995-14.941 10.433-14.492 7.837.657-3.797 12.703-19.216 14.492-24.618 2.538-7.66-9.395 4.717-8.695 2.397 3.53-11.71 13.813-21.11 15.942-27.969.857-2.763-10.089 6.478-9.459 4.503 1.691-5.302 13.868-20.365 15.256-24.48 1.896-5.625-10.026 7.404-8.696 3.995 4.295-11.003 14.15-21.053 15.942-25.571 2.209-5.572-11.563 7.419-9.623 4.026 10.672-18.666 21.217-28 27.014-28z" fill="#436E65"/><path d="M230.487 77.786c3.204 0 8.52 8.485 14.41 25.454.45 1.295-4.475-5.512-3.999-3.878 1.374 4.713 8.247 19.107 9.845 26.639.361 1.704-3.874-4.924-3.438-2.666.888 4.6 5.763 16.564 6.96 23.465.262 1.511-3.291-4.678-2.956-2.688.703 4.17 5.42 18.133 6.444 24.408.285 1.743-3.1-4.583-2.687-2.033 1.217 7.519 9.31 20.312 9.858 26.37.283 3.132-7.187-8.017-8.198-7.99-2.121.054 1.088 8.173 0 8.2-1.968.05-6.051-7.439-7.585-7.402-2.07.05-1.412 7.621-2.691 7.648-2.5.053-5.974-10.875-7.954-10.844-3.013.046-4.189 11.037-5.997 11.033-2.496-.005-6.43-6.988-8.418-7.038-3.994-.099-5.268 6.67-7.208 6.393-5.289-.754-6.525-8.173-7.208-7.192-2.782 3.996-8.256 10.433-8.008 7.837.363-3.797 7.02-19.216 8.008-24.618 1.402-7.66-5.191 4.717-4.805 2.397 1.951-11.71 7.633-21.11 8.81-27.969.473-2.762-5.575 6.478-5.227 4.503.934-5.302 7.663-20.365 8.43-24.48 1.048-5.625-5.54 7.404-4.805 3.995 2.373-11.002 7.82-21.053 8.81-25.571 1.22-5.571-6.39 7.42-5.319 4.026 5.898-18.666 11.725-28 14.928-28z" fill="#4B7A71"/><path d="M230.103 65c2.27 0 6.038 5.046 10.211 15.137.319.77-3.17-3.278-2.833-2.307.974 2.803 5.844 11.363 6.976 15.842.256 1.013-2.745-2.929-2.436-1.586.63 2.736 4.084 9.85 4.932 13.954.186.899-2.332-2.782-2.094-1.599.498 2.48 3.84 10.784 4.567 14.515.202 1.037-2.198-2.725-1.905-1.209.863 4.471 6.598 12.079 6.986 15.682.2 1.862-5.093-4.768-5.81-4.752-1.503.032.771 4.86 0 4.877-1.394.03-4.288-4.424-5.375-4.402-1.466.03-1 4.532-1.907 4.548-1.772.03-4.234-6.467-5.637-6.45-2.135.029-2.968 6.564-4.25 6.562-1.768-.003-4.557-4.156-5.966-4.185-2.83-.059-3.733 3.966-5.108 3.802-3.748-.449-4.623-4.86-5.108-4.277-1.971 2.376-5.85 6.204-5.675 4.66.257-2.258 4.975-11.427 5.675-14.64.994-4.555-3.679 2.806-3.405 1.426 1.383-6.963 5.41-12.554 6.243-16.632.336-1.643-3.95 3.852-3.704 2.678.662-3.153 5.431-12.11 5.974-14.558.743-3.344-3.926 4.403-3.405 2.376 1.682-6.543 5.542-12.52 6.243-15.206.865-3.313-4.528 4.412-3.768 2.394 4.179-11.1 8.309-16.65 10.579-16.65z" fill="#51857A"/><path d="M356.085 303.335h26.428c-2.136 10.388-3.204 26.903-3.204 49.544 0 22.642 1.602 45.283 4.805 67.925-6.433 2.13-11.372 3.196-14.815 3.196-3.444 0-8.382-1.065-14.816-3.196 2.67-28.768 4.004-51.41 4.004-67.925 0-16.514-.8-33.03-2.402-49.544z" fill="#6C624C"/><path d="M362.13 233.813c9.566 0 25.445 8.484 43.034 25.454 1.343 1.295-13.364-5.512-11.941-3.879 4.104 4.714 24.63 19.108 29.4 26.64 1.08 1.704-11.568-4.925-10.266-2.666 2.652 4.6 17.212 16.564 20.786 23.465.783 1.511-9.829-4.679-8.827-2.689 2.1 4.171 16.184 18.134 19.246 24.409.85 1.743-9.26-4.583-8.027-2.034 3.636 7.52 27.807 20.313 29.442 26.37.845 3.133-21.464-8.016-24.483-7.99-6.336.055 3.247 8.174 0 8.202-5.877.05-18.072-7.44-22.654-7.403-6.18.05-4.216 7.621-8.038 7.648-7.466.053-17.842-10.875-23.755-10.844-8.997.046-12.509 11.037-17.908 11.033-7.456-.005-19.208-6.989-25.144-7.038-11.928-.099-15.732 6.67-21.526 6.393-15.796-.754-19.486-8.173-21.527-7.192-8.308 3.995-24.659 10.433-23.918 7.837 1.085-3.797 20.965-19.216 23.918-24.618 4.188-7.66-15.505 4.717-14.35 2.397 5.826-11.71 22.796-21.11 26.31-27.969 1.415-2.762-16.65 6.478-15.61 4.503 2.79-5.302 22.886-20.365 25.177-24.48 3.13-5.625-16.547 7.404-14.351 3.995 7.088-11.003 23.353-21.053 26.31-25.571 3.645-5.571-19.084 7.419-15.882 4.026 17.613-18.666 35.016-28 44.583-28z" fill="#3B6159"/><path d="M360.222 158.696c5.797 0 15.419 8.485 26.077 25.455.813 1.295-8.098-5.512-7.236-3.879 2.487 4.714 14.924 19.108 17.815 26.64.654 1.704-7.01-4.925-6.221-2.666 1.607 4.6 10.43 16.564 12.595 23.465.474 1.511-5.956-4.679-5.349-2.689 1.272 4.171 9.807 18.134 11.662 24.409.515 1.743-5.61-4.584-4.864-2.034 2.204 7.52 16.85 20.313 17.84 26.37.512 3.133-13.006-8.016-14.835-7.99-3.839.055 1.968 8.174 0 8.202-3.56.05-10.95-7.44-13.727-7.403-3.745.05-2.554 7.621-4.87 7.648-4.524.052-10.811-10.875-14.394-10.845-5.451.047-7.58 11.038-10.851 11.034-4.518-.005-11.639-6.989-15.236-7.038-7.227-.099-9.532 6.67-13.043 6.393-9.571-.754-11.807-8.173-13.044-7.192-5.034 3.995-14.941 10.433-14.492 7.837.657-3.797 12.703-19.216 14.492-24.618 2.538-7.66-9.395 4.717-8.695 2.397 3.53-11.71 13.813-21.11 15.942-27.969.857-2.763-10.089 6.478-9.459 4.503 1.691-5.302 13.868-20.365 15.256-24.48 1.896-5.625-10.026 7.404-8.696 3.995 4.295-11.003 14.15-21.053 15.942-25.571 2.209-5.572-11.563 7.419-9.623 4.026 10.672-18.666 21.217-28 27.014-28z" fill="#436E65"/><path d="M358.487 78.786c3.204 0 8.52 8.485 14.41 25.454.45 1.295-4.475-5.512-3.999-3.878 1.374 4.713 8.247 19.107 9.845 26.639.361 1.704-3.874-4.924-3.438-2.666.888 4.6 5.763 16.564 6.96 23.465.262 1.511-3.291-4.678-2.956-2.688.703 4.17 5.42 18.133 6.444 24.408.285 1.743-3.1-4.583-2.687-2.033 1.217 7.519 9.31 20.312 9.858 26.37.283 3.132-7.187-8.017-8.198-7.99-2.121.054 1.088 8.173 0 8.2-1.968.05-6.051-7.439-7.585-7.402-2.07.05-1.412 7.621-2.691 7.648-2.5.053-5.974-10.875-7.954-10.844-3.013.046-4.189 11.037-5.997 11.033-2.496-.005-6.43-6.988-8.418-7.038-3.994-.099-5.268 6.67-7.208 6.393-5.289-.754-6.525-8.173-7.208-7.192-2.782 3.996-8.256 10.433-8.008 7.837.363-3.797 7.02-19.216 8.008-24.618 1.402-7.66-5.191 4.717-4.805 2.397 1.951-11.71 7.633-21.11 8.81-27.969.473-2.762-5.575 6.478-5.227 4.503.934-5.302 7.663-20.365 8.43-24.48 1.048-5.625-5.54 7.404-4.805 3.995 2.373-11.002 7.82-21.053 8.81-25.571 1.22-5.571-6.39 7.42-5.319 4.026 5.898-18.666 11.725-28 14.928-28z" fill="#4B7A71"/><path d="M358.103 66c2.27 0 6.038 5.046 10.211 15.137.319.77-3.17-3.278-2.833-2.307.974 2.803 5.844 11.363 6.976 15.842.256 1.013-2.745-2.929-2.436-1.586.63 2.736 4.084 9.85 4.932 13.954.186.899-2.332-2.782-2.094-1.599.498 2.48 3.84 10.784 4.567 14.515.202 1.037-2.198-2.725-1.905-1.209.863 4.471 6.598 12.079 6.986 15.682.2 1.862-5.093-4.768-5.81-4.752-1.503.032.771 4.86 0 4.877-1.394.03-4.288-4.424-5.375-4.402-1.466.03-1 4.532-1.907 4.548-1.772.03-4.234-6.467-5.637-6.45-2.135.029-2.968 6.564-4.25 6.562-1.768-.003-4.557-4.156-5.966-4.185-2.83-.059-3.733 3.966-5.108 3.802-3.748-.449-4.623-4.86-5.108-4.277-1.971 2.376-5.85 6.204-5.675 4.66.257-2.258 4.975-11.427 5.675-14.64.994-4.555-3.679 2.806-3.405 1.426 1.383-6.963 5.41-12.554 6.243-16.632.336-1.643-3.95 3.852-3.704 2.678.662-3.153 5.431-12.11 5.974-14.558.743-3.344-3.926 4.403-3.405 2.376 1.682-6.543 5.542-12.52 6.243-15.206.865-3.313-4.528 4.412-3.768 2.394 4.179-11.1 8.309-16.65 10.579-16.65z" fill="#51857A"/><path d="M462.085 270.335h26.428c-2.136 10.388-3.204 26.903-3.204 49.544 0 22.642 1.602 45.283 4.805 67.925-6.433 2.13-11.372 3.196-14.815 3.196-3.444 0-8.382-1.065-14.816-3.196 2.67-28.768 4.004-51.41 4.004-67.925 0-16.514-.8-33.03-2.402-49.544z" fill="#6C624C"/><path d="M468.13 200.813c9.566 0 25.445 8.484 43.034 25.454 1.343 1.295-13.364-5.512-11.941-3.879 4.104 4.714 24.63 19.108 29.4 26.64 1.08 1.704-11.568-4.925-10.266-2.666 2.652 4.6 17.212 16.564 20.786 23.465.783 1.511-9.829-4.679-8.827-2.689 2.1 4.171 16.184 18.134 19.246 24.409.85 1.743-9.26-4.583-8.027-2.034 3.636 7.52 27.807 20.313 29.442 26.37.845 3.133-21.464-8.016-24.483-7.99-6.336.055 3.247 8.174 0 8.202-5.877.05-18.072-7.44-22.654-7.403-6.18.05-4.216 7.621-8.038 7.648-7.466.053-17.842-10.875-23.755-10.844-8.997.046-12.509 11.037-17.908 11.033-7.456-.005-19.208-6.989-25.144-7.038-11.928-.099-15.732 6.67-21.526 6.393-15.796-.754-19.486-8.173-21.527-7.192-8.308 3.995-24.659 10.433-23.918 7.837 1.085-3.797 20.965-19.216 23.918-24.618 4.188-7.66-15.505 4.717-14.35 2.397 5.826-11.71 22.796-21.11 26.31-27.969 1.415-2.762-16.65 6.478-15.61 4.503 2.79-5.302 22.886-20.365 25.177-24.48 3.13-5.625-16.547 7.404-14.351 3.995 7.088-11.003 23.353-21.053 26.31-25.571 3.645-5.571-19.084 7.419-15.882 4.026 17.613-18.666 35.016-28 44.583-28z" fill="#3B6159"/><path d="M466.222 125.696c5.797 0 15.419 8.485 26.077 25.455.813 1.295-8.098-5.512-7.236-3.879 2.487 4.714 14.924 19.108 17.815 26.64.654 1.704-7.01-4.925-6.221-2.666 1.607 4.6 10.43 16.564 12.595 23.465.474 1.511-5.956-4.679-5.349-2.689 1.272 4.171 9.807 18.134 11.662 24.409.515 1.743-5.61-4.584-4.864-2.034 2.204 7.52 16.85 20.313 17.84 26.37.512 3.133-13.006-8.016-14.835-7.99-3.839.055 1.968 8.174 0 8.202-3.56.05-10.95-7.44-13.727-7.403-3.745.05-2.554 7.621-4.87 7.648-4.524.052-10.811-10.875-14.394-10.845-5.451.047-7.58 11.038-10.851 11.034-4.518-.005-11.639-6.989-15.236-7.038-7.227-.099-9.532 6.67-13.043 6.393-9.571-.754-11.807-8.173-13.044-7.192-5.034 3.995-14.941 10.433-14.492 7.837.657-3.797 12.703-19.216 14.492-24.618 2.538-7.66-9.395 4.717-8.695 2.397 3.53-11.71 13.813-21.11 15.942-27.969.857-2.763-10.089 6.478-9.459 4.503 1.691-5.302 13.868-20.365 15.256-24.48 1.896-5.625-10.026 7.404-8.696 3.995 4.295-11.003 14.15-21.053 15.942-25.571 2.209-5.572-11.563 7.419-9.623 4.026 10.672-18.666 21.217-28 27.014-28z" fill="#436E65"/><path d="M464.487 45.786c3.204 0 8.52 8.485 14.41 25.454.45 1.295-4.475-5.512-3.999-3.878 1.374 4.713 8.247 19.107 9.845 26.639.361 1.704-3.874-4.924-3.438-2.666.888 4.6 5.763 16.564 6.96 23.465.262 1.511-3.291-4.678-2.956-2.688.703 4.17 5.42 18.133 6.444 24.408.285 1.743-3.1-4.583-2.687-2.033 1.217 7.519 9.31 20.312 9.858 26.37.283 3.132-7.187-8.017-8.198-7.99-2.121.054 1.088 8.173 0 8.2-1.968.05-6.051-7.439-7.585-7.402-2.07.05-1.412 7.621-2.691 7.648-2.5.053-5.974-10.875-7.954-10.844-3.013.046-4.189 11.037-5.997 11.033-2.496-.005-6.43-6.988-8.418-7.038-3.994-.099-5.268 6.67-7.208 6.393-5.289-.754-6.525-8.173-7.208-7.192-2.782 3.996-8.256 10.433-8.008 7.837.363-3.797 7.02-19.216 8.008-24.618 1.402-7.66-5.191 4.717-4.805 2.397 1.951-11.71 7.633-21.11 8.81-27.969.473-2.762-5.575 6.478-5.227 4.503.934-5.302 7.663-20.365 8.43-24.48 1.048-5.625-5.54 7.404-4.805 3.995 2.373-11.002 7.82-21.053 8.81-25.571 1.22-5.571-6.39 7.42-5.319 4.026 5.898-18.666 11.725-28 14.928-28z" fill="#4B7A71"/><path d="M464.103 33c2.27 0 6.038 5.046 10.211 15.137.319.77-3.17-3.278-2.833-2.307.974 2.803 5.844 11.363 6.976 15.842.256 1.013-2.745-2.929-2.436-1.586.63 2.736 4.084 9.85 4.932 13.954.186.899-2.332-2.782-2.094-1.599.498 2.48 3.84 10.784 4.567 14.515.202 1.037-2.198-2.725-1.905-1.209.863 4.471 6.598 12.079 6.986 15.682.2 1.862-5.093-4.768-5.81-4.752-1.503.032.771 4.86 0 4.877-1.394.03-4.288-4.424-5.375-4.402-1.466.03-1 4.532-1.907 4.548-1.772.03-4.234-6.467-5.637-6.45-2.135.029-2.968 6.564-4.25 6.562-1.768-.003-4.557-4.156-5.966-4.185-2.83-.059-3.733 3.966-5.108 3.802-3.748-.449-4.623-4.86-5.108-4.277-1.971 2.376-5.85 6.204-5.675 4.66.257-2.258 4.975-11.427 5.675-14.64.994-4.555-3.679 2.806-3.405 1.426 1.383-6.963 5.41-12.554 6.243-16.632.336-1.643-3.95 3.852-3.704 2.678.662-3.153 5.431-12.11 5.974-14.558.743-3.344-3.926 4.403-3.405 2.376 1.682-6.543 5.542-12.52 6.243-15.206.865-3.313-4.528 4.412-3.768 2.394 4.179-11.1 8.309-16.65 10.579-16.65z" fill="#51857A"/><path d="M313.085 335.335h26.428c-2.136 10.388-3.204 26.903-3.204 49.544 0 22.642 1.602 45.283 4.805 67.925-6.433 2.13-11.372 3.196-14.815 3.196-3.444 0-8.382-1.065-14.816-3.196 2.67-28.768 4.004-51.41 4.004-67.925 0-16.514-.8-33.03-2.402-49.544z" fill="#6C624C"/><path d="M319.13 265.813c9.566 0 25.445 8.484 43.034 25.454 1.343 1.295-13.364-5.512-11.941-3.879 4.104 4.714 24.63 19.108 29.4 26.64 1.08 1.704-11.568-4.925-10.266-2.666 2.652 4.6 17.212 16.564 20.786 23.465.783 1.511-9.829-4.679-8.827-2.689 2.1 4.171 16.184 18.134 19.246 24.409.85 1.743-9.26-4.583-8.027-2.034 3.636 7.52 27.807 20.313 29.442 26.37.845 3.133-21.464-8.016-24.483-7.99-6.336.055 3.247 8.174 0 8.202-5.877.05-18.072-7.44-22.654-7.403-6.18.05-4.216 7.621-8.038 7.648-7.466.053-17.842-10.875-23.755-10.844-8.997.046-12.509 11.037-17.908 11.033-7.456-.005-19.208-6.989-25.144-7.038-11.928-.099-15.732 6.67-21.526 6.393-15.796-.754-19.486-8.173-21.527-7.192-8.308 3.995-24.659 10.433-23.918 7.837 1.085-3.797 20.965-19.216 23.918-24.618 4.188-7.66-15.505 4.717-14.35 2.397 5.826-11.71 22.796-21.11 26.31-27.969 1.415-2.762-16.65 6.478-15.61 4.503 2.79-5.302 22.886-20.365 25.177-24.48 3.13-5.625-16.547 7.404-14.351 3.995 7.088-11.003 23.353-21.053 26.31-25.571 3.645-5.571-19.084 7.419-15.882 4.026 17.613-18.666 35.016-28 44.583-28z" fill="#3B6159"/><path d="M317.222 190.696c5.797 0 15.419 8.485 26.077 25.455.813 1.295-8.098-5.512-7.236-3.879 2.487 4.714 14.924 19.108 17.815 26.64.654 1.704-7.01-4.925-6.221-2.666 1.607 4.6 10.43 16.564 12.595 23.465.474 1.511-5.956-4.679-5.349-2.689 1.272 4.171 9.807 18.134 11.662 24.409.515 1.743-5.61-4.584-4.864-2.034 2.204 7.52 16.85 20.313 17.84 26.37.512 3.133-13.006-8.016-14.835-7.99-3.839.055 1.968 8.174 0 8.202-3.56.05-10.95-7.44-13.727-7.403-3.745.05-2.554 7.621-4.87 7.648-4.524.052-10.811-10.875-14.394-10.845-5.451.047-7.58 11.038-10.851 11.034-4.518-.005-11.639-6.989-15.236-7.038-7.227-.099-9.532 6.67-13.043 6.393-9.571-.754-11.807-8.173-13.044-7.192-5.034 3.995-14.941 10.433-14.492 7.837.657-3.797 12.703-19.216 14.492-24.618 2.538-7.66-9.395 4.717-8.695 2.397 3.53-11.71 13.813-21.11 15.942-27.969.857-2.763-10.089 6.478-9.459 4.503 1.691-5.302 13.868-20.365 15.256-24.48 1.896-5.625-10.026 7.404-8.696 3.995 4.295-11.003 14.15-21.053 15.942-25.571 2.209-5.572-11.563 7.419-9.623 4.026 10.672-18.666 21.217-28 27.014-28z" fill="#436E65"/><path d="M315.487 110.786c3.204 0 8.52 8.485 14.41 25.454.45 1.295-4.475-5.512-3.999-3.878 1.374 4.713 8.247 19.107 9.845 26.639.361 1.704-3.874-4.924-3.438-2.666.888 4.6 5.763 16.564 6.96 23.465.262 1.511-3.291-4.678-2.956-2.688.703 4.17 5.42 18.133 6.444 24.408.285 1.743-3.1-4.583-2.687-2.033 1.217 7.519 9.31 20.312 9.858 26.37.283 3.132-7.187-8.017-8.198-7.99-2.121.054 1.088 8.173 0 8.2-1.968.05-6.051-7.439-7.585-7.402-2.07.05-1.412 7.621-2.691 7.648-2.5.053-5.974-10.875-7.954-10.844-3.013.046-4.189 11.037-5.997 11.033-2.496-.005-6.43-6.988-8.418-7.038-3.994-.099-5.268 6.67-7.208 6.393-5.289-.754-6.525-8.173-7.208-7.192-2.782 3.996-8.256 10.433-8.008 7.837.363-3.797 7.02-19.216 8.008-24.618 1.402-7.66-5.191 4.717-4.805 2.397 1.951-11.71 7.633-21.11 8.81-27.969.473-2.762-5.575 6.478-5.227 4.503.934-5.302 7.663-20.365 8.43-24.48 1.048-5.625-5.54 7.404-4.805 3.995 2.373-11.002 7.82-21.053 8.81-25.571 1.22-5.571-6.39 7.42-5.319 4.026 5.898-18.666 11.725-28 14.928-28z" fill="#4B7A71"/><path d="M315.103 98c2.27 0 6.038 5.046 10.211 15.137.319.77-3.17-3.278-2.833-2.307.974 2.803 5.844 11.363 6.976 15.842.256 1.013-2.745-2.929-2.436-1.586.63 2.736 4.084 9.85 4.932 13.954.186.899-2.332-2.782-2.094-1.599.498 2.48 3.84 10.784 4.567 14.515.202 1.037-2.198-2.725-1.905-1.209.863 4.471 6.598 12.079 6.986 15.682.2 1.862-5.093-4.768-5.81-4.752-1.503.032.771 4.86 0 4.877-1.394.03-4.288-4.424-5.375-4.402-1.466.03-1 4.532-1.907 4.548-1.772.03-4.234-6.467-5.637-6.45-2.135.029-2.968 6.564-4.25 6.562-1.768-.003-4.557-4.156-5.966-4.185-2.83-.059-3.733 3.966-5.108 3.802-3.748-.449-4.623-4.86-5.108-4.277-1.971 2.376-5.85 6.204-5.675 4.66.257-2.258 4.975-11.427 5.675-14.64.994-4.555-3.679 2.806-3.405 1.426 1.383-6.963 5.41-12.554 6.243-16.632.336-1.643-3.95 3.852-3.704 2.678.662-3.153 5.431-12.11 5.974-14.558.743-3.344-3.926 4.403-3.405 2.376 1.682-6.543 5.542-12.52 6.243-15.206.865-3.313-4.528 4.412-3.768 2.394 4.179-11.1 8.309-16.65 10.579-16.65z" fill="#51857A"/><path d="M413.085 325.335h26.428c-2.136 10.388-3.204 26.903-3.204 49.544 0 22.642 1.602 45.283 4.805 67.925-6.433 2.13-11.372 3.196-14.815 3.196-3.444 0-8.382-1.065-14.816-3.196 2.67-28.768 4.004-51.41 4.004-67.925 0-16.514-.8-33.03-2.402-49.544z" fill="#6C624C"/><path d="M419.13 255.813c9.566 0 25.445 8.484 43.034 25.454 1.343 1.295-13.364-5.512-11.941-3.879 4.104 4.714 24.63 19.108 29.4 26.64 1.08 1.704-11.568-4.925-10.266-2.666 2.652 4.6 17.212 16.564 20.786 23.465.783 1.511-9.829-4.679-8.827-2.689 2.1 4.171 16.184 18.134 19.246 24.409.85 1.743-9.26-4.583-8.027-2.034 3.636 7.52 27.807 20.313 29.442 26.37.845 3.133-21.464-8.016-24.483-7.99-6.336.055 3.247 8.174 0 8.202-5.877.05-18.072-7.44-22.654-7.403-6.18.05-4.216 7.621-8.038 7.648-7.466.053-17.842-10.875-23.755-10.844-8.997.046-12.509 11.037-17.908 11.033-7.456-.005-19.208-6.989-25.144-7.038-11.928-.099-15.732 6.67-21.526 6.393-15.796-.754-19.486-8.173-21.527-7.192-8.308 3.995-24.659 10.433-23.918 7.837 1.085-3.797 20.965-19.216 23.918-24.618 4.188-7.66-15.505 4.717-14.35 2.397 5.826-11.71 22.796-21.11 26.31-27.969 1.415-2.762-16.65 6.478-15.61 4.503 2.79-5.302 22.886-20.365 25.177-24.48 3.13-5.625-16.547 7.404-14.351 3.995 7.088-11.003 23.353-21.053 26.31-25.571 3.645-5.571-19.084 7.419-15.882 4.026 17.613-18.666 35.016-28 44.583-28z" fill="#3B6159"/><path d="M417.222 180.696c5.797 0 15.419 8.485 26.077 25.455.813 1.295-8.098-5.512-7.236-3.879 2.487 4.714 14.924 19.108 17.815 26.64.654 1.704-7.01-4.925-6.221-2.666 1.607 4.6 10.43 16.564 12.595 23.465.474 1.511-5.956-4.679-5.349-2.689 1.272 4.171 9.807 18.134 11.662 24.409.515 1.743-5.61-4.584-4.864-2.034 2.204 7.52 16.85 20.313 17.84 26.37.512 3.133-13.006-8.016-14.835-7.99-3.839.055 1.968 8.174 0 8.202-3.56.05-10.95-7.44-13.727-7.403-3.745.05-2.554 7.621-4.87 7.648-4.524.052-10.811-10.875-14.394-10.845-5.451.047-7.58 11.038-10.851 11.034-4.518-.005-11.639-6.989-15.236-7.038-7.227-.099-9.532 6.67-13.043 6.393-9.571-.754-11.807-8.173-13.044-7.192-5.034 3.995-14.941 10.433-14.492 7.837.657-3.797 12.703-19.216 14.492-24.618 2.538-7.66-9.395 4.717-8.695 2.397 3.53-11.71 13.813-21.11 15.942-27.969.857-2.763-10.089 6.478-9.459 4.503 1.691-5.302 13.868-20.365 15.256-24.48 1.896-5.625-10.026 7.404-8.696 3.995 4.295-11.003 14.15-21.053 15.942-25.571 2.209-5.572-11.563 7.419-9.623 4.026 10.672-18.666 21.217-28 27.014-28z" fill="#436E65"/><path d="M415.487 100.786c3.204 0 8.52 8.485 14.41 25.454.45 1.295-4.475-5.512-3.999-3.878 1.374 4.713 8.247 19.107 9.845 26.639.361 1.704-3.874-4.924-3.438-2.666.888 4.6 5.763 16.564 6.96 23.465.262 1.511-3.291-4.678-2.956-2.688.703 4.17 5.42 18.133 6.444 24.408.285 1.743-3.1-4.583-2.687-2.033 1.217 7.519 9.31 20.312 9.858 26.37.283 3.132-7.187-8.017-8.198-7.99-2.121.054 1.088 8.173 0 8.2-1.968.05-6.051-7.439-7.585-7.402-2.07.05-1.412 7.621-2.691 7.648-2.5.053-5.974-10.875-7.954-10.844-3.013.046-4.189 11.037-5.997 11.033-2.496-.005-6.43-6.988-8.418-7.038-3.994-.099-5.268 6.67-7.208 6.393-5.289-.754-6.525-8.173-7.208-7.192-2.782 3.996-8.256 10.433-8.008 7.837.363-3.797 7.02-19.216 8.008-24.618 1.402-7.66-5.191 4.717-4.805 2.397 1.951-11.71 7.633-21.11 8.81-27.969.473-2.762-5.575 6.478-5.227 4.503.934-5.302 7.663-20.365 8.43-24.48 1.048-5.625-5.54 7.404-4.805 3.995 2.373-11.002 7.82-21.053 8.81-25.571 1.22-5.571-6.39 7.42-5.319 4.026 5.898-18.666 11.725-28 14.928-28z" fill="#4B7A71"/><path d="M415.103 88c2.27 0 6.038 5.046 10.211 15.137.319.77-3.17-3.278-2.833-2.307.974 2.803 5.844 11.363 6.976 15.842.256 1.013-2.745-2.929-2.436-1.586.63 2.736 4.084 9.85 4.932 13.954.186.899-2.332-2.782-2.094-1.599.498 2.48 3.84 10.784 4.567 14.515.202 1.037-2.198-2.725-1.905-1.209.863 4.471 6.598 12.079 6.986 15.682.2 1.862-5.093-4.768-5.81-4.752-1.503.032.771 4.86 0 4.877-1.394.03-4.288-4.424-5.375-4.402-1.466.03-1 4.532-1.907 4.548-1.772.03-4.234-6.467-5.637-6.45-2.135.029-2.968 6.564-4.25 6.562-1.768-.003-4.557-4.156-5.966-4.185-2.83-.059-3.733 3.966-5.108 3.802-3.748-.449-4.623-4.86-5.108-4.277-1.971 2.376-5.85 6.204-5.675 4.66.257-2.258 4.975-11.427 5.675-14.64.994-4.555-3.679 2.806-3.405 1.426 1.383-6.963 5.41-12.554 6.243-16.632.336-1.643-3.95 3.852-3.704 2.678.662-3.153 5.431-12.11 5.974-14.558.743-3.344-3.926 4.403-3.405 2.376 1.682-6.543 5.542-12.52 6.243-15.206.865-3.313-4.528 4.412-3.768 2.394 4.179-11.1 8.309-16.65 10.579-16.65z" fill="#51857A"/><path d="M530.085 259.335h26.428c-2.136 10.388-3.204 26.903-3.204 49.544 0 22.642 1.602 45.283 4.805 67.925-6.433 2.13-11.372 3.196-14.815 3.196-3.444 0-8.382-1.065-14.816-3.196 2.67-28.768 4.004-51.41 4.004-67.925 0-16.514-.8-33.03-2.402-49.544z" fill="#6C624C"/><path d="M536.13 189.813c9.566 0 25.445 8.484 43.034 25.454 1.343 1.295-13.364-5.512-11.941-3.879 4.104 4.714 24.63 19.108 29.4 26.64 1.08 1.704-11.568-4.925-10.266-2.666 2.652 4.6 17.212 16.564 20.786 23.465.783 1.511-9.829-4.679-8.827-2.689 2.1 4.171 16.184 18.134 19.246 24.409.85 1.743-9.26-4.583-8.027-2.034 3.636 7.52 27.807 20.313 29.442 26.37.845 3.133-21.464-8.016-24.483-7.99-6.336.055 3.247 8.174 0 8.202-5.877.05-18.072-7.44-22.654-7.403-6.18.05-4.216 7.621-8.038 7.648-7.466.053-17.842-10.875-23.755-10.844-8.997.046-12.509 11.037-17.908 11.033-7.456-.005-19.208-6.989-25.144-7.038-11.928-.099-15.732 6.67-21.526 6.393-15.796-.754-19.486-8.173-21.527-7.192-8.308 3.995-24.659 10.433-23.918 7.837 1.085-3.797 20.965-19.216 23.918-24.618 4.188-7.66-15.505 4.717-14.35 2.397 5.826-11.71 22.796-21.11 26.31-27.969 1.415-2.762-16.65 6.478-15.61 4.503 2.79-5.302 22.886-20.365 25.177-24.48 3.13-5.625-16.547 7.404-14.351 3.995 7.088-11.003 23.353-21.053 26.31-25.571 3.645-5.571-19.084 7.419-15.882 4.026 17.613-18.666 35.016-28 44.583-28z" fill="#3B6159"/><path d="M534.222 114.696c5.797 0 15.419 8.485 26.077 25.455.813 1.295-8.098-5.512-7.236-3.879 2.487 4.714 14.924 19.108 17.815 26.64.654 1.704-7.01-4.925-6.221-2.666 1.607 4.6 10.43 16.564 12.595 23.465.474 1.511-5.956-4.679-5.349-2.689 1.272 4.171 9.807 18.134 11.662 24.409.515 1.743-5.61-4.584-4.864-2.034 2.204 7.52 16.85 20.313 17.84 26.37.512 3.133-13.006-8.016-14.835-7.99-3.839.055 1.968 8.174 0 8.202-3.56.05-10.95-7.44-13.727-7.403-3.745.05-2.554 7.621-4.87 7.648-4.524.052-10.811-10.875-14.394-10.845-5.451.047-7.58 11.038-10.851 11.034-4.518-.005-11.639-6.989-15.236-7.038-7.227-.099-9.532 6.67-13.043 6.393-9.571-.754-11.807-8.173-13.044-7.192-5.034 3.995-14.941 10.433-14.492 7.837.657-3.797 12.703-19.216 14.492-24.618 2.538-7.66-9.395 4.717-8.695 2.397 3.53-11.71 13.813-21.11 15.942-27.969.857-2.763-10.089 6.478-9.459 4.503 1.691-5.302 13.868-20.365 15.256-24.48 1.896-5.625-10.026 7.404-8.696 3.995 4.295-11.003 14.15-21.053 15.942-25.571 2.209-5.572-11.563 7.419-9.623 4.026 10.672-18.666 21.217-28 27.014-28z" fill="#436E65"/><path d="M532.487 34.786c3.204 0 8.52 8.485 14.41 25.454.45 1.295-4.475-5.512-3.999-3.878 1.374 4.713 8.247 19.107 9.845 26.639.361 1.704-3.874-4.924-3.438-2.666.888 4.6 5.763 16.564 6.96 23.465.262 1.511-3.291-4.678-2.956-2.688.703 4.17 5.42 18.133 6.444 24.408.285 1.743-3.1-4.583-2.687-2.033 1.217 7.519 9.31 20.312 9.858 26.37.283 3.132-7.187-8.017-8.198-7.99-2.121.054 1.088 8.173 0 8.2-1.968.05-6.051-7.439-7.585-7.402-2.07.05-1.412 7.621-2.691 7.648-2.5.053-5.974-10.875-7.954-10.844-3.013.046-4.189 11.037-5.997 11.033-2.496-.005-6.43-6.988-8.418-7.038-3.994-.099-5.268 6.67-7.208 6.393-5.289-.754-6.525-8.173-7.208-7.192-2.782 3.996-8.256 10.433-8.008 7.837.363-3.797 7.02-19.216 8.008-24.618 1.402-7.66-5.191 4.717-4.805 2.397 1.951-11.71 7.633-21.11 8.81-27.969.473-2.762-5.575 6.478-5.227 4.503.934-5.302 7.663-20.365 8.43-24.48 1.048-5.625-5.54 7.404-4.805 3.995 2.373-11.002 7.82-21.053 8.81-25.571 1.22-5.571-6.39 7.42-5.319 4.026 5.898-18.666 11.725-28 14.928-28z" fill="#4B7A71"/><path d="M532.103 22c2.27 0 6.038 5.046 10.211 15.137.319.77-3.17-3.278-2.833-2.307.974 2.803 5.844 11.363 6.976 15.842.256 1.013-2.745-2.929-2.436-1.586.63 2.736 4.084 9.85 4.932 13.954.186.899-2.332-2.782-2.094-1.599.498 2.48 3.84 10.784 4.567 14.515.202 1.037-2.198-2.725-1.905-1.209.863 4.471 6.598 12.079 6.986 15.682.2 1.862-5.093-4.768-5.81-4.752-1.503.032.771 4.86 0 4.877-1.394.03-4.288-4.424-5.375-4.402-1.466.03-1 4.532-1.907 4.548-1.772.03-4.234-6.467-5.637-6.45-2.135.029-2.968 6.564-4.25 6.562-1.768-.003-4.557-4.156-5.966-4.185-2.83-.059-3.733 3.966-5.108 3.802-3.748-.449-4.623-4.86-5.108-4.277-1.971 2.376-5.85 6.204-5.675 4.66.257-2.258 4.975-11.427 5.675-14.64.994-4.555-3.679 2.806-3.405 1.426 1.383-6.963 5.41-12.554 6.243-16.632.336-1.643-3.95 3.852-3.704 2.678.662-3.153 5.431-12.11 5.974-14.558.743-3.344-3.926 4.403-3.405 2.376 1.682-6.543 5.542-12.52 6.243-15.206.865-3.313-4.528 4.412-3.768 2.394 4.179-11.1 8.309-16.65 10.579-16.65z" fill="#51857A"/><path d="M1360.085 237.335h26.428c-2.136 10.388-3.204 26.903-3.204 49.544 0 22.642 1.602 45.283 4.805 67.925-6.433 2.13-11.372 3.196-14.815 3.196-3.444 0-8.382-1.065-14.816-3.196 2.67-28.768 4.004-51.41 4.004-67.925 0-16.514-.8-33.03-2.402-49.544z" fill="#6C624C"/><path d="M1366.13 167.813c9.566 0 25.445 8.484 43.034 25.454 1.343 1.295-13.364-5.512-11.941-3.879 4.104 4.714 24.63 19.108 29.4 26.64 1.08 1.704-11.568-4.925-10.266-2.666 2.652 4.6 17.212 16.564 20.786 23.465.783 1.511-9.829-4.679-8.827-2.689 2.1 4.171 16.184 18.134 19.246 24.409.85 1.743-9.26-4.583-8.027-2.034 3.636 7.52 27.807 20.313 29.442 26.37.845 3.133-21.464-8.016-24.483-7.99-6.336.055 3.247 8.174 0 8.202-5.877.05-18.072-7.44-22.654-7.403-6.18.05-4.216 7.621-8.038 7.648-7.466.053-17.842-10.875-23.755-10.844-8.997.046-12.509 11.037-17.908 11.033-7.456-.005-19.208-6.989-25.144-7.038-11.928-.099-15.732 6.67-21.526 6.393-15.796-.754-19.486-8.173-21.527-7.192-8.308 3.995-24.659 10.433-23.918 7.837 1.085-3.797 20.965-19.216 23.918-24.618 4.188-7.66-15.505 4.717-14.35 2.397 5.826-11.71 22.796-21.11 26.31-27.969 1.415-2.762-16.65 6.478-15.61 4.503 2.79-5.302 22.886-20.365 25.177-24.48 3.13-5.625-16.547 7.404-14.351 3.995 7.088-11.003 23.353-21.053 26.31-25.571 3.645-5.571-19.084 7.419-15.882 4.026 17.613-18.666 35.016-28 44.583-28z" fill="#3B6159"/><path d="M1364.222 92.696c5.797 0 15.419 8.485 26.077 25.455.813 1.295-8.098-5.512-7.236-3.879 2.487 4.714 14.924 19.108 17.815 26.64.654 1.704-7.01-4.925-6.221-2.666 1.607 4.6 10.43 16.564 12.595 23.465.474 1.511-5.956-4.679-5.349-2.689 1.272 4.171 9.807 18.134 11.662 24.409.515 1.743-5.61-4.584-4.864-2.034 2.204 7.52 16.85 20.313 17.84 26.37.512 3.133-13.006-8.016-14.835-7.99-3.839.055 1.968 8.174 0 8.202-3.56.05-10.95-7.44-13.727-7.403-3.745.05-2.554 7.621-4.87 7.648-4.524.052-10.811-10.875-14.394-10.845-5.451.047-7.58 11.038-10.851 11.034-4.518-.005-11.639-6.989-15.236-7.038-7.227-.099-9.532 6.67-13.043 6.393-9.571-.754-11.807-8.173-13.044-7.192-5.034 3.995-14.941 10.433-14.492 7.837.657-3.797 12.703-19.216 14.492-24.618 2.538-7.66-9.395 4.717-8.695 2.397 3.53-11.71 13.813-21.11 15.942-27.969.857-2.763-10.089 6.478-9.459 4.503 1.691-5.302 13.868-20.365 15.256-24.48 1.896-5.625-10.026 7.404-8.696 3.995 4.295-11.003 14.15-21.053 15.942-25.571 2.209-5.572-11.563 7.419-9.623 4.026 10.672-18.666 21.217-28 27.014-28z" fill="#436E65"/><path d="M1362.487 12.786c3.204 0 8.52 8.485 14.41 25.454.45 1.295-4.475-5.512-3.999-3.878 1.374 4.713 8.247 19.107 9.845 26.639.361 1.704-3.874-4.924-3.438-2.666.888 4.6 5.763 16.564 6.96 23.465.262 1.511-3.291-4.678-2.956-2.688.703 4.17 5.42 18.133 6.444 24.408.285 1.743-3.1-4.583-2.687-2.033 1.217 7.519 9.31 20.312 9.858 26.37.283 3.132-7.187-8.017-8.198-7.99-2.121.054 1.088 8.173 0 8.2-1.968.05-6.051-7.439-7.585-7.402-2.07.05-1.412 7.621-2.691 7.648-2.5.053-5.974-10.875-7.954-10.844-3.013.046-4.189 11.037-5.997 11.033-2.496-.005-6.43-6.988-8.418-7.038-3.994-.099-5.268 6.67-7.208 6.393-5.289-.754-6.525-8.173-7.208-7.192-2.782 3.996-8.256 10.433-8.008 7.837.363-3.797 7.02-19.216 8.008-24.618 1.402-7.66-5.191 4.717-4.805 2.397 1.951-11.71 7.633-21.11 8.81-27.969.473-2.762-5.575 6.478-5.227 4.503.934-5.302 7.663-20.365 8.43-24.48 1.048-5.625-5.54 7.404-4.805 3.995 2.373-11.002 7.82-21.053 8.81-25.571 1.22-5.571-6.39 7.42-5.319 4.026 5.898-18.666 11.725-28 14.928-28z" fill="#4B7A71"/><path d="M1362.103 0c2.27 0 6.038 5.046 10.211 15.137.319.77-3.17-3.278-2.833-2.307.974 2.803 5.844 11.363 6.976 15.842.256 1.013-2.745-2.929-2.436-1.586.63 2.736 4.084 9.85 4.932 13.954.186.899-2.332-2.782-2.094-1.599.498 2.48 3.84 10.784 4.567 14.515.202 1.037-2.198-2.725-1.905-1.209.863 4.471 6.598 12.079 6.986 15.682.2 1.862-5.093-4.768-5.81-4.752-1.503.032.771 4.86 0 4.877-1.394.03-4.288-4.424-5.375-4.402-1.466.03-1 4.532-1.907 4.548-1.772.03-4.234-6.467-5.637-6.45-2.135.029-2.968 6.564-4.25 6.562-1.768-.003-4.557-4.156-5.966-4.185-2.83-.059-3.733 3.966-5.108 3.802-3.748-.449-4.623-4.86-5.108-4.277-1.971 2.376-5.85 6.204-5.675 4.66.257-2.258 4.975-11.427 5.675-14.64.994-4.555-3.679 2.806-3.405 1.426 1.383-6.963 5.41-12.554 6.243-16.632.336-1.643-3.95 3.852-3.704 2.678.662-3.153 5.431-12.11 5.974-14.558.743-3.344-3.926 4.403-3.405 2.376 1.682-6.543 5.542-12.52 6.243-15.206.865-3.313-4.528 4.412-3.768 2.394 4.179-11.1 8.309-16.65 10.579-16.65z" fill="#51857A"/><path d="M1441.085 259.335h26.428c-2.136 10.388-3.204 26.903-3.204 49.544 0 22.642 1.602 45.283 4.805 67.925-6.433 2.13-11.372 3.196-14.815 3.196-3.444 0-8.382-1.065-14.816-3.196 2.67-28.768 4.004-51.41 4.004-67.925 0-16.514-.8-33.03-2.402-49.544z" fill="#6C624C"/><path d="M1447.13 189.813c9.566 0 25.445 8.484 43.034 25.454 1.343 1.295-13.364-5.512-11.941-3.879 4.104 4.714 24.63 19.108 29.4 26.64 1.08 1.704-11.568-4.925-10.266-2.666 2.652 4.6 17.212 16.564 20.786 23.465.783 1.511-9.829-4.679-8.827-2.689 2.1 4.171 16.184 18.134 19.246 24.409.85 1.743-9.26-4.583-8.027-2.034 3.636 7.52 27.807 20.313 29.442 26.37.845 3.133-21.464-8.016-24.483-7.99-6.336.055 3.247 8.174 0 8.202-5.877.05-18.072-7.44-22.654-7.403-6.18.05-4.216 7.621-8.038 7.648-7.466.053-17.842-10.875-23.755-10.844-8.997.046-12.509 11.037-17.908 11.033-7.456-.005-19.208-6.989-25.144-7.038-11.928-.099-15.732 6.67-21.526 6.393-15.796-.754-19.486-8.173-21.527-7.192-8.308 3.995-24.659 10.433-23.918 7.837 1.085-3.797 20.965-19.216 23.918-24.618 4.188-7.66-15.505 4.717-14.35 2.397 5.826-11.71 22.796-21.11 26.31-27.969 1.415-2.762-16.65 6.478-15.61 4.503 2.79-5.302 22.886-20.365 25.177-24.48 3.13-5.625-16.547 7.404-14.351 3.995 7.088-11.003 23.353-21.053 26.31-25.571 3.645-5.571-19.084 7.419-15.882 4.026 17.613-18.666 35.016-28 44.583-28z" fill="#3B6159"/><path d="M1445.222 114.696c5.797 0 15.419 8.485 26.077 25.455.813 1.295-8.098-5.512-7.236-3.879 2.487 4.714 14.924 19.108 17.815 26.64.654 1.704-7.01-4.925-6.221-2.666 1.607 4.6 10.43 16.564 12.595 23.465.474 1.511-5.956-4.679-5.349-2.689 1.272 4.171 9.807 18.134 11.662 24.409.515 1.743-5.61-4.584-4.864-2.034 2.204 7.52 16.85 20.313 17.84 26.37.512 3.133-13.006-8.016-14.835-7.99-3.839.055 1.968 8.174 0 8.202-3.56.05-10.95-7.44-13.727-7.403-3.745.05-2.554 7.621-4.87 7.648-4.524.052-10.811-10.875-14.394-10.845-5.451.047-7.58 11.038-10.851 11.034-4.518-.005-11.639-6.989-15.236-7.038-7.227-.099-9.532 6.67-13.043 6.393-9.571-.754-11.807-8.173-13.044-7.192-5.034 3.995-14.941 10.433-14.492 7.837.657-3.797 12.703-19.216 14.492-24.618 2.538-7.66-9.395 4.717-8.695 2.397 3.53-11.71 13.813-21.11 15.942-27.969.857-2.763-10.089 6.478-9.459 4.503 1.691-5.302 13.868-20.365 15.256-24.48 1.896-5.625-10.026 7.404-8.696 3.995 4.295-11.003 14.15-21.053 15.942-25.571 2.209-5.572-11.563 7.419-9.623 4.026 10.672-18.666 21.217-28 27.014-28z" fill="#436E65"/><path d="M1443.487 34.786c3.204 0 8.52 8.485 14.41 25.454.45 1.295-4.475-5.512-3.999-3.878 1.374 4.713 8.247 19.107 9.845 26.639.361 1.704-3.874-4.924-3.438-2.666.888 4.6 5.763 16.564 6.96 23.465.262 1.511-3.291-4.678-2.956-2.688.703 4.17 5.42 18.133 6.444 24.408.285 1.743-3.1-4.583-2.687-2.033 1.217 7.519 9.31 20.312 9.858 26.37.283 3.132-7.187-8.017-8.198-7.99-2.121.054 1.088 8.173 0 8.2-1.968.05-6.051-7.439-7.585-7.402-2.07.05-1.412 7.621-2.691 7.648-2.5.053-5.974-10.875-7.954-10.844-3.013.046-4.189 11.037-5.997 11.033-2.496-.005-6.43-6.988-8.418-7.038-3.994-.099-5.268 6.67-7.208 6.393-5.289-.754-6.525-8.173-7.208-7.192-2.782 3.996-8.256 10.433-8.008 7.837.363-3.797 7.02-19.216 8.008-24.618 1.402-7.66-5.191 4.717-4.805 2.397 1.951-11.71 7.633-21.11 8.81-27.969.473-2.762-5.575 6.478-5.227 4.503.934-5.302 7.663-20.365 8.43-24.48 1.048-5.625-5.54 7.404-4.805 3.995 2.373-11.002 7.82-21.053 8.81-25.571 1.22-5.571-6.39 7.42-5.319 4.026 5.898-18.666 11.725-28 14.928-28z" fill="#4B7A71"/><path d="M1443.103 22c2.27 0 6.038 5.046 10.211 15.137.319.77-3.17-3.278-2.833-2.307.974 2.803 5.844 11.363 6.976 15.842.256 1.013-2.745-2.929-2.436-1.586.63 2.736 4.084 9.85 4.932 13.954.186.899-2.332-2.782-2.094-1.599.498 2.48 3.84 10.784 4.567 14.515.202 1.037-2.198-2.725-1.905-1.209.863 4.471 6.598 12.079 6.986 15.682.2 1.862-5.093-4.768-5.81-4.752-1.503.032.771 4.86 0 4.877-1.394.03-4.288-4.424-5.375-4.402-1.466.03-1 4.532-1.907 4.548-1.772.03-4.234-6.467-5.637-6.45-2.135.029-2.968 6.564-4.25 6.562-1.768-.003-4.557-4.156-5.966-4.185-2.83-.059-3.733 3.966-5.108 3.802-3.748-.449-4.623-4.86-5.108-4.277-1.971 2.376-5.85 6.204-5.675 4.66.257-2.258 4.975-11.427 5.675-14.64.994-4.555-3.679 2.806-3.405 1.426 1.383-6.963 5.41-12.554 6.243-16.632.336-1.643-3.95 3.852-3.704 2.678.662-3.153 5.431-12.11 5.974-14.558.743-3.344-3.926 4.403-3.405 2.376 1.682-6.543 5.542-12.52 6.243-15.206.865-3.313-4.528 4.412-3.768 2.394 4.179-11.1 8.309-16.65 10.579-16.65z" fill="#51857A"/><path d="M1193.085 237.335h26.428c-2.136 10.388-3.204 26.903-3.204 49.544 0 22.642 1.602 45.283 4.805 67.925-6.433 2.13-11.372 3.196-14.815 3.196-3.444 0-8.382-1.065-14.816-3.196 2.67-28.768 4.004-51.41 4.004-67.925 0-16.514-.8-33.03-2.402-49.544z" fill="#6C624C"/><path d="M1199.13 167.813c9.566 0 25.445 8.484 43.034 25.454 1.343 1.295-13.364-5.512-11.941-3.879 4.104 4.714 24.63 19.108 29.4 26.64 1.08 1.704-11.568-4.925-10.266-2.666 2.652 4.6 17.212 16.564 20.786 23.465.783 1.511-9.829-4.679-8.827-2.689 2.1 4.171 16.184 18.134 19.246 24.409.85 1.743-9.26-4.583-8.027-2.034 3.636 7.52 27.807 20.313 29.442 26.37.845 3.133-21.464-8.016-24.483-7.99-6.336.055 3.247 8.174 0 8.202-5.877.05-18.072-7.44-22.654-7.403-6.18.05-4.216 7.621-8.038 7.648-7.466.053-17.842-10.875-23.755-10.844-8.997.046-12.509 11.037-17.908 11.033-7.456-.005-19.208-6.989-25.144-7.038-11.928-.099-15.732 6.67-21.526 6.393-15.796-.754-19.486-8.173-21.527-7.192-8.308 3.995-24.659 10.433-23.918 7.837 1.085-3.797 20.965-19.216 23.918-24.618 4.188-7.66-15.505 4.717-14.35 2.397 5.826-11.71 22.796-21.11 26.31-27.969 1.415-2.762-16.65 6.478-15.61 4.503 2.79-5.302 22.886-20.365 25.177-24.48 3.13-5.625-16.547 7.404-14.351 3.995 7.088-11.003 23.353-21.053 26.31-25.571 3.645-5.571-19.084 7.419-15.882 4.026 17.613-18.666 35.016-28 44.583-28z" fill="#3B6159"/><path d="M1197.222 92.696c5.797 0 15.419 8.485 26.077 25.455.813 1.295-8.098-5.512-7.236-3.879 2.487 4.714 14.924 19.108 17.815 26.64.654 1.704-7.01-4.925-6.221-2.666 1.607 4.6 10.43 16.564 12.595 23.465.474 1.511-5.956-4.679-5.349-2.689 1.272 4.171 9.807 18.134 11.662 24.409.515 1.743-5.61-4.584-4.864-2.034 2.204 7.52 16.85 20.313 17.84 26.37.512 3.133-13.006-8.016-14.835-7.99-3.839.055 1.968 8.174 0 8.202-3.56.05-10.95-7.44-13.727-7.403-3.745.05-2.554 7.621-4.87 7.648-4.524.052-10.811-10.875-14.394-10.845-5.451.047-7.58 11.038-10.851 11.034-4.518-.005-11.639-6.989-15.236-7.038-7.227-.099-9.532 6.67-13.043 6.393-9.571-.754-11.807-8.173-13.044-7.192-5.034 3.995-14.941 10.433-14.492 7.837.657-3.797 12.703-19.216 14.492-24.618 2.538-7.66-9.395 4.717-8.695 2.397 3.53-11.71 13.813-21.11 15.942-27.969.857-2.763-10.089 6.478-9.459 4.503 1.691-5.302 13.868-20.365 15.256-24.48 1.896-5.625-10.026 7.404-8.696 3.995 4.295-11.003 14.15-21.053 15.942-25.571 2.209-5.572-11.563 7.419-9.623 4.026 10.672-18.666 21.217-28 27.014-28z" fill="#436E65"/><path d="M1195.487 12.786c3.204 0 8.52 8.485 14.41 25.454.45 1.295-4.475-5.512-3.999-3.878 1.374 4.713 8.247 19.107 9.845 26.639.361 1.704-3.874-4.924-3.438-2.666.888 4.6 5.763 16.564 6.96 23.465.262 1.511-3.291-4.678-2.956-2.688.703 4.17 5.42 18.133 6.444 24.408.285 1.743-3.1-4.583-2.687-2.033 1.217 7.519 9.31 20.312 9.858 26.37.283 3.132-7.187-8.017-8.198-7.99-2.121.054 1.088 8.173 0 8.2-1.968.05-6.051-7.439-7.585-7.402-2.07.05-1.412 7.621-2.691 7.648-2.5.053-5.974-10.875-7.954-10.844-3.013.046-4.189 11.037-5.997 11.033-2.496-.005-6.43-6.988-8.418-7.038-3.994-.099-5.268 6.67-7.208 6.393-5.289-.754-6.525-8.173-7.208-7.192-2.782 3.996-8.256 10.433-8.008 7.837.363-3.797 7.02-19.216 8.008-24.618 1.402-7.66-5.191 4.717-4.805 2.397 1.951-11.71 7.633-21.11 8.81-27.969.473-2.762-5.575 6.478-5.227 4.503.934-5.302 7.663-20.365 8.43-24.48 1.048-5.625-5.54 7.404-4.805 3.995 2.373-11.002 7.82-21.053 8.81-25.571 1.22-5.571-6.39 7.42-5.319 4.026 5.898-18.666 11.725-28 14.928-28z" fill="#4B7A71"/><path d="M1195.103 0c2.27 0 6.038 5.046 10.211 15.137.319.77-3.17-3.278-2.833-2.307.974 2.803 5.844 11.363 6.976 15.842.256 1.013-2.745-2.929-2.436-1.586.63 2.736 4.084 9.85 4.932 13.954.186.899-2.332-2.782-2.094-1.599.498 2.48 3.84 10.784 4.567 14.515.202 1.037-2.198-2.725-1.905-1.209.863 4.471 6.598 12.079 6.986 15.682.2 1.862-5.093-4.768-5.81-4.752-1.503.032.771 4.86 0 4.877-1.394.03-4.288-4.424-5.375-4.402-1.466.03-1 4.532-1.907 4.548-1.772.03-4.234-6.467-5.637-6.45-2.135.029-2.968 6.564-4.25 6.562-1.768-.003-4.557-4.156-5.966-4.185-2.83-.059-3.733 3.966-5.108 3.802-3.748-.449-4.623-4.86-5.108-4.277-1.971 2.376-5.85 6.204-5.675 4.66.257-2.258 4.975-11.427 5.675-14.64.994-4.555-3.679 2.806-3.405 1.426 1.383-6.963 5.41-12.554 6.243-16.632.336-1.643-3.95 3.852-3.704 2.678.662-3.153 5.431-12.11 5.974-14.558.743-3.344-3.926 4.403-3.405 2.376 1.682-6.543 5.542-12.52 6.243-15.206.865-3.313-4.528 4.412-3.768 2.394 4.179-11.1 8.309-16.65 10.579-16.65z" fill="#51857A"/><path d="M1266.085 270.335h26.428c-2.136 10.388-3.204 26.903-3.204 49.544 0 22.642 1.602 45.283 4.805 67.925-6.433 2.13-11.372 3.196-14.815 3.196-3.444 0-8.382-1.065-14.816-3.196 2.67-28.768 4.004-51.41 4.004-67.925 0-16.514-.8-33.03-2.402-49.544z" fill="#6C624C"/><path d="M1272.13 200.813c9.566 0 25.445 8.484 43.034 25.454 1.343 1.295-13.364-5.512-11.941-3.879 4.104 4.714 24.63 19.108 29.4 26.64 1.08 1.704-11.568-4.925-10.266-2.666 2.652 4.6 17.212 16.564 20.786 23.465.783 1.511-9.829-4.679-8.827-2.689 2.1 4.171 16.184 18.134 19.246 24.409.85 1.743-9.26-4.583-8.027-2.034 3.636 7.52 27.807 20.313 29.442 26.37.845 3.133-21.464-8.016-24.483-7.99-6.336.055 3.247 8.174 0 8.202-5.877.05-18.072-7.44-22.654-7.403-6.18.05-4.216 7.621-8.038 7.648-7.466.053-17.842-10.875-23.755-10.844-8.997.046-12.509 11.037-17.908 11.033-7.456-.005-19.208-6.989-25.144-7.038-11.928-.099-15.732 6.67-21.526 6.393-15.796-.754-19.486-8.173-21.527-7.192-8.308 3.995-24.659 10.433-23.918 7.837 1.085-3.797 20.965-19.216 23.918-24.618 4.188-7.66-15.505 4.717-14.35 2.397 5.826-11.71 22.796-21.11 26.31-27.969 1.415-2.762-16.65 6.478-15.61 4.503 2.79-5.302 22.886-20.365 25.177-24.48 3.13-5.625-16.547 7.404-14.351 3.995 7.088-11.003 23.353-21.053 26.31-25.571 3.645-5.571-19.084 7.419-15.882 4.026 17.613-18.666 35.016-28 44.583-28z" fill="#3B6159"/><path d="M1270.222 125.696c5.797 0 15.419 8.485 26.077 25.455.813 1.295-8.098-5.512-7.236-3.879 2.487 4.714 14.924 19.108 17.815 26.64.654 1.704-7.01-4.925-6.221-2.666 1.607 4.6 10.43 16.564 12.595 23.465.474 1.511-5.956-4.679-5.349-2.689 1.272 4.171 9.807 18.134 11.662 24.409.515 1.743-5.61-4.584-4.864-2.034 2.204 7.52 16.85 20.313 17.84 26.37.512 3.133-13.006-8.016-14.835-7.99-3.839.055 1.968 8.174 0 8.202-3.56.05-10.95-7.44-13.727-7.403-3.745.05-2.554 7.621-4.87 7.648-4.524.052-10.811-10.875-14.394-10.845-5.451.047-7.58 11.038-10.851 11.034-4.518-.005-11.639-6.989-15.236-7.038-7.227-.099-9.532 6.67-13.043 6.393-9.571-.754-11.807-8.173-13.044-7.192-5.034 3.995-14.941 10.433-14.492 7.837.657-3.797 12.703-19.216 14.492-24.618 2.538-7.66-9.395 4.717-8.695 2.397 3.53-11.71 13.813-21.11 15.942-27.969.857-2.763-10.089 6.478-9.459 4.503 1.691-5.302 13.868-20.365 15.256-24.48 1.896-5.625-10.026 7.404-8.696 3.995 4.295-11.003 14.15-21.053 15.942-25.571 2.209-5.572-11.563 7.419-9.623 4.026 10.672-18.666 21.217-28 27.014-28z" fill="#436E65"/><path d="M1268.487 45.786c3.204 0 8.52 8.485 14.41 25.454.45 1.295-4.475-5.512-3.999-3.878 1.374 4.713 8.247 19.107 9.845 26.639.361 1.704-3.874-4.924-3.438-2.666.888 4.6 5.763 16.564 6.96 23.465.262 1.511-3.291-4.678-2.956-2.688.703 4.17 5.42 18.133 6.444 24.408.285 1.743-3.1-4.583-2.687-2.033 1.217 7.519 9.31 20.312 9.858 26.37.283 3.132-7.187-8.017-8.198-7.99-2.121.054 1.088 8.173 0 8.2-1.968.05-6.051-7.439-7.585-7.402-2.07.05-1.412 7.621-2.691 7.648-2.5.053-5.974-10.875-7.954-10.844-3.013.046-4.189 11.037-5.997 11.033-2.496-.005-6.43-6.988-8.418-7.038-3.994-.099-5.268 6.67-7.208 6.393-5.289-.754-6.525-8.173-7.208-7.192-2.782 3.996-8.256 10.433-8.008 7.837.363-3.797 7.02-19.216 8.008-24.618 1.402-7.66-5.191 4.717-4.805 2.397 1.951-11.71 7.633-21.11 8.81-27.969.473-2.762-5.575 6.478-5.227 4.503.934-5.302 7.663-20.365 8.43-24.48 1.048-5.625-5.54 7.404-4.805 3.995 2.373-11.002 7.82-21.053 8.81-25.571 1.22-5.571-6.39 7.42-5.319 4.026 5.898-18.666 11.725-28 14.928-28z" fill="#4B7A71"/><path d="M1268.103 33c2.27 0 6.038 5.046 10.211 15.137.319.77-3.17-3.278-2.833-2.307.974 2.803 5.844 11.363 6.976 15.842.256 1.013-2.745-2.929-2.436-1.586.63 2.736 4.084 9.85 4.932 13.954.186.899-2.332-2.782-2.094-1.599.498 2.48 3.84 10.784 4.567 14.515.202 1.037-2.198-2.725-1.905-1.209.863 4.471 6.598 12.079 6.986 15.682.2 1.862-5.093-4.768-5.81-4.752-1.503.032.771 4.86 0 4.877-1.394.03-4.288-4.424-5.375-4.402-1.466.03-1 4.532-1.907 4.548-1.772.03-4.234-6.467-5.637-6.45-2.135.029-2.968 6.564-4.25 6.562-1.768-.003-4.557-4.156-5.966-4.185-2.83-.059-3.733 3.966-5.108 3.802-3.748-.449-4.623-4.86-5.108-4.277-1.971 2.376-5.85 6.204-5.675 4.66.257-2.258 4.975-11.427 5.675-14.64.994-4.555-3.679 2.806-3.405 1.426 1.383-6.963 5.41-12.554 6.243-16.632.336-1.643-3.95 3.852-3.704 2.678.662-3.153 5.431-12.11 5.974-14.558.743-3.344-3.926 4.403-3.405 2.376 1.682-6.543 5.542-12.52 6.243-15.206.865-3.313-4.528 4.412-3.768 2.394 4.179-11.1 8.309-16.65 10.579-16.65z" fill="#51857A"/><path d="M1412.085 302.335h26.428c-2.136 10.388-3.204 26.903-3.204 49.544 0 22.642 1.602 45.283 4.805 67.925-6.433 2.13-11.372 3.196-14.815 3.196-3.444 0-8.382-1.065-14.816-3.196 2.67-28.768 4.004-51.41 4.004-67.925 0-16.514-.8-33.03-2.402-49.544z" fill="#6C624C"/><path d="M1418.13 232.813c9.566 0 25.445 8.484 43.034 25.454 1.343 1.295-13.364-5.512-11.941-3.879 4.104 4.714 24.63 19.108 29.4 26.64 1.08 1.704-11.568-4.925-10.266-2.666 2.652 4.6 17.212 16.564 20.786 23.465.783 1.511-9.829-4.679-8.827-2.689 2.1 4.171 16.184 18.134 19.246 24.409.85 1.743-9.26-4.583-8.027-2.034 3.636 7.52 27.807 20.313 29.442 26.37.845 3.133-21.464-8.016-24.483-7.99-6.336.055 3.247 8.174 0 8.202-5.877.05-18.072-7.44-22.654-7.403-6.18.05-4.216 7.621-8.038 7.648-7.466.053-17.842-10.875-23.755-10.844-8.997.046-12.509 11.037-17.908 11.033-7.456-.005-19.208-6.989-25.144-7.038-11.928-.099-15.732 6.67-21.526 6.393-15.796-.754-19.486-8.173-21.527-7.192-8.308 3.995-24.659 10.433-23.918 7.837 1.085-3.797 20.965-19.216 23.918-24.618 4.188-7.66-15.505 4.717-14.35 2.397 5.826-11.71 22.796-21.11 26.31-27.969 1.415-2.762-16.65 6.478-15.61 4.503 2.79-5.302 22.886-20.365 25.177-24.48 3.13-5.625-16.547 7.404-14.351 3.995 7.088-11.003 23.353-21.053 26.31-25.571 3.645-5.571-19.084 7.419-15.882 4.026 17.613-18.666 35.016-28 44.583-28z" fill="#3B6159"/><path d="M1416.222 157.696c5.797 0 15.419 8.485 26.077 25.455.813 1.295-8.098-5.512-7.236-3.879 2.487 4.714 14.924 19.108 17.815 26.64.654 1.704-7.01-4.925-6.221-2.666 1.607 4.6 10.43 16.564 12.595 23.465.474 1.511-5.956-4.679-5.349-2.689 1.272 4.171 9.807 18.134 11.662 24.409.515 1.743-5.61-4.584-4.864-2.034 2.204 7.52 16.85 20.313 17.84 26.37.512 3.133-13.006-8.016-14.835-7.99-3.839.055 1.968 8.174 0 8.202-3.56.05-10.95-7.44-13.727-7.403-3.745.05-2.554 7.621-4.87 7.648-4.524.052-10.811-10.875-14.394-10.845-5.451.047-7.58 11.038-10.851 11.034-4.518-.005-11.639-6.989-15.236-7.038-7.227-.099-9.532 6.67-13.043 6.393-9.571-.754-11.807-8.173-13.044-7.192-5.034 3.995-14.941 10.433-14.492 7.837.657-3.797 12.703-19.216 14.492-24.618 2.538-7.66-9.395 4.717-8.695 2.397 3.53-11.71 13.813-21.11 15.942-27.969.857-2.763-10.089 6.478-9.459 4.503 1.691-5.302 13.868-20.365 15.256-24.48 1.896-5.625-10.026 7.404-8.696 3.995 4.295-11.003 14.15-21.053 15.942-25.571 2.209-5.572-11.563 7.419-9.623 4.026 10.672-18.666 21.217-28 27.014-28z" fill="#436E65"/><path d="M1414.487 77.786c3.204 0 8.52 8.485 14.41 25.454.45 1.295-4.475-5.512-3.999-3.878 1.374 4.713 8.247 19.107 9.845 26.639.361 1.704-3.874-4.924-3.438-2.666.888 4.6 5.763 16.564 6.96 23.465.262 1.511-3.291-4.678-2.956-2.688.703 4.17 5.42 18.133 6.444 24.408.285 1.743-3.1-4.583-2.687-2.033 1.217 7.519 9.31 20.312 9.858 26.37.283 3.132-7.187-8.017-8.198-7.99-2.121.054 1.088 8.173 0 8.2-1.968.05-6.051-7.439-7.585-7.402-2.07.05-1.412 7.621-2.691 7.648-2.5.053-5.974-10.875-7.954-10.844-3.013.046-4.189 11.037-5.997 11.033-2.496-.005-6.43-6.988-8.418-7.038-3.994-.099-5.268 6.67-7.208 6.393-5.289-.754-6.525-8.173-7.208-7.192-2.782 3.996-8.256 10.433-8.008 7.837.363-3.797 7.02-19.216 8.008-24.618 1.402-7.66-5.191 4.717-4.805 2.397 1.951-11.71 7.633-21.11 8.81-27.969.473-2.762-5.575 6.478-5.227 4.503.934-5.302 7.663-20.365 8.43-24.48 1.048-5.625-5.54 7.404-4.805 3.995 2.373-11.002 7.82-21.053 8.81-25.571 1.22-5.571-6.39 7.42-5.319 4.026 5.898-18.666 11.725-28 14.928-28z" fill="#4B7A71"/><path d="M1414.103 65c2.27 0 6.038 5.046 10.211 15.137.319.77-3.17-3.278-2.833-2.307.974 2.803 5.844 11.363 6.976 15.842.256 1.013-2.745-2.929-2.436-1.586.63 2.736 4.084 9.85 4.932 13.954.186.899-2.332-2.782-2.094-1.599.498 2.48 3.84 10.784 4.567 14.515.202 1.037-2.198-2.725-1.905-1.209.863 4.471 6.598 12.079 6.986 15.682.2 1.862-5.093-4.768-5.81-4.752-1.503.032.771 4.86 0 4.877-1.394.03-4.288-4.424-5.375-4.402-1.466.03-1 4.532-1.907 4.548-1.772.03-4.234-6.467-5.637-6.45-2.135.029-2.968 6.564-4.25 6.562-1.768-.003-4.557-4.156-5.966-4.185-2.83-.059-3.733 3.966-5.108 3.802-3.748-.449-4.623-4.86-5.108-4.277-1.971 2.376-5.85 6.204-5.675 4.66.257-2.258 4.975-11.427 5.675-14.64.994-4.555-3.679 2.806-3.405 1.426 1.383-6.963 5.41-12.554 6.243-16.632.336-1.643-3.95 3.852-3.704 2.678.662-3.153 5.431-12.11 5.974-14.558.743-3.344-3.926 4.403-3.405 2.376 1.682-6.543 5.542-12.52 6.243-15.206.865-3.313-4.528 4.412-3.768 2.394 4.179-11.1 8.309-16.65 10.579-16.65z" fill="#51857A"/><path d="M1312.085 325.335h26.428c-2.136 10.388-3.204 26.903-3.204 49.544 0 22.642 1.602 45.283 4.805 67.925-6.433 2.13-11.372 3.196-14.815 3.196-3.444 0-8.382-1.065-14.816-3.196 2.67-28.768 4.004-51.41 4.004-67.925 0-16.514-.8-33.03-2.402-49.544z" fill="#6C624C"/><path d="M1318.13 255.813c9.566 0 25.445 8.484 43.034 25.454 1.343 1.295-13.364-5.512-11.941-3.879 4.104 4.714 24.63 19.108 29.4 26.64 1.08 1.704-11.568-4.925-10.266-2.666 2.652 4.6 17.212 16.564 20.786 23.465.783 1.511-9.829-4.679-8.827-2.689 2.1 4.171 16.184 18.134 19.246 24.409.85 1.743-9.26-4.583-8.027-2.034 3.636 7.52 27.807 20.313 29.442 26.37.845 3.133-21.464-8.016-24.483-7.99-6.336.055 3.247 8.174 0 8.202-5.877.05-18.072-7.44-22.654-7.403-6.18.05-4.216 7.621-8.038 7.648-7.466.053-17.842-10.875-23.755-10.844-8.997.046-12.509 11.037-17.908 11.033-7.456-.005-19.208-6.989-25.144-7.038-11.928-.099-15.732 6.67-21.526 6.393-15.796-.754-19.486-8.173-21.527-7.192-8.308 3.995-24.659 10.433-23.918 7.837 1.085-3.797 20.965-19.216 23.918-24.618 4.188-7.66-15.505 4.717-14.35 2.397 5.826-11.71 22.796-21.11 26.31-27.969 1.415-2.762-16.65 6.478-15.61 4.503 2.79-5.302 22.886-20.365 25.177-24.48 3.13-5.625-16.547 7.404-14.351 3.995 7.088-11.003 23.353-21.053 26.31-25.571 3.645-5.571-19.084 7.419-15.882 4.026 17.613-18.666 35.016-28 44.583-28z" fill="#3B6159"/><path d="M1316.222 180.696c5.797 0 15.419 8.485 26.077 25.455.813 1.295-8.098-5.512-7.236-3.879 2.487 4.714 14.924 19.108 17.815 26.64.654 1.704-7.01-4.925-6.221-2.666 1.607 4.6 10.43 16.564 12.595 23.465.474 1.511-5.956-4.679-5.349-2.689 1.272 4.171 9.807 18.134 11.662 24.409.515 1.743-5.61-4.584-4.864-2.034 2.204 7.52 16.85 20.313 17.84 26.37.512 3.133-13.006-8.016-14.835-7.99-3.839.055 1.968 8.174 0 8.202-3.56.05-10.95-7.44-13.727-7.403-3.745.05-2.554 7.621-4.87 7.648-4.524.052-10.811-10.875-14.394-10.845-5.451.047-7.58 11.038-10.851 11.034-4.518-.005-11.639-6.989-15.236-7.038-7.227-.099-9.532 6.67-13.043 6.393-9.571-.754-11.807-8.173-13.044-7.192-5.034 3.995-14.941 10.433-14.492 7.837.657-3.797 12.703-19.216 14.492-24.618 2.538-7.66-9.395 4.717-8.695 2.397 3.53-11.71 13.813-21.11 15.942-27.969.857-2.763-10.089 6.478-9.459 4.503 1.691-5.302 13.868-20.365 15.256-24.48 1.896-5.625-10.026 7.404-8.696 3.995 4.295-11.003 14.15-21.053 15.942-25.571 2.209-5.572-11.563 7.419-9.623 4.026 10.672-18.666 21.217-28 27.014-28z" fill="#436E65"/><path d="M1314.487 100.786c3.204 0 8.52 8.485 14.41 25.454.45 1.295-4.475-5.512-3.999-3.878 1.374 4.713 8.247 19.107 9.845 26.639.361 1.704-3.874-4.924-3.438-2.666.888 4.6 5.763 16.564 6.96 23.465.262 1.511-3.291-4.678-2.956-2.688.703 4.17 5.42 18.133 6.444 24.408.285 1.743-3.1-4.583-2.687-2.033 1.217 7.519 9.31 20.312 9.858 26.37.283 3.132-7.187-8.017-8.198-7.99-2.121.054 1.088 8.173 0 8.2-1.968.05-6.051-7.439-7.585-7.402-2.07.05-1.412 7.621-2.691 7.648-2.5.053-5.974-10.875-7.954-10.844-3.013.046-4.189 11.037-5.997 11.033-2.496-.005-6.43-6.988-8.418-7.038-3.994-.099-5.268 6.67-7.208 6.393-5.289-.754-6.525-8.173-7.208-7.192-2.782 3.996-8.256 10.433-8.008 7.837.363-3.797 7.02-19.216 8.008-24.618 1.402-7.66-5.191 4.717-4.805 2.397 1.951-11.71 7.633-21.11 8.81-27.969.473-2.762-5.575 6.478-5.227 4.503.934-5.302 7.663-20.365 8.43-24.48 1.048-5.625-5.54 7.404-4.805 3.995 2.373-11.002 7.82-21.053 8.81-25.571 1.22-5.571-6.39 7.42-5.319 4.026 5.898-18.666 11.725-28 14.928-28z" fill="#4B7A71"/><path d="M1314.103 88c2.27 0 6.038 5.046 10.211 15.137.319.77-3.17-3.278-2.833-2.307.974 2.803 5.844 11.363 6.976 15.842.256 1.013-2.745-2.929-2.436-1.586.63 2.736 4.084 9.85 4.932 13.954.186.899-2.332-2.782-2.094-1.599.498 2.48 3.84 10.784 4.567 14.515.202 1.037-2.198-2.725-1.905-1.209.863 4.471 6.598 12.079 6.986 15.682.2 1.862-5.093-4.768-5.81-4.752-1.503.032.771 4.86 0 4.877-1.394.03-4.288-4.424-5.375-4.402-1.466.03-1 4.532-1.907 4.548-1.772.03-4.234-6.467-5.637-6.45-2.135.029-2.968 6.564-4.25 6.562-1.768-.003-4.557-4.156-5.966-4.185-2.83-.059-3.733 3.966-5.108 3.802-3.748-.449-4.623-4.86-5.108-4.277-1.971 2.376-5.85 6.204-5.675 4.66.257-2.258 4.975-11.427 5.675-14.64.994-4.555-3.679 2.806-3.405 1.426 1.383-6.963 5.41-12.554 6.243-16.632.336-1.643-3.95 3.852-3.704 2.678.662-3.153 5.431-12.11 5.974-14.558.743-3.344-3.926 4.403-3.405 2.376 1.682-6.543 5.542-12.52 6.243-15.206.865-3.313-4.528 4.412-3.768 2.394 4.179-11.1 8.309-16.65 10.579-16.65z" fill="#51857A"/><path d="M1312.085 325.335h26.428c-2.136 10.388-3.204 26.903-3.204 49.544 0 22.642 1.602 45.283 4.805 67.925-6.433 2.13-11.372 3.196-14.815 3.196-3.444 0-8.382-1.065-14.816-3.196 2.67-28.768 4.004-51.41 4.004-67.925 0-16.514-.8-33.03-2.402-49.544z" fill="#6C624C"/><path d="M1318.13 255.813c9.566 0 25.445 8.484 43.034 25.454 1.343 1.295-13.364-5.512-11.941-3.879 4.104 4.714 24.63 19.108 29.4 26.64 1.08 1.704-11.568-4.925-10.266-2.666 2.652 4.6 17.212 16.564 20.786 23.465.783 1.511-9.829-4.679-8.827-2.689 2.1 4.171 16.184 18.134 19.246 24.409.85 1.743-9.26-4.583-8.027-2.034 3.636 7.52 27.807 20.313 29.442 26.37.845 3.133-21.464-8.016-24.483-7.99-6.336.055 3.247 8.174 0 8.202-5.877.05-18.072-7.44-22.654-7.403-6.18.05-4.216 7.621-8.038 7.648-7.466.053-17.842-10.875-23.755-10.844-8.997.046-12.509 11.037-17.908 11.033-7.456-.005-19.208-6.989-25.144-7.038-11.928-.099-15.732 6.67-21.526 6.393-15.796-.754-19.486-8.173-21.527-7.192-8.308 3.995-24.659 10.433-23.918 7.837 1.085-3.797 20.965-19.216 23.918-24.618 4.188-7.66-15.505 4.717-14.35 2.397 5.826-11.71 22.796-21.11 26.31-27.969 1.415-2.762-16.65 6.478-15.61 4.503 2.79-5.302 22.886-20.365 25.177-24.48 3.13-5.625-16.547 7.404-14.351 3.995 7.088-11.003 23.353-21.053 26.31-25.571 3.645-5.571-19.084 7.419-15.882 4.026 17.613-18.666 35.016-28 44.583-28z" fill="#3B6159"/><path d="M1316.222 180.696c5.797 0 15.419 8.485 26.077 25.455.813 1.295-8.098-5.512-7.236-3.879 2.487 4.714 14.924 19.108 17.815 26.64.654 1.704-7.01-4.925-6.221-2.666 1.607 4.6 10.43 16.564 12.595 23.465.474 1.511-5.956-4.679-5.349-2.689 1.272 4.171 9.807 18.134 11.662 24.409.515 1.743-5.61-4.584-4.864-2.034 2.204 7.52 16.85 20.313 17.84 26.37.512 3.133-13.006-8.016-14.835-7.99-3.839.055 1.968 8.174 0 8.202-3.56.05-10.95-7.44-13.727-7.403-3.745.05-2.554 7.621-4.87 7.648-4.524.052-10.811-10.875-14.394-10.845-5.451.047-7.58 11.038-10.851 11.034-4.518-.005-11.639-6.989-15.236-7.038-7.227-.099-9.532 6.67-13.043 6.393-9.571-.754-11.807-8.173-13.044-7.192-5.034 3.995-14.941 10.433-14.492 7.837.657-3.797 12.703-19.216 14.492-24.618 2.538-7.66-9.395 4.717-8.695 2.397 3.53-11.71 13.813-21.11 15.942-27.969.857-2.763-10.089 6.478-9.459 4.503 1.691-5.302 13.868-20.365 15.256-24.48 1.896-5.625-10.026 7.404-8.696 3.995 4.295-11.003 14.15-21.053 15.942-25.571 2.209-5.572-11.563 7.419-9.623 4.026 10.672-18.666 21.217-28 27.014-28z" fill="#436E65"/><path d="M1314.487 100.786c3.204 0 8.52 8.485 14.41 25.454.45 1.295-4.475-5.512-3.999-3.878 1.374 4.713 8.247 19.107 9.845 26.639.361 1.704-3.874-4.924-3.438-2.666.888 4.6 5.763 16.564 6.96 23.465.262 1.511-3.291-4.678-2.956-2.688.703 4.17 5.42 18.133 6.444 24.408.285 1.743-3.1-4.583-2.687-2.033 1.217 7.519 9.31 20.312 9.858 26.37.283 3.132-7.187-8.017-8.198-7.99-2.121.054 1.088 8.173 0 8.2-1.968.05-6.051-7.439-7.585-7.402-2.07.05-1.412 7.621-2.691 7.648-2.5.053-5.974-10.875-7.954-10.844-3.013.046-4.189 11.037-5.997 11.033-2.496-.005-6.43-6.988-8.418-7.038-3.994-.099-5.268 6.67-7.208 6.393-5.289-.754-6.525-8.173-7.208-7.192-2.782 3.996-8.256 10.433-8.008 7.837.363-3.797 7.02-19.216 8.008-24.618 1.402-7.66-5.191 4.717-4.805 2.397 1.951-11.71 7.633-21.11 8.81-27.969.473-2.762-5.575 6.478-5.227 4.503.934-5.302 7.663-20.365 8.43-24.48 1.048-5.625-5.54 7.404-4.805 3.995 2.373-11.002 7.82-21.053 8.81-25.571 1.22-5.571-6.39 7.42-5.319 4.026 5.898-18.666 11.725-28 14.928-28z" fill="#4B7A71"/><path d="M1314.103 88c2.27 0 6.038 5.046 10.211 15.137.319.77-3.17-3.278-2.833-2.307.974 2.803 5.844 11.363 6.976 15.842.256 1.013-2.745-2.929-2.436-1.586.63 2.736 4.084 9.85 4.932 13.954.186.899-2.332-2.782-2.094-1.599.498 2.48 3.84 10.784 4.567 14.515.202 1.037-2.198-2.725-1.905-1.209.863 4.471 6.598 12.079 6.986 15.682.2 1.862-5.093-4.768-5.81-4.752-1.503.032.771 4.86 0 4.877-1.394.03-4.288-4.424-5.375-4.402-1.466.03-1 4.532-1.907 4.548-1.772.03-4.234-6.467-5.637-6.45-2.135.029-2.968 6.564-4.25 6.562-1.768-.003-4.557-4.156-5.966-4.185-2.83-.059-3.733 3.966-5.108 3.802-3.748-.449-4.623-4.86-5.108-4.277-1.971 2.376-5.85 6.204-5.675 4.66.257-2.258 4.975-11.427 5.675-14.64.994-4.555-3.679 2.806-3.405 1.426 1.383-6.963 5.41-12.554 6.243-16.632.336-1.643-3.95 3.852-3.704 2.678.662-3.153 5.431-12.11 5.974-14.558.743-3.344-3.926 4.403-3.405 2.376 1.682-6.543 5.542-12.52 6.243-15.206.865-3.313-4.528 4.412-3.768 2.394 4.179-11.1 8.309-16.65 10.579-16.65z" fill="#51857A"/><path d="M1227.085 303.335h26.428c-2.136 10.388-3.204 26.903-3.204 49.544 0 22.642 1.602 45.283 4.805 67.925-6.433 2.13-11.372 3.196-14.815 3.196-3.444 0-8.382-1.065-14.816-3.196 2.67-28.768 4.004-51.41 4.004-67.925 0-16.514-.8-33.03-2.402-49.544z" fill="#6C624C"/><path d="M1233.13 233.813c9.566 0 25.445 8.484 43.034 25.454 1.343 1.295-13.364-5.512-11.941-3.879 4.104 4.714 24.63 19.108 29.4 26.64 1.08 1.704-11.568-4.925-10.266-2.666 2.652 4.6 17.212 16.564 20.786 23.465.783 1.511-9.829-4.679-8.827-2.689 2.1 4.171 16.184 18.134 19.246 24.409.85 1.743-9.26-4.583-8.027-2.034 3.636 7.52 27.807 20.313 29.442 26.37.845 3.133-21.464-8.016-24.483-7.99-6.336.055 3.247 8.174 0 8.202-5.877.05-18.072-7.44-22.654-7.403-6.18.05-4.216 7.621-8.038 7.648-7.466.053-17.842-10.875-23.755-10.844-8.997.046-12.509 11.037-17.908 11.033-7.456-.005-19.208-6.989-25.144-7.038-11.928-.099-15.732 6.67-21.526 6.393-15.796-.754-19.486-8.173-21.527-7.192-8.308 3.995-24.659 10.433-23.918 7.837 1.085-3.797 20.965-19.216 23.918-24.618 4.188-7.66-15.505 4.717-14.35 2.397 5.826-11.71 22.796-21.11 26.31-27.969 1.415-2.762-16.65 6.478-15.61 4.503 2.79-5.302 22.886-20.365 25.177-24.48 3.13-5.625-16.547 7.404-14.351 3.995 7.088-11.003 23.353-21.053 26.31-25.571 3.645-5.571-19.084 7.419-15.882 4.026 17.613-18.666 35.016-28 44.583-28z" fill="#3B6159"/><path d="M1231.222 158.696c5.797 0 15.419 8.485 26.077 25.455.813 1.295-8.098-5.512-7.236-3.879 2.487 4.714 14.924 19.108 17.815 26.64.654 1.704-7.01-4.925-6.221-2.666 1.607 4.6 10.43 16.564 12.595 23.465.474 1.511-5.956-4.679-5.349-2.689 1.272 4.171 9.807 18.134 11.662 24.409.515 1.743-5.61-4.584-4.864-2.034 2.204 7.52 16.85 20.313 17.84 26.37.512 3.133-13.006-8.016-14.835-7.99-3.839.055 1.968 8.174 0 8.202-3.56.05-10.95-7.44-13.727-7.403-3.745.05-2.554 7.621-4.87 7.648-4.524.052-10.811-10.875-14.394-10.845-5.451.047-7.58 11.038-10.851 11.034-4.518-.005-11.639-6.989-15.236-7.038-7.227-.099-9.532 6.67-13.043 6.393-9.571-.754-11.807-8.173-13.044-7.192-5.034 3.995-14.941 10.433-14.492 7.837.657-3.797 12.703-19.216 14.492-24.618 2.538-7.66-9.395 4.717-8.695 2.397 3.53-11.71 13.813-21.11 15.942-27.969.857-2.763-10.089 6.478-9.459 4.503 1.691-5.302 13.868-20.365 15.256-24.48 1.896-5.625-10.026 7.404-8.696 3.995 4.295-11.003 14.15-21.053 15.942-25.571 2.209-5.572-11.563 7.419-9.623 4.026 10.672-18.666 21.217-28 27.014-28z" fill="#436E65"/><path d="M1229.487 78.786c3.204 0 8.52 8.485 14.41 25.454.45 1.295-4.475-5.512-3.999-3.878 1.374 4.713 8.247 19.107 9.845 26.639.361 1.704-3.874-4.924-3.438-2.666.888 4.6 5.763 16.564 6.96 23.465.262 1.511-3.291-4.678-2.956-2.688.703 4.17 5.42 18.133 6.444 24.408.285 1.743-3.1-4.583-2.687-2.033 1.217 7.519 9.31 20.312 9.858 26.37.283 3.132-7.187-8.017-8.198-7.99-2.121.054 1.088 8.173 0 8.2-1.968.05-6.051-7.439-7.585-7.402-2.07.05-1.412 7.621-2.691 7.648-2.5.053-5.974-10.875-7.954-10.844-3.013.046-4.189 11.037-5.997 11.033-2.496-.005-6.43-6.988-8.418-7.038-3.994-.099-5.268 6.67-7.208 6.393-5.289-.754-6.525-8.173-7.208-7.192-2.782 3.996-8.256 10.433-8.008 7.837.363-3.797 7.02-19.216 8.008-24.618 1.402-7.66-5.191 4.717-4.805 2.397 1.951-11.71 7.633-21.11 8.81-27.969.473-2.762-5.575 6.478-5.227 4.503.934-5.302 7.663-20.365 8.43-24.48 1.048-5.625-5.54 7.404-4.805 3.995 2.373-11.002 7.82-21.053 8.81-25.571 1.22-5.571-6.39 7.42-5.319 4.026 5.898-18.666 11.725-28 14.928-28z" fill="#4B7A71"/><path d="M1229.103 66c2.27 0 6.038 5.046 10.211 15.137.319.77-3.17-3.278-2.833-2.307.974 2.803 5.844 11.363 6.976 15.842.256 1.013-2.745-2.929-2.436-1.586.63 2.736 4.084 9.85 4.932 13.954.186.899-2.332-2.782-2.094-1.599.498 2.48 3.84 10.784 4.567 14.515.202 1.037-2.198-2.725-1.905-1.209.863 4.471 6.598 12.079 6.986 15.682.2 1.862-5.093-4.768-5.81-4.752-1.503.032.771 4.86 0 4.877-1.394.03-4.288-4.424-5.375-4.402-1.466.03-1 4.532-1.907 4.548-1.772.03-4.234-6.467-5.637-6.45-2.135.029-2.968 6.564-4.25 6.562-1.768-.003-4.557-4.156-5.966-4.185-2.83-.059-3.733 3.966-5.108 3.802-3.748-.449-4.623-4.86-5.108-4.277-1.971 2.376-5.85 6.204-5.675 4.66.257-2.258 4.975-11.427 5.675-14.64.994-4.555-3.679 2.806-3.405 1.426 1.383-6.963 5.41-12.554 6.243-16.632.336-1.643-3.95 3.852-3.704 2.678.662-3.153 5.431-12.11 5.974-14.558.743-3.344-3.926 4.403-3.405 2.376 1.682-6.543 5.542-12.52 6.243-15.206.865-3.313-4.528 4.412-3.768 2.394 4.179-11.1 8.309-16.65 10.579-16.65z" fill="#51857A"/></g></svg>