<svg width="296" height="408" viewBox="0 0 296 408" xmlns="http://www.w3.org/2000/svg"><title>sailboat</title><defs><radialGradient cx="100%" cy="100%" fx="100%" fy="100%" r="141.421%" gradientTransform="matrix(-.19908 -.19908 .04044 -.97998 1.159 2.18)" id="a"><stop stop-color="#E68060" offset="0%"/><stop stop-color="#F8CA23" offset="100%"/></radialGradient><radialGradient cx="0%" cy="0%" fx="0%" fy="0%" r="141.421%" gradientTransform="scale(1 .4563) rotate(65.472)" id="b"><stop stop-color="#FFF" offset="0%"/><stop stop-color="#F0F0F0" offset="100%"/></radialGradient><radialGradient cx="0%" cy="0%" fx="0%" fy="0%" r="141.421%" gradientTransform="scale(1 .68446) rotate(55.61)" id="c"><stop stop-color="#FFF" offset="0%"/><stop stop-color="#F0F0F0" offset="100%"/></radialGradient></defs><g fill="none" fill-rule="evenodd"><path d="M1.662 348.313h291.676a1.05 1.05 0 0 1 .747 1.787l-32.267 32.695c-.133.134-.3.23-.482.278l-95.392 24.918-132.237-24.93a1.05 1.05 0 0 1-.552-.294L.915 350.1a1.05 1.05 0 0 1 .747-1.787z" fill="url(#a)" transform="translate(.871 -.208)"/><path d="M138.412 36.126v303.33H0c30.02-47.221 56.808-96.642 80.363-148.262 23.554-51.62 42.904-103.31 58.05-155.068z" fill="url(#b)" transform="translate(.871 -.208)"/><path fill="#F8CA23" d="M144.876 24.11h2.796v323.994h-2.796z"/><path d="M152.393 137.236v202.22h138.413c-13.673-30.193-33.022-63.572-58.05-100.138-25.028-36.565-51.815-70.593-80.363-102.082z" fill="url(#c)" transform="translate(.871 -.208)"/><path d="M147.672 24.11h-11.698c-2.168 0-1.755-1.865-4.095-1.865h-12.868V.492h12.868c1.755 0 1.927 1.865 4.095 1.865h11.698v21.752z" fill="#FFF"/><g transform="rotate(180 69.742 8.947)" stroke="#D72169" stroke-width=".663"><ellipse fill="#FFF" cx="5.264" cy="5.593" rx="5.264" ry="5.593"/><path d="M2.632 6.526l5.85-1.865" stroke-linecap="round"/></g></g></svg>