<svg width="1439" height="781" viewBox="0 0 1439 781" xmlns="http://www.w3.org/2000/svg" xmlns:xlink="http://www.w3.org/1999/xlink"><title>Group 27</title><defs><ellipse id="a" cx="127.613" cy="11.549" rx="127.613" ry="11.549"/><path id="d" d="M34 75.748L1474 0v135.957L34 213z"/><filter x="-.7%" y="-4.7%" width="101.4%" height="118.8%" filterUnits="objectBoundingBox" id="c"><feOffset dy="20" in="SourceAlpha" result="shadowOffsetOuter1"/><feColorMatrix values="0 0 0 0 0.3496 0 0 0 0 0.37088 0 0 0 0 0.38 0 0 0 1 0" in="shadowOffsetOuter1"/></filter><filter x="-.7%" y="-4.7%" width="101.4%" height="118.8%" filterUnits="objectBoundingBox" id="e"><feOffset dy="20" in="SourceAlpha" result="shadowOffsetInner1"/><feComposite in="shadowOffsetInner1" in2="SourceAlpha" operator="arithmetic" k2="-1" k3="1" result="shadowInnerInner1"/><feColorMatrix values="0 0 0 0 0.349019608 0 0 0 0 0.37254902 0 0 0 0 0.380392157 0 0 0 1 0" in="shadowInnerInner1"/></filter></defs><g fill="none" fill-rule="evenodd"><path fill="#4A5458" d="M460.125 198H570.2l43.469 10.497v20.293H460.125z"/><path fill-opacity=".135" fill="#000" d="M570.2 198l43.468 10.497v20.293h-43.469z"/><path fill="#394043" d="M444 204.998h132.51l44.87 10.496L634 228.091V832H444z"/><path fill-opacity=".086" fill="#000" d="M576.51 204.998l44.87 10.496V832h-44.87z"/><path fill-opacity=".181" fill="#000" d="M621.38 215.494L634 228.091V832h-12.62z"/><g fill="#000" fill-opacity=".14"><path d="M453.815 214.795h114.982v3.499H453.815zm0 9.097h114.982v3.499H453.815zm0 9.797h114.982v3.499H453.815zm0 9.097h114.982v3.499H453.815zm0 9.097h114.982v3.499H453.815zm0 9.097h114.982v3.499H453.815zm0 9.797h114.982v3.499H453.815zm0 9.097h114.982v3.499H453.815zm0 9.098h114.982v3.499H453.815zm0 9.097h114.982v3.499H453.815zm0 9.797h114.982v3.499H453.815zm0 9.097h114.982v3.499H453.815zm0 9.097h114.982v3.499H453.815zm0 9.097h114.982v3.499H453.815zm0 9.797h114.982v3.499H453.815zm0 9.096h114.982v3.5H453.815zm0 9.098h114.982v3.499H453.815zm0 9.097h114.982v3.499H453.815zm0 9.797h114.982v3.499H453.815zm0 9.097h114.982v3.499H453.815zm0 9.098h114.982v3.499H453.815zm0 9.097h114.982v3.499H453.815zm0 9.796h114.982v3.5H453.815zm0 9.098h114.982v3.499H453.815zm0 9.097h114.982v3.499H453.815zm0 9.097h114.982v3.499H453.815zm0 9.797h114.982v3.499H453.815zm0 9.097h114.982v3.499H453.815zm0 9.097h114.982v3.499H453.815zm0 9.097h114.982v3.499H453.815zm0 9.797h114.982v3.499H453.815zm0 9.097h114.982v3.499H453.815z"/><path d="M453.815 214.795h114.982v3.499H453.815zm0 9.097h114.982v3.499H453.815zm0 9.797h114.982v3.499H453.815zm0 9.097h114.982v3.499H453.815zm0 9.097h114.982v3.499H453.815zm0 9.097h114.982v3.499H453.815zm0 9.797h114.982v3.499H453.815zm0 9.097h114.982v3.499H453.815zm0 9.098h114.982v3.499H453.815zm0 9.097h114.982v3.499H453.815zm0 9.797h114.982v3.499H453.815zm0 9.097h114.982v3.499H453.815zm0 9.097h114.982v3.499H453.815zm0 9.097h114.982v3.499H453.815zm0 9.797h114.982v3.499H453.815zm0 9.096h114.982v3.5H453.815zm0 9.098h114.982v3.499H453.815zm0 9.097h114.982v3.499H453.815zm0 9.797h114.982v3.499H453.815zm0 9.097h114.982v3.499H453.815zm0 9.098h114.982v3.499H453.815zm0 9.097h114.982v3.499H453.815zm0 9.796h114.982v3.5H453.815zm0 9.098h114.982v3.499H453.815zm0 9.097h114.982v3.499H453.815zm0 9.097h114.982v3.499H453.815zm0 9.797h114.982v3.499H453.815zm0 9.097h114.982v3.499H453.815zm0 9.097h114.982v3.499H453.815zm0 9.097h114.982v3.499H453.815zm0 9.797h114.982v3.499H453.815zm0 9.097h114.982v3.499H453.815zm0 9.096h114.982v3.5H453.815zm0 9.099h114.982v3.499H453.815zm0 9.097h114.982v3.499H453.815zm0 9.097h114.982v3.499H453.815zm0 9.797h114.982v3.499H453.815zm0 9.097h114.982v3.499H453.815zm0 9.097h114.982v3.499H453.815zm0 9.096h114.982v3.5H453.815zm0 9.798h114.982v3.499H453.815zm0 9.097h114.982v3.499H453.815zm0 9.097h114.982v3.499H453.815zm0 9.097h114.982v3.499H453.815zm0 9.797h114.982v3.499H453.815zm0 9.097h114.982v3.499H453.815zm0 9.097h114.982v3.5H453.815zm0 9.098h114.982v3.499H453.815zm0 9.797h114.982v3.499H453.815zm0 9.097h114.982v3.499H453.815z"/><path d="M453.815 511.5h114.982v3.5H453.815zm0 9.099h114.982v3.499H453.815zm0 9.097h114.982v3.499H453.815zm0 9.097h114.982v3.499H453.815zm0 9.797h114.982v3.499H453.815zm0 9.097h114.982v3.499H453.815zm0 9.097h114.982v3.499H453.815zm0 9.096h114.982v3.5H453.815zm0 9.798h114.982v3.499H453.815zm0 9.097h114.982v3.499H453.815zm0 9.097h114.982v3.499H453.815zm0 9.097h114.982v3.499H453.815zm0 9.797h114.982v3.499H453.815zm0 9.097h114.982v3.499H453.815zm0 9.097h114.982v3.5H453.815zm0 9.098h114.982v3.499H453.815zm0 9.797h114.982v3.499H453.815zm0 9.097h114.982v3.499H453.815zm0 9.097h114.982v3.499H453.815zm0 9.797h114.982v3.499H453.815zm0 9.097h114.982v3.499H453.815zm0 9.097h114.982v3.499H453.815zm0 9.097h114.982v3.499H453.815zm0 9.797h114.982v3.499H453.815zm0 9.096h114.982v3.5H453.815zm0 9.098h114.982v3.499H453.815zm0 9.097h114.982v3.499H453.815zm0 9.797h114.982v3.499H453.815zm0 9.098h114.982v3.499H453.815zm0 9.097h114.982v3.499H453.815z"/></g><path d="M584.221 214.795l32.952 7.697v3.5l-32.952-7.698zm0 9.097l32.952 7.697v3.5l-32.952-7.698zm0 9.797l32.952 7.697v3.5l-32.952-7.698zm0 9.097l32.952 7.697v3.5l-32.952-7.698zm0 9.097l32.952 7.698v3.498l-32.952-7.697zm0 9.097l32.952 7.698v3.499l-32.952-7.698zm0 9.797l32.952 7.698v3.499l-32.952-7.698zm0 9.097l32.952 7.698v3.499l-32.952-7.698zm0 9.097l32.952 7.698v3.499l-32.952-7.698zm0 9.097l32.952 7.698v3.499l-32.952-7.698zm0 9.797l32.952 7.698v3.499l-32.952-7.698zm0 9.097l32.952 7.698v3.499l-32.952-7.698zm0 9.098l32.952 7.697v3.5l-32.952-7.699zm0 9.097l32.952 7.697v3.5l-32.952-7.698zm0 9.797l32.952 7.697v3.5l-32.952-7.698zm0 9.096l32.952 7.698v3.5l-32.952-7.698zm0 9.098l32.952 7.697v3.5l-32.952-7.698zm0 9.097l32.952 7.698v3.499l-32.952-7.698zm0 9.797l32.952 7.698v3.498l-32.952-7.697zm0 9.098l32.952 7.697v3.499l-32.952-7.698zm0 9.096l32.952 7.698v3.499l-32.952-7.698zm0 9.097l32.952 7.698v3.499l-32.952-7.698zm0 9.797l32.952 7.698v3.499l-32.952-7.698zm0 9.097l32.952 7.698v3.499l-32.952-7.698zm0 9.098l32.952 7.697v3.499l-32.952-7.698zm0 9.097l32.952 7.697v3.5l-32.952-7.698zm0 9.797l32.952 7.697v3.499l-32.952-7.698zm0 9.097l32.952 7.697v3.5l-32.952-7.698zm0 9.097l32.952 7.697v3.5l-32.952-7.698zm0 9.097l32.952 7.698v3.498l-32.952-7.697zm0 9.797l32.952 7.697v3.5l-32.952-7.698zm0 9.097l32.952 7.698v3.498l-32.952-7.697zm0 9.097l32.952 7.698v3.499L584.221 515zm0 9.097l32.952 7.698v3.499l-32.952-7.698zm0 9.097l32.952 7.698v3.499l-32.952-7.698zm0 9.097l32.952 7.698v3.499l-32.952-7.698zm0 9.798l32.952 7.697v3.499l-32.952-7.698zm0 9.097l32.952 7.697v3.499l-32.952-7.698zm0 9.097l32.952 7.697v3.5l-32.952-7.698zm0 9.096l32.952 7.698v3.5l-32.952-7.698zm0 9.798l32.952 7.697v3.5l-32.952-7.698zm0 9.097l32.952 7.697v3.5l-32.952-7.698zm0 9.097l32.952 7.698v3.498l-32.952-7.697zm0 9.098l32.952 7.697v3.499l-32.952-7.698zm0 9.796l32.952 7.698v3.498l-32.952-7.697zm0 9.097l32.952 7.698v3.499l-32.952-7.698zm0 9.097l32.952 7.698v3.499l-32.952-7.698zm0 9.097l32.952 7.698v3.499l-32.952-7.698zm0 9.797l32.952 7.698v3.499l-32.952-7.698zm0 9.097l32.952 7.698v3.499l-32.952-7.698zm0 9.797l32.952 7.698v3.499l-32.952-7.698zm0 9.797l32.952 7.698v3.499l-32.952-7.698zm0 9.097l32.952 7.698v3.499l-32.952-7.698zm0 9.098l32.952 7.697v3.499l-32.952-7.698zm0 9.097l32.952 7.697v3.5l-32.952-7.698zm0 9.797l32.952 7.697v3.499l-32.952-7.698zm0 9.096l32.952 7.698v3.5l-32.952-7.698zm0 9.098l32.952 7.697v3.5l-32.952-7.698zm0 9.097l32.952 7.698v3.498l-32.952-7.697zm0 9.797l32.952 7.697v3.5l-32.952-7.698zm0 9.097l32.952 7.698v3.498l-32.952-7.697z" fill-opacity=".14" fill="#000"/><path fill="#D6D6D6" d="M320.702 434h142.514L492 445.211V838.3H320.702z"/><path fill-opacity=".082" fill="#000" d="M463.216 434L492 445.211V838.3h-28.784z"/><g fill="#000" fill-opacity=".08"><path d="M335.445 448.715h52.653v3.503h-52.653zm0 9.109h52.653v3.503h-52.653zm0 9.81h52.653v3.503h-52.653zm0 9.109h52.653v3.503h-52.653zm0 9.109h52.653v3.503h-52.653zm0 9.108h52.653v3.504h-52.653zm0 9.81h52.653v3.503h-52.653zm0 9.109h52.653v3.503h-52.653zm0 9.109h52.653v3.503h-52.653zm0 9.109h52.653v3.503h-52.653zm0 9.81h52.653v3.503h-52.653zm0 9.109h52.653v3.503h-52.653zm0 9.109h52.653v3.503h-52.653zm0 9.109h52.653v3.503h-52.653zm0 9.81h52.653v3.503h-52.653zm0 9.109h52.653v3.503h-52.653zm0 9.109h52.653v3.503h-52.653zm0 9.108h52.653v3.504h-52.653zm0 9.81h52.653v3.503h-52.653zm0 9.109h52.653v3.503h-52.653zm0 9.109h52.653v3.503h-52.653zm0 9.109h52.653v3.503h-52.653zm0 9.81h52.653v3.503h-52.653zm0 9.109h52.653v3.503h-52.653zm0 9.109h52.653v3.503h-52.653zm0 9.109h52.653v3.503h-52.653zm0 9.81h52.653v3.503h-52.653zm0 9.109h52.653v3.503h-52.653zm0 9.109h52.653v3.503h-52.653zm0 9.108h52.653v3.504h-52.653zm0 9.81h52.653v3.503h-52.653zm0 9.109h52.653v3.503h-52.653z"/><path d="M335.445 448.715h52.653v3.503h-52.653zm0 9.109h52.653v3.503h-52.653zm0 9.81h52.653v3.503h-52.653zm0 9.109h52.653v3.503h-52.653zm0 9.109h52.653v3.503h-52.653zm0 9.108h52.653v3.504h-52.653zm0 9.81h52.653v3.503h-52.653zm0 9.109h52.653v3.503h-52.653zm0 9.109h52.653v3.503h-52.653zm0 9.109h52.653v3.503h-52.653zm0 9.81h52.653v3.503h-52.653zm0 9.109h52.653v3.503h-52.653zm0 9.109h52.653v3.503h-52.653zm0 9.109h52.653v3.503h-52.653zm0 9.81h52.653v3.503h-52.653zm0 9.109h52.653v3.503h-52.653zm0 9.109h52.653v3.503h-52.653zm0 9.108h52.653v3.504h-52.653zm0 9.81h52.653v3.503h-52.653zm0 9.109h52.653v3.503h-52.653zm0 9.109h52.653v3.503h-52.653zm0 9.109h52.653v3.503h-52.653zm0 9.81h52.653v3.503h-52.653zm0 9.109h52.653v3.503h-52.653zm0 9.109h52.653v3.503h-52.653zm0 9.109h52.653v3.503h-52.653zm0 9.81h52.653v3.503h-52.653zm0 9.109h52.653v3.503h-52.653zm0 9.109h52.653v3.503h-52.653zm0 9.108h52.653v3.504h-52.653zm0 9.81h52.653v3.503h-52.653zm0 9.109h52.653v3.503h-52.653zm0 9.109h52.653v3.503h-52.653zm0 9.109h52.653v3.503h-52.653zm0 9.109h52.653v3.503h-52.653zm0 9.109h52.653v3.503h-52.653zm62.482-324.42h52.653v3.503h-52.653zm0 9.109h52.653v3.503h-52.653zm0 9.81h52.653v3.503h-52.653zm0 9.109h52.653v3.503h-52.653zm0 9.109h52.653v3.503h-52.653zm0 9.108h52.653v3.504h-52.653zm0 9.81h52.653v3.503h-52.653zm0 9.109h52.653v3.503h-52.653zm0 9.109h52.653v3.503h-52.653zm0 9.109h52.653v3.503h-52.653zm0 9.81h52.653v3.503h-52.653zm0 9.109h52.653v3.503h-52.653zm0 9.109h52.653v3.503h-52.653zm0 9.109h52.653v3.503h-52.653zm0 9.81h52.653v3.503h-52.653zm0 9.109h52.653v3.503h-52.653zm0 9.109h52.653v3.503h-52.653zm0 9.108h52.653v3.504h-52.653zm0 9.81h52.653v3.503h-52.653zm0 9.109h52.653v3.503h-52.653zm0 9.109h52.653v3.503h-52.653zm0 9.109h52.653v3.503h-52.653zm0 9.81h52.653v3.503h-52.653zm0 9.109h52.653v3.503h-52.653zm0 9.109h52.653v3.503h-52.653zm0 9.109h52.653v3.503h-52.653zm0 9.81h52.653v3.503h-52.653zm0 9.109h52.653v3.503h-52.653zm0 9.109h52.653v3.503h-52.653zm0 9.108h52.653v3.504h-52.653zm0 9.81h52.653v3.503h-52.653zm0 9.109h52.653v3.503h-52.653z"/><path d="M397.927 448.715h52.653v3.503h-52.653zm0 9.109h52.653v3.503h-52.653zm0 9.81h52.653v3.503h-52.653zm0 9.109h52.653v3.503h-52.653zm0 9.109h52.653v3.503h-52.653zm0 9.108h52.653v3.504h-52.653zm0 9.81h52.653v3.503h-52.653zm0 9.109h52.653v3.503h-52.653zm0 9.109h52.653v3.503h-52.653zm0 9.109h52.653v3.503h-52.653zm0 9.81h52.653v3.503h-52.653zm0 9.109h52.653v3.503h-52.653zm0 9.109h52.653v3.503h-52.653zm0 9.109h52.653v3.503h-52.653zm0 9.81h52.653v3.503h-52.653zm0 9.109h52.653v3.503h-52.653zm0 9.109h52.653v3.503h-52.653zm0 9.108h52.653v3.504h-52.653zm0 9.81h52.653v3.503h-52.653zm0 9.109h52.653v3.503h-52.653zm0 9.109h52.653v3.503h-52.653zm0 9.109h52.653v3.503h-52.653zm0 9.81h52.653v3.503h-52.653zm0 9.109h52.653v3.503h-52.653zm0 9.109h52.653v3.503h-52.653zm0 9.109h52.653v3.503h-52.653zm0 9.81h52.653v3.503h-52.653zm0 9.109h52.653v3.503h-52.653zm0 9.109h52.653v3.503h-52.653zm0 9.108h52.653v3.504h-52.653zm0 9.81h52.653v3.503h-52.653zm0 9.109h52.653v3.503h-52.653zm0 9.109h52.653v3.503h-52.653zm0 9.109h52.653v3.503h-52.653zm0 9.109h52.653v3.503h-52.653zm0 9.109h52.653v3.503h-52.653z"/></g><g transform="translate(125)"><path d="M120.27 47.294c8.567-1.2 14.977-1.8 19.23-1.8s10.663.6 19.23 1.8v4.5h-38.46v-4.5z" fill="#2B3133"/><g transform="translate(136.353)"><path stroke="#E3E3E3" stroke-width=".91" d="M3.147 1.813l3.146 38.082H0z"/><path d="M3.147 39.442V2.267" stroke="#E3E3E3" stroke-width=".91" stroke-linecap="square"/><rect fill="#E74C3C" x="1.967" width="2.36" height="2.72" rx="1.18"/><path d="M5.9 35.815H.393m4.72-5.44H1.18m3.147-5.441h-2.36m2.36-5.44h-2.36" stroke="#E3E3E3" stroke-width=".91" stroke-linecap="square"/></g><path d="M134.955 40.128c1.01-.622 2.525-.933 4.545-.933s3.535.311 4.545.933v7.466h-9.09v-7.466z" fill="#2B3133"/><path d="M140.2 100.087c-55.804 0-101.042-2.042-101.042-4.561 0-2.007 21.352-10.95 51.093-15.511 11.017-1.69 34.315-10.949 34.315-15.51 0-4.562-10.676-9.124-10.676-11.862 0-2.737 24.185-3.65 26.31-3.65v51.094zm0 0V48.994c2.124 0 26.308.912 26.308 3.65 0 2.737-10.676 7.299-10.676 11.86 0 4.562 23.298 13.821 34.316 15.511 29.74 4.562 51.093 13.504 51.093 15.51 0 2.52-45.238 4.562-101.042 4.562z" fill="#E3E3E3"/><path d="M140.2 100.087c55.803 0 101.04-1.832 101.04-4.093 0-2.26-45.237-13.404-101.04-13.404-55.804 0-101.042 11.144-101.042 13.404 0 2.261 45.238 4.093 101.041 4.093z" fill-opacity=".13" fill="#000"/><path d="M44.155 95.301c35.622-4.275 67.52-6.412 95.695-6.412 28.174 0 60.072 2.137 95.694 6.412a.91.91 0 0 1 .802.904v16.48H43.353v-16.48a.91.91 0 0 1 .802-.904z" fill="#2B3133"/><path d="M139.5 129.484c77.044 0 139.5-5.728 139.5-12.793 0-7.065-62.456-20.103-139.5-20.103S0 109.626 0 116.69c0 7.065 62.456 12.793 139.5 12.793z" fill="#E3E3E3"/><path d="M139.5 129.484c77.044 0 139.5-5.749 139.5-12.84s-62.456-13.757-139.5-13.757S0 109.553 0 116.644c0 7.091 62.456 12.84 139.5 12.84z" fill="#2B3133"/><path d="M139.5 121.085c58.12 0 105.237-2.09 105.237-4.666 0-2.577-47.116-6.533-105.237-6.533-58.12 0-105.237 3.956-105.237 6.533 0 2.577 47.116 4.666 105.237 4.666z" fill="#E3E3E3"/><path d="M40.88 116.203c43.779-2.345 76.652-3.517 98.62-3.517 21.968 0 54.841 1.172 98.62 3.517a1.82 1.82 0 0 1 1.722 1.818v28.96H39.158v-28.96a1.82 1.82 0 0 1 1.723-1.818z" fill="#2B3133"/><g transform="translate(11.887 132.283)"><mask id="b" fill="#fff"><use xlink:href="#a"/></mask><use fill="#E3E3E3" xlink:href="#a"/><g fill="#2B3133" mask="url(#b)"><path d="M68.943-6.501l3.626 17.06-5.421 1.152L63.52-5.35zm9.241.036l1.217 17.398-5.53.387-1.216-17.4zm8.655.081l.608 17.43-5.54.194L81.3-6.19zm8.269-.033l.304 17.438-5.542.097-.304-17.438zm8.382.003v17.441h-5.543v-17.44zm8.99-.046v17.44h-5.543V-6.46zm8.38 0v17.44h-5.542V-6.46zm8.381 0v17.44h-5.543V-6.46zm8.381 0v17.44h-5.543V-6.46zm8.72 0v17.44H140.8V-6.46zm8.381 0v17.44h-5.543V-6.46zm8.38 0v17.44h-5.543V-6.46zm8.533.05l-.305 17.438-5.542-.097.304-17.438zm8.806 2.001l-.913 17.417-5.535-.29.913-17.417zm8.79.264l-1.823 17.346-5.513-.58 1.823-17.345zm10.098.866l-4.808 16.766-5.328-1.528L194-4.807zm9.651.155l-6.814 16.054-4.252-1.804 6.814-16.055zm6.956-.478l-7.646 15.676-3.322-1.62 7.646-15.676zm6.913 3.328l-10.25 14.11-2.99-2.172 10.251-14.11z"/><path d="M226.283 2.619L213.95 14.95l-1.307-1.307 12.333-12.332z"/><path d="M232.93 3.832l-19.525 11.273-.462-.8L232.4 2.148z"/><path d="M240.19 5.954l-26.92 9.269-.3-.874 27.113-10.182z"/><path d="M247.98 8.29l-34.33 7.298-.192-.904L248.2 6.481z"/><path d="M255.282 14.237l-42.651 2.235-.049-.923 43.33-3.072z"/><path d="M242.342 18.4l-31.327-1.093.032-.923 31.885.312z"/><path d="M226.786 20.171l-18.746-2.634.129-.915 19.173 1.886z"/><path d="M218.913 21.068l-12.96-4.462.301-.874 13.44 3.781z"/><path d="M215.832 23.741l-7.642-6.88.619-.687 8.306 6.403zm40.074-13.132l-42.391 5.205-.113-.917 43.01-6.087zM55.134-3.279l4.807 16.766 5.329-1.528-4.808-16.766zm-9.652.155l6.815 16.054 4.252-1.804L49.734-4.93zm-6.955-.478l7.645 15.676 3.322-1.62L41.85-5.222zM31.613-.274l10.252 14.11 2.99-2.172-10.251-14.11z"/><path d="M28.18 2.619L40.515 14.95l1.306-1.307L29.488 1.312z"/><path d="M21.533 3.832l19.526 11.273.462-.8L22.065 2.148z"/><path d="M14.275 5.954l26.919 9.269.3-.874L14.381 4.167z"/><path d="M6.484 8.29l34.33 7.298.192-.904L6.262 6.481z"/><path d="M-.819 14.237l42.652 2.235.048-.923-43.33-3.072z"/><path d="M12.122 18.4l31.327-1.093-.033-.923-31.884.312z"/><path d="M27.678 20.171l18.746-2.634-.129-.915-19.173 1.886z"/><path d="M35.55 21.068l12.96-4.462-.3-.874-13.44 3.781z"/><path d="M38.631 23.741l7.642-6.88-.618-.687-8.306 6.403zM-1.443 10.609l42.392 5.205.113-.917-43.01-6.087z"/></g></g><ellipse fill="#2B3133" cx="139.5" cy="146.982" rx="87.056" ry="7.699"/></g><path d="M272.278 747.549a5406.142 5406.142 0 0 0-3.659-34.125h-45.823a5403.929 5403.929 0 0 0-3.615 34.125h53.097zm.963 9.305v3.966H217.83a8181.825 8181.825 0 0 0-3.55 36.02h-22.85c26.105-142.993 39.157-256.32 39.157-339.984 0-83.663-10.022-186.02-30.067-307.075h8.39c1.333 7.735 12.215 142.771 28.67 142.771 16.527 0 30.068-85.944 29.909-145.828-.001-.362 3.082-.833 9.249-1.414-13.519 167.07-20.278 282.083-20.278 345.04 0 62.955 14.45 165.119 43.353 306.49h-22.569a8056.898 8056.898 0 0 0-4.002-39.986zm-6.11-56.7a3105.54 3105.54 0 0 0-3.905-32.861H228.13a3104.153 3104.153 0 0 0-3.862 32.86h42.864zm-5.6-46.132c-1.526-11.652-2.983-21.95-4.373-30.893v1.824H233.86c-1.294 8.511-2.645 18.201-4.054 29.069h31.724zm-6.241-42.34c-3.775-21.907-6.998-32.861-9.67-32.861-2.671 0-5.88 10.954-9.626 32.86h19.296z" fill="#C7C7C7"/><path fill="#2B3133" d="M247.368 142.782h33.564V797.2h-33.564z"/><path d="M310.824 713.46l3.585 34.11h15.226a5563.705 5563.705 0 0 0-6.067-34.11h-12.744zm-10.547 0h-22.532a5319.764 5319.764 0 0 0-1.207 34.11h27.325l-3.586-34.11zm4.98 47.376h-29.134c-.348 11.46-.684 23.462-1.008 36.006h-22.852c2.806-28.898 5.287-56.692 7.444-83.382h-53.594l2.098-13.265h52.548c6.456-82.985 9.685-154.996 9.685-216.034 0-83.628-12.12-196.488-36.361-338.58h8.39c1.333 7.733 26.9 147.182 43.354 147.182 16.527 0 32.865-85.908 32.706-145.767-.001-.362 3.082-.833 9.249-1.414-16.316 162.79-24.474 275.65-24.474 338.58 0 62.929 19.113 167.156 57.339 312.68h-22.57a8411.084 8411.084 0 0 0-6.137-36.006h-16.137l3.97 37.765-10.432 1.096-4.084-38.861zm.72-93.488l3.453 32.847h11.713a3203.497 3203.497 0 0 0-6.223-32.847h-8.943zm-10.546 0h-15.608a3048.419 3048.419 0 0 0-1.543 32.847h20.603l-3.452-32.847zm6.098-42.323l3.054 29.057h7.706c-2.19-10.863-4.238-20.548-6.143-29.057h-4.617zm-10.546 0h-8.416c-.693 8.509-1.36 18.194-2.003 29.057h13.473l-3.054-29.057zm7.253-31.33l1.899 18.065h2.924c-1.75-7.208-3.359-13.23-4.823-18.065zm-11.158-5.82c-1.159 5.464-2.264 13.425-3.315 23.885h5.825l-2.51-23.885z" fill="#E3E3E3"/><path d="M238.977 145.582c24.241 114.965 37.876 214.98 40.906 300.047 3.03 85.066-1.281 202.137-12.936 351.213" stroke-opacity=".275" stroke="#2B3133" stroke-width="1.4" stroke-linecap="square"/><path d="M321.314 146.845c-.824 32.38-2.164 55.542-4.02 69.485-16.812 126.253-18.88 211.206-18.88 262.146 0 59.378 15.266 165.394 45.8 318.05" stroke-opacity=".181" stroke="#000" stroke-width="1.4" stroke-linecap="square"/><path fill="#C5C5C5" d="M186.78 275.783l24.512 14.689v29.378l-24.512-14.689z"/><path fill="#5289A6" d="M32 305.161h169.487L226 319.851V799H32z"/><path fill="#E1E1E1" d="M50.21 252l136.57 23.783v29.378H50.21z"/><path fill-opacity=".12" fill="#000" d="M201.487 305.161L226 319.851V799h-24.513z"/><path d="M204.99 324.047l16.808 8.394v3.498l-16.809-8.394zm0 9.093l16.808 8.395v3.497l-16.809-8.394zm0 9.794l16.808 8.393v3.498l-16.809-8.394zm0 9.093l16.808 8.394v3.497l-16.809-8.394zm0 9.093l16.808 8.394v3.498l-16.809-8.394zm0 9.094l16.808 8.393v3.498l-16.809-8.394zm0 9.792l16.808 8.394v3.498l-16.809-8.394zm0 9.094l16.808 8.394v3.497l-16.809-8.394zm0 9.093l16.808 8.394v3.497l-16.809-8.393zm0 9.093l16.808 8.394v3.498l-16.809-8.394zm0 9.794l16.808 8.393v3.498l-16.809-8.394zm0 9.093l16.808 8.393v3.498l-16.809-8.394zm0 9.093l16.808 8.394v3.497l-16.809-8.394zm0 9.094l16.808 8.393v3.498l-16.809-8.394zm0 9.792l16.808 8.394v3.497l-16.809-8.393zm0 9.094l16.808 8.393v3.498l-16.809-8.394zm0 9.093l16.808 8.394v3.497l-16.809-8.394zm0 9.093l16.808 8.394v3.498l-16.809-8.394zm0 9.793l16.808 8.394v3.497l-16.809-8.393zm0 9.093l16.808 8.394v3.498l-16.809-8.394zm0 9.094l16.808 8.394v3.497l-16.809-8.394zm0 9.093l16.808 8.394v3.497l-16.809-8.393zm0 9.793l16.808 8.394v3.497l-16.809-8.394zm0 9.093l16.808 8.394v3.498l-16.809-8.394zm0 9.094l16.808 8.394v3.497l-16.809-8.394zm0 9.093l16.808 8.394v3.497l-16.809-8.394zm0 9.792l16.808 8.395v3.497l-16.809-8.394zm0 9.094l16.808 8.394v3.497l-16.809-8.393zm0 9.094l16.808 8.393v3.498l-16.809-8.394zm0 9.092l16.808 8.395v3.497l-16.809-8.394zm0 9.794l16.808 8.394v3.497l-16.809-8.394zm0 9.093l16.808 8.394v3.497l-16.809-8.393zm0 9.093l16.808 8.394v3.498l-16.809-8.394zm0 9.094l16.808 8.394v3.497l-16.809-8.394zm0 9.093l16.808 8.394v3.497l-16.809-8.393zm0 9.093l16.808 8.394v3.498l-16.809-8.394zm0 9.793l16.808 8.394v3.498l-16.809-8.394zm0 9.094l16.808 8.394v3.497l-16.809-8.394zm0 9.093l16.808 8.394v3.497l-16.809-8.394zm0 9.093l16.808 8.394v3.498l-16.809-8.394zm0 9.793l16.808 8.394v3.498l-16.809-8.394zm0 9.094l16.808 8.393v3.498l-16.809-8.394zm0 9.093l16.808 8.394v3.497l-16.809-8.394zm0 9.093l16.808 8.394v3.498l-16.809-8.394zm0 9.794l16.808 8.393v3.497l-16.809-8.393zm0 9.092l16.808 8.394v3.498l-16.809-8.394zm0 9.094l16.808 8.394v3.497l-16.809-8.394zm0 9.094l16.808 8.393v3.497l-16.809-8.393zm0 9.792l16.808 8.394v3.497l-16.809-8.394zm0 9.093l16.808 8.394v3.498l-16.809-8.394z" fill-opacity=".6" fill="#FFF"/><g fill="#FFF" fill-opacity=".6"><path d="M41.105 324.047h154.78v3.497H41.105zm0 9.093h154.78v3.497H41.105zm0 9.793h154.78v3.497H41.105zm0 9.094h154.78v3.497H41.105zm0 9.093h154.78v3.497H41.105zm0 9.093h154.78v3.497H41.105zm0 9.793h154.78v3.497H41.105zm0 9.094h154.78v3.496H41.105zm0 9.093h154.78v3.497H41.105zm0 9.093h154.78v3.497H41.105zm0 9.794h154.78v3.496H41.105zm0 9.092h154.78v3.497H41.105zm0 9.094h154.78v3.497H41.105zm0 9.094h154.78v3.496H41.105zm0 9.792h154.78v3.497H41.105zm0 9.093h154.78v3.497H41.105zm0 9.095h154.78v3.496H41.105zm0 9.092h154.78v3.497H41.105zm0 9.793h154.78v3.497H41.105zm0 9.093h154.78v3.497H41.105zm0 9.093h154.78v3.497H41.105zm0 9.094h154.78v3.497H41.105zm0 9.793h154.78v3.497H41.105zm0 9.093h154.78v3.497H41.105zm0 9.093h154.78v3.497H41.105zm0 9.094h154.78v3.497H41.105zm0 9.793h154.78v3.497H41.105zm0 9.093h154.78v3.497H41.105zm0 9.093h154.78v3.497H41.105zm0 9.094h154.78v3.497H41.105zm0 9.792h154.78v3.497H41.105zm0 9.094h154.78v3.497H41.105z"/><path d="M41.105 324.047h154.78v3.497H41.105zm0 9.093h154.78v3.497H41.105zm0 9.793h154.78v3.497H41.105zm0 9.094h154.78v3.497H41.105zm0 9.093h154.78v3.497H41.105zm0 9.093h154.78v3.497H41.105zm0 9.793h154.78v3.497H41.105zm0 9.094h154.78v3.496H41.105zm0 9.093h154.78v3.497H41.105zm0 9.093h154.78v3.497H41.105zm0 9.794h154.78v3.496H41.105zm0 9.092h154.78v3.497H41.105zm0 9.094h154.78v3.497H41.105zm0 9.094h154.78v3.496H41.105zm0 9.792h154.78v3.497H41.105zm0 9.093h154.78v3.497H41.105zm0 9.095h154.78v3.496H41.105zm0 9.092h154.78v3.497H41.105zm0 9.793h154.78v3.497H41.105zm0 9.093h154.78v3.497H41.105zm0 9.093h154.78v3.497H41.105zm0 9.094h154.78v3.497H41.105zm0 9.793h154.78v3.497H41.105zm0 9.093h154.78v3.497H41.105zm0 9.093h154.78v3.497H41.105zm0 9.094h154.78v3.497H41.105zm0 9.793h154.78v3.497H41.105zm0 9.093h154.78v3.497H41.105zm0 9.093h154.78v3.497H41.105zm0 9.094h154.78v3.497H41.105zm0 9.792h154.78v3.497H41.105zm0 9.094h154.78v3.497H41.105zm0 9.093h154.78v3.497H41.105zm0 9.093h154.78v3.497H41.105zm0 9.094h154.78v3.497H41.105zm0 9.093h154.78v3.497H41.105zm0 9.793h154.78v3.497H41.105zm0 9.093h154.78v3.497H41.105zm0 9.094h154.78v3.497H41.105zm0 9.093h154.78v3.497H41.105zm0 9.793h154.78v3.497H41.105zm0 9.094h154.78v3.496H41.105zm0 9.093h154.78v3.497H41.105zm0 9.093h154.78v3.497H41.105zm0 9.794h154.78v3.496H41.105zm0 9.092h154.78v3.497H41.105zm0 9.093h154.78v3.497H41.105zm0 9.095h154.78v3.496H41.105zm0 9.792h154.78v3.497H41.105zm0 9.093h154.78v3.497H41.105z"/><path d="M41.105 620.63h154.78v3.497H41.105zm0 9.093h154.78v3.497H41.105zm0 9.094h154.78v3.497H41.105zm0 9.093h154.78v3.497H41.105zm0 9.793h154.78v3.497H41.105zm0 9.093h154.78v3.497H41.105zm0 9.094h154.78v3.497H41.105zm0 9.093h154.78v3.497H41.105zm0 9.793h154.78v3.497H41.105zm0 9.094h154.78v3.496H41.105zm0 9.093h154.78v3.497H41.105zm0 9.093h154.78v3.497H41.105zm0 9.794h154.78v3.496H41.105zm0 9.092h154.78v3.497H41.105zm0 9.093h154.78v3.497H41.105zm0 9.095h154.78v3.496H41.105zm0 9.792h154.78v3.497H41.105zm0 9.093h154.78v3.497H41.105z"/></g><g transform="translate(-34 705)"><use fill="#000" filter="url(#c)" xlink:href="#d"/><use fill="#7B8285" xlink:href="#d"/><use fill="#000" filter="url(#e)" xlink:href="#d"/></g><path d="M-34 858l1520-82.59" stroke="#FFF" stroke-width="3" stroke-linecap="round" stroke-dasharray="62"/><g transform="rotate(-3 14245.063 -18742.418)"><path d="M19.592 27C20.596 9 28.132 0 53.5 0c25.369 0 33.406 10 33.406 27C102.981 27.5 107 36 107 56.5H0C0 38 3.516 27 19.592 27z" fill="#F8CA23"/><ellipse fill="#333" cx="23.862" cy="52.75" rx="10.298" ry="10.25"/><ellipse fill="#333" cx="84.143" cy="52.75" rx="10.298" ry="10.25"/><ellipse fill="#DCDCDC" cx="84.143" cy="52.75" rx="4.772" ry="4.75"/><ellipse fill="#DCDCDC" cx="23.862" cy="52.75" rx="4.772" ry="4.75"/></g><path d="M1197.403 801.78c.06-18.027 7.115-27.41 32.448-28.737 25.334-1.328 33.884 8.238 34.774 25.215 16.08-.342 20.537 7.936 21.61 28.408l-106.853 5.6c-.968-18.475 1.967-29.644 18.02-30.485z" fill="#79C5B6"/><g transform="rotate(-3 14417.665 -12929.272)"><path d="M19.465 26.952C20.463 8.984 27.95 0 53.155 0c25.204 0 33.19 9.982 33.19 26.952 15.971.499 19.964 8.983 19.964 29.447H0c0-18.467 3.494-29.447 19.465-29.447z" fill="#F75A4A"/><circle fill="#333" cx="23.707" cy="52.655" r="10.232"/><circle fill="#333" cx="83.6" cy="52.655" r="10.232"/><circle fill="#DCDCDC" cx="83.6" cy="52.655" r="4.741"/></g></g></svg>