<svg width="1440" height="73" viewBox="0 0 1440 73" xmlns="http://www.w3.org/2000/svg" xmlns:xlink="http://www.w3.org/1999/xlink"><title>Rectangle 17</title><defs><path d="M1440 0c48 25.5 96 38.25 144 38.25V102h-144V0zm288 0v102h-144V38.25c48 0 96-12.75 144-38.25zm-576 0c48 25.5 96 38.25 144 38.25V102h-144V0zm288 0v102h-144V38.25c48 0 96-12.75 144-38.25zM864 0c48 25.5 96 38.25 144 38.25V102H864V0zm288 0v102h-144V38.25c48 0 96-12.75 144-38.25zM576 0c48 25.5 96 38.25 144 38.25V102H576V0zm288 0v102H720V38.25c48 0 96-12.75 144-38.25zM288 0c48 25.5 96 38.25 144 38.25V102H288V0zm288 0v102H432V38.25c48 0 96-12.75 144-38.25zM0 0c48 25.5 96 38.25 144 38.25V102H0V0zm288 73H144V38.25c48 0 96-12.75 144-38.25v73z" id="a"/></defs><use fill="#64A3C5" xlink:href="#a" fill-rule="evenodd"/></svg>