<svg xmlns="http://www.w3.org/2000/svg" width="2000" height="1000" display="block"><path stroke-linejoin="round" stroke-miterlimit="1" fill="#e76eff" stroke="#e76eff" d="M569-101h-768l447 22z"/><path stroke-linejoin="round" stroke-miterlimit="1" fill="#ffbdff" stroke="#ffbdff" d="M2187 30l-102 44 74 69z"/><path stroke-linejoin="round" stroke-miterlimit="1" fill="#f3a5ff" stroke="#f3a5ff" d="M2201-52l-26 55 12 27z"/><path stroke-linejoin="round" stroke-miterlimit="1" fill="#faf" stroke="#faf" d="M2201-52l-22 8-4 47z"/><path stroke-linejoin="round" stroke-miterlimit="1" fill="#e996ff" stroke="#e996ff" d="M2201 255l-117-42 77 110z"/><path stroke-linejoin="round" stroke-miterlimit="1" fill="#f5a1ff" stroke="#f5a1ff" d="M2201 255l-42-112-75 70z"/><path stroke-linejoin="round" stroke-miterlimit="1" fill="#eda1ff" stroke="#eda1ff" d="M2201 255l-14-225-28 113z"/><path stroke-linejoin="round" stroke-miterlimit="1" fill="#e59fff" stroke="#e59fff" d="M2201 255V-52l-14 82z"/><path stroke-linejoin="round" stroke-miterlimit="1" fill="#ffb2ff" stroke="#ffb2ff" d="M2201-101l-22 57 22-8z"/><path stroke-linejoin="round" stroke-miterlimit="1" fill="#f9a6ff" stroke="#f9a6ff" d="M2201-101h-273l251 57z"/><path stroke-linejoin="round" stroke-miterlimit="1" fill="#b06fff" stroke="#b06fff" d="M2201 901l-171-64 121 164z"/><path stroke-linejoin="round" stroke-miterlimit="1" fill="#cb79ff" stroke="#cb79ff" d="M2201 901l-50 100 50 50z"/><path stroke-linejoin="round" stroke-miterlimit="1" fill="#c47dff" stroke="#c47dff" d="M2201 869l-171-32 171 64z"/><path stroke-linejoin="round" stroke-miterlimit="1" fill="#b677ff" stroke="#b677ff" d="M2201 499l-293 133 285-32z"/><path stroke-linejoin="round" stroke-miterlimit="1" fill="#be7dff" stroke="#be7dff" d="M2201 499l-40-176-253 309z"/><path stroke-linejoin="round" stroke-miterlimit="1" fill="#b476ff" stroke="#b476ff" d="M2201 499V255l-40 68z"/><path stroke-linejoin="round" stroke-miterlimit="1" fill="#8d56ff" stroke="#8d56ff" d="M2201 1099l-244-7-288 7z"/><path stroke-linejoin="round" stroke-miterlimit="1" fill="#ab6bff" stroke="#ab6bff" d="M2201 1099v-48l-50-50z"/><path stroke-linejoin="round" stroke-miterlimit="1" fill="#bf76ff" stroke="#bf76ff" d="M2201 1099l-50-98-194 91z"/><path stroke-linejoin="round" stroke-miterlimit="1" fill="#bd77ff" stroke="#bd77ff" d="M2201 795l-171 42 171 32z"/><path stroke-linejoin="round" stroke-miterlimit="1" fill="#b776ff" stroke="#b776ff" d="M2201 739l-8-139-257 130z"/><path stroke-linejoin="round" stroke-miterlimit="1" fill="#b774ff" stroke="#b774ff" d="M2201 739l-265-9 94 107z"/><path stroke-linejoin="round" stroke-miterlimit="1" fill="#b673ff" stroke="#b673ff" d="M2201 739l-171 98 171-42z"/><path stroke-linejoin="round" stroke-miterlimit="1" fill="#9960ff" stroke="#9960ff" d="M2201 739V499l-8 101z"/><path stroke-linejoin="round" stroke-miterlimit="1" fill="#c281ff" stroke="#c281ff" d="M2161 323l-374 162 121 147z"/><path stroke-linejoin="round" stroke-miterlimit="1" fill="#b476ff" stroke="#b476ff" d="M2193 600l-285 32 28 98z"/><path stroke-linejoin="round" stroke-miterlimit="1" fill="#b875ff" stroke="#b875ff" d="M2151 1001l-121-164-44 78z"/><path stroke-linejoin="round" stroke-miterlimit="1" fill="#ffc6ff" stroke="#ffc6ff" d="M2187 30l-12-27-90 71z"/><path stroke-linejoin="round" stroke-miterlimit="1" fill="#d38bff" stroke="#d38bff" d="M2161 323l-256-92-118 254z"/><path stroke-linejoin="round" stroke-miterlimit="1" fill="#ffb7ff" stroke="#ffb7ff" d="M2179-44l-94 118 90-71z"/><path stroke-linejoin="round" stroke-miterlimit="1" fill="#ffb9ff" stroke="#ffb9ff" d="M2179-44l-251-57 157 175z"/><path stroke-linejoin="round" stroke-miterlimit="1" fill="#dd95ff" stroke="#dd95ff" d="M2161 323l-77-110-179 18z"/><path stroke-linejoin="round" stroke-miterlimit="1" fill="#ffb5ff" stroke="#ffb5ff" d="M2159 143l-74-69-1 139z"/><path stroke-linejoin="round" stroke-miterlimit="1" fill="#a66aff" stroke="#a66aff" d="M2151 1001l-165-86-29 177z"/><path stroke-linejoin="round" stroke-miterlimit="1" fill="#b56cff" stroke="#b56cff" d="M1562-67l-561-34 428 63z"/><path stroke-linejoin="round" stroke-miterlimit="1" fill="#bf74ff" stroke="#bf74ff" d="M1655-101h-654l561 34z"/><path stroke-linejoin="round" stroke-miterlimit="1" fill="#b974ff" stroke="#b974ff" d="M2030 837l-94-107 52 105z"/><path stroke-linejoin="round" stroke-miterlimit="1" fill="#f0a0ff" stroke="#f0a0ff" d="M2085 74l-157-175-122 120z"/><path stroke-linejoin="round" stroke-miterlimit="1" fill="#ed9fff" stroke="#ed9fff" d="M2085 74l-279-55 99 212z"/><path stroke-linejoin="round" stroke-miterlimit="1" fill="#eda4ff" stroke="#eda4ff" d="M2085 74l-180 157 179-18z"/><path stroke-linejoin="round" stroke-miterlimit="1" fill="#e271ff" stroke="#e271ff" d="M1928-101h-9L1806 19z"/><path stroke-linejoin="round" stroke-miterlimit="1" fill="#9c65ff" stroke="#9c65ff" d="M2030 837l-42-2-2 80z"/><path stroke-linejoin="round" stroke-miterlimit="1" fill="#b373ff" stroke="#b373ff" d="M1986 915l-172-34 143 211z"/><path stroke-linejoin="round" stroke-miterlimit="1" fill="#bd78ff" stroke="#bd78ff" d="M1988 835l-174 46 172 34z"/><path stroke-linejoin="round" stroke-miterlimit="1" fill="#ac71ff" stroke="#ac71ff" d="M1988 835l-52-105-122 151z"/><path stroke-linejoin="round" stroke-miterlimit="1" fill="#ac68ff" stroke="#ac68ff" d="M1151 1099l-119-3-31 3z"/><path stroke-linejoin="round" stroke-miterlimit="1" fill="#b370ff" stroke="#b370ff" d="M1957 1092l-143-211-145 218z"/><path stroke-linejoin="round" stroke-miterlimit="1" fill="#d18aff" stroke="#d18aff" d="M1905 231l-99-212-79 48z"/><path stroke-linejoin="round" stroke-miterlimit="1" fill="#d68eff" stroke="#d68eff" d="M1919-101h-112l-1 120z"/><path stroke-linejoin="round" stroke-miterlimit="1" fill="#b77aff" stroke="#b77aff" d="M1936 730l-28-98-157 6z"/><path stroke-linejoin="round" stroke-miterlimit="1" fill="#c380ff" stroke="#c380ff" d="M1936 730l-185-92 63 243z"/><path stroke-linejoin="round" stroke-miterlimit="1" fill="#c68aff" stroke="#c68aff" d="M1908 632l-121-147-33 26z"/><path stroke-linejoin="round" stroke-miterlimit="1" fill="#c278ff" stroke="#c278ff" d="M1814 881l-157 82 12 136z"/><path stroke-linejoin="round" stroke-miterlimit="1" fill="#cf8bff" stroke="#cf8bff" d="M1905 231l-331 131 213 123z"/><path stroke-linejoin="round" stroke-miterlimit="1" fill="#cc86ff" stroke="#cc86ff" d="M1905 231l-327 11-4 120z"/><path stroke-linejoin="round" stroke-miterlimit="1" fill="#c688ff" stroke="#c688ff" d="M1908 632l-154-121-3 127z"/><path stroke-linejoin="round" stroke-miterlimit="1" fill="#cd88ff" stroke="#cd88ff" d="M1905 231L1727 67l-50 16z"/><path stroke-linejoin="round" stroke-miterlimit="1" fill="#cc84ff" stroke="#cc84ff" d="M1905 231L1677 83l-99 159z"/><path stroke-linejoin="round" stroke-miterlimit="1" fill="#d093ff" stroke="#d093ff" d="M1787 485l-213-123 180 149z"/><path stroke-linejoin="round" stroke-miterlimit="1" fill="#cf86ff" stroke="#cf86ff" d="M1806 19l-82 33 3 15z"/><path stroke-linejoin="round" stroke-miterlimit="1" fill="#ca87ff" stroke="#ca87ff" d="M1807-101l-83 153 82-33z"/><path stroke-linejoin="round" stroke-miterlimit="1" fill="#c37fff" stroke="#c37fff" d="M1807-101h-152l69 153z"/><path stroke-linejoin="round" stroke-miterlimit="1" fill="#c588ff" stroke="#c588ff" d="M1814 881l-63-243-128 32z"/><path stroke-linejoin="round" stroke-miterlimit="1" fill="#c17dff" stroke="#c17dff" d="M1814 881l-191-211 34 293z"/><path stroke-linejoin="round" stroke-miterlimit="1" fill="#d499ff" stroke="#d499ff" d="M1754 511l-180-149 70 165z"/><path stroke-linejoin="round" stroke-miterlimit="1" fill="#ba81ff" stroke="#ba81ff" d="M1657 963l-34-293-119 75z"/><path stroke-linejoin="round" stroke-miterlimit="1" fill="#b577ff" stroke="#b577ff" d="M1657 963l-153-218-19 85z"/><path stroke-linejoin="round" stroke-miterlimit="1" fill="#dea5ff" stroke="#dea5ff" d="M1751 638l-107-111-24 53z"/><path stroke-linejoin="round" stroke-miterlimit="1" fill="#d89dff" stroke="#d89dff" d="M1754 511l-110 16 107 111z"/><path stroke-linejoin="round" stroke-miterlimit="1" fill="#d09aff" stroke="#d09aff" d="M1751 638l-131-58 3 90z"/><path stroke-linejoin="round" stroke-miterlimit="1" fill="#b56bff" stroke="#b56bff" d="M1429-38l-428-63 304 89z"/><path stroke-linejoin="round" stroke-miterlimit="1" fill="#fe9aff" stroke="#fe9aff" d="M1669 1099l-210-17-23 17z"/><path stroke-linejoin="round" stroke-miterlimit="1" fill="#c47eff" stroke="#c47eff" d="M1677 83l-22-184-93 34z"/><path stroke-linejoin="round" stroke-miterlimit="1" fill="#c281ff" stroke="#c281ff" d="M1724 52l-69-153 22 184z"/><path stroke-linejoin="round" stroke-miterlimit="1" fill="#c98bff" stroke="#c98bff" d="M1727 67l-3-15-47 31z"/><path stroke-linejoin="round" stroke-miterlimit="1" fill="#cf96ff" stroke="#cf96ff" d="M1644 527l-70-165-63 119z"/><path stroke-linejoin="round" stroke-miterlimit="1" fill="#aa6cff" stroke="#aa6cff" d="M1669 1099l-12-136-198 119z"/><path stroke-linejoin="round" stroke-miterlimit="1" fill="#c67bff" stroke="#c67bff" d="M1677 83L1429-38l149 280z"/><path stroke-linejoin="round" stroke-miterlimit="1" fill="#c67cff" stroke="#c67cff" d="M1677 83L1562-67l-133 29z"/><path stroke-linejoin="round" stroke-miterlimit="1" fill="#b673ff" stroke="#b673ff" d="M1657 963l-172-133-26 252z"/><path stroke-linejoin="round" stroke-miterlimit="1" fill="#c178ff" stroke="#c178ff" d="M1578 242L1429-38l-80 84z"/><path stroke-linejoin="round" stroke-miterlimit="1" fill="#cf99ff" stroke="#cf99ff" d="M1623 670l-3-90-58 40z"/><path stroke-linejoin="round" stroke-miterlimit="1" fill="#d59eff" stroke="#d59eff" d="M1644 527l-133-46 109 99z"/><path stroke-linejoin="round" stroke-miterlimit="1" fill="#c079ff" stroke="#c079ff" d="M1578 242L1349 46l28 185z"/><path stroke-linejoin="round" stroke-miterlimit="1" fill="#d39fff" stroke="#d39fff" d="M1620 580l-109-99 51 139z"/><path stroke-linejoin="round" stroke-miterlimit="1" fill="#dd91ff" stroke="#dd91ff" d="M1623 670l-61-50-58 125z"/><path stroke-linejoin="round" stroke-miterlimit="1" fill="#b672ff" stroke="#b672ff" d="M1485 830l-104 221 78 31z"/><path stroke-linejoin="round" stroke-miterlimit="1" fill="#c27dff" stroke="#c27dff" d="M1574 362l-197-131-21 67z"/><path stroke-linejoin="round" stroke-miterlimit="1" fill="#c380ff" stroke="#c380ff" d="M1578 242l-201-11 197 131z"/><path stroke-linejoin="round" stroke-miterlimit="1" fill="#c78aff" stroke="#c78aff" d="M1574 362l-150 110 87 9z"/><path stroke-linejoin="round" stroke-miterlimit="1" fill="#c381ff" stroke="#c381ff" d="M1574 362l-218-64 68 174z"/><path stroke-linejoin="round" stroke-miterlimit="1" fill="#d090ff" stroke="#d090ff" d="M1562 620l-51-139-87-9z"/><path stroke-linejoin="round" stroke-miterlimit="1" fill="#c989ff" stroke="#c989ff" d="M1562 620l-138-148 80 273z"/><path stroke-linejoin="round" stroke-miterlimit="1" fill="#aa6dff" stroke="#aa6dff" d="M1424 472l-195-45-48 15z"/><path stroke-linejoin="round" stroke-miterlimit="1" fill="#b372ff" stroke="#b372ff" d="M1485 830l-245 128 141 93z"/><path stroke-linejoin="round" stroke-miterlimit="1" fill="#c47eff" stroke="#c47eff" d="M1504 745l-80-273-243-30z"/><path stroke-linejoin="round" stroke-miterlimit="1" fill="#bd75ff" stroke="#bd75ff" d="M1504 745l-323-303-67 427z"/><path stroke-linejoin="round" stroke-miterlimit="1" fill="#b173ff" stroke="#b173ff" d="M1504 745l-390 124 371-39z"/><path stroke-linejoin="round" stroke-miterlimit="1" fill="#bd76ff" stroke="#bd76ff" d="M1485 830l-371 39 126 89z"/><path stroke-linejoin="round" stroke-miterlimit="1" fill="#bc6dff" stroke="#bc6dff" d="M1181 442l-173 262 106 165z"/><path stroke-linejoin="round" stroke-miterlimit="1" fill="#b871ff" stroke="#b871ff" d="M1459 1082l-78-31 55 48z"/><path stroke-linejoin="round" stroke-miterlimit="1" fill="#d46cff" stroke="#d46cff" d="M1356 298l-129 89 2 40z"/><path stroke-linejoin="round" stroke-miterlimit="1" fill="#c07bff" stroke="#c07bff" d="M1424 472l-68-174-127 129z"/><path stroke-linejoin="round" stroke-miterlimit="1" fill="#c675ff" stroke="#c675ff" d="M1436 1099l-55-48-10 48z"/><path stroke-linejoin="round" stroke-miterlimit="1" fill="#be78ff" stroke="#be78ff" d="M1429-38l-124 26 44 58z"/><path stroke-linejoin="round" stroke-miterlimit="1" fill="#bf6fff" stroke="#bf6fff" d="M1305-12l-304-89 52 61z"/><path stroke-linejoin="round" stroke-miterlimit="1" fill="#bc77ff" stroke="#bc77ff" d="M1377 231l-28-185-84 180z"/><path stroke-linejoin="round" stroke-miterlimit="1" fill="#bc78ff" stroke="#bc78ff" d="M1381 1051l-142-40 132 88z"/><path stroke-linejoin="round" stroke-miterlimit="1" fill="#c376ff" stroke="#c376ff" d="M1381 1051l-141-93-1 53z"/><path stroke-linejoin="round" stroke-miterlimit="1" fill="#c474ff" stroke="#c474ff" d="M1377 231l-112-5 91 72z"/><path stroke-linejoin="round" stroke-miterlimit="1" fill="#b06eff" stroke="#b06eff" d="M1371 1099l-132-88-88 88z"/><path stroke-linejoin="round" stroke-miterlimit="1" fill="#c16eff" stroke="#c16eff" d="M1305-12l-79 246 39-8z"/><path stroke-linejoin="round" stroke-miterlimit="1" fill="#c072ff" stroke="#c072ff" d="M1349 46l-44-58-40 238z"/><path stroke-linejoin="round" stroke-miterlimit="1" fill="#bf75ff" stroke="#bf75ff" d="M1356 298l-91-72-43 83zM1356 298l-134 11 5 78z"/><path stroke-linejoin="round" stroke-miterlimit="1" fill="#945cff" stroke="#945cff" d="M900 1099l-407-10-29 10z"/><path stroke-linejoin="round" stroke-miterlimit="1" fill="#c06fff" stroke="#c06fff" d="M1305-12l-267 42 188 204z"/><path stroke-linejoin="round" stroke-miterlimit="1" fill="#c170ff" stroke="#c170ff" d="M1305-12l-252-28-15 70z"/><path stroke-linejoin="round" stroke-miterlimit="1" fill="#c46cff" stroke="#c46cff" d="M1265 226l-39 8-4 75z"/><path stroke-linejoin="round" stroke-miterlimit="1" fill="#b36eff" stroke="#b36eff" d="M1239 1011l-125-142 37 230z"/><path stroke-linejoin="round" stroke-miterlimit="1" fill="#ba76ff" stroke="#ba76ff" d="M1240 958l-126-89 125 142z"/><path stroke-linejoin="round" stroke-miterlimit="1" fill="#b67bff" stroke="#b67bff" d="M1227 387l-5-78-41 133z"/><path stroke-linejoin="round" stroke-miterlimit="1" fill="#ca6fff" stroke="#ca6fff" d="M1229 427l-2-40-46 55z"/><path stroke-linejoin="round" stroke-miterlimit="1" fill="#c271ff" stroke="#c271ff" d="M1226 234L903 421l319-112z"/><path stroke-linejoin="round" stroke-miterlimit="1" fill="#c170ff" stroke="#c170ff" d="M1226 234L1038 30 811 240z"/><path stroke-linejoin="round" stroke-miterlimit="1" fill="#be6fff" stroke="#be6fff" d="M1226 234l-415 6 92 181z"/><path stroke-linejoin="round" stroke-miterlimit="1" fill="#bc71ff" stroke="#bc71ff" d="M1222 309L903 421l278 21z"/><path stroke-linejoin="round" stroke-miterlimit="1" fill="#b26cff" stroke="#b26cff" d="M1151 1099l-37-230-82 227z"/><path stroke-linejoin="round" stroke-miterlimit="1" fill="#be70ff" stroke="#be70ff" d="M1181 442l-278-21 105 283z"/><path stroke-linejoin="round" stroke-miterlimit="1" fill="#b16aff" stroke="#b16aff" d="M1114 869l-152 36 70 191z"/><path stroke-linejoin="round" stroke-miterlimit="1" fill="#bd6cff" stroke="#bd6cff" d="M1008 704L903 421l-74 162z"/><path stroke-linejoin="round" stroke-miterlimit="1" fill="#bb70ff" stroke="#bb70ff" d="M1114 869l-106-165-60 66z"/><path stroke-linejoin="round" stroke-miterlimit="1" fill="#ba70ff" stroke="#ba70ff" d="M1114 869l-166-99 14 135z"/><path stroke-linejoin="round" stroke-miterlimit="1" fill="#b169ff" stroke="#b169ff" d="M900 1099l-221-65-186 55z"/><path stroke-linejoin="round" stroke-miterlimit="1" fill="#c56eff" stroke="#c56eff" d="M903 421l-92-181 2 113z"/><path stroke-linejoin="round" stroke-miterlimit="1" fill="#b86cff" stroke="#b86cff" d="M1001 1099l-39-194-60 192z"/><path stroke-linejoin="round" stroke-miterlimit="1" fill="#b56bff" stroke="#b56bff" d="M1008 704L829 583l83 126z"/><path stroke-linejoin="round" stroke-miterlimit="1" fill="#b062ff" stroke="#b062ff" d="M1032 1096l-70-191 39 194z"/><path stroke-linejoin="round" stroke-miterlimit="1" fill="#c96aff" stroke="#c96aff" d="M1038 30l-251 78 24 132z"/><path stroke-linejoin="round" stroke-miterlimit="1" fill="#c76dff" stroke="#c76dff" d="M1053-40l-90-44 75 114z"/><path stroke-linejoin="round" stroke-miterlimit="1" fill="#c06aff" stroke="#c06aff" d="M1053-40l-52-61-38 17z"/><path stroke-linejoin="round" stroke-miterlimit="1" fill="#c669ff" stroke="#c669ff" d="M1001-101H887l76 17z"/><path stroke-linejoin="round" stroke-miterlimit="1" fill="#c46bff" stroke="#c46bff" d="M1038 30L963-84 787 108z"/><path stroke-linejoin="round" stroke-miterlimit="1" fill="#b981ff" stroke="#b981ff" d="M903 421l-41 17-33 145z"/><path stroke-linejoin="round" stroke-miterlimit="1" fill="#af67ff" stroke="#af67ff" d="M962 905l-99-2 39 194z"/><path stroke-linejoin="round" stroke-miterlimit="1" fill="#c66dff" stroke="#c66dff" d="M963-84l-76-17-100 209z"/><path stroke-linejoin="round" stroke-miterlimit="1" fill="#ffafff" stroke="#ffafff" d="M1001 1099l-99-2-2 2z"/><path stroke-linejoin="round" stroke-miterlimit="1" fill="#a468ff" stroke="#a468ff" d="M1008 704l-96 5 36 61z"/><path stroke-linejoin="round" stroke-miterlimit="1" fill="#ae67ff" stroke="#ae67ff" d="M962 905l-14-135-85 133z"/><path stroke-linejoin="round" stroke-miterlimit="1" fill="#b468ff" stroke="#b468ff" d="M948 770l-36-61-106 175z"/><path stroke-linejoin="round" stroke-miterlimit="1" fill="#c46bff" stroke="#c46bff" d="M948 770L806 884l57 19z"/><path stroke-linejoin="round" stroke-miterlimit="1" fill="#a6f" stroke="#a6f" d="M900 1099L736 943l-57 91z"/><path stroke-linejoin="round" stroke-miterlimit="1" fill="#9459ff" stroke="#9459ff" d="M902 1097L736 943l164 156z"/><path stroke-linejoin="round" stroke-miterlimit="1" fill="#af67ff" stroke="#af67ff" d="M902 1097l-39-194-127 40z"/><path stroke-linejoin="round" stroke-miterlimit="1" fill="#c278ff" stroke="#c278ff" d="M903 421l-90-68 49 85z"/><path stroke-linejoin="round" stroke-miterlimit="1" fill="#bc6aff" stroke="#bc6aff" d="M912 709l-83-126-23 301z"/><path stroke-linejoin="round" stroke-miterlimit="1" fill="#cb65ff" stroke="#cb65ff" d="M811 240l-24-132-7 113z"/><path stroke-linejoin="round" stroke-miterlimit="1" fill="#d06dff" stroke="#d06dff" d="M887-101H653l134 209z"/><path stroke-linejoin="round" stroke-miterlimit="1" fill="#be71ff" stroke="#be71ff" d="M829 583l-176-50 153 351z"/><path stroke-linejoin="round" stroke-miterlimit="1" fill="#be6dff" stroke="#be6dff" d="M863 903l-57-19-70 59z"/><path stroke-linejoin="round" stroke-miterlimit="1" fill="#bd6cff" stroke="#bd6cff" d="M806 884L653 533 477 746z"/><path stroke-linejoin="round" stroke-miterlimit="1" fill="#c474ff" stroke="#c474ff" d="M813 353l-2-113-49 52z"/><path stroke-linejoin="round" stroke-miterlimit="1" fill="#c36bff" stroke="#c36bff" d="M862 438l-209 95 176 50z"/><path stroke-linejoin="round" stroke-miterlimit="1" fill="#c66aff" stroke="#c66aff" d="M862 438l-125-89-84 184z"/><path stroke-linejoin="round" stroke-miterlimit="1" fill="#c270ff" stroke="#c270ff" d="M862 438l-49-85-76-4z"/><path stroke-linejoin="round" stroke-miterlimit="1" fill="#ff7aff" stroke="#ff7aff" d="M569-101L248-79l75 15z"/><path stroke-linejoin="round" stroke-miterlimit="1" fill="#cc73ff" stroke="#cc73ff" d="M787 108l-67 28 60 85z"/><path stroke-linejoin="round" stroke-miterlimit="1" fill="#d868ff" stroke="#d868ff" d="M787 108L653-101l67 237z"/><path stroke-linejoin="round" stroke-miterlimit="1" fill="#b167ff" stroke="#b167ff" d="M806 884L477 746l259 197z"/><path stroke-linejoin="round" stroke-miterlimit="1" fill="#c377ff" stroke="#c377ff" d="M811 240l-31-19-18 71z"/><path stroke-linejoin="round" stroke-miterlimit="1" fill="#bc65ff" stroke="#bc65ff" d="M813 353l-51-61-25 57z"/><path stroke-linejoin="round" stroke-miterlimit="1" fill="#e66cff" stroke="#e66cff" d="M720 136l-67-237L524 14z"/><path stroke-linejoin="round" stroke-miterlimit="1" fill="#c96bff" stroke="#c96bff" d="M780 221l-113-10 95 81z"/><path stroke-linejoin="round" stroke-miterlimit="1" fill="#d16aff" stroke="#d16aff" d="M780 221l-60-85-53 75z"/><path stroke-linejoin="round" stroke-miterlimit="1" fill="#b969ff" stroke="#b969ff" d="M653 533l-178 87 2 126z"/><path stroke-linejoin="round" stroke-miterlimit="1" fill="#c269ff" stroke="#c269ff" d="M737 349l-146-24 62 208z"/><path stroke-linejoin="round" stroke-miterlimit="1" fill="#c86eff" stroke="#c86eff" d="M762 292l-95-81 70 138z"/><path stroke-linejoin="round" stroke-miterlimit="1" fill="#c26fff" stroke="#c26fff" d="M736 943l-289 45 232 46z"/><path stroke-linejoin="round" stroke-miterlimit="1" fill="#b367ff" stroke="#b367ff" d="M736 943L477 746l-30 242z"/><path stroke-linejoin="round" stroke-miterlimit="1" fill="#d06cff" stroke="#d06cff" d="M737 349l-70-138-76 114z"/><path stroke-linejoin="round" stroke-miterlimit="1" fill="#da69ff" stroke="#da69ff" d="M720 136L524 14l143 197z"/><path stroke-linejoin="round" stroke-miterlimit="1" fill="#ff72ff" stroke="#ff72ff" d="M653-101h-84L524 14z"/><path stroke-linejoin="round" stroke-miterlimit="1" fill="#c76cff" stroke="#c76cff" d="M653 533l-62-208-114 120z"/><path stroke-linejoin="round" stroke-miterlimit="1" fill="#bb6cff" stroke="#bb6cff" d="M679 1034l-232-46 46 101z"/><path stroke-linejoin="round" stroke-miterlimit="1" fill="#dd70ff" stroke="#dd70ff" d="M667 211L524 14l67 311z"/><path stroke-linejoin="round" stroke-miterlimit="1" fill="#ba6cff" stroke="#ba6cff" d="M477 746l-60 44 30 198z"/><path stroke-linejoin="round" stroke-miterlimit="1" fill="#e66eff" stroke="#e66eff" d="M591 325L524 14l-186 99z"/><path stroke-linejoin="round" stroke-miterlimit="1" fill="#ba69ff" stroke="#ba69ff" d="M653 533l-176-88-2 175z"/><path stroke-linejoin="round" stroke-miterlimit="1" fill="#b367ff" stroke="#b367ff" d="M291 1099l-151-45-339 45z"/><path stroke-linejoin="round" stroke-miterlimit="1" fill="#e476ff" stroke="#e476ff" d="M377 349l-39-236 7 212z"/><path stroke-linejoin="round" stroke-miterlimit="1" fill="#ca6dff" stroke="#ca6dff" d="M591 325l-214 24 100 96z"/><path stroke-linejoin="round" stroke-miterlimit="1" fill="#d96eff" stroke="#d96eff" d="M591 325L338 113l39 236z"/><path stroke-linejoin="round" stroke-miterlimit="1" fill="#bf6dff" stroke="#bf6dff" d="M447 988l-30-198-26 166z"/><path stroke-linejoin="round" stroke-miterlimit="1" fill="#ff72ff" stroke="#ff72ff" d="M569-101L323-64l201 78z"/><path stroke-linejoin="round" stroke-miterlimit="1" fill="#e571ff" stroke="#e571ff" d="M345 325l-7-212-49 91z"/><path stroke-linejoin="round" stroke-miterlimit="1" fill="#be6dff" stroke="#be6dff" d="M477 746l-2-126-69 46z"/><path stroke-linejoin="round" stroke-miterlimit="1" fill="#cd6eff" stroke="#cd6eff" d="M477 445l-93-4 91 179z"/><path stroke-linejoin="round" stroke-miterlimit="1" fill="#a963ff" stroke="#a963ff" d="M493 1089l-46-101-26 51z"/><path stroke-linejoin="round" stroke-miterlimit="1" fill="#ff70ff" stroke="#ff70ff" d="M524 14L323-64l15 177z"/><path stroke-linejoin="round" stroke-miterlimit="1" fill="#c46cff" stroke="#c46cff" d="M475 620L283 520l123 146z"/><path stroke-linejoin="round" stroke-miterlimit="1" fill="#d071ff" stroke="#d071ff" d="M475 620l-91-179-101 79z"/><path stroke-linejoin="round" stroke-miterlimit="1" fill="#cf71ff" stroke="#cf71ff" d="M477 445l-100-96 7 92z"/><path stroke-linejoin="round" stroke-miterlimit="1" fill="#cc6fff" stroke="#cc6fff" d="M493 1089l-71-27 42 37z"/><path stroke-linejoin="round" stroke-miterlimit="1" fill="#ab67ff" stroke="#ab67ff" d="M493 1089l-72-50 1 23z"/><path stroke-linejoin="round" stroke-miterlimit="1" fill="#ba6cff" stroke="#ba6cff" d="M464 1099l-70-41-103 41z"/><path stroke-linejoin="round" stroke-miterlimit="1" fill="#be68ff" stroke="#be68ff" d="M477 746l-71-80 11 124z"/><path stroke-linejoin="round" stroke-miterlimit="1" fill="#bf6aff" stroke="#bf6aff" d="M464 1099l-42-37-28-4z"/><path stroke-linejoin="round" stroke-miterlimit="1" fill="#ea6dff" stroke="#ea6dff" d="M447 988l-35 43 9 8z"/><path stroke-linejoin="round" stroke-miterlimit="1" fill="#a15dff" stroke="#a15dff" d="M447 988l-56-32 21 75z"/><path stroke-linejoin="round" stroke-miterlimit="1" fill="#8f57ff" stroke="#8f57ff" d="M291 1099l-99-39-52-6z"/><path stroke-linejoin="round" stroke-miterlimit="1" fill="#b765ff" stroke="#b765ff" d="M406 666L283 520l-29 38z"/><path stroke-linejoin="round" stroke-miterlimit="1" fill="#bb6cff" stroke="#bb6cff" d="M417 790L194 925l197 31z"/><path stroke-linejoin="round" stroke-miterlimit="1" fill="#ba6bff" stroke="#ba6bff" d="M417 790l-119-73-104 208z"/><path stroke-linejoin="round" stroke-miterlimit="1" fill="#cb73ff" stroke="#cb73ff" d="M417 790l-11-124-108 51z"/><path stroke-linejoin="round" stroke-miterlimit="1" fill="#a971ff" stroke="#a971ff" d="M421 1039l-9-8-18 27z"/><path stroke-linejoin="round" stroke-miterlimit="1" fill="#b566ff" stroke="#b566ff" d="M422 1062l-1-23-27 19z"/><path stroke-linejoin="round" stroke-miterlimit="1" fill="#d06cff" stroke="#d06cff" d="M248-79l-447-22L-7-18z"/><path stroke-linejoin="round" stroke-miterlimit="1" fill="#c46eff" stroke="#c46eff" d="M406 666L254 558l44 159z"/><path stroke-linejoin="round" stroke-miterlimit="1" fill="#bc69ff" stroke="#bc69ff" d="M412 1031l-21-75 3 102z"/><path stroke-linejoin="round" stroke-miterlimit="1" fill="#b769ff" stroke="#b769ff" d="M394 1058l-3-102-100 143z"/><path stroke-linejoin="round" stroke-miterlimit="1" fill="#ff78ff" stroke="#ff78ff" d="M338 113L323-64 234 72z"/><path stroke-linejoin="round" stroke-miterlimit="1" fill="#ed79ff" stroke="#ed79ff" d="M345 325l-56-121-23 81z"/><path stroke-linejoin="round" stroke-miterlimit="1" fill="#dc76ff" stroke="#dc76ff" d="M384 441l-7-92-32-24z"/><path stroke-linejoin="round" stroke-miterlimit="1" fill="#d69eff" stroke="#d69eff" d="M384 441l-103 75 2 4z"/><path stroke-linejoin="round" stroke-miterlimit="1" fill="#ba66ff" stroke="#ba66ff" d="M391 956l-183 65 83 78z"/><path stroke-linejoin="round" stroke-miterlimit="1" fill="#b065ff" stroke="#b065ff" d="M391 956l-197-31 14 96z"/><path stroke-linejoin="round" stroke-miterlimit="1" fill="#d473ff" stroke="#d473ff" d="M384 441l-39-116-64 191z"/><path stroke-linejoin="round" stroke-miterlimit="1" fill="#e779ff" stroke="#e779ff" d="M281 516l-15-231-162 117z"/><path stroke-linejoin="round" stroke-miterlimit="1" fill="#f770ff" stroke="#f770ff" d="M323-64l-75-15-14 151z"/><path stroke-linejoin="round" stroke-miterlimit="1" fill="#e57dff" stroke="#e57dff" d="M345 325l-79-40 15 231z"/><path stroke-linejoin="round" stroke-miterlimit="1" fill="#cf73ff" stroke="#cf73ff" d="M298 717l-44-159-69 45z"/><path stroke-linejoin="round" stroke-miterlimit="1" fill="#ed70ff" stroke="#ed70ff" d="M338 113L234 72l55 132z"/><path stroke-linejoin="round" stroke-miterlimit="1" fill="#925aff" stroke="#925aff" d="M140 1054l-59-20-280 65z"/><path stroke-linejoin="round" stroke-miterlimit="1" fill="#b466ff" stroke="#b466ff" d="M194 925L49 677l6 214z"/><path stroke-linejoin="round" stroke-miterlimit="1" fill="#e771ff" stroke="#e771ff" d="M289 204L234 72l-69 132z"/><path stroke-linejoin="round" stroke-miterlimit="1" fill="#9e5cff" stroke="#9e5cff" d="M291 1099l-83-78-16 39z"/><path stroke-linejoin="round" stroke-miterlimit="1" fill="#bb6bff" stroke="#bb6bff" d="M298 717L49 677l145 248z"/><path stroke-linejoin="round" stroke-miterlimit="1" fill="#b165ff" stroke="#b165ff" d="M298 717L185 603 49 677z"/><path stroke-linejoin="round" stroke-miterlimit="1" fill="#d473ff" stroke="#d473ff" d="M281 516L104 402l54 160z"/><path stroke-linejoin="round" stroke-miterlimit="1" fill="#f278ff" stroke="#f278ff" d="M289 204H165l101 81z"/><path stroke-linejoin="round" stroke-miterlimit="1" fill="#cf6dff" stroke="#cf6dff" d="M281 516l-123 46 96-4z"/><path stroke-linejoin="round" stroke-miterlimit="1" fill="#cd89ff" stroke="#cd89ff" d="M283 520l-2-4-27 42z"/><path stroke-linejoin="round" stroke-miterlimit="1" fill="#e671ff" stroke="#e671ff" d="M248-79L41 21l193 51z"/><path stroke-linejoin="round" stroke-miterlimit="1" fill="#ff83ff" stroke="#ff83ff" d="M266 285l-101-81-67 50z"/><path stroke-linejoin="round" stroke-miterlimit="1" fill="#ff8eff" stroke="#ff8eff" d="M266 285L98 254l6 148z"/><path stroke-linejoin="round" stroke-miterlimit="1" fill="#ee79ff" stroke="#ee79ff" d="M254 558l-96 4 27 41z"/><path stroke-linejoin="round" stroke-miterlimit="1" fill="#c46eff" stroke="#c46eff" d="M55 891l-6-214-48 62z"/><path stroke-linejoin="round" stroke-miterlimit="1" fill="#de71ff" stroke="#de71ff" d="M248-79L-7-18l48 39z"/><path stroke-linejoin="round" stroke-miterlimit="1" fill="#995bff" stroke="#995bff" d="M55 891L1 739l-8 41z"/><path stroke-linejoin="round" stroke-miterlimit="1" fill="#b16aff" stroke="#b16aff" d="M185 603L56 654l-7 23z"/><path stroke-linejoin="round" stroke-miterlimit="1" fill="#ef78ff" stroke="#ef78ff" d="M234 72L41 21l124 183z"/><path stroke-linejoin="round" stroke-miterlimit="1" fill="#b268ff" stroke="#b268ff" d="M194 925L81 1034l59 20z"/><path stroke-linejoin="round" stroke-miterlimit="1" fill="#af63ff" stroke="#af63ff" d="M208 1021l-14-96-54 129z"/><path stroke-linejoin="round" stroke-miterlimit="1" fill="#b26aff" stroke="#b26aff" d="M208 1021l-68 33 52 6z"/><path stroke-linejoin="round" stroke-miterlimit="1" fill="#e178ff" stroke="#e178ff" d="M158 562l-54-160-71 39z"/><path stroke-linejoin="round" stroke-miterlimit="1" fill="#ef7bff" stroke="#ef7bff" d="M165 204L41 21l-69 137z"/><path stroke-linejoin="round" stroke-miterlimit="1" fill="#b667ff" stroke="#b667ff" d="M194 925L55 891l26 143z"/><path stroke-linejoin="round" stroke-miterlimit="1" fill="#c46fff" stroke="#c46fff" d="M185 603l-27-41-102 92z"/><path stroke-linejoin="round" stroke-miterlimit="1" fill="#ff83ff" stroke="#ff83ff" d="M165 204l-193-46 126 96z"/><path stroke-linejoin="round" stroke-miterlimit="1" fill="#c06cff" stroke="#c06cff" d="M158 562l-187 9 85 83z"/><path stroke-linejoin="round" stroke-miterlimit="1" fill="#dc77ff" stroke="#dc77ff" d="M158 562L33 441l-62 130z"/><path stroke-linejoin="round" stroke-miterlimit="1" fill="#cb73ff" stroke="#cb73ff" d="M33 441l-69 109 7 21z"/><path stroke-linejoin="round" stroke-miterlimit="1" fill="#ff87ff" stroke="#ff87ff" d="M104 402l-6-148-169 114z"/><path stroke-linejoin="round" stroke-miterlimit="1" fill="#de78ff" stroke="#de78ff" d="M104 402l-175-34 104 73z"/><path stroke-linejoin="round" stroke-miterlimit="1" fill="#a961ff" stroke="#a961ff" d="M81 1034L55 891l-72-9z"/><path stroke-linejoin="round" stroke-miterlimit="1" fill="#ea78ff" stroke="#ea78ff" d="M98 254l-126-96-48 50z"/><path stroke-linejoin="round" stroke-miterlimit="1" fill="#f27dff" stroke="#f27dff" d="M98 254l-174-46 5 160z"/><path stroke-linejoin="round" stroke-miterlimit="1" fill="#b467ff" stroke="#b467ff" d="M55 891L-7 780l-10 102z"/><path stroke-linejoin="round" stroke-miterlimit="1" fill="#ab65ff" stroke="#ab65ff" d="M81 1034l-98-152-182 173z"/><path stroke-linejoin="round" stroke-miterlimit="1" fill="#b365ff" stroke="#b365ff" d="M81 1034l-280 21v44z"/><path stroke-linejoin="round" stroke-miterlimit="1" fill="#ad66ff" stroke="#ad66ff" d="M-17 882l-177 67-5 106z"/><path stroke-linejoin="round" stroke-miterlimit="1" fill="#ce6cff" stroke="#ce6cff" d="M41 21l-150 18 81 119z"/><path stroke-linejoin="round" stroke-miterlimit="1" fill="#9c5cff" stroke="#9c5cff" d="M56 654l-85-83 78 106z"/><path stroke-linejoin="round" stroke-miterlimit="1" fill="#d16dff" stroke="#d16dff" d="M41 21L-7-18l-102 57z"/><path stroke-linejoin="round" stroke-miterlimit="1" fill="#aa63ff" stroke="#aa63ff" d="M49 677l-128 41 80 21z"/><path stroke-linejoin="round" stroke-miterlimit="1" fill="#b668ff" stroke="#b668ff" d="M49 677l-78-106-50 147z"/><path stroke-linejoin="round" stroke-miterlimit="1" fill="#d074ff" stroke="#d074ff" d="M-29 571l-79 48 29 99z"/><path stroke-linejoin="round" stroke-miterlimit="1" fill="#e77bff" stroke="#e77bff" d="M33 441l-104-73-38 77z"/><path stroke-linejoin="round" stroke-miterlimit="1" fill="#c56dff" stroke="#c56dff" d="M33 441l-142 60 73 49z"/><path stroke-linejoin="round" stroke-miterlimit="1" fill="#cc76ff" stroke="#cc76ff" d="M33 441l-142 4v56z"/><path stroke-linejoin="round" stroke-miterlimit="1" fill="#b066ff" stroke="#b066ff" d="M-7 780l-176 10 166 92z"/><path stroke-linejoin="round" stroke-miterlimit="1" fill="#c56aff" stroke="#c56aff" d="M-7-18l-192-57 90 114z"/><path stroke-linejoin="round" stroke-miterlimit="1" fill="#c369ff" stroke="#c369ff" d="M-7-18l-192-83v26z"/><path stroke-linejoin="round" stroke-miterlimit="1" fill="#9a5cff" stroke="#9a5cff" d="M1 739l-80-21 72 62z"/><path stroke-linejoin="round" stroke-miterlimit="1" fill="#c46eff" stroke="#c46eff" d="M-7 780l-72-62-104 72z"/><path stroke-linejoin="round" stroke-miterlimit="1" fill="#cc6cff" stroke="#cc6cff" d="M-28 158l-141-15 88 52z"/><path stroke-linejoin="round" stroke-miterlimit="1" fill="#d571ff" stroke="#d571ff" d="M-28 158l-81-119-60 104z"/><path stroke-linejoin="round" stroke-miterlimit="1" fill="#db71ff" stroke="#db71ff" d="M-28 158l-53 37 5 13z"/><path stroke-linejoin="round" stroke-miterlimit="1" fill="#b567ff" stroke="#b567ff" d="M-17 882l-166-92-11 159z"/><path stroke-linejoin="round" stroke-miterlimit="1" fill="#c667ff" stroke="#c667ff" d="M-29 571l-7-21-72 69z"/><path stroke-linejoin="round" stroke-miterlimit="1" fill="#ce6fff" stroke="#ce6fff" d="M-71 368l-5-160-105 172z"/><path stroke-linejoin="round" stroke-miterlimit="1" fill="#d474ff" stroke="#d474ff" d="M-36 550l-73-49 1 118z"/><path stroke-linejoin="round" stroke-miterlimit="1" fill="#af62ff" stroke="#af62ff" d="M-108 619l-1-118-90 67z"/><path stroke-linejoin="round" stroke-miterlimit="1" fill="#b165ff" stroke="#b165ff" d="M-79 718l-29-99-91 81z"/><path stroke-linejoin="round" stroke-miterlimit="1" fill="#cb6eff" stroke="#cb6eff" d="M-76 208l-93-65-12 237z"/><path stroke-linejoin="round" stroke-miterlimit="1" fill="#c26aff" stroke="#c26aff" d="M-71 368l-110 12 72 65z"/><path stroke-linejoin="round" stroke-miterlimit="1" fill="#b56dff" stroke="#b56dff" d="M-109 501l-90 46v21z"/><path stroke-linejoin="round" stroke-miterlimit="1" fill="#b262ff" stroke="#b262ff" d="M-79 718l-120-18 16 90z"/><path stroke-linejoin="round" stroke-miterlimit="1" fill="#ab63ff" stroke="#ab63ff" d="M-76 208l-5-13-88-52z"/><path stroke-linejoin="round" stroke-miterlimit="1" fill="#b865ff" stroke="#b865ff" d="M-109 445l-72-65 5 47z"/><path stroke-linejoin="round" stroke-miterlimit="1" fill="#d975ff" stroke="#d975ff" d="M-109 39l-90 68 30 36z"/><path stroke-linejoin="round" stroke-miterlimit="1" fill="#c671ff" stroke="#c671ff" d="M-109 501l-90 23v23z"/><path stroke-linejoin="round" stroke-miterlimit="1" fill="#b363ff" stroke="#b363ff" d="M-109 501v-56l-67-18z"/><path stroke-linejoin="round" stroke-miterlimit="1" fill="#b866ff" stroke="#b866ff" d="M-109 501l-67-74-23 72z"/><path stroke-linejoin="round" stroke-miterlimit="1" fill="#cb6dff" stroke="#cb6dff" d="M-109 39l-90-114v182z"/><path stroke-linejoin="round" stroke-miterlimit="1" fill="#b869ff" stroke="#b869ff" d="M-108 619l-91-51v132z"/><path stroke-linejoin="round" stroke-miterlimit="1" fill="#c667ff" stroke="#c667ff" d="M-109 501l-90-2v25z"/><path stroke-linejoin="round" stroke-miterlimit="1" fill="#b162ff" stroke="#b162ff" d="M-169 143l-30-36 18 273z"/><path stroke-linejoin="round" stroke-miterlimit="1" fill="#ef83ff" stroke="#ef83ff" d="M-176 427l-5-47-18 119z"/><path stroke-linejoin="round" stroke-miterlimit="1" fill="#cf71ff" stroke="#cf71ff" d="M-181 380l-18-273v392z"/><path stroke-linejoin="round" stroke-miterlimit="1" fill="#9459ff" stroke="#9459ff" d="M-183 790l-16-90 5 249z"/><path stroke-linejoin="round" stroke-miterlimit="1" fill="#f993ff" stroke="#f993ff" d="M-194 949l-5-249v355z"/></svg>