<svg xmlns="http://www.w3.org/2000/svg" width="2000" height="1000" display="block"><path stroke-linejoin="round" stroke-miterlimit="1" fill="#5942aa" stroke="#5942aa" d="M551 1099l-279-2-405 2z"/><path stroke-linejoin="round" stroke-miterlimit="1" fill="#6342bc" stroke="#6342bc" d="M1663-101h-402l281 7z"/><path stroke-linejoin="round" stroke-miterlimit="1" fill="#6c40cd" stroke="#6c40cd" d="M2039 1002l-215-35-244 132z"/><path stroke-linejoin="round" stroke-miterlimit="1" fill="#6040b7" stroke="#6040b7" d="M2201 146l-58-57-164 213z"/><path stroke-linejoin="round" stroke-miterlimit="1" fill="#6340bc" stroke="#6340bc" d="M2201 146l-222 156 10 20z"/><path stroke-linejoin="round" stroke-miterlimit="1" fill="#6540bf" stroke="#6540bf" d="M2201 681l-185 23 146 24z"/><path stroke-linejoin="round" stroke-miterlimit="1" fill="#5d40b0" stroke="#5d40b0" d="M2201-101h-228l102 90zM2201-101l-58 190 58 57zM2201-101l-126 90 68 100z"/><path stroke-linejoin="round" stroke-miterlimit="1" fill="#6440bd" stroke="#6440bd" d="M2201 792l-39-64-105 25z"/><path stroke-linejoin="round" stroke-miterlimit="1" fill="#6240ba" stroke="#6240ba" d="M2201 792V681l-39 47z"/><path stroke-linejoin="round" stroke-miterlimit="1" fill="#603fb5" stroke="#603fb5" d="M2201 1015l-56-4 56 29z"/><path stroke-linejoin="round" stroke-miterlimit="1" fill="#6440be" stroke="#6440be" d="M2201 499l-185 205 185-23z"/><path stroke-linejoin="round" stroke-miterlimit="1" fill="#6740c3" stroke="#6740c3" d="M2201 499l-212-177 27 382z"/><path stroke-linejoin="round" stroke-miterlimit="1" fill="#6240ba" stroke="#6240ba" d="M2201 499V146l-212 176zM2201 908l-145 23 89 80z"/><path stroke-linejoin="round" stroke-miterlimit="1" fill="#603fb6" stroke="#603fb6" d="M2201 908l-56 103 56 4z"/><path stroke-linejoin="round" stroke-miterlimit="1" fill="#6340bc" stroke="#6340bc" d="M2201 839v-47l-144-39z"/><path stroke-linejoin="round" stroke-miterlimit="1" fill="#6540be" stroke="#6540be" d="M2201 839l-144-86-1 178z"/><path stroke-linejoin="round" stroke-miterlimit="1" fill="#6240ba" stroke="#6240ba" d="M2201 839l-145 92 145-23z"/><path stroke-linejoin="round" stroke-miterlimit="1" fill="#5f3fb4" stroke="#5f3fb4" d="M2201 1099v-59l-56-29z"/><path stroke-linejoin="round" stroke-miterlimit="1" fill="#613fb7" stroke="#613fb7" d="M2201 1099l-56-88-106-9z"/><path stroke-linejoin="round" stroke-miterlimit="1" fill="#6640c1" stroke="#6640c1" d="M2201 1099l-162-97-459 97z"/><path stroke-linejoin="round" stroke-miterlimit="1" fill="#6d40cf" stroke="#6d40cf" d="M2016 704l-27-382-168 143z"/><path stroke-linejoin="round" stroke-miterlimit="1" fill="#6740c3" stroke="#6740c3" d="M2162 728l-146-24 41 49z"/><path stroke-linejoin="round" stroke-miterlimit="1" fill="#6240b9" stroke="#6240b9" d="M2143 89L1926 7l53 295z"/><path stroke-linejoin="round" stroke-miterlimit="1" fill="#6340bc" stroke="#6340bc" d="M2145 1011l-89-80-17 71z"/><path stroke-linejoin="round" stroke-miterlimit="1" fill="#5f40b4" stroke="#5f40b4" d="M2143 89l-68-100-149 18z"/><path stroke-linejoin="round" stroke-miterlimit="1" fill="#6641c1" stroke="#6641c1" d="M1979 302L1926 7l-112 254z"/><path stroke-linejoin="round" stroke-miterlimit="1" fill="#6c41cd" stroke="#6c41cd" d="M1989 322l-90 12-78 131z"/><path stroke-linejoin="round" stroke-miterlimit="1" fill="#7441dc" stroke="#7441dc" d="M2016 704l-195-239-11 200z"/><path stroke-linejoin="round" stroke-miterlimit="1" fill="#6840c4" stroke="#6840c4" d="M2057 753l-59 15 58 163z"/><path stroke-linejoin="round" stroke-miterlimit="1" fill="#5f40b4" stroke="#5f40b4" d="M2075-11l-102-90-47 108z"/><path stroke-linejoin="round" stroke-miterlimit="1" fill="#6840c4" stroke="#6840c4" d="M2056 931l-194-32 177 103z"/><path stroke-linejoin="round" stroke-miterlimit="1" fill="#6a40c9" stroke="#6a40c9" d="M2056 931l-58-163-136 131z"/><path stroke-linejoin="round" stroke-miterlimit="1" fill="#6940c8" stroke="#6940c8" d="M2057 753l-41-49-18 64z"/><path stroke-linejoin="round" stroke-miterlimit="1" fill="#6b40ca" stroke="#6b40ca" d="M2039 1002l-177-103-38 68z"/><path stroke-linejoin="round" stroke-miterlimit="1" fill="#6f40d2" stroke="#6f40d2" d="M1998 768l-161 99 25 32zM2016 704l-206-39 188 103z"/><path stroke-linejoin="round" stroke-miterlimit="1" fill="#5f40b4" stroke="#5f40b4" d="M1973-101h-54l7 108z"/><path stroke-linejoin="round" stroke-miterlimit="1" fill="#6a41c8" stroke="#6a41c8" d="M1979 302l-165-41 85 73z"/><path stroke-linejoin="round" stroke-miterlimit="1" fill="#7340da" stroke="#7340da" d="M1998 768l-207-42 46 141z"/><path stroke-linejoin="round" stroke-miterlimit="1" fill="#7641df" stroke="#7641df" d="M1998 768l-188-103-19 61z"/><path stroke-linejoin="round" stroke-miterlimit="1" fill="#6840c5" stroke="#6840c5" d="M1989 322l-10-20-80 32z"/><path stroke-linejoin="round" stroke-miterlimit="1" fill="#6441bd" stroke="#6441bd" d="M1926 7l-90-35-22 289z"/><path stroke-linejoin="round" stroke-miterlimit="1" fill="#7041d4" stroke="#7041d4" d="M1899 334l-91 16 13 115z"/><path stroke-linejoin="round" stroke-miterlimit="1" fill="#6141b7" stroke="#6141b7" d="M1919-101h-256l173 73z"/><path stroke-linejoin="round" stroke-miterlimit="1" fill="#6041b6" stroke="#6041b6" d="M1926 7l-7-108-83 73z"/><path stroke-linejoin="round" stroke-miterlimit="1" fill="#6d41cf" stroke="#6d41cf" d="M1899 334l-85-73-6 89z"/><path stroke-linejoin="round" stroke-miterlimit="1" fill="#6941c6" stroke="#6941c6" d="M1836-28l-99 326 77-37z"/><path stroke-linejoin="round" stroke-miterlimit="1" fill="#6541c0" stroke="#6541c0" d="M1836-28l-173-73 74 399z"/><path stroke-linejoin="round" stroke-miterlimit="1" fill="#7040d5" stroke="#7040d5" d="M1862 899l-25-32-13 100z"/><path stroke-linejoin="round" stroke-miterlimit="1" fill="#6f41d2" stroke="#6f41d2" d="M1814 261l-77 37 71 52z"/><path stroke-linejoin="round" stroke-miterlimit="1" fill="#8141f4" stroke="#8141f4" d="M1821 465l-97 265 86-65z"/><path stroke-linejoin="round" stroke-miterlimit="1" fill="#8441fa" stroke="#8441fa" d="M1837 867l-113-137-125 78z"/><path stroke-linejoin="round" stroke-miterlimit="1" fill="#7841e3" stroke="#7841e3" d="M1837 867l-264 11 251 89z"/><path stroke-linejoin="round" stroke-miterlimit="1" fill="#8441fb" stroke="#8441fb" d="M1837 867l-238-59-26 70z"/><path stroke-linejoin="round" stroke-miterlimit="1" fill="#7d41ed" stroke="#7d41ed" d="M1837 867l-46-141-67 4z"/><path stroke-linejoin="round" stroke-miterlimit="1" fill="#6642c1" stroke="#6642c1" d="M1737 298l-74-399-121 7z"/><path stroke-linejoin="round" stroke-miterlimit="1" fill="#9542ff" stroke="#9542ff" d="M1821 465l-444-79 347 344z"/><path stroke-linejoin="round" stroke-miterlimit="1" fill="#7341da" stroke="#7341da" d="M1821 465l-13-115-71-52z"/><path stroke-linejoin="round" stroke-miterlimit="1" fill="#7641df" stroke="#7641df" d="M1824 967l-251-89 7 221z"/><path stroke-linejoin="round" stroke-miterlimit="1" fill="#7e42ee" stroke="#7e42ee" d="M1821 465l-84-167-360 88z"/><path stroke-linejoin="round" stroke-miterlimit="1" fill="#8241f5" stroke="#8241f5" d="M1810 665l-86 65 67-4z"/><path stroke-linejoin="round" stroke-miterlimit="1" fill="#c643ff" stroke="#c643ff" d="M1724 730l-347-344 9 349z"/><path stroke-linejoin="round" stroke-miterlimit="1" fill="#6b42cb" stroke="#6b42cb" d="M1737 298L1542-94l-223 248z"/><path stroke-linejoin="round" stroke-miterlimit="1" fill="#a842ff" stroke="#a842ff" d="M1724 730l-338 5 213 73z"/><path stroke-linejoin="round" stroke-miterlimit="1" fill="#7642e0" stroke="#7642e0" d="M1737 298l-418-144 58 232z"/><path stroke-linejoin="round" stroke-miterlimit="1" fill="#9243ff" stroke="#9243ff" d="M1386 735l-9-349-80 86z"/><path stroke-linejoin="round" stroke-miterlimit="1" fill="#7243d9" stroke="#7243d9" d="M1377 386l-58-232-25 78z"/><path stroke-linejoin="round" stroke-miterlimit="1" fill="#9143ff" stroke="#9143ff" d="M1386 735l-89-263-29 79z"/><path stroke-linejoin="round" stroke-miterlimit="1" fill="#6643c3" stroke="#6643c3" d="M1542-94l-216 69-7 179z"/><path stroke-linejoin="round" stroke-miterlimit="1" fill="#7d41ee" stroke="#7d41ee" d="M1580 1099l-7-221-98 2z"/><path stroke-linejoin="round" stroke-miterlimit="1" fill="#8f42ff" stroke="#8f42ff" d="M1599 808l-124 72 98-2z"/><path stroke-linejoin="round" stroke-miterlimit="1" fill="#9d42ff" stroke="#9d42ff" d="M1599 808l-213-73 89 145z"/><path stroke-linejoin="round" stroke-miterlimit="1" fill="#7541dd" stroke="#7541dd" d="M1580 1099l-105-219-187 219z"/><path stroke-linejoin="round" stroke-miterlimit="1" fill="#6443be" stroke="#6443be" d="M1542-94l-281-7 65 76z"/><path stroke-linejoin="round" stroke-miterlimit="1" fill="#9343ff" stroke="#9343ff" d="M1386 735l-118-184 28 148z"/><path stroke-linejoin="round" stroke-miterlimit="1" fill="#9242ff" stroke="#9242ff" d="M1475 880l-89-145-69 83z"/><path stroke-linejoin="round" stroke-miterlimit="1" fill="#7c42eb" stroke="#7c42eb" d="M1475 880l-158-62-29 281z"/><path stroke-linejoin="round" stroke-miterlimit="1" fill="#6844c6" stroke="#6844c6" d="M1326-25l-68 69 61 110z"/><path stroke-linejoin="round" stroke-miterlimit="1" fill="#8043f3" stroke="#8043f3" d="M1377 386l-97 33 17 53z"/><path stroke-linejoin="round" stroke-miterlimit="1" fill="#7843e5" stroke="#7843e5" d="M1377 386l-83-154-14 187z"/><path stroke-linejoin="round" stroke-miterlimit="1" fill="#9143ff" stroke="#9143ff" d="M1386 735l-90-36 21 119z"/><path stroke-linejoin="round" stroke-miterlimit="1" fill="#6e42d1" stroke="#6e42d1" d="M1317 818l-316 281h287z"/><path stroke-linejoin="round" stroke-miterlimit="1" fill="#6544c1" stroke="#6544c1" d="M1326-25l-65-76-3 145z"/><path stroke-linejoin="round" stroke-miterlimit="1" fill="#7d43ed" stroke="#7d43ed" d="M1317 818l-21-119-311-52z"/><path stroke-linejoin="round" stroke-miterlimit="1" fill="#7042d4" stroke="#7042d4" d="M1317 818L985 647l16 452z"/><path stroke-linejoin="round" stroke-miterlimit="1" fill="#6b44cc" stroke="#6b44cc" d="M1319 154l-61-110 36 188z"/><path stroke-linejoin="round" stroke-miterlimit="1" fill="#6d45d1" stroke="#6d45d1" d="M1294 232L882 129l398 290z"/><path stroke-linejoin="round" stroke-miterlimit="1" fill="#6945c9" stroke="#6945c9" d="M1294 232l-36-188-376 85z"/><path stroke-linejoin="round" stroke-miterlimit="1" fill="#7743e3" stroke="#7743e3" d="M1296 699l-161-129-150 77z"/><path stroke-linejoin="round" stroke-miterlimit="1" fill="#8243f8" stroke="#8243f8" d="M1296 699l-28-148-133 19z"/><path stroke-linejoin="round" stroke-miterlimit="1" fill="#8243f6" stroke="#8243f6" d="M1297 472l-17-53-12 132z"/><path stroke-linejoin="round" stroke-miterlimit="1" fill="#7e44ef" stroke="#7e44ef" d="M1280 419l-145 151 133-19z"/><path stroke-linejoin="round" stroke-miterlimit="1" fill="#6f45d5" stroke="#6f45d5" d="M1280 419L882 129l253 441z"/><path stroke-linejoin="round" stroke-miterlimit="1" fill="#6647c4" stroke="#6647c4" d="M1258 44L924 5l-8 14z"/><path stroke-linejoin="round" stroke-miterlimit="1" fill="#6747c5" stroke="#6747c5" d="M1258 44L916 19l-34 110z"/><path stroke-linejoin="round" stroke-miterlimit="1" fill="#6445c0" stroke="#6445c0" d="M1261-101h-260l257 145z"/><path stroke-linejoin="round" stroke-miterlimit="1" fill="#6546c2" stroke="#6546c2" d="M1258 44l-257-145L924 5z"/><path stroke-linejoin="round" stroke-miterlimit="1" fill="#6742c4" stroke="#6742c4" d="M1001 1099l-16-452-133 387z"/><path stroke-linejoin="round" stroke-miterlimit="1" fill="#6c46ce" stroke="#6c46ce" d="M1135 570L754 288l231 359z"/><path stroke-linejoin="round" stroke-miterlimit="1" fill="#6a48cc" stroke="#6a48cc" d="M1135 570L882 129 754 288z"/><path stroke-linejoin="round" stroke-miterlimit="1" fill="#6849c8" stroke="#6849c8" d="M985 647L754 288l-181 83z"/><path stroke-linejoin="round" stroke-miterlimit="1" fill="#6443bf" stroke="#6443bf" d="M985 647L631 932l221 102z"/><path stroke-linejoin="round" stroke-miterlimit="1" fill="#664ac5" stroke="#664ac5" d="M1001-101L722-16 924 5z"/><path stroke-linejoin="round" stroke-miterlimit="1" fill="#674dc9" stroke="#674dc9" d="M1001-101H648l74 85z"/><path stroke-linejoin="round" stroke-miterlimit="1" fill="#6242bb" stroke="#6242bb" d="M1001 1099l-149-65-39 65z"/><path stroke-linejoin="round" stroke-miterlimit="1" fill="#6546c1" stroke="#6546c1" d="M985 647L573 371l58 561z"/><path stroke-linejoin="round" stroke-miterlimit="1" fill="#6247bd" stroke="#6247bd" d="M631 932l-58-561-164 154z"/><path stroke-linejoin="round" stroke-miterlimit="1" fill="#674cc8" stroke="#674cc8" d="M924 5L722-16l194 35z"/><path stroke-linejoin="round" stroke-miterlimit="1" fill="#684cca" stroke="#684cca" d="M916 19L722-16l160 145z"/><path stroke-linejoin="round" stroke-miterlimit="1" fill="#6a4fcf" stroke="#6a4fcf" d="M882 129L653 72l101 216z"/><path stroke-linejoin="round" stroke-miterlimit="1" fill="#6b51d1" stroke="#6b51d1" d="M882 129L722-16l-69 88z"/><path stroke-linejoin="round" stroke-miterlimit="1" fill="#6142b8" stroke="#6142b8" d="M852 1034l-131 65h92z"/><path stroke-linejoin="round" stroke-miterlimit="1" fill="#6042b7" stroke="#6042b7" d="M852 1034L631 932l90 167z"/><path stroke-linejoin="round" stroke-miterlimit="1" fill="#5f45b7" stroke="#5f45b7" d="M631 932L409 525l-3 319z"/><path stroke-linejoin="round" stroke-miterlimit="1" fill="#6d54d8" stroke="#6d54d8" d="M754 288L653 72l-68 110z"/><path stroke-linejoin="round" stroke-miterlimit="1" fill="#5e42b4" stroke="#5e42b4" d="M721 1099l-109-40 41 40z"/><path stroke-linejoin="round" stroke-miterlimit="1" fill="#5f42b5" stroke="#5f42b5" d="M721 1099l-90-167-19 127z"/><path stroke-linejoin="round" stroke-miterlimit="1" fill="#6c53d5" stroke="#6c53d5" d="M754 288L585 182l-22 74z"/><path stroke-linejoin="round" stroke-miterlimit="1" fill="#6a50cf" stroke="#6a50cf" d="M754 288l-191-32 10 115z"/><path stroke-linejoin="round" stroke-miterlimit="1" fill="#7058dd" stroke="#7058dd" d="M722-16L617 41l36 31z"/><path stroke-linejoin="round" stroke-miterlimit="1" fill="#6e57da" stroke="#6e57da" d="M722-16l-74-85-31 142z"/><path stroke-linejoin="round" stroke-miterlimit="1" fill="#745de7" stroke="#745de7" d="M653 72l-36-31-32 141z"/><path stroke-linejoin="round" stroke-miterlimit="1" fill="#5d42b2" stroke="#5d42b2" d="M653 1099l-41-32-61 32z"/><path stroke-linejoin="round" stroke-miterlimit="1" fill="#5e42b3" stroke="#5e42b3" d="M653 1099l-41-40v8z"/><path stroke-linejoin="round" stroke-miterlimit="1" fill="#7d6afe" stroke="#7d6afe" d="M648-101H225L617 41z"/><path stroke-linejoin="round" stroke-miterlimit="1" fill="#7660ed" stroke="#7660ed" d="M617 41l-96 157 64-16z"/><path stroke-linejoin="round" stroke-miterlimit="1" fill="#5e42b3" stroke="#5e42b3" d="M631 932l-80 167 61-40z"/><path stroke-linejoin="round" stroke-miterlimit="1" fill="#5e43b3" stroke="#5e43b3" d="M631 932l-225-88 145 255z"/><path stroke-linejoin="round" stroke-miterlimit="1" fill="#9383ff" stroke="#9383ff" d="M617 41L225-101l296 299z"/><path stroke-linejoin="round" stroke-miterlimit="1" fill="#5d42b2" stroke="#5d42b2" d="M612 1067v-8l-61 40z"/><path stroke-linejoin="round" stroke-miterlimit="1" fill="#7159e0" stroke="#7159e0" d="M585 182l-64 16 42 58z"/><path stroke-linejoin="round" stroke-miterlimit="1" fill="#5c43af" stroke="#5c43af" d="M551 1099L406 844l-134 253z"/><path stroke-linejoin="round" stroke-miterlimit="1" fill="#6c54d6" stroke="#6c54d6" d="M573 371l-10-115-42-58z"/><path stroke-linejoin="round" stroke-miterlimit="1" fill="#684fcb" stroke="#684fcb" d="M573 371l-52-173-112 327z"/><path stroke-linejoin="round" stroke-miterlimit="1" fill="#664fc8" stroke="#664fc8" d="M521 198L122 306l287 219z"/><path stroke-linejoin="round" stroke-miterlimit="1" fill="#614abb" stroke="#614abb" d="M409 525L122 306l100 214z"/><path stroke-linejoin="round" stroke-miterlimit="1" fill="#6f5adc" stroke="#6f5adc" d="M521 198L225-101 122 306z"/><path stroke-linejoin="round" stroke-miterlimit="1" fill="#5c44b0" stroke="#5c44b0" d="M406 844L174 635l25 333z"/><path stroke-linejoin="round" stroke-miterlimit="1" fill="#5b43ad" stroke="#5b43ad" d="M406 844L199 968l73 129z"/><path stroke-linejoin="round" stroke-miterlimit="1" fill="#5e46b5" stroke="#5e46b5" d="M409 525L174 635l232 209z"/><path stroke-linejoin="round" stroke-miterlimit="1" fill="#5f47b7" stroke="#5f47b7" d="M409 525l-187-5-48 115z"/><path stroke-linejoin="round" stroke-miterlimit="1" fill="#5a43ac" stroke="#5a43ac" d="M199 968l-25-333-186 249z"/><path stroke-linejoin="round" stroke-miterlimit="1" fill="#5f49b7" stroke="#5f49b7" d="M222 520L122 306 59 423z"/><path stroke-linejoin="round" stroke-miterlimit="1" fill="#614cbc" stroke="#614cbc" d="M225-101l-333 253 230 154z"/><path stroke-linejoin="round" stroke-miterlimit="1" fill="#5f4ab7" stroke="#5f4ab7" d="M225-101H-48l-60 253z"/><path stroke-linejoin="round" stroke-miterlimit="1" fill="#5942a9" stroke="#5942a9" d="M272 1097l-73-129-332 131z"/><path stroke-linejoin="round" stroke-miterlimit="1" fill="#5842a8" stroke="#5842a8" d="M199 968l-269-46-63 177z"/><path stroke-linejoin="round" stroke-miterlimit="1" fill="#5e47b4" stroke="#5e47b4" d="M222 520L59 423l115 212z"/><path stroke-linejoin="round" stroke-miterlimit="1" fill="#5942a9" stroke="#5942a9" d="M199 968l-211-84-58 38z"/><path stroke-linejoin="round" stroke-miterlimit="1" fill="#5b45b0" stroke="#5b45b0" d="M174 635L59 423l-192 184z"/><path stroke-linejoin="round" stroke-miterlimit="1" fill="#5a44ac" stroke="#5a44ac" d="M174 635l-307-28 121 277z"/><path stroke-linejoin="round" stroke-miterlimit="1" fill="#5e49b5" stroke="#5e49b5" d="M122 306l-230-154L59 423z"/><path stroke-linejoin="round" stroke-miterlimit="1" fill="#5a45ad" stroke="#5a45ad" d="M-108 152l-91 18v329z"/><path stroke-linejoin="round" stroke-miterlimit="1" fill="#5b47af" stroke="#5b47af" d="M-48-101L-198 38l90 114z"/><path stroke-linejoin="round" stroke-miterlimit="1" fill="#5b46af" stroke="#5b46af" d="M59 423l-167-271-91 347z"/><path stroke-linejoin="round" stroke-miterlimit="1" fill="#5a45ac" stroke="#5a45ac" d="M59 423l-258 76 66 108z"/><path stroke-linejoin="round" stroke-miterlimit="1" fill="#5944aa" stroke="#5944aa" d="M-133 607l-66-108v18z"/><path stroke-linejoin="round" stroke-miterlimit="1" fill="#5842a7" stroke="#5842a7" d="M-70 922l-63-315-66 315z"/><path stroke-linejoin="round" stroke-miterlimit="1" fill="#5a46ae" stroke="#5a46ae" d="M-48-101l-149 74-1 65z"/><path stroke-linejoin="round" stroke-miterlimit="1" fill="#5843a9" stroke="#5843a9" d="M-12 884l-121-277 63 315z"/><path stroke-linejoin="round" stroke-miterlimit="1" fill="#5843a8" stroke="#5843a8" d="M-133 607l-66-4v319z"/><path stroke-linejoin="round" stroke-miterlimit="1" fill="#5741a5" stroke="#5741a5" d="M-70 922l-129 146 66 31z"/><path stroke-linejoin="round" stroke-miterlimit="1" fill="#5742a5" stroke="#5742a5" d="M-70 922h-129v146z"/><path stroke-linejoin="round" stroke-miterlimit="1" fill="#5a46ad" stroke="#5a46ad" d="M-48-101h-151l2 74z"/><path stroke-linejoin="round" stroke-miterlimit="1" fill="#5944a9" stroke="#5944a9" d="M-133 607l-66-90v47z"/><path stroke-linejoin="round" stroke-miterlimit="1" fill="#5a46ad" stroke="#5a46ad" d="M-108 152l-90-114-1 132z"/><path stroke-linejoin="round" stroke-miterlimit="1" fill="#5843a9" stroke="#5843a9" d="M-133 607l-66-24v20z"/><path stroke-linejoin="round" stroke-miterlimit="1" fill="#5844a9" stroke="#5844a9" d="M-133 607l-66-43v19z"/><path stroke-linejoin="round" stroke-miterlimit="1" fill="#5641a4" stroke="#5641a4" d="M-133 1099l-66-31v31z"/><path stroke-linejoin="round" stroke-miterlimit="1" fill="#5946ac" stroke="#5946ac" d="M-197-27l-2-74 1 139z"/></svg>