<svg xmlns="http://www.w3.org/2000/svg" viewBox="0 0 759.9 450.6"><path d="M189 429.5c-23.6 0-38.9-17.6-38.9-43.5 0-26.1 15.5-43.8 39.1-43.8 10 0 17.4 2.6 23.9 7l-1.7 11.7c-6.1-4.6-13.3-8.2-22.3-8.2-17.1 0-27.2 12.9-27.2 33.2 0 20.2 10.2 33 27.2 33 9 0 17-3.5 23.7-8.4l1.7 10.9c-6.4 4.7-15.8 8.1-25.5 8.1m61-.3c15.6 0 27.1-11.1 27.1-30.2s-11.5-30.3-27.1-30.3c-15.5 0-26.7 11.2-26.7 30.3s11.2 30.2 26.7 30.2m0-51.5c10.5 0 16.1 9.3 16.1 21.2 0 12.2-5.4 21.2-16.1 21.2-10.2 0-15.7-9.3-15.7-21.2 0-12.2 5.2-21.2 15.7-21.2M371.1 428v-42.3c0-10.5-5.4-17.1-16.4-17.1-8.2 0-15.3 4.6-20.5 9.6-2.2-6-6.8-9.6-15.4-9.6-8.2 0-14.8 4.6-20.2 9.6l-1.3-8.4h-8.7V428h10.9v-40.2c5.2-5.6 10.7-9.4 16.4-9.4 6.3 0 8.5 4 8.5 10V428h10.8v-40.2c5.2-5.6 10.7-9.4 16.5-9.4 6.3 0 8.5 4 8.5 10V428h10.9zm39.9.7c14.1 0 26.3-10.2 26.3-31.5 0-19.4-10.4-28.6-22.9-28.6-8.5 0-14.5 4.5-18.9 9.6l-1.3-8.4h-8.6v80.8l10.8-1.6v-22.9c3.6 1.5 8.9 2.6 14.6 2.6m1.7-50.5c7.9 0 13.7 6.8 13.7 19.5 0 14.4-6.7 21.8-15.8 21.8-6.2 0-9.8-1-14.1-3.2v-27.9c4.5-6.2 9.6-10.2 16.2-10.2m79.7 49.8v-40.7c0-12.9-6.8-18.6-21-18.6-9 0-15.6 2.1-22.5 4.9l1.5 9.4c6.3-2.8 13-5 20.1-5 6.7 0 11.1 2.6 11.1 9.9v2.4c-24.3 2.6-36.7 8.3-36.7 22.8 0 9.9 6.6 16.2 17.1 16.2 9.5 0 15.8-4.3 20.5-9l1.2 7.8h8.7zm-10.8-16c-4.9 5-11 8.2-17.3 8.2-5.5 0-8.7-3-8.7-7.8 0-6 4.5-11.8 26-13.9V412zm72.6 16v-42.3c0-10.5-5.9-17.1-16.8-17.1-8.3 0-15.1 4.6-20.6 9.6l-1.3-8.4h-8.7V428h10.9v-40.2c5.2-5.6 11.1-9.4 16.8-9.4 6.3 0 8.9 4 8.9 10V428h10.8zm60.1-58.2h-11.1l-15.5 45.5-15.9-46.3-10.7 1.7 21.2 57.5-2.2 6c-1.7 4.6-4.8 6.8-9.3 6.8-2.1 0-4.3-.4-6.1-.8l1.5 9.5c1.1.2 2.3.5 3.8.5 9.6 0 15.9-3.5 20.8-17.1l23.5-63.3zM352.8 14.4L351 3.9h-64.1v10.5h26.8V88h11.5V14.4h27.6zm57 73.6V45.7c0-10.5-5.9-17.1-16.8-17.1-8.3 0-15 4.6-19.8 8.9V0l-10.8 1.7V88h10.8V47.8c5.2-5.6 11.1-9.4 16.8-9.4 6.3 0 8.9 4 8.9 10V88h10.9zm38.2 1.2c9.6 0 17.1-2.9 23.3-7.8l-1.6-9.8c-6.3 5-12.4 8.3-20.8 8.3-10.1 0-16.6-6.3-16.9-19.9h39.5v-2.3c0-16.1-7.8-29.1-24.7-29.1-14.8.1-25.8 11.5-25.8 30.2 0 21.3 11.8 30.4 27 30.4m-15.6-37.3c1.7-9.9 7.4-14.8 14.1-14.8 8.4 0 12.6 5.4 13.9 14.8h-28m37.4 133.8s-.4-.8-.7-1.5c-1.8-4.5 2.2-9.5 5.8-12.5 2.2-1.9 6.6-4.8 9.5-5.4 1.3-.2 3.5-.5 3.5-.5s-1.4 1.2-2.6 2.2c-3.9 3.4-9.2 8.8-12 12.7-1.6 2.2-3.5 5-3.5 5m20 5.4c-2.2.1-8.1.2-8.3-.4 0-.2.3-.7.8-1.3.8-1 1.8-2.5 2.8-3.8 4.3-5.6 12.2-12.5 17.8-15.7 1.9-1.1 2.8-1.5 4.8-2 2.8-.8 3.9-1 6.1 0 1.7.7 3 2.2 3.2 4.3.7 6.2-6.4 11.6-11.3 14.3-4.9 2.5-10.2 4.2-15.9 4.6m-14.5 10.6c.1-.1.5.1.8.4.3.2 2.7.8 3.4.9 1.3.1 2.7.5 4 .6 4.3.4 10.3-1 14.1-2.5 8.7-3.4 15.4-8.3 22.2-15.3 4-4.1 7.5-10.7 6.2-16.8-.6-3-2-5.1-4.5-7.2-1.2-1.1-4.3-2.7-6.5-3.1-.6-.1-1.4-.2-1.7-.4-.3-.2-.6-.7-.9-1.1-1.5-1.9-4.5-3.8-6.7-4.5-6.7-2.3-15.6-.6-21.6 2-6.4 2.7-12.4 6.7-16.9 11.5-4.5 4.8-7.9 10.8-7.6 17.4.1 2.1 1 5.3 2 7.2.9 1.6 2.6 3.3 2.9 4.9.2 1 0 2.3.1 3.4.1 2.7 1.2 5.4 3.2 7.2 1.4 1.3 2.7 1.2 4.2.1.4-.3 1.1-1 1.4-1.6.7-1 1.3-2.5 1.9-3.1m-207.5 17.9c-.2 0-.2-.1-.2-.3 1.3-3.7 4-6.5 7.8-6.8 1.1-.1 3 .3 3.6 1.4.9 1.8-.9 3.3-2.5 4-2.8 1.3-5.1 1.4-8.7 1.7m15.8-9.4c-2-2.3-3.5-2.9-4-3.2-2.1-1.2-6.2-1.6-8.4-1.1-4.8 1-9.6 4.3-12.9 7.8-.4.5-.8.9-1.2 1.5-.7 1.1-1.7 2.9-1.9 3-.8.4-6.2-1.3-6.7-1.4-3.4-1-11.8-4.3-14.3-7.3-.4-.5-.9-1.4-1.1-1.9-.5-1.6-.1-4.5-1.9-4.7-1.3-.1-3.1 3.8-3.5 4.8-1.3 3.7-1.3 6.7.3 10.1.3.6 2.2 3.4 2.7 4.1 1.9 2.1 3.7 3.5 6.4 5.2 1.3.8 4.4 2.4 5.3 2.8 2.4.9 5.1 1.9 5.2 2.1.1.2-1 3.5-1.6 5.1-1.2 3.2-3 11.9-3.7 15.8-1.7 9.5-3.6 28.7 2.2 38.1 2.5 4 7.4 9.1 12.4 7.7 1.7-.4 2.7-1.6 3.1-3.4.1-.6.1-1.6 0-2.5-1.2-14.4-1.6-21.7-.4-36.4.2-2.5.5-5.1.8-7.4.4-3 1-5.7 1.5-9.4.1-1.1.9-4.2 1-4.2.1 0 .3.1.5.1 1.1.3 5.6.2 6.4.2 5.5-.4 10.9-2.6 14.2-7.1 1.9-2.6 3-5.9 2.8-9.3-.1-3.3-1.1-6.4-3.2-9.1m-50.8 41.7c-2.1-.2-4.5.6-6.4 1.3-5.1 1.9-14.3 6.1-15 6.2-1.4.1-1.8-.8-2-2.7-.5-3.6.9-10.6 1.5-13.9.5-3.1 2.9-13.9 4.6-20.8.9-3.9 2.1-8.8 1.7-12.5-.3-2.9-1.8-6.7-5-5.6-3.3 1.2-6.8 8.3-7.6 9.9-5.4 11.5-9.7 31.7-9.1 45.4.2 4.8 1.4 9.9 4.2 14 3 4.6 8 6.1 13.6 5 3.6-.7 8.7-3 11.1-4.7 4.1-2.8 9.3-8.4 10.9-13.9.6-2.1.6-6.5-1.9-7.5-.2-.1-.4-.1-.6-.2m-68.5-6.3v-.8c0-.5.3-1.1.5-1.5.9-1.8 1.5-4 2.7-7 1.6-3.7 4.4-9.2 4.4-9.2l.2.4c.6.8 1.1 3 1.3 3.8.5 1.7.8 3.1 1.1 5.2.5 3.3 1.2 8.4 1.2 8.4s-5.8.6-9.2.7h-2.2m-18.5.6l-6.1.3c-.3 0-.4 0-.5.2-.5.4-.9 1.5-.8 1.9.1.4.4.9.7 1.4 2.5 4 4 5 2.9 8.1-2.5 7.3-5 12.2-4.1 18.4.5 3.6 1.9 7.1 4.9 8.7 1.6.9 3.1.7 5.4.4 2-.3 2.7-1.5 3.6-3.5.4-1 2.1-7.3 3-10.4.4-1.6 1.4-4.4 2.6-7.2.5-1.3 1.2-2.9 1.2-2.9l6.7-.1 12.1-.5s.7 8.1 1.2 10.9c.6 3.2 2.4 5.9 5.2 8.5 1 1 3.3 2.5 4.4 2.6.8 0 1.7-.5 2.1-1.2 1.2-1.8 1.3-5.3 1.2-7.4-.1-3-.9-16.6-1.2-19.2-1.1-9.9-4.3-29.2-7.3-39.4-.5-1.9-3.1-9.6-4.6-12.3-.8-1.4-2.6-2.7-4.3-2.6-1.6.1-3.2.5-3.8 1.5-.8 1.3-1 2.9-1.2 3.8 0 .2-6 8.4-9.2 12.8-2.8 3.9-9.7 17.7-11 20.6-1.4 2.9-3.1 6.6-3.1 6.6m-68.9-39.8h.1c.1 0 0 5-.1 5.7-1.1 6-.8 8-2.6 13.4-.8 2.3-1.7 5.3-2.4 7.2-.3 1-2.3 5.3-2.6 5.7-.2.4-1.5 2.6-1.9 3.5-.2.4-3 4.6-3.6 5.2-1.3 1.5-3.2 3.5-3.2 3.5s-.4-2.2-.6-3.8c-1.2-8.9-.1-22 1.1-29.7.7-4.7 1.3-7.3 2.6-11.4.9-2.9 2.5-7.5 4-10 1.2-1.8 2.2-3.1 4.1-2.8 1.5.2 2.3 1.2 3.2 2.7.9 1.4 1.3 2.8 1.5 4.6.2 2.3.4 6.2.4 6.2m-13.2 57.1s6.8-5.1 10.3-8c9.8-8.4 16.6-20.6 18.6-33.8 1.3-8.7 1.1-21.8-3.8-30.2-2.8-4.8-8.2-7.1-13.5-6.9-6.3.2-13.5 3.5-18 7.4-4.7 4-8.4 8.8-11.2 13.7-3.5 6.1-5.2 12.1-6.1 19.8-1.1 9.4.1 23.1 3 31.7 1 3.1 2.6 7.2 2.6 7.2l-3.5 1.5c-5.5 2.2-9.8 2.4-14.4-.9-4.3-3.1-7.3-9.7-8.4-14.6-.9-3.6-1.4-9.2-1.6-13-.7-18.7 6.3-42.8 15.1-58.1.9-1.6 7.9-12 9.4-14.1 1.4-1.9 8.3-10.4 9.5-11.7 1.4-1.5 3.9-4 4.9-5.8.6-1.2.7-1.9-.2-2.8-1.6-1.7-4.4-.8-6.5.2-1.2.5-6.8 3.9-7.9 4.6-9.3 6.6-17.1 15.9-23.1 25.3C9.4 189.8 3 206.6.8 224.4-.6 234.8-.3 245 3 254.8c2.2 6.6 7.3 13.9 13.2 17.8 8.2 5.3 18.2 6.1 27.1 2.8 1.4-.5 3.9-1.7 4.5-2.1.7-.5 1.3-.9 1.5-.9.1 0 1.3 2.1 2.3 3.8 1.5 2.7 5.2 6.5 7.4 8.2 5.7 4.7 11.6 7 18.7 7.9 13 1.6 24.8-4.2 35.8-13 2.2-1.8 6.9-5.8 8.8-7.8.7-.7 6.2-8.2 7.1-9.6 3.8-5.9 7.4-13 9.8-19.9 5.4-15.6 6.7-33.3 4.7-48.9-1.6-12.2-4.6-21.9-10.5-33-1-1.8-6.2-10.4-7.5-12.4-5.2-7.6-10.9-12.9-19.6-18.2-1.8-1.1-5.4-3-7-2.1-1.5.9-1.3 2-.3 3.4 1 1.3 4.4 4.5 6.6 6.8 7.5 7.9 13.5 21 16.7 31.6 5.3 18.1 5.1 37.9.7 56.6-3.8 16-10.8 32.6-24.1 41.9-4.7 3.2-12.8 6.9-19.2 6.6-6.2-.3-11.3-3.4-14.5-8.7-.8-.8-1.5-2.1-1.5-2.1m419.4-48.4c-1.9-.4-3 2.3-3.5 3.6-1.5 3.9-2.6 13.1-2.9 16-.9 8.7-1.6 29.4-.1 40 .7 4.4 2.1 7.3 6.6 8.2 1.8.4 5.1.3 6.6-.6 1.3-.8 2.1-2.3 2.4-3.6.8-3.7.5-8.9.3-12.8-.2-4.6-.3-9.2-.5-13.9-.3-6.2-1-22.2-2.8-29.4-.7-3.1-2-5.9-5-7.1-.4-.2-.9-.3-1.1-.4m-137.6 15.8l-.2 13.3c-.1 12.7.3 25.6.3 25.6s-4.5-1.6-7.2-2.8c-8-3.3-18.8-10.2-24.1-14.6-1.3-1.1-5.8-5.4-6.6-6.4-1.4-1.6-2.6-3.2-2.3-5.2.3-1.9 4.2-3.5 6-4.2 6.3-2.2 17.1-4.1 22.9-4.7 4.6-.5 11.2-1 11.2-1m121.2 5.2c.1-1.5-.7-5.2-.8-5.9-.1-.1-.5-1.9-.8-3.2-.3-1.3-2-5.6-2.5-6.4-1.2-2.1-1.9-4-2.8-5.8-3.9-7.7-11.8-17.4-18.2-23.8-3.3-3.3-7.9-7.4-11.4-10.2-1.7-1.4-12.5-9.3-14.3-10.5-5.8-3.8-16.2-9.7-22.8-12.9-9.2-4.4-21.8-9.3-31.3-12.2-16.8-5.1-33.1-8.1-50.5-7.5-7.6.3-17.9 1.9-26 4.1-5.7 1.6-9.6 4-12.3 8.8-1.3 2.4-2.6 5-1.9 7.6.6 2.2 3.8 3 6.4 3.4 2.5.4 8.1.7 9.6-1.1.6-.8.6-1.5 0-2.5s-2-1.7-3.3-2c-1.5-.3-4.4-.5-5.1-.8l-.8-.4.3-.3c.3-.2 1.4-.7 2.1-.9.9-.2 1.8-.5 2.8-.8 6.6-1.8 19.6-2.1 25.6-1.9 23.2.9 44.8 6 66.6 15 21.4 8.8 45.7 23.8 59.9 42 5.4 6.9 12.1 18.2 12.9 27.8.7 8.8-2 17.1-7.4 23.2-4 4.6-9.4 8-15.2 10.8-13.3 6.3-29.4 7.6-43.9 7.2-1.9-.1-9-.7-10.7-1-2.9-.5-6.7-1.2-6.7-1.2l-1-44.8s4.5.1 7.7.3c8.1.5 24.9 3.3 33.3 6.6 1.8.7 3.7 1.8 3.8 3.6.1 1.4-1 2.5-2.1 3.6-.6.5-1.2.9-1.9 1.3-1.5.8-3.9 2.1-4.1 2.3-.4.6-.5 1.5.2 2 1.6 1.3 6.9 2 8.3 1.9 4.7-.3 9.3-3.4 11.8-7.7 2.2-3.8 2.4-6.7 1-10.9-1.5-4.6-6.3-8.9-11.4-11.5-6.1-3.1-16.9-5.5-22.4-6.3-4.3-.7-8.9-1.3-13-1.5-4.3-.1-11.2.1-11.2.1s-.1-6.1-.4-10.1c-.4-6.6-2.3-19.7-8.3-23.4-1.1-.7-2.5-.8-3.2.2-1.2 1.5-2.3 7.4-2.6 8.9-.5 2.8-2 16-2 18.1 0 2-.2 7.7-.3 7.8-.1.1-.1.2-.2.2-.2.2-4.1.8-6.6 1.2-5.3.8-17.9 4.9-22 6.7-5.6 2.4-13.7 6.7-15.9 12.4-1.6 4.1-1 7.5 1.2 11.3 2.8 4.9 6.4 8.8 10.4 12.6 1.5 1.4 8 6.8 9.5 8 5.5 4.1 11.8 8 18.4 11.3 2.1 1.1 4.7 2.3 4.7 2.3s.5 5.2 1 8.2c.6 3.7 1.8 6.9 5.3 8.4 2.1.9 4.5.8 6.8.3 1.9-.4 3.2-1.2 4-2.8.3-.6.8-2.5.9-3.2.2-1.6.2-3.8.2-3.8s5.6 1.3 9.3 2c10.9 2 22.6 2.2 32.9 1 15.1-1.8 32.7-7.4 44.1-17.3 3.1-2.6 8.2-8.8 10.4-12.7 1.3-2.3 2.5-4.5 3.7-7.3.2-.6 1.8-5.1 2-7.1-.3-.8.6-7.4.2-10.8m74.5 3.2l-24.4-2.9c-.3 0-.4-.1-.7-.1-1.1-.2-6-.8-4.3-2.7.5-.5 2-.9 2.9-1.2 11.1-3 25.1-2.7 36.7-3.3 2.6-.1 8.5-.5 11.3-1.4 2.7-.8 5-2.8 5.6-5.8.3-1.6-.4-2.3-1.9-3.1-9.6-5.1-25.5-5.1-35.3-3.9-10.1 1.2-23.7 4.4-29.5 12.7-2.2 3.2-3.5 8.1-2.5 12 .6 2.2 2.5 4.2 4.5 5.1 2 .9 4.4 1.4 6.7 1.7 2.2.3 11.4 1.1 17.2 1.6 5.6.5 16.3 1.6 22.2 4.1.5.2 3 1.3 3.6 2 .3.3.6.9.8 1h.2c.6.2.8 1.9.8 2.1 0 1.6-1.2 2.8-2.4 3.6-8.6 6.1-20.5 7.9-31.1 7.7-3.6-.1-6.6-.6-10.2-2.2-1.6-.7-3.6-2.3-3.3-4 .6-3.4 4.3-4.2 7.4-3.9 1.7.2 4 .9 5.7 1.6 6.8 2.7 9.9 4.9 15.9 4 2.2-.3 9.9-2 11-5.2.3-.8-.1-1.6-.7-2.2-.8-.8-5.5-2.6-6.7-3.1-4.5-1.6-13.2-3.1-18-3.3-6.3-.2-14.6 1-18.5 6.3-2.4 3.4-2.5 7.9-.5 11.4 2.7 4.8 8.1 8.5 12.6 10.7 7.5 3.6 16.5 5.4 24.8 4.4 4.8-.5 8.9-1.5 13.1-3.5 4.1-2 8.5-5.6 10.5-10 2.7-5.9 2.5-13.7-.5-19.3-2-3.7-4.1-5.7-7.8-7.4-4-1.8-9.2-2.7-14.5-3.4-.3 0-.3 0-.7-.1m36.2 43.4c1.8.7 3 1 4.5.3 2.1-1 2.7-2.9 3.2-5.2.8-3.5 1-10.7 1.1-13.6 0-.5.4-17.9 1.1-21.6.1-.5.3-1.3.6-1.2.5.2.8.5 1 .8 1 1.4 7.4 14.2 11.2 20.7 1.1 1.9 7.5 13.1 11.5 15.3 3.6 2 8.8.1 11.4-2.3 1.7-1.5 3.6-4.6 4.6-6.9 2.7-6.2 3.1-15.3 2.6-21.6-.6-6.5-1.8-12.1-3.7-18-.6-1.7-3-7.9-3.7-9.1-1.8-3.6-8.2-13.9-12.9-15.6-2.4-.9-3.9.4-3.9 2.7 0 1.6.4 3.3.8 5 1.3 5.2 3 10.8 4.3 16.1 1.3 4.8 2.8 11.9 3.5 16.9.2 1.7.3 3.4.6 5.4.2 1.3.4 7.6.3 7.7-.2.4-.8.4-1.4-.1-.5-.4-.9-1-1.3-1.6-3.4-5-6.8-10.5-10.4-16-3.2-4.9-8-11.9-11.7-17.1-1.4-2-3.3-4-5.8-4.2-3.7-.3-5.5 5.1-6.6 8.5-4.2 11.7-7.5 29-6.7 41.5.1 3.9 1.1 11.5 5.8 13.2m64.6-1.1c.4.3 1.7 1.2 1.7 1.2 0 .1 2.3 1.2 3 1.4 3.4.9 4.3 1.3 8.1.9 8.3-.9 19.4-6.3 26-11.3 2.1-1.6 3.7-3 3.6-5.2-.1-2.3-.9-4-2.4-5.9-1.7-2.2-3.4-2-6.7-1.4-6.2 1-13.7 2.1-18.7 3-.9.2-2.1.3-3.3.3-.7 0-1.5-.1-1.5-.1s.9-3.3 1.9-6.6c1-3.2 2.2-6.3 2.2-6.3s1.5-.2 2.9-.4c2.3-.3 18.8-.4 20.3-.6 2.9-.5 3.5-2.1 3.4-5.7-.1-3.1-1.1-5.2-3.9-5.8-.7-.2-2-.2-3.4-.2-5.4 0-15 .1-15 .1l2.7-9.2s5.4.1 9.3 0c2.5 0 15.9-.2 20.1-2.7 2.7-1.6 1.5-4.7-.3-7.3-3.3-4.8-7-7.2-12.7-7.3-3.8-.1-15.5 1.3-18.1 1.6-2.9.3-5.9.8-8.9 1.2-2.5.4-10.3 1.9-11.3 2.2-2.7.9-3.6 2.3-2.3 4.9 1.1 2.2 2.9 3.4 5.3 4.3 2.1.8 6.2 1.7 6.2 1.7s-1.5 4.2-2.5 6.9c-.7 2-1.5 4.4-2.8 4.7-.2.1-.4.1-.7.1-3.2.3-5.1 2.1-5 4.5.1 1.6 1.3 6.7 1.2 7.4 0 .3-.1.6-.2.9-2 5.5-2.8 5.6-3.6 9.6-.8 4.2-.9 8.2.6 12.1.2.6.4 1 .7 1.7.3.8 2 3.3 2.1 3.4.7.7 1.5 1.5 2 1.9m104.7-46c.8-.7 1.8-.3 2.2.3 2 2.7 1.7 8.8 1 11.7-1.6 6.4-5.1 11.9-10.1 15.9-3.3 2.6-9.4 5.8-13.9 6.5-2.1.4-4.2.4-4.3.2-.1-.1 2-3.7 2.7-4.7 3.2-4.5 6.5-10.2 10-15.2 2.6-3.8 8.1-11.1 12.4-14.7M712.8 288s1.3.1 2.5.1c8.4.2 16.9-3.1 24.2-7.9 7.1-4.7 12.4-10.1 16.2-17.6 3.2-6.3 4.7-14.5 4-21.9-.6-6.1-3-13.7-8.4-17.3-3.4-2.3-6.6-1.8-10.1 0-4.4 2.3-6.3 3.9-10.4 7.9-2 1.9-8.8 8.9-10.5 10.9-1.7 2-3.2 3.8-5.3 6.5-3.8 5-9.6 13.1-9.6 13.1s-.3-1.9-.4-3.5c0-.5.7-4.7 1-5.6 1.7-5.7 2.5-8.2 6.1-14.5 3.2-5.6 7.8-12.3 8.8-18.9.3-2 0-4.4-2.1-4.5-2.1-.1-6.6 5.3-7.3 6.2-9.2 11.3-17.4 25.5-17.4 39.7 0 4.5 1.2 10.1 3.3 14.7.1.3.2.3 0 .7-7 18.2-9.5 26.3-12 44.5-.7 5.3-1.6 14.2 2.1 18.9 1.8 2.4 4 3.7 6.4 5 1.9 1 2.5 1.3 4 .4.6-.4.8-.6 1.1-1.1.2-.4 3.9-17.8 5.2-24.5.9-4.5 4.6-19 6.4-24.3.8-3.1 2.2-7 2.2-7"/></svg>