<svg xmlns="http://www.w3.org/2000/svg" viewBox="0 0 502.00001 111.06769" height="111.068" width="502"><defs><clipPath id="b"><path d="M0 0h612v792H0V0z"/></clipPath><clipPath id="a"><path d="M0 0h612v792H0V0z"/></clipPath></defs><g clip-path="url(#a)" transform="matrix(1.95227 0 0 -1.95227 -347.124 1080.53)" fill="#292f32"><path d="M282.543 518.74c0-1.054 1.223-2.279 2.274-2.279l15.585.01-3.488 5.616h-9.028v21.604h-5.34l-.003-24.952zm-57.161 10.688c0 12.995-10.536 23.532-23.533 23.532-12.996 0-23.532-10.537-23.532-23.532 0-12.996 10.536-23.533 23.532-23.533 1.382 0 2.695.13 4.012.357l-.04-9.159h6.618v11.395c7.643 3.89 12.943 11.78 12.943 20.94m-12.943-10.98v7.576l-6.618-1.89.007-9.39c-1.27-.346-2.6-.559-3.979-.559-8.418 0-15.243 6.824-15.243 15.243 0 8.417 6.825 15.242 15.243 15.242 8.42 0 15.243-6.825 15.243-15.242a15.23 15.23 0 0 0-4.653-10.98m34.651-1.99h-15.378c-1.053 0-2.291 1.221-2.291 2.274l-.011 24.96h5.342v-21.605h9.265v21.604h5.343l.005-24.959c0-1.053-1.222-2.274-2.275-2.274m71.727 26.229a14.41 14.41 0 0 1-7.293 1.972c-7.974 0-14.44-6.465-14.44-14.44 0-7.976 6.466-14.442 14.44-14.442 2.492 0 4.875.65 6.922 1.762l-2.606 4.689a8.994 8.994 0 0 0-4.316-1.101 9.093 9.093 0 1 0 0 18.184c1.696 0 3.29-.48 4.649-1.29l2.644 4.666z"/><path d="M331.187 544.583c-7.974 0-14.428-6.502-14.428-14.477 0-7.975 6.454-14.402 14.428-14.402 7.977 0 14.443 6.466 14.443 14.439 0 7.976-6.466 14.44-14.443 14.44m0-23.531c-5.02 0-9.08 4.034-9.08 9.054 0 5.02 4.06 9.129 9.08 9.129 5.022 0 9.096-4.071 9.096-9.092 0-5.021-4.074-9.091-9.096-9.091"/></g><path d="M177.255 19.188H166.92l-23.258 52.79h11.074l5.464-11.634 24.107.006.494 1.117 4.638 10.51h11.073l-23.257-52.789zm-13.57 32.502l8.387-19.076 8.416 19.076h-16.803z" fill="#292f32"/><g clip-path="url(#b)" transform="matrix(1.95227 0 0 -1.95227 -347.124 1080.53)"><path d="M431.544 519.807l-9.782 22.572c-.585 1.088-1.59 1.59-3.011 1.59-1.42 0-2.423-.502-3.008-1.59l-7.191-16.552-7.191 16.552c-.582 1.088-1.586 1.59-3.008 1.59s-2.426-.502-3.011-1.59l-7.191-16.59-7.188 16.59c-.585 1.088-1.59 1.59-3.008 1.59-1.422 0-2.426-.502-3.011-1.59l-7.191-16.552-7.188 16.552c-.588 1.088-1.59 1.59-3.011 1.59-1.422 0-2.424-.502-3.011-1.59l-9.782-22.572c-1.346-3.532 3.513-5.35 5.1-2.508l7.693 17.975 7.69-17.975c1.005-1.84 4.098-1.757 5.018 0l7.693 17.975 7.69-17.975c.505-.903 1.339-1.291 2.198-1.347.107-.017.204-.022.308-.027.107.005.207.01.31.027.86.056 1.697.444 2.2 1.347l7.692 17.975 7.69-17.975c.92-1.757 4.013-1.84 5.015 0l7.693 17.975 7.69-17.975c1.593-2.842 6.447-1.024 5.103 2.508m-.308 23.653c-1.737 0-3.207-1.337-3.207-3.15 0-1.828 1.47-3.165 3.207-3.165 1.72 0 3.193 1.337 3.193 3.166 0 1.812-1.473 3.149-3.193 3.149m0-5.79c-1.446 0-2.572 1.12-2.572 2.64 0 1.495 1.126 2.624 2.572 2.624 1.429 0 2.557-1.13 2.557-2.623 0-1.521-1.128-2.64-2.557-2.64m1.453 3.416c0 .718-.425 1.036-1.286 1.036h-1.385v-3.641h.548v1.578h.636l.961-1.578h.618l-1.035 1.603c.533.067.943.35.943 1.002m-2.123-.56v1.127h.753c.385 0 .793-.084.793-.535 0-.559-.415-.592-.886-.592h-.66z" fill="#292f32"/></g></svg>