<svg width="539" height="213" viewBox="0 0 539 213" xmlns="http://www.w3.org/2000/svg"><title>Oval 3</title><defs><linearGradient x1="50%" y1="100%" x2="50%" y2="10.061%" id="a"><stop stop-color="#E2E2E2" offset="0%"/><stop stop-color="#FFF" offset="100%"/></linearGradient></defs><path d="M187.893 212.91c15.085-.85 35.948-5.95 62.59-15.3 23.312 5.343 40.963 7.347 52.952 6.011 11.989-1.336 30.508-6.503 55.559-15.5 26.978-.394 46.09-1.573 57.336-3.536 10.742-1.876 51.105-9.95 121.09-24.226a2 2 0 0 0-.033-3.925c-36.714-6.845-58.655-11.565-65.822-14.161-11.703-4.24-32.256-12.794-43.246-16.802-7.326-2.672-18.649-3.34-33.968-2.004-2.664-7.347-6.66-12.743-11.99-16.188-5.328-3.445-13.986-5.062-25.975-4.852-.857-15.209-6.518-25.896-16.985-32.061-10.466-6.166-26.784-8.838-48.954-8.016-.667-26.05-12.322-43.082-34.968-51.098-22.646-8.015-44.959-4.341-66.939 11.021C152.574-.437 120.936-5.78 93.628 6.243 66.32 18.266 53.665 47.32 55.663 93.41c-13.321.668-22.646 5.01-27.974 13.025-5.329 8.015-5.995 19.036-1.998 33.063C5.709 145.51-2.617 154.527.714 166.55c4.995 18.035 36.312 18.38 50.953 29.056 10.026 7.31 33.67 7.979 70.934 2.003 28.444 11.049 50.208 16.149 65.292 15.3z" fill="url(#a)" fill-rule="evenodd"/></svg>