<svg width="589" height="105" viewBox="0 0 589 105" xmlns="http://www.w3.org/2000/svg"><title>Artboard 7</title><path d="M123.324 71.518c-.002 7.273-.904 10.682-6.254 10.692l-1.19.001c-5.365.007-8.183-3.408-8.181-10.681l.012-38.347-19.587.01.02 38.336c-.006 19.173 8.302 29.303 27.708 29.292l1.19-.001c19.407-.011 26.771-10.16 26.792-29.33l.024-38.33-20.5-.03-.034 38.388zm305.663 11.495a16.797 16.797 0 0 1-9.279-2.574 16.075 16.075 0 0 1-6.257-6.804 21.203 21.203 0 0 1-2.175-9.713 15.217 15.217 0 0 1 5.066-11.643 17.26 17.26 0 0 1 12.25-4.705 22.71 22.71 0 0 1 7.326 1.17 19.864 19.864 0 0 1 6.18 3.57l10.938-14.947a36.82 36.82 0 0 0-11.393-6.137 41.392 41.392 0 0 0-13.113-2.1 42.763 42.763 0 0 0-15.35 2.721 36.07 36.07 0 0 0-12.188 7.605 35.627 35.627 0 0 0-7.975 11.9 39.248 39.248 0 0 0-2.686 15.238 33.77 33.77 0 0 0 4.672 17.247 34.903 34.903 0 0 0 13.424 12.816 41.19 41.19 0 0 0 20.244 4.81 46.316 46.316 0 0 0 18.25-4.041 22.292 22.292 0 0 0 6.99-4.696l-11.518-14.657a19.273 19.273 0 0 1-13.406 4.94zm153.039-18.456a22.646 22.646 0 0 0-10.861-6.073c-3.956-.92-7.884-1.91-11.785-2.97-3.556-.97-5.33-2.664-5.326-5.083.002-2.691 2.394-4.039 7.176-4.042 4.01.003 7.903 1.35 11.062 3.825l11.59-11.566a36.691 36.691 0 0 0-6.852-4.882 39.373 39.373 0 0 0-8.03-3.427 31.148 31.148 0 0 0-8.163-1.122 34.388 34.388 0 0 0-13.103 2.453 21.787 21.787 0 0 0-9.544 7.39 20.486 20.486 0 0 0-3.672 12.281c-.006 6.3 1.46 10.97 4.4 14.008a23.182 23.182 0 0 0 10.936 6.329c5.357 1.408 9.265 2.4 11.724 2.974 3.464.923 5.22 2.357 5.268 4.301 0 3.7-3.138 5.55-9.416 5.553a20.711 20.711 0 0 1-15.33-6.272L531.425 92.38a54.781 54.781 0 0 0 8.691 5.479 31.584 31.584 0 0 0 8.634 2.898c3.422.65 6.9.96 10.384.924 4.55 0 9.053-.923 13.24-2.716a22.873 22.873 0 0 0 10.217-7.877 20.5 20.5 0 0 0 3.832-12.42c-.034-6.417-1.5-11.12-4.397-14.112zm-363.91-24.896a38.166 38.166 0 0 0-12.446-7.593 42.782 42.782 0 0 0-14.612-2.576 38.917 38.917 0 0 0-10.997 1.448l-.02 21.56c.974-.57 1.538-1.12 2.375-1.593a17.427 17.427 0 0 1 17.335.033 18.022 18.022 0 0 1 6.512 6.214 15.45 15.45 0 0 1 2.441 8.46 16.338 16.338 0 0 1-5.279 12.164c-6.847 6.79-17.856 6.796-24.695.016a16.25 16.25 0 0 1-5.256-12.147l.02-59.924-.3-.174-22.462.077-.043 60.48c-.006 6.697 2.693 12.753 6.198 18.165a37.974 37.974 0 0 0 14.652 12.941 40.805 40.805 0 0 0 19.247 4.74 40.323 40.323 0 0 0 14.733-2.725 37.952 37.952 0 0 0 12.505-7.609 36.762 36.762 0 0 0 8.592-11.64 35.178 35.178 0 0 0-.026-28.737 35.295 35.295 0 0 0-8.474-11.58zm18.508 60.197l18.557-.146.02-29.847.046-64.001-18.561.084zm37.839-70.54a34.471 34.471 0 0 0-10.864 1.805c-.713.282-2.472.607-2.486.937l-.048 17.367c-.006-.652 3.386-1.006 5.237-.997 3.33-.003 7.355 1.01 9.153 3.035a13.671 13.671 0 0 1 4.146 9.124l-.025 39.19 21.498-.08.03-40.581c.024-19.88-9.662-29.8-26.64-29.8zM459.347 100.6l23.445-.01.03-34.003.004-.196-.01-8.41.015-.163.029-52.029-23.443.086zm67.239-67.67l-24.696.016-14.174 16.222-.02 27.624 16.851 23.793 26.28-.023-28.631-38.589zM60.161 5.594l-.076 60.247a16.427 16.427 0 0 1-5.275 11.968c-6.844 6.795-17.854 6.809-24.698.03a16.28 16.28 0 0 1-5.221-12.17 15.466 15.466 0 0 1 2.441-8.461 18.03 18.03 0 0 1 6.52-6.215 17.375 17.375 0 0 1 8.695-2.323 15.72 15.72 0 0 1 8.257 2.303c.917.524 2.182 1.126 2.19 1.762l.014-21.697c-1.951-.98-7-1.477-10.768-1.475-4.936 0-9.834.877-14.468 2.59A37.954 37.954 0 0 0 15.396 39.8a35.257 35.257 0 0 0-8.459 11.573 35.313 35.313 0 0 0-.048 28.723 36.528 36.528 0 0 0 8.498 11.615 37.545 37.545 0 0 0 12.447 7.593 40.614 40.614 0 0 0 33.66-2.064A37.21 37.21 0 0 0 75.83 84.283a32.874 32.874 0 0 0 5.436-18.185l.043-60.48-21.149-.024zm320.867 45.403A35.34 35.34 0 0 0 372.69 39.5a36.79 36.79 0 0 0-12.41-7.541 41.614 41.614 0 0 0-14.612-2.577 40.424 40.424 0 0 0-14.625 2.714 36.88 36.88 0 0 0-12.392 7.478 35.971 35.971 0 0 0-8.507 11.504 35.015 35.015 0 0 0 2.215 32.978 39.437 39.437 0 0 0 32.62 17.592c3.72.006 9.894-.493 10.804-1.467l.011-21.168c-.984 2.336-6.86 3.538-10.869 3.542a16.274 16.274 0 0 1-11.953-5.01 16.043 16.043 0 0 1-5.085-12.088c.014-3.023.891-5.98 2.527-8.521a18.178 18.178 0 0 1 6.566-6.222 17.885 17.885 0 0 1 17.35.035 18.022 18.022 0 0 1 6.527 6.217 15.281 15.281 0 0 1 1.752 8.52l-.013.073v34.175l20.744.18.547-34.457a33.655 33.655 0 0 0-2.859-14.461z" fill="#FFF"/></svg>