<svg width="1198" height="741" viewBox="0 0 1198 741" xmlns="http://www.w3.org/2000/svg" xmlns:xlink="http://www.w3.org/1999/xlink"><title>mountainTop</title><defs><path id="a" d="M0 0h1198v749H0z"/><path d="M1996.328 852c-37.525-56.32-65.413-96.77-88.554-125.81-5.736-7.197-12.252-2.03-14.853-5.698-61.285-86.433-169.147-232.494-171.757-235.97-2.61-3.475 232.242 308.256-7.799-10.37C1473.325 155.528 1316.563-2.513 1243.081.03c-50.172 1.737-156.773 206.6-210.897 227.729-26.028 10.161-81.765-74.128-108.249-61.04C900.266 178.414 750.522 406.841 474.703 852h1521.625zM2411 1481.107c28.197 45.706 58.197 94.337 90 145.893h-90v-145.893zM433 1622.205L0 1627c166.85-274.573 311.184-510.439 433-707.596v702.801z" id="c"/><path d="M639-160h1169v704.656c-102.689-50.649-172.294-70.223-208.817-58.721-62.728 19.754-98.148 168.12-134.239 159.722-51.773-12.048-190.247-246.573-218.139-248.979-50.055-4.317-127.92 91.783-152.883 89.257-33.965-3.438-68.777-58.585-87.629-58.722-25.957-.187-62.159 146.61-78.306 145.63-53.513-3.25-89.98-85.683-108.137-86.908C771.353 482.662 712.446 495.708 673 516l-34-676z" id="f"/><filter x="-.3%" y="-.4%" width="101%" height="101.7%" filterUnits="objectBoundingBox" id="e"><feOffset dx="5" dy="7" in="SourceAlpha" result="shadowOffsetOuter1"/><feColorMatrix values="0 0 0 0 0 0 0 0 0 0 0 0 0 0 0 0 0 0 0.338824728 0" in="shadowOffsetOuter1"/></filter></defs><g transform="translate(0 -8)" fill="none" fill-rule="evenodd"><mask id="b" fill="#fff"><use xlink:href="#a"/></mask><use fill-opacity="0" fill="#D8D8D8" xlink:href="#a"/><g mask="url(#b)"><g transform="translate(-649 76)"><mask id="d" fill="#fff"><use xlink:href="#c"/></mask><use fill="#D8D8D8" xlink:href="#c"/><g mask="url(#d)"><use fill="#000" filter="url(#e)" xlink:href="#f"/><use fill="#FFF" xlink:href="#f"/></g></g></g><g mask="url(#b)"><path fill="#D8D8D8" d="M598 8h3v74.999h-3z"/><path d="M601 8h20c3.705 0 3 3 7 3h22v35h-22c-3 0-3.295-3-7-3h-20V8z" fill="#FFF"/><g transform="translate(615 18)" stroke="#D72169"><circle fill="#FFF" cx="9" cy="9" r="9"/><path d="M4.5 10.5l10-3" stroke-linecap="round"/></g></g></g></svg>