<svg width="826" height="182" viewBox="0 0 826 182" xmlns="http://www.w3.org/2000/svg" xmlns:xlink="http://www.w3.org/1999/xlink"><title>plane</title><defs><path d="M9 1c10 3.333 21 14.84 33 34.518L116 33v5c12.318-2.932 20.985-4.265 26-4 1.05.056 2.882.228 5.496.518V39L174 35.518 205.593 38 224 43c4.667 5.89 7 11.224 7 16s-1.667 9.776-5 15l-20.407 6.604C163.318 80.868 132.787 81 114 81 77.592 81 40.925 76.333 4 67-2.667 19.667-1-2.333 9 1z" id="a"/><path d="M9 1c10 3.333 21 14.84 33 34.518L116 33v5c12.318-2.932 20.985-4.265 26-4 1.05.056 2.882.228 5.496.518V39L174 35.518 205.593 38 224 43c4.667 5.89 7 11.224 7 16s-1.667 9.776-5 15l-20.407 6.604C163.318 80.868 132.787 81 114 81 77.592 81 40.925 76.333 4 67-2.667 19.667-1-2.333 9 1z" id="c"/></defs><g fill="none" fill-rule="evenodd"><path fill="#F4F5F7" fill-rule="nonzero" d="M.717 99.559L456.616 43.58l10.027 81.67-455.899 55.98z"/><path d="M547.843 71.234l-88.357-18.039m88.592 19.531l-84.914 10.426m84.854-10.489l-80.534 45.671" stroke="#3E3E3E" stroke-width="3" stroke-linecap="square"/><g transform="rotate(-7 356.986 -4383.79)"><g transform="translate(102 30)" fill-rule="nonzero"><path d="M3.003 0H81.55a3 3 0 0 1 .88.132l90.447 27.753a3 3 0 0 1-.88 5.868H93.45a3 3 0 0 1-.88-.132L2.123 5.868A3 3 0 0 1 3.003 0z" fill="#525E9B"/><rect fill="#C7D0DA" x="1" y="3.616" width="3" height="55.452" rx="1"/><rect fill="#C7D0DA" x="84" y="5.616" width="3" height="55.452" rx="1"/><rect fill="#C7D0DA" x="98" y="30.137" width="3" height="55.452" rx="1"/><rect fill="#C7D0DA" x="50" y="18.082" width="3" height="55.452" rx="1"/><rect fill="#C7D0DA" x="125" y="18.082" width="3" height="55.452" rx="1"/><rect fill="#C7D0DA" x="163" y="30.137" width="3" height="55.452" rx="1"/><path d="M3.003 54.247H81.55a3 3 0 0 1 .88.132l90.447 27.753a3 3 0 0 1-.88 5.868H93.45a3 3 0 0 1-.88-.132L2.123 60.115a3 3 0 0 1 .88-5.868z" fill="#525E9B"/></g><g transform="translate(191.664 98.49)" fill-rule="nonzero"><path fill="#404040" d="M.916 1.287L3.635.019l5.071 10.876-2.719 1.268zm16.79 0L14.986.019l-5.07 10.876 2.718 1.268z"/><circle fill="#2B2B2B" cx="9.5" cy="15.5" r="5.5"/><circle fill="#D8D8D8" cx="9.5" cy="15.5" r="2.5"/></g><path fill="#404040" fill-rule="nonzero" d="M42.697 92.97l-1.96-.2-3.629 6.337 1.964.916z"/><path d="M9 22c10 3.333 21 14.84 33 34.518L116 54v5c12.318-2.932 20.985-4.265 26-4 1.05.056 2.882.228 5.496.518V60L174 56.518 205.593 59 224 64c4.667 5.89 7 11.224 7 16s-1.667 9.776-5 15l-20.407 6.604c-42.275.264-72.806.396-91.593.396-36.408 0-73.075-4.667-110-14-6.667-47.333-5-69.333 5-66z" fill-rule="nonzero" fill="#6776C2"/><g transform="translate(0 21)"><mask id="b" fill="#fff"><use xlink:href="#a"/></mask><path fill-opacity=".173" fill="#FFF" fill-rule="nonzero" mask="url(#b)" transform="rotate(1 21.014 20.99)" d="M-2.987 15.49h48.001v11H-2.987z"/></g><g transform="translate(0 21)"><mask id="d" fill="#fff"><use xlink:href="#c"/></mask><path fill-opacity=".173" fill="#FFF" fill-rule="nonzero" mask="url(#d)" transform="rotate(1 112.439 54.047)" d="M-3.061 52.008h231v4.079h-231z"/></g><g transform="translate(4)" fill-rule="nonzero"><path d="M3.865 0h78.682a3 3 0 0 1 .886.134l90.588 28a3 3 0 0 1-.886 5.866H94.453a3 3 0 0 1-.886-.134l-90.588-28A3 3 0 0 1 3.865 0z" fill="#525E9B"/><rect fill="#C7D0DA" x="8" y="4" width="3" height="55" rx="1"/><rect fill="#C7D0DA" x="77" y="4" width="3" height="55" rx="1"/><rect fill="#C7D0DA" x="99" y="30" width="3" height="55" rx="1"/><rect fill="#C7D0DA" x="51" y="18" width="3" height="55" rx="1"/><rect fill="#C7D0DA" x="128" y="18" width="3" height="55" rx="1"/><rect fill="#C7D0DA" x="166" y="31" width="3" height="55" rx="1"/><path d="M3.865 54h78.682a3 3 0 0 1 .886.134l90.588 28a3 3 0 0 1-.886 5.866H94.453a3 3 0 0 1-.886-.134l-90.588-28A3 3 0 0 1 3.865 54z" fill="#525E9B"/></g><ellipse fill="#373A3E" fill-rule="nonzero" transform="rotate(-3 224.802 79.545)" cx="224.802" cy="79.545" rx="7" ry="15.5"/><path d="M228.919 86.989c1.93-.101 4.307-3.76 4.076-8.172-.231-4.412-2.983-7.907-4.914-7.806-1.93.101-2.307 3.76-2.076 8.172.231 4.412.983 7.907 2.914 7.806z" fill="#CEDAE8" fill-rule="nonzero"/><path d="M203.732 29.961a1.922 1.922 0 0 1 2.663.77l21.715 41.322-1.61 1.343L203 32.693a2 2 0 0 1 .732-2.732zm51.433 94.474a1.922 1.922 0 0 1-2.663-.77l-21.716-41.321 1.61-1.344 23.5 40.703a2 2 0 0 1-.731 2.732z" fill="#CEDAE8" fill-rule="nonzero"/><g transform="translate(173.517 94.542)" fill-rule="nonzero"><path fill="#404040" d="M.916 2.287l2.718-.267 5.072 8.875-2.719 1.268zm16.79 0l-2.719-.267-5.071 8.875 2.718 1.268z"/><circle fill="#2B2B2B" cx="9.5" cy="15.5" r="5.5"/><circle fill="#D8D8D8" cx="9.5" cy="15.5" r="2.5"/></g><g transform="rotate(7 -722.918 291.073)" fill-rule="nonzero"><path fill="#404040" d="M.68 1.64l1.96-.2 3.63 6.337-1.964.915z"/><ellipse fill="#2B2B2B" cx="6.861" cy="11.071" rx="3.972" ry="3.929"/><ellipse fill="#D8D8D8" cx="6.861" cy="11.071" rx="1.806" ry="1.786"/></g></g><path d="M52.893 143.545c2.028 1.456 5.045 2.1 8.047 1.732 4.788-.588 7.174-3.31 6.788-6.455-.531-4.324-4.598-4.658-7.634-4.866-1.978-.156-3.37-.275-3.494-1.276-.118-.964.862-1.846 2.505-2.048 2.109-.26 4.183.393 5.356 1.373l1.44-3.332c-1.882-1.147-4.327-1.863-7.257-1.503-4.538.557-6.763 3.406-6.408 6.3.509 4.145 4.424 4.426 7.46 4.633 1.938.125 3.55.254 3.694 1.433.132 1.072-.7 1.972-2.666 2.213-2.144.264-4.861-.6-6.256-1.625l-1.575 3.421zm24.166 5.992l-4.538.557-2.926-23.833 4.538-.557.267 2.18c1.116-1.842 2.896-3.004 5.004-3.263 4.43-.544 8.05 2.349 8.757 8.101.706 5.753-2.102 9.471-6.532 10.015-2.037.25-4.036-.375-5.65-1.99l1.08 8.79zm6.385-16.236c-.364-2.965-2.365-4.787-4.973-4.467-1.465.18-3.04 1.244-3.654 2.444l.75 6.11c.882.98 2.671 1.667 4.136 1.487 2.609-.32 4.11-2.572 3.741-5.574zm17.23 7.098c-5.682.697-9.621-3.026-10.226-7.957-.602-4.896 2.32-9.462 8.001-10.16 5.717-.701 9.656 3.022 10.257 7.918.606 4.93-2.315 9.497-8.033 10.199zm-.496-4.038c2.823-.347 4.145-2.867 3.812-5.582-.33-2.68-2.222-4.805-5.045-4.459-2.823.347-4.11 2.863-3.78 5.542.333 2.716 2.19 4.846 5.013 4.499zm24.597.643l4.538-.557-1.496-12.185c-.412-3.358-2.498-5.279-6.285-4.813-2.823.346-4.764 1.963-5.71 3.42l-.276-2.25-4.538.557 2.119 17.258 4.538-.557-1.426-11.613c.623-1.128 1.894-2.3 3.68-2.519 1.93-.237 3.281.431 3.575 2.825l1.281 10.434zm7.263-3.177c2.029 1.456 5.046 2.101 8.048 1.732 4.788-.587 7.173-3.31 6.787-6.455-.53-4.323-4.598-4.658-7.634-4.866-1.977-.156-3.37-.275-3.493-1.276-.118-.964.861-1.846 2.505-2.048 2.108-.259 4.183.393 5.355 1.373l1.44-3.332c-1.88-1.147-4.326-1.862-7.256-1.503-4.538.557-6.764 3.406-6.408 6.3.509 4.145 4.424 4.426 7.46 4.634 1.938.124 3.55.253 3.694 1.432.132 1.072-.7 1.972-2.666 2.213-2.144.264-4.861-.6-6.257-1.625l-1.575 3.421zm26.878-.58c-5.681.698-9.62-3.026-10.226-7.957-.6-4.895 2.32-9.461 8.002-10.159 5.717-.702 9.656 3.022 10.257 7.917.605 4.931-2.316 9.497-8.033 10.2zm-.496-4.037c2.823-.347 4.146-2.867 3.812-5.582-.329-2.68-2.222-4.805-5.045-4.459-2.822.347-4.11 2.862-3.78 5.542.333 2.716 2.19 4.845 5.013 4.499zm12.95 2.073l4.537-.557-1.4-11.399c.615-1.2 2.51-2.303 4.012-2.487.5-.061.937-.042 1.268-.01l-.544-4.431c-2.144.263-4.139 1.741-5.165 3.427l-.29-2.359-4.538.558 2.12 17.258zm10.792-10.175c-.935-7.61 5.025-14.908 12.457-15.82 6.825-.838 11.87 3.62 12.598 9.552.737 6.003-2.883 9.313-5.991 9.694-2.144.263-3.41-.887-3.791-2.218l-.062-.21c-1.036 1.904-2.865 3.253-4.794 3.49-3.466.425-5.85-1.857-6.276-5.323-.588-4.788 2.856-9.237 7-9.746 2.144-.263 3.844.58 4.76 1.846l.161-1.942 4.038-.496-.752 8.942c-.01.22-.028.657-.002.871.136 1.108.77 1.538 1.52 1.446 1.393-.171 3.152-2.092 2.652-6.166-.693-5.645-5.03-9.066-11.033-8.329-6.753.83-11.92 7.485-11.1 14.166.689 5.61 5.507 9.407 11.296 8.697 2.43-.299 4.517-1.317 6.297-2.769l.882.98c-2.04 1.702-4.511 2.84-7.156 3.164-6.503.798-11.928-3.505-12.704-9.83zm15.275-1.73l.38-4.29c-.49-.739-1.546-1.66-3.118-1.468-2.859.351-4.615 3.178-4.295 5.787.228 1.858 1.53 3.004 3.352 2.78 1.894-.232 3.026-1.641 3.68-2.81zm26.637 5.434l-.272-2.216c-1.148 1.882-2.927 3.044-5 3.298-4.359.536-8.05-2.348-8.756-8.101-.693-5.646 2.137-9.475 6.532-10.015 2.037-.25 4.076.407 5.649 1.99l-1.08-8.79 4.574-.56 2.926 23.832-4.573.562zm-.685-5.574l-.75-6.11c-.89-1.052-2.635-1.672-4.172-1.483-2.572.316-4.109 2.572-3.74 5.573.364 2.966 2.4 4.783 4.973 4.467 1.537-.188 3.08-1.212 3.69-2.447zm21.41 3.03l4.537-.558-2.12-17.258-4.537.557 1.435 11.684c-.664 1.097-1.939 2.233-3.69 2.448-1.929.237-3.276-.396-3.57-2.79l-1.286-10.47-4.537.558 1.504 12.256c.413 3.359 2.454 5.212 6.241 4.747 2.823-.347 4.738-1.888 5.754-3.354l.268 2.18zm9.04-1.11l-2.927-23.834 4.538-.557 1.08 8.79c1.142-1.918 2.962-3.048 4.998-3.298 4.395-.54 8.068 2.491 8.761 8.137.707 5.753-2.177 9.444-6.536 9.979-2.073.255-4.08-.442-5.649-1.99l.272 2.215-4.538.557zm3.857-6.096c.886 1.015 2.667 1.63 4.132 1.45 2.644-.324 4.15-2.54 3.78-5.541-.368-3.002-2.369-4.823-5.013-4.499-1.465.18-3.04 1.244-3.65 2.48l.751 6.11zm28.765 2.09l4.538-.558-1.505-12.256c-.412-3.358-2.489-5.207-6.276-4.742-2.823.347-4.8 1.968-5.746 3.426l-1.083-8.826-4.538.557 2.926 23.833 4.538-.557-1.426-11.613c.659-1.133 1.93-2.304 3.68-2.52 1.966-.24 3.308.356 3.602 2.75l1.29 10.506zm19.402-2.383l-.219-1.786c-1.008 1.538-2.944 2.61-5.195 2.886-2.751.338-6.23-1.12-6.705-4.98-.495-4.037 2.576-5.902 5.328-6.24 2.286-.28 4.41.184 5.725 1.437l-.294-2.394c-.215-1.75-1.856-2.71-4.142-2.429-1.859.228-3.49 1.118-4.789 2.656l-2.088-2.827c1.88-2.117 4.49-3.308 7.206-3.641 3.93-.483 7.733.646 8.343 5.613l1.368 11.148-4.538.557zm-.508-4.145l-.264-2.144c-.873-.908-2.364-1.233-3.829-1.053-1.786.22-3.137 1.329-2.93 3.008.197 1.608 1.776 2.357 3.562 2.138 1.465-.18 2.833-.856 3.46-1.949zm7.38-5.476c.653 5.324 4.937 8.607 10.26 7.953 3.538-.434 5.494-2.234 6.44-3.982l-3.304-2.388c-.681 1.245-1.844 2.113-3.416 2.306-2.752.338-4.931-1.462-5.3-4.464-.368-3.001 1.315-5.239 4.067-5.577 1.572-.193 2.901.297 3.872 1.41l2.624-3.15c-1.336-1.432-3.669-2.705-7.206-2.271-5.324.654-8.687 4.875-8.038 10.163zm31.183 4.949l5.681-.698-8.197-8.569 5.864-8.663-5.575.685-5.595 8.485-1.75-14.257-4.539.557 2.927 23.833 4.538-.557-.544-4.43 1.8-2.47 5.39 6.084zm6.155-3.041c2.029 1.456 5.046 2.1 8.047 1.732 4.788-.588 7.174-3.31 6.788-6.455-.53-4.324-4.598-4.659-7.634-4.866-1.978-.156-3.37-.275-3.493-1.276-.119-.965.86-1.847 2.505-2.048 2.108-.26 4.183.393 5.355 1.373l1.44-3.332c-1.881-1.147-4.327-1.863-7.257-1.503-4.538.557-6.763 3.406-6.408 6.3.51 4.145 4.425 4.426 7.46 4.633 1.938.125 3.55.254 3.695 1.433.131 1.072-.701 1.972-2.666 2.213-2.144.263-4.862-.6-6.257-1.625l-1.575 3.421zm17.942-2.457c.193 1.572 1.678 2.732 3.25 2.539 1.572-.193 2.732-1.678 2.539-3.25-.193-1.572-1.678-2.732-3.25-2.539-1.572.193-2.732 1.678-2.539 3.25zm7.714-7.186c.654 5.324 4.938 8.607 10.262 7.953 3.537-.434 5.492-2.234 6.438-3.982l-3.303-2.387c-.682 1.244-1.844 2.112-3.417 2.305-2.75.338-4.93-1.462-5.299-4.463-.369-3.002 1.315-5.24 4.067-5.577 1.572-.194 2.901.296 3.872 1.41l2.624-3.151c-1.337-1.432-3.67-2.705-7.207-2.27-5.324.653-8.686 4.874-8.037 10.162zm28.056 5.768c-5.681.698-9.62-3.026-10.226-7.957-.6-4.895 2.32-9.461 8.002-10.159 5.717-.702 9.656 3.022 10.257 7.917.606 4.931-2.316 9.497-8.033 10.2zm-.496-4.037c2.823-.347 4.146-2.867 3.813-5.583-.33-2.68-2.223-4.805-5.045-4.458-2.823.347-4.11 2.862-3.781 5.542.333 2.716 2.19 4.845 5.013 4.499z" fill="#404649"/></g></svg>