<svg width="734" height="733" viewBox="0 0 734 733" xmlns="http://www.w3.org/2000/svg"><title>wheel</title><g fill="none" fill-rule="evenodd"><path d="M367 40c-11.046 0-20-8.954-20-20s8.954-20 20-20 20 8.954 20 20-8.954 20-20 20zm84.504 11.125c-10.669-2.859-17-13.825-14.142-24.495 2.86-10.669 13.826-17 24.495-14.142 10.67 2.859 17.001 13.826 14.142 24.495-2.859 10.67-13.825 17.001-24.495 14.142zm78.746 32.618c-9.566-5.523-12.843-17.755-7.32-27.32 5.522-9.567 17.754-12.844 27.32-7.321 9.566 5.523 12.843 17.754 7.32 27.32-5.522 9.566-17.754 12.844-27.32 7.32zm67.62 51.887c-7.81-7.81-7.81-20.474 0-28.285 7.81-7.81 20.474-7.81 28.285 0 7.81 7.81 7.81 20.474 0 28.285-7.81 7.81-20.474 7.81-28.285 0zm51.887 67.62c-5.523-9.566-2.245-21.798 7.32-27.32 9.567-5.523 21.798-2.246 27.321 7.32 5.523 9.566 2.246 21.798-7.32 27.32-9.566 5.523-21.798 2.246-27.32-7.32zm32.618 78.746c-2.86-10.67 3.473-21.636 14.142-24.495 10.67-2.86 21.636 3.472 24.495 14.142 2.859 10.67-3.473 21.636-14.142 24.495-10.67 2.859-21.636-3.473-24.495-14.142zM693.5 366.5c0-11.046 8.954-20 20-20s20 8.954 20 20-8.954 20-20 20-20-8.954-20-20zm-11.125 84.504c2.859-10.669 13.825-17 24.495-14.142 10.669 2.86 17 13.826 14.142 24.495-2.859 10.67-13.826 17.001-24.495 14.142-10.67-2.859-17.001-13.825-14.142-24.495zm-32.618 78.746c5.523-9.566 17.755-12.843 27.32-7.32 9.567 5.522 12.844 17.754 7.321 27.32-5.523 9.566-17.754 12.843-27.32 7.32-9.566-5.522-12.844-17.754-7.32-27.32zm-51.887 67.62c7.81-7.81 20.474-7.81 28.285 0 7.81 7.81 7.81 20.474 0 28.285-7.81 7.81-20.474 7.81-28.285 0-7.81-7.81-7.81-20.474 0-28.285zm-67.62 51.887c9.566-5.523 21.798-2.245 27.32 7.32 5.523 9.567 2.246 21.798-7.32 27.321-9.566 5.523-21.798 2.246-27.32-7.32-5.523-9.566-2.246-21.798 7.32-27.32zm-78.746 32.618c10.67-2.86 21.636 3.473 24.495 14.142 2.86 10.67-3.472 21.636-14.142 24.495-10.67 2.859-21.636-3.473-24.495-14.142-2.859-10.67 3.473-21.636 14.142-24.495zM367 693c11.046 0 20 8.954 20 20s-8.954 20-20 20-20-8.954-20-20 8.954-20 20-20zm-84.504-11.125c10.669 2.859 17 13.825 14.142 24.495-2.86 10.669-13.826 17-24.495 14.142-10.67-2.859-17.001-13.826-14.142-24.495 2.859-10.67 13.825-17.001 24.495-14.142zm-78.746-32.618c9.566 5.523 12.843 17.755 7.32 27.32-5.522 9.567-17.754 12.844-27.32 7.321-9.566-5.523-12.843-17.754-7.32-27.32 5.522-9.566 17.754-12.844 27.32-7.32zm-67.62-51.887c7.81 7.81 7.81 20.474 0 28.285-7.81 7.81-20.474 7.81-28.285 0-7.81-7.81-7.81-20.474 0-28.285 7.81-7.81 20.474-7.81 28.285 0zm-51.887-67.62c5.523 9.566 2.245 21.798-7.32 27.32-9.567 5.523-21.798 2.246-27.321-7.32-5.523-9.566-2.246-21.798 7.32-27.32 9.566-5.523 21.798-2.246 27.32 7.32zm-32.618-78.746c2.86 10.67-3.473 21.636-14.142 24.495-10.67 2.86-21.636-3.472-24.495-14.142-2.859-10.67 3.473-21.636 14.142-24.495 10.67-2.859 21.636 3.473 24.495 14.142zM40.5 366.5c0 11.046-8.954 20-20 20s-20-8.954-20-20 8.954-20 20-20 20 8.954 20 20zm11.125-84.504c-2.859 10.669-13.825 17-24.495 14.142-10.669-2.86-17-13.826-14.142-24.495 2.859-10.67 13.826-17.001 24.495-14.142 10.67 2.859 17.001 13.825 14.142 24.495zm32.618-78.746c-5.523 9.566-17.755 12.843-27.32 7.32-9.567-5.522-12.844-17.754-7.321-27.32 5.523-9.566 17.754-12.843 27.32-7.32 9.566 5.522 12.844 17.754 7.32 27.32zm51.887-67.62c-7.81 7.81-20.474 7.81-28.285 0-7.81-7.81-7.81-20.474 0-28.285 7.81-7.81 20.474-7.81 28.285 0 7.81 7.81 7.81 20.474 0 28.285zm67.62-51.887c-9.566 5.523-21.798 2.245-27.32-7.32-5.523-9.567-2.246-21.798 7.32-27.321 9.566-5.523 21.798-2.246 27.32 7.32 5.523 9.566 2.246 21.798-7.32 27.32zm78.746-32.618c-10.67 2.86-21.636-3.473-24.495-14.142-2.86-10.67 3.472-21.636 14.142-24.495 10.67-2.859 21.636 3.473 24.495 14.142 2.859 10.67-3.473 21.636-14.142 24.495z" fill="#5C5C5C"/><ellipse stroke="#DDD" stroke-width="11.4" cx="368.1" cy="366.3" rx="345.408" ry="345.6"/><path d="M363.602 339.179V20.4h7.196v318.779l82.505-307.914 6.951 1.863-82.51 307.93L537.137 64.984l6.232 3.598L383.96 344.684l225.43-225.429 5.088 5.089-225.455 225.455 276.114-159.415 3.598 6.232-276.141 159.43 307.987-82.525 1.862 6.951-308.005 82.53h318.867v7.196H394.438l308.005 82.53-1.862 6.95-307.987-82.524 276.141 159.43-3.598 6.232-276.114-159.415 225.455 225.455-5.089 5.089-225.429-225.43L543.37 664.62l-6.232 3.598-159.393-276.076 82.51 307.931-6.95 1.863-82.506-307.914V712.8h-7.196V394.021l-82.505 307.914-6.95-1.863 82.509-307.93-159.393 276.075-6.231-3.598L350.44 388.516 125.01 613.945l-5.087-5.089 225.454-225.455L69.263 542.816l-3.598-6.232 276.142-159.43-307.988 82.525-1.862-6.951 308.005-82.53H21.095v-7.196h318.867l-308.005-82.53 1.862-6.95 307.988 82.524-276.142-159.43 3.598-6.232 276.114 159.415-225.454-225.455 5.088-5.089 225.429 225.43L191.032 68.58l6.231-3.598 159.393 276.076-82.51-307.931 6.95-1.863 82.506 307.914z" fill="#DDD"/></g></svg>