<svg id="Layer_1" xmlns="http://www.w3.org/2000/svg" viewBox="0 0 525.1 514"><style>.st0{fill:#0075c9}.st1{fill:#6a6662}.st2{fill:none}</style><path class="st0" d="M525 28.5C525 12.7 512.3 0 496.6 0h-468C12.8 0 0 12.8 0 28.5v457C0 501.3 12.8 514 28.6 514h468c15.7 0 28.5-12.8 28.5-28.5l-.1-457zM251 355.8c18.8 0 38.2-6.8 45-9.2 3-1.2 4.5 1.8 4.5 1.8 13 27.7 30.3 40.5 34.4 46 2 3-2 5-2 5-21 12.7-54.3 19.7-81.8 20-96.2.6-171-74.6-171-163.2 0-96.7 76-167.2 167.8-164 37.5 0 72.5 13.3 97 29 6.3 4.2 6.2 6.2 4.8 8-5.4 7.6-20 29.4-27.5 44.6 0 0-2 4-6 1.4-15.7-10.3-37-20.3-72-20.3-54.3 0-95.6 42.5-95.6 100.2S196.7 355.8 251 355.8zm145.8 5c-25.8 0-46.7-21-46.7-46.7 0-25.8 21-46.6 46.8-46.6 25.7 0 46.6 20.8 46.6 46.6 0 25.7-21 46.6-46.6 46.6l-.1.1z"/><path class="st1" d="M2170 346.8c0 16.2-12.6 29-29.3 29-16.4 0-29.5-12.8-29.5-29 0-16 13-28.7 29.5-28.7 16.7 0 29.4 12.7 29.3 28.7zm-51.5 0c0 12.7 9.5 23 22.4 23 12.5 0 21.8-10.3 21.8-23 0-12.6-9.3-23-22-23-12.8 0-22.3 10.4-22.3 23h.1zm17.7 15h-6.7v-28.7c2.7-.5 6.3-1 11-1 5.5 0 8 1 10 2.2 1.6 1.3 2.8 3.5 2.8 6.3 0 3.2-2.4 5.6-6 6.7v.3c3 1 4.5 3.2 5.3 7 1 4.4 1.4 6.2 2 7.2h-7c-1-1-1.4-3.7-2.3-7-.5-3-2.3-4.5-6-4.5h-3v11.5h-.1zm.2-16.3h3c3.8 0 6.8-1.2 6.8-4.2 0-2.6-2-4.3-6.2-4.3-1.7 0-3 0-3.6.3v8.2z"/><path class="st2" d="M249 92.5c37.5 0 72.5 13.3 97 29 6.4 4.2 6.3 6.2 5 8-5.5 7.7-20.2 29.5-27.7 44.8 0 0-2 4-6 1.3-15.7-10.3-37-20.4-72.2-20.4-54.2 0-95.6 42.5-95.6 100.4 0 57.8 48.3 101 102.6 100.8 18.7 0 38.2-6.7 45-9 3-1.3 4.5 1.7 4.5 1.7 13 27.8 30.4 40.6 34.4 46.2 2 2.8-2 4.8-2 4.8-21 12.8-54.4 19.8-82 20-96.2.7-171-74.6-171-163.3 0-97 76.2-167.5 168-164.3m195.6 222.3c0 25.7-21 46.6-46.7 46.6-26 0-46.8-21-46.8-46.7 0-25.8 21-46.7 46.7-46.7s46.6 21 46.6 46.6"/><path class="st2" d="M249 92.5c37.5 0 72.5 13.3 97 29 6.4 4.2 6.3 6.2 5 8-5.5 7.7-20.2 29.5-27.7 44.8 0 0-2 4-6 1.3-15.7-10.3-37-20.4-72.2-20.4-54.2 0-95.6 42.5-95.6 100.4 0 57.8 48.3 101 102.6 100.8 18.7 0 38.2-6.7 45-9 3-1.3 4.5 1.7 4.5 1.7 13 27.8 30.4 40.6 34.4 46.2 2 2.8-2 4.8-2 4.8-21 12.8-54.4 19.8-82 20-96.2.7-171-74.6-171-163.3 0-97 76.2-167.5 168-164.3m195.6 222.3c0 25.7-21 46.6-46.7 46.6-26 0-46.8-21-46.8-46.7 0-25.8 21-46.7 46.7-46.7s46.6 21 46.6 46.6"/></svg>