<svg xmlns="http://www.w3.org/2000/svg" viewBox="0 0 136.8 38.73"><defs><style>.a{fill:#00355f}</style></defs><title>expedia</title><path class="a" d="M65.76 30.3h-4.24l-3.66-4.47-3.66 4.47h-3.5a.06.06 0 0 1-.05 0 .05.05 0 0 1 0-.05l5.39-6.62L50.7 17h4.25l3.21 4 3.27-4h3.46a.07.07 0 0 1 .05 0 .06.06 0 0 1 0 .06l-5.06 6.08 5.78 7.11v.05zm29.17-5.84h-9.77A3.67 3.67 0 0 0 89.21 28a11.19 11.19 0 0 0 5.22-1.67.06.06 0 0 1 .08.05v3a15.92 15.92 0 0 1-5.71 1.45 7 7 0 0 1-7.22-7.26 7 7 0 0 1 7.22-7.25 5.89 5.89 0 0 1 6.27 6.11c-.03.65-.14 1.98-.14 2.03zm-6.17-5.16a3.44 3.44 0 0 0-3.53 3.13h6.4v-.13a2.9 2.9 0 0 0-2.87-3zm24.18 11a.05.05 0 0 1-.06-.05V17a.06.06 0 0 1 0-.06h3.51a.05.05 0 0 1 0 .06v13.25zm1.76-16.12a2.15 2.15 0 0 1-2.18-2.18 2.165 2.165 0 1 1 4.33 0 2.15 2.15 0 0 1-2.15 2.18zM73.14 16.4a9.25 9.25 0 0 0-3 .54h-3.5a.05.05 0 0 0 0 .06v21.73a8.07 8.07 0 0 0 3.61-1.41V30.7a16.19 16.19 0 0 0 2.26.2c4.78 0 7.88-2.87 7.88-7.31a6.87 6.87 0 0 0-7.25-7.19zm-1 11.91a7.75 7.75 0 0 1-2-.29v-8.5a7.77 7.77 0 0 1 2.38-.41c2.43 0 4.07 1.8 4.07 4.46.03 2.88-1.71 4.73-4.4 4.73zm34.4-18.39v6.94a10.15 10.15 0 0 0-2.84-.43 7.15 7.15 0 0 0-7.31 7.31c0 4.15 2.77 7.16 6.59 7.16a8.47 8.47 0 0 0 4-1.08V31a8 8 0 0 0 3.15-1.34V8.5a7.76 7.76 0 0 0-3.59 1.42zm0 17.28a6.45 6.45 0 0 1-3 .85c-2.17 0-3.47-1.53-3.47-4.1 0-3 1.66-4.89 4.22-4.89a5.28 5.28 0 0 1 2.23.55zm25.72-10.42a.15.15 0 0 0-.15-.15h-2.84a.16.16 0 0 0-.16.15v.49h-.07a8.64 8.64 0 0 0-3.53-.84 7.15 7.15 0 0 0-7 7.43c0 4.22 2.76 7 6.86 7a4.51 4.51 0 0 0 3.82-1.59V31a8.18 8.18 0 0 0 3.07-1.34zm-3.56 10.4a5.68 5.68 0 0 1-2.78.91c-2.32 0-3.71-1.53-3.71-4.1 0-2.92 1.64-4.89 4.07-4.89a5.42 5.42 0 0 1 2.42.76zM40.99 27h8.81a8 8 0 0 1-1.23 3.31H39.4a2.18 2.18 0 0 1-2.16-2V10.89a2.18 2.18 0 0 1 2.16-2h10.38a8.08 8.08 0 0 1-1.23 3.34h-7.56v4.74h7.49a.05.05 0 0 1 .05.05v3.28a.05.05 0 0 1-.05.05h-7.49V27zm-11.04.37a1.68 1.68 0 1 0 1.65 1.69 1.63 1.63 0 0 0-1.65-1.69zm0 3.2a1.52 1.52 0 1 1 1.4-1.51 1.41 1.41 0 0 1-1.4 1.51z"/><path class="a" d="M30.7 28.63c0-.4-.25-.57-.73-.57h-.76v2h.33v-.86h.31l.52.85h.37l-.56-.87a.51.51 0 0 0 .52-.55zm-1.18.29v-.62h.41c.21 0 .46 0 .46.29s-.23.33-.49.33h-.38zm105.64-12.98a1.68 1.68 0 1 0 1.65 1.69 1.63 1.63 0 0 0-1.65-1.69zm0 3.2a1.41 1.41 0 0 1-1.46-1.51 1.41 1.41 0 1 1 2.81 0 1.42 1.42 0 0 1-1.35 1.51z"/><path class="a" d="M135.94 17.2c0-.4-.25-.57-.73-.57h-.76v2h.33v-.85h.31l.52.85h.37l-.56-.87a.51.51 0 0 0 .52-.54zm-1.18.29v-.61h.41c.21 0 .46 0 .46.28s-.23.33-.49.33h-.38zm-103.9-6.86a8.5 8.5 0 0 1-1.9 1l-5.51 1.57L19.77 25l-1 .31.78-9-.43-1.87-5.17 1.47L.33 19.08a15.87 15.87 0 1 0 30.53-8.44zM18.57 12.2l-.64-1.81-5.42-7.25 1-.24 9.33 8.1 5.5-1.57a8 8 0 0 1 1.94-.2 15.87 15.87 0 0 0-30.1 9.03l13.18-4.58z"/></svg>