<svg xmlns="http://www.w3.org/2000/svg" width="892.913" height="428.031"><defs><clipPath id="a"><path d="M150.668 2008.78h600.954v285.219H150.668V2008.78z"/></clipPath></defs><g clip-path="url(#a)" transform="matrix(1.47403 0 0 -1.4762 -218.547 3389.899)"><path d="M293.53 2177.394c1.112-.55 1.233-.54 2.195-1.237l20.003 22.152c-6.495 6.955-12.85 11.548-21.605 15.52-3.254 1.452-4.25 1.963-7.781 2.97l4.785-38.441s1.568-.552 2.404-.964m-66.683 35.874l35.83-34.865s1.351.694 1.925.916c1.118.427 2.3.696 2.3.696l3.472 39.75c-3.619.461-5.862.614-9.726.754-8.882.307-21.277-1.472-29.429-5.082-2.935-1.183-4.372-2.169-4.372-2.169m-21.263-158.141c-.14 14.846-3.108 36.471-5.65 45.487-1.563 5.55-13.748 42.561-14.097 43.954-.236.938-.649 10.7-.986 19.362-5.805-16.158-8.694-34.88-8.694-54.98v-.016c0-32.499 8.385-61.777 24.428-82.389 4.694 12.082 4.73 21.432 4.99 28.375 0 .068.01.132.01.207m43.449-3.036c13.904 11.935 22.293 16.027 37.095 23.653-21.882-4.522-46.864-19.33-60.357-36.609-9.125-11.646-15.166-21.903-15.447-22.367 2.027-1.377 4.154-2.543 6.43-3.568 9.573 18.14 23.516 31.39 32.28 38.891m-32.45 155.599c-1.365-.887-1.85-1.6-2.286-2.048 6.325-16.3 14.976-37.906 17.125-43.963.28-.781.56-1.63.824-2.49l14.325-7.31.231.154s-.149 2.03-.163 2.639c-.025.532.4 2.582.4 2.582l-28.169 51.715c-.88-.398-1.2-.577-2.287-1.28" fill="#003e7e"/><path d="M252.936 2046.314c-14.898-14.3-24.946-31.83-27.916-36.153 1.525-.464 3.112-.928 4.788-1.38 32.504 57.87 84.189 70.893 113.3 72.087.376 1.628 0-.378.344 2.421-19.99.392-58.132-6.623-90.516-36.975m64.653 114.053c.184-.183.275-.267.504-.642l17.755 7.602c-2.19 5.356-4.825 10.9-7.71 15.567l-11.41-21.803c.324-.202.67-.53.86-.724m8.477-28.178c-.522-1.755-1.852-3.981-1.852-3.981l1.13-13.505 14.484-23.942 4.33-.728c.63 6.294.994 12.273.994 18.917 0 14.506-.453 27.097-3.466 39.726l-14.772-12.367s-.398-2.557-.848-4.12m36.317 39.411l-36.316-27.949c-.596 4.53-2.106 8.555-4.443 11.58l40.559 16.71s.27.116.336-.013c.068-.13-.136-.329-.136-.329m-136.618 35.042s-.109.147.053.256c.151.106.258-.049.258-.049l30.868-31.617c-2.936-1.652-6.046-5.68-7.327-9.319m-5.889-18.442s-.808-1.76-.88-3.744c-.08-2.144.632-4.177.632-4.177l-9.328 6.422c.111 2.19-.078 2.732-.214 4.606-.013.193-.274 2.496-.322 2.773m-4.547-76.301c-1.197-11.077-3.903-20.696-7.962-27.573-2.606-4.433-9.93-13.39-12.495-16.777 2.778 5.535 4.926 18.896 4.748 29.295-.114 6.75-2.167 21.64-.387 31.507 1.934 10.586 4.929 16.55 12.024 23.062 3.613 3.335 11.008 7.584 21.572 4.713l8.53-16.08c-4.566.876-10.608.093-14.64-3-7.578-5.831-10.121-13.668-11.39-25.147" fill="#003e7e"/><path d="M229.897 2055.204c2.088 4.671 4.819 18.01 5.588 22.47.98 5.731 1.902 14.086 8.716 19.708 3.351 2.773 8.845 3.131 11.037 2.487l9.664-19.689c.865-2.099 3.703-2.82 5.604-2.698-9.059-2.957-31.881-13.804-40.609-22.278m82.213 62.859c-1.542-2.43-.996-4.753-.13-6.385.975-1.83 6.091-11.288 6.091-11.288 1.623-4.287 2.87-6.444 4.404-9.21 2.773 0 5.776.07 8.942 0-3.376 7.581-11.089 22.205-11.089 22.205l-1.087 11.551c-2.259-1.35-5.562-4.449-7.13-6.874m-34.351 120.964l-5.01-58.03c3.342.6 10.785-.426 12.609-1.254l-7.283 59.284s-.022.2-.165.2c-.137 0-.15-.2-.15-.2m-80.392-12.243c-.233.68-.712 2.525-1.504 2.872-.864.391-2.721 1.413-3.825 1.855-.955.377-2.66 2.186-3.461 2.186-3.814 0-8.194 1.273-9.696 2.316-1.614-3.119-.5-4.882.942-6.332 1.157-1.153 4.247-2.098 7.25-2.329l.806-17.199c.813-1.28 3.348-2.08 5.54-2.197v-.573l-2.998-2.2c.11-1.96 2.766-58.06 3.346-59.093.575-1.044 14.184-42.62 14.54-45.159.968 4.787 5.258 15.208 10.104 19.952 4.96 4.84 11.012 6.96 14.7 6.845-.808.926-4.957 10.625-5.073 11.55-.114.925-1.727 13.037-2.19 13.848-.461.812-28.251 72.956-28.481 73.658m139.074-15.109l-35.68-38.3c2.38-1.453 8.438-6.07 10.914-8.426l25.03 46.546s.09.178.01.25c-.094.071-.274-.07-.274-.07" fill="#003e7e"/><path d="M301.093 2150.635c-3.811 2.447-11.259 6.086-13.489 6.78l3.282 8.487c2.769-1.394 12.975-7.617 14.536-9.181l-4.329-6.086zm-17.989 8.165c-2.788 1.91-11.944 1.559-15.757.698l-2.777 7.971c2.074 1.548 6.058 2.585 9.691 2.585 3.637 0 7.623-.865 10.39-2.246l-1.547-9.008zm-27.365-5.884c-1.55 5.223 2.604 10.395 4.505 12.291l2.945-6.755c-2.242-1.206-5.71-3.85-7.45-5.536zm9.008-13.68s3.799 2.179 7.385 2.948c5.275 1.134 11.133-2.042 15.286-5.299l-.795-1.252-5.95-1.406c-1.159 1.034-3.347 1.49-5.72 1.379a11.494 11.494 0 0 1-3.793-.874l1.163-1.902-2.733-.69c-1.212 1.55-3.118 3.466-4.843 3.979v3.117zm53.14 9.003c-.434 2.247-6.059 8.954-15.636 16.215-7.48 5.687-18.441 11.283-27.465 11.234-15.24-.084-21.523-10.55-22.665-16.016-.701-3.295-.529-6.872.165-8.83-2.43-2.086-3.34-3.761-3.813-6.122-.322-1.714 0-4.15 1.566-5.656-.183 2.253 1.349 4.87 2.591 6.585 1.392 1.896 3.7 2.645 5.792 3.913l.336-4.171c-1.98-1.13-4.409-3.554-4.569-4.821l.16-6.88 5.239 3.132 1.004-2.09-1.904-12.125 2.937.529 5.379-2.212-5.196-4.366v-1.732s.794 1.069 2.614.982c1.822-.077 6.553-2.194 6.553-2.194l-.174-1.046h-9.176c-.344-1.212.742-2.142 1.422-2.659 1.201.347 2.47.964 3.157.964.69 0 2.279-.407 3.674-.581l-1.672-2.224s-.851-.659-2.422-.346c-.862.178-1.729-1.038-1.729-2.027 0-1.051.68-3.646.68-3.646.841-3.896 4.829-3.111 5.336-3.064 2.533.221 10.778 3.19 10.778 3.19l-7.926-11.113 3.453-11.871c5.234 2.147 20.845 7.693 37.805 10.476-1.85 3.088-2.164 4.296-4.436 8.883l-8.652 19.909 1.203 2.946c1.914-.695 4.85.693 6.753 2.248 1.913 1.559 4.163 4.327 5.025 6.065-1.203.687-2.246.52-3.291-.176-1.038-.699-1.845-2.033-3.278-1.383-1.564.68-.807 2.391-.633 3.955.174 1.548-1.8 1.576-3.177.373-1.399-1.212-4.33-.693-6.235 1.203-1.906 1.916-11.072 9.529-14.356 11.43-4.74 2.719-11.087 3.409-15.757 2.573-2.729-.483-4.681-1.7-5.722-1.183l-3.415 5.303.548.346c1.214-.525 2.361-1.501 3.908-.976 1.563.524 6.569 1.662 11.081 1.733 6.926.117 15.342-2.414 19.036-3.989.177-4.497 9.235-10.216 13.322-10.731 3.45-.432 5.554.515 7.624 1.732l-8.829 7.765 4.665 5.919s7.45-7.102 8.492-8.492c.33.812 0 2.165-.17 3.119m-138.197 92.319c7.847-.02 11.565-3.284 13.4-5.017.236 2.656-.187 4.998-2.652 7.009-2.045 1.66-5.658 3.13-11.197 3.13-3.693 0-7.402-1.086-9.71-3.042-2.108-1.796-2.467-3.83-2.003-6.84.695 2.198 5.695 4.788 12.161 4.76m-14.057 41.183c-.168-2.995.62-6.123 2.01-7.967.783-1.053 2.656-3.072 4.036-2.994 1.969.111 3.803 3.878 8.42 3.696 3-.113 4.96-4.356 7.503-4.503 1.966-.117 3.002 1.843 4.98 2.056 1.703.178 2.28-.674 3.332-1.706.696 1.604 1.696 2.705 4.266 4.605 3.113 2.317 13.73 4.51 18.238 8.546 2.255 2.027 2.758 5.756 2.042 8.275-1.705-2.396-6.428-4.93-11.052-5.153-2.302-.12-7.84.905-9.806 1.938.98 1.693 1.307 3.61.494 5.465-1.505-1.159-7.987-1.792-10.528-1.792-2.544 0-7.493 1.037-11.333.822-8.421-.457-12.326-6.433-12.602-11.288m3.053-61.171c-1.27-.232-3.923-2.313-5.217-4.474.37-1.4 1.87-4.652 3.34-5.543.343 1.504 1.988 4.008 2.802 4.58 1.142.83 2.302 1.389 3.217 1.85.934.458 1.27.926 1.27 1.974 0 1.03-.126 1.52-.602 2.56.929.109 2.63-.03 3.217.788.573.796.854 1.846.854 2.877 0 1.044-.468 1.272-1.496 1.383-1.05.116-4.072.198-5.563.078 0 0 2.32 1.19 3.02 1.554.686.33.923 1.029 1.047 1.603.106.577.082 1.885-.241 3.457-3.463-.11-9.571-3.225-11.19-4.613l1.274-3.122-2.308.096c-.356-1.586-.123-4.015.572-5.398 2.08.35 4.502.46 6.004.35m20.178-26.786c-.107 1.262-1.008 1.957-1.96 2.763.496 3.01.472 5.892.36 8.314-.121 2.43-.923 4.622-2.322 6.582-1.484 2.122-4.268 4.953-6.144 6.236 0-1.148-.517-2.056-1.671-2.402-1.154-.34-5.398-3.368-5.398-3.368l.877-15.119c-.026-.013-.055-.022-.074-.035a.95.95 0 0 1-.136-.059c-1.603-.814-3.292-2.415-3.006-4.84.27-2.293 2.18-4.06 5.737-4.854a21.854 21.854 0 0 1 1.538-.284l.109.767c-.336.032-.917.186-1.287.275-3.571.902-4.182 3.511-1.883 4.497 1.906.828 3.952 1.203 6.26 1.297 3.012.117 6.812-1.742 8.193-2.54.462 1.035.93 1.49.807 2.77" fill="#003e7e"/><path d="M207.553 2246.195c-.08 1.841-2.874 7.036-2.985 8.772-.114 1.728.344 2.885.687 4.5-1.156-.23-5.19-1.847-6.93-.465-1.845 1.488-.569 5.2-2.993 6.114-2.429.935-6.224-1.954-8.657-1.608-2.418.35-4.495 3.688-7.029 3.688-2.548 0-3.813-3.11-6.933-3.808-2.4-.534-6.39 1.285-7.963 1.162-1.728-.123-2.776-1.479-3.547-3.13-.755-1.664-1.373-2.344-3.4-2.854-1.623-.404-3.948 1.013-5.104.767.552-.548 1.105-2.097 1.268-3.708-.112-4.633-3.299-6.313-3.299-13.35 0-7.636 8.107-11.26 8.107-11.26l.956.673c-2.4 1.102-5.726 4.388-5.823 9.341-.008.392.027.752.06 1.114.43 2.604 1.702 4.92 3.727 6.855.024.023.052.05.076.076 4.494 4.231 12.472 6.66 22.404 6.473 18.228-.345 26.47-8.773 26.704-15.708.907 2.09.798 4.047.674 6.356" fill="#003e7e"/><path d="M406.862 2145.821c0-5.83 2.435-7.652 11.18-7.652s12.756 2.673 18.465 14.462h2.057l-2.057-18.483H382.2v2.073c8.147 2.064 8.99 3.892 8.99 11.55v45.458c0 6.312-1.58 8.136-8.99 9.97v2.065h33.653v-2.066c-7.05-1.833-8.99-3.28-8.99-9.486m47.744 16.533a7.89 7.89 0 0 0 7.898-7.905c0-4.376-3.524-8.026-7.898-8.026-4.367 0-8.023 3.65-8.023 8.026 0 4.373 3.656 7.905 8.023 7.905zm6.809-66.246c0-4.616 2.306-7.17 7.405-7.779v-2.072h-28.793v2.072c6.193 1.218 7.653 2.922 7.653 8.747v24.428c0 5.603-1.584 7.175-8.265 8.518v2.07l19.93 1.691h2.07m29.882 28.571h-2.07l-18.584-1.344v-2.068c4.251-.729 6.926-2.918 6.926-6.802v-65.883c6.915-1.332 13.728-1.805 22.352-1.805 22.363 0 30.855 11.656 30.855 25.762 0 13.363-9.469 23.695-21.855 23.695-6.573 0-12.17-2.672-17.624-8.384v36.83zm0-40.116c4.613 4.254 7.042 5.472 10.694 5.472 8.13 0 13.596-7.773 13.596-18.955 0-14.96-6.793-21.03-16.995-21.03-5.476 0-7.295 2.426-7.295 7.66m94.396 17.869c-1.698 12.632-11.051 20.655-24.06 20.655-14.453 0-25.506-10.814-25.506-25.036 0-13.981 10.683-24.421 25.025-24.421 11.055 0 20.405 6.066 24.54 15.91h-2.063c-4.375-6.679-9.724-9.967-16.401-9.967-8.51 0-17.01 7.781-16.284 22.859h34.749zm-34.75 2.79c.366 8.75 4.122 14.584 9.725 14.584 5.584 0 9.71-6.073 10.2-14.584m58.801.123c-4.008 3.883-7.17 5.956-10.327 5.956-4.127 0-6.681-1.7-10.203-6.563v-18.727c0-5.472 1.09-7.154 7.76-8.503v-2.072h-29.147v2.072c6.083 1.47 7.652 3.283 7.652 8.503v24.202c0 5.83-2.54 8.504-8.364 8.987v2.07l20.028 1.817h2.07v-14.584h.247c4.49 9.968 9.473 14.584 15.182 14.584 3.032 0 5.95-1.345 8.138-3.887m74.342 2.069v-2.069c5.839-1.217 7.163-4.859 3.029-14.588l-6.316-14.705-9.715 20.056c-2.803 5.84-2.803 8.508 2.415 9.237v2.07H655.88v17.737h-2.307c-6.453-8.263-13.977-15.564-19.688-19.076v-2.313h8.259v-29.414c0-10.447 6.927-14.574 15.549-14.574 6.811 0 11.31 2.428 14.701 8.138l-1.452 1.331c-2.192-2.56-4.264-3.643-6.68-3.643-6.441 0-8.382 4.37-8.382 11.787v26.375h12.283c6.684 0 8.633-2.438 11.539-8.629l16.759-35.359c-5.581-15.07-10.438-21.154-18.935-21.154-1.837 0-3.293.116-6.21 1.092l-2.788-13.854c1.709-.249 2.669-.249 3.883-.249 9.482 0 14.705 4.016 19.567 15.194l23.074 52.753c3.773 8.503 5.227 10.206 11.059 11.788v2.07M471.947 2051.7c.838-6.191 3.89-9.724 10.813-11.051v-2.057h-35.116v2.057c7.77 1.94 9.11 6.43 7.77 15.66l-5.823 40.609h-.247l-23.082-58.326h-2.55l-22.847 58.326h-.235l-6.198-41.814c-1.219-8.266.363-13.85 8.376-14.455v-2.057h-25.745v2.057c7.647.346 10.928 4.737 12.624 15.66l7.06 46.442c-2.803 2.914-6.688 4.745-10.332 4.872v2.053h25.628l18.59-46.912 18.828 46.912h24.061v-2.053c-7.29-1.347-8.99-4.992-8.02-11.56m22.824-21.642c0 5.113-1.696 6.942-7.163 7.911v2.071l18.832 1.824h2.066v-33.792c0-5.476 3.52-8.015 8.514-8.015 4.606 0 7.407 1.93 11.413 8.267v22.838c0 3.772-2.437 5.953-7.167 6.807v2.071l18.818 1.824h2.073v-36.468c0-6.067 1.223-7.537 7.302-9.11v-2.057l-21.026-1.832v11.167h-.246c-5.095-7.762-10.815-11.167-18.223-11.167-9.473 0-15.193 5.216-15.193 13.97m65.254 30.033h-8.27v2.3c5.703 3.526 13.244 10.818 19.677 19.08h2.323v-17.74h15.057v-3.64H567.31v-26.384c0-7.42 1.934-11.79 8.373-11.79 2.42 0 4.495 1.102 6.684 3.648l1.456-1.344c-3.399-5.714-7.898-8.134-14.707-8.134-8.617 0-15.536 4.12-15.536 14.582m37.653 23.08c0 5.113-1.712 6.942-7.172 7.911v2.071l18.836 1.824h2.071v-33.792c0-5.476 3.517-8.015 8.481-8.015 4.628 0 7.425 1.93 11.433 8.267v22.838c0 3.772-2.427 5.953-7.168 6.807v2.071l18.832 1.824h2.068v-36.468c0-6.067 1.221-7.537 7.284-9.11v-2.057l-21.016-1.832v11.167h-.238c-5.108-7.762-10.817-11.167-18.238-11.167-9.464 0-15.173 5.216-15.173 13.97m99.863 18.356c0 12.647-10.333 17.14-20.174 17.14-10.692 0-18.097-5.72-20.53-15.56h1.834c2.902 5.103 7.518 7.652 13.724 7.652 8.263 0 11.422-3.897 11.422-12.037-11.184-4.123-29.396-5.104-29.396-17.488 0-6.69 6.189-12.034 13.73-12.034 5.579 0 9.825 1.327 14.44 5.463l1.1.972c2.304-4.602 5.468-6.435 11.047-6.435 6.69 0 10.703 3.166 11.178 8.862h-1.938c-.486-2.794-1.703-4.25-3.647-4.25-2.064 0-2.79 1.823-2.79 6.074v21.641zm-13.85-22.605c-3.158-3.168-5.83-4.745-8.623-4.745-3.77 0-6.323 3.291-6.323 8.256 0 6.204 3.52 8.998 14.947 13.87m31.706 38.281c0 6.433-2.07 8.746-8.626 9.124v2.053l20.284 1.342h2.077v-64.902c0-6.068 1.331-7.537 8.124-9.11v-2.057h-30.485v2.057c6.683 1.087 8.626 3.27 8.626 9.11m33.235-2.654h1.54c1.036 0 1.892.128 1.892 1.322 0 1.05-1 1.22-1.868 1.22h-1.564v-2.542zm-1.654 3.806h3.385c2.183 0 3.353-.74 3.353-2.61 0-1.61-1-2.26-2.239-2.393l2.395-3.898h-1.79l-2.238 3.828h-1.212v-3.828h-1.654v8.901zm3.11-10.725c3.322 0 6.061 2.647 6.061 6.417 0 3.76-2.739 6.422-6.06 6.422-3.374 0-6.072-2.662-6.072-6.422 0-3.77 2.698-6.417 6.072-6.417zm0 14.628c4.213 0 7.978-3.316 7.978-8.21 0-4.898-3.765-8.204-7.978-8.204-4.22 0-7.99 3.306-7.99 8.203 0 4.895 3.77 8.211 7.99 8.211" fill="#919295"/></g></svg>