<svg height="56" width="191.9" viewBox="0 0 191.89999 56" xmlns="http://www.w3.org/2000/svg"><path d="M68.1 18.2V9.7h1.7v7.1h3.9v1.5h-5.6zm11.9 0l-.5-1.5h-3l-.5 1.5h-1.7l3.1-8.5h1.3l3.1 8.5H80zm-2-6l-1.1 3.1H79l-1-3.1zm8.5 6h-3.6V9.7h3.4c1.7 0 2.6.9 2.6 2.4 0 .9-.6 1.6-1.1 1.8.5.2 1.2.8 1.2 1.9.1 1.6-1 2.4-2.5 2.4zm-.3-7h-1.6v2h1.6c.7 0 1.1-.4 1.1-1s-.4-1-1.1-1zm.1 3.4h-1.7v2.1h1.7c.8 0 1.1-.5 1.1-1.1 0-.6-.3-1-1.1-1zm9.8 2.8c-.6.6-1.3.9-2.3.9-1 0-1.7-.3-2.3-.9-.9-.9-.9-1.8-.9-3.4 0-1.6 0-2.6.9-3.4.6-.6 1.3-.9 2.3-.9 1 0 1.7.3 2.3.9.9.9.9 1.8.9 3.4-.1 1.6-.1 2.5-.9 3.4zm-1.2-5.9c-.2-.3-.6-.5-1.1-.5-.5 0-.8.2-1.1.5-.3.4-.4.8-.4 2.4 0 1.6.1 2 .4 2.4.3.3.6.5 1.1.5.5 0 .8-.2 1.1-.5.3-.4.4-.8.4-2.4 0-1.6-.1-2-.4-2.4zm8.4 6.7l-1.7-3.4h-1.2v3.4h-1.7V9.7h3.3c1.7 0 2.8 1.2 2.8 2.6 0 1.2-.7 1.9-1.6 2.2l1.9 3.7h-1.8zm-1.3-7h-1.6v2.3h1.6c.7 0 1.2-.5 1.2-1.1 0-.6-.5-1.2-1.2-1.2zm9.6 7l-.5-1.5h-3l-.5 1.5h-1.7l3.1-8.5h1.3l3.1 8.5h-1.8zm-2-6l-1.1 3.1h2.1l-1-3.1zm7.3-1v7.1h-1.7v-7.1H113V9.7h6.1v1.5h-2.2zm8.7 6.2c-.6.6-1.3.9-2.3.9-1 0-1.7-.3-2.3-.9-.9-.9-.9-1.8-.9-3.4 0-1.6 0-2.6.9-3.4.6-.6 1.3-.9 2.3-.9 1 0 1.7.3 2.3.9.9.9.9 1.8.9 3.4-.1 1.6-.1 2.5-.9 3.4zm-1.3-5.9c-.2-.3-.6-.5-1.1-.5-.5 0-.8.2-1.1.5-.3.4-.4.8-.4 2.4 0 1.6.1 2 .4 2.4.3.3.6.5 1.1.5.5 0 .8-.2 1.1-.5.3-.4.4-.8.4-2.4.1-1.6 0-2-.4-2.4zm8.5 6.7l-1.7-3.4h-1.2v3.4h-1.7V9.7h3.3c1.7 0 2.8 1.2 2.8 2.6 0 1.2-.7 1.9-1.6 2.2l1.9 3.7h-1.8zm-1.3-7h-1.6v2.3h1.6c.7 0 1.2-.5 1.2-1.1 0-.6-.5-1.2-1.2-1.2zm7.9 3.5v3.5h-1.7v-3.5l-2.6-5h1.8l1.6 3.4 1.6-3.4h1.8l-2.5 5zm8.2-3.5v2.1h3.4v1.5h-3.4v3.5h-1.7V9.8h5.6v1.5h-3.9zm10.4 6.2c-.6.6-1.3.9-2.3.9-1 0-1.7-.3-2.3-.9-.9-.9-.9-1.8-.9-3.4 0-1.6 0-2.6.9-3.4.6-.6 1.3-.9 2.3-.9 1 0 1.7.3 2.3.9.9.9.9 1.8.9 3.4 0 1.6 0 2.5-.9 3.4zm-1.2-5.9c-.2-.3-.6-.5-1.1-.5-.5 0-.8.2-1.1.5-.3.4-.4.8-.4 2.4 0 1.6.1 2 .4 2.4.3.3.6.5 1.1.5.5 0 .8-.2 1.1-.5.3-.4.4-.8.4-2.4 0-1.6-.1-2-.4-2.4zm8.5 6.7l-1.7-3.4h-1.2v3.4h-1.7V9.7h3.3c1.7 0 2.8 1.2 2.8 2.6 0 1.2-.7 1.9-1.6 2.2l1.9 3.7h-1.8zm-1.3-7h-1.6v2.3h1.6c.7 0 1.2-.5 1.2-1.1 0-.6-.5-1.2-1.2-1.2zM71.4 25.6v7.1h-1.7v-7.1h-2.2v-1.5h6.1v1.5h-2.2zm3.7 7v-8.5h5.6v1.5h-4v2h3.4v1.5h-3.4v2.1h4v1.5h-5.6zm7.4 0v-8.5h1.7v7.1H88v1.5h-5.5zm7 0v-8.5h5.6v1.5h-4v2h3.4v1.5h-3.4v2.1h4v1.5h-5.6zm10.2.1c-1 0-1.7-.3-2.3-.9-.9-.9-.9-1.8-.9-3.4 0-1.6 0-2.6.9-3.4.6-.6 1.3-.9 2.3-.9 1.6 0 2.8.9 3.1 2.7h-1.7c-.2-.7-.6-1.2-1.4-1.2-.5 0-.8.2-1.1.4-.3.4-.4.8-.4 2.4 0 1.6.1 2.1.4 2.4.2.3.6.4 1.1.4.8 0 1.3-.5 1.4-1.2h1.7c-.3 1.8-1.5 2.7-3.1 2.7zm9.7-.9c-.6.6-1.3.9-2.3.9-1 0-1.7-.3-2.3-.9-.9-.9-.9-1.8-.9-3.4 0-1.6 0-2.6.9-3.4.6-.6 1.3-.9 2.3-.9 1 0 1.7.3 2.3.9.9.9.9 1.8.9 3.4 0 1.6 0 2.5-.9 3.4zm-1.2-5.9c-.2-.3-.6-.5-1.1-.5-.5 0-.8.2-1.1.5-.3.4-.4.8-.4 2.4 0 1.6.1 2 .4 2.4.3.3.6.5 1.1.5.5 0 .8-.2 1.1-.5.3-.4.4-.8.4-2.4 0-1.6-.1-2-.4-2.4zm10 6.7v-5l-1.6 3.2h-1.1l-1.6-3.2v5h-1.7v-8.5h1.6l2.2 4.6 2.2-4.6h1.6v8.5h-1.6zm9.8 0v-5l-1.6 3.2h-1.1l-1.6-3.2v5H122v-8.5h1.6l2.2 4.6 2.2-4.6h1.6v8.5H128zm6.8.1c-1.8 0-3.1-1.2-3.1-3v-5.6h1.7v5.6c0 1 .6 1.6 1.5 1.6s1.5-.6 1.5-1.6v-5.6h1.7v5.6c-.1 1.8-1.5 3-3.3 3zm10.2-.1l-3.4-5.2v5.2H140v-8.5h1.5l3.4 5.2v-5.2h1.7v8.5H145zm3.6 0v-8.5h1.7v8.5h-1.7zm6.6.1c-1 0-1.7-.3-2.3-.9-.9-.9-.9-1.8-.9-3.4 0-1.6 0-2.6.9-3.4.6-.6 1.3-.9 2.3-.9 1.6 0 2.8.9 3.1 2.7h-1.7c-.2-.7-.6-1.2-1.4-1.2-.5 0-.8.2-1.1.4-.3.4-.4.8-.4 2.4 0 1.6.1 2.1.4 2.4.2.3.6.4 1.1.4.8 0 1.3-.5 1.4-1.2h1.7c-.2 1.8-1.5 2.7-3.1 2.7zm9.5-.1l-.5-1.5h-3l-.5 1.5H159l3.1-8.5h1.3l3.1 8.5h-1.8zm-2-6l-1.1 3.1h2.1l-1-3.1zm7.3-1v7.1h-1.7v-7.1h-2.2v-1.5h6.1v1.5H170zm3.7 7v-8.5h1.7v8.5h-1.7zm8.9-.8c-.6.6-1.3.9-2.3.9-1 0-1.7-.3-2.3-.9-.9-.9-.9-1.8-.9-3.4 0-1.6 0-2.6.9-3.4.6-.6 1.3-.9 2.3-.9 1 0 1.7.3 2.3.9.9.9.9 1.8.9 3.4 0 1.6 0 2.5-.9 3.4zm-1.2-5.9c-.2-.3-.6-.5-1.1-.5-.5 0-.8.2-1.1.5-.3.4-.4.8-.4 2.4 0 1.6.1 2 .4 2.4.3.3.6.5 1.1.5.5 0 .8-.2 1.1-.5.3-.4.4-.8.4-2.4 0-1.6-.1-2-.4-2.4zm9 6.7l-3.4-5.2v5.2h-1.7v-8.5h1.5l3.4 5.2v-5.2h1.7v8.5h-1.5zM70.5 47.1c-1.3 0-2.3-.3-3.1-1.1l1.1-1.1c.5.5 1.3.7 2.1.7 1 0 1.5-.4 1.5-1.1 0-.3-.1-.5-.3-.7-.2-.2-.3-.2-.8-.3l-1-.2c-.8-.1-1.3-.3-1.7-.7-.4-.4-.6-1-.6-1.7 0-1.5 1.1-2.6 3-2.6 1.2 0 2 .3 2.8 1l-1.1 1c-.6-.4-1.2-.4-1.8-.4-.9 0-1.3.5-1.3 1.1 0 .2.1.4.2.6.2.2.4.3.8.3l1 .2c.8.1 1.3.3 1.6.7.5.4.7 1 .7 1.8 0 1.6-1.3 2.5-3.1 2.5zm7.7 0c-1 0-1.7-.3-2.3-.9-.9-.9-.9-1.8-.9-3.4 0-1.6 0-2.6.9-3.4.6-.6 1.3-.9 2.3-.9 1.6 0 2.8.9 3.1 2.7h-1.7c-.1-.8-.6-1.3-1.4-1.3-.5 0-.8.2-1.1.4-.3.4-.4.8-.4 2.4 0 1.6.1 2.1.4 2.4.2.3.6.4 1.1.4.8 0 1.3-.5 1.4-1.2h1.7c-.3 1.9-1.5 2.8-3.1 2.8zm4.7-.1v-8.5h1.7V47h-1.7zm3.8 0v-8.5h5.6V40h-4v2h3.4v1.5h-3.4v2.1h4v1.5h-5.6zm12.4 0l-3.4-5.2V47H94v-8.5h1.5l3.4 5.2v-5.2h1.7V47h-1.5zm6.4.1c-1 0-1.7-.3-2.3-.9-.9-.9-.9-1.8-.9-3.4 0-1.6 0-2.6.9-3.4.6-.6 1.3-.9 2.3-.9 1.6 0 2.8.9 3.1 2.7H107c-.2-.7-.6-1.2-1.4-1.2-.5 0-.8.2-1.1.4-.3.4-.4.8-.4 2.4 0 1.6.1 2.1.4 2.4.2.3.6.4 1.1.4.8 0 1.3-.5 1.4-1.2h1.7c-.3 1.8-1.6 2.7-3.2 2.7z"/><path d="M110.2 47v-8.5h5.6V40h-4v2h3.4v1.5h-3.4v2.1h4v1.5h-5.6z" class="st0"/><path d="M120 47.1c-1.3 0-2.3-.3-3.1-1.1l1.1-1.1c.5.5 1.3.7 2.1.7 1 0 1.5-.4 1.5-1.1 0-.3-.1-.5-.3-.7-.2-.2-.3-.2-.8-.3l-1-.2c-.8-.1-1.3-.3-1.7-.7-.4-.4-.6-1-.6-1.7 0-1.5 1.1-2.6 3-2.6 1.2 0 2 .3 2.8 1l-1.1 1c-.5-.5-1.2-.6-1.8-.6-.9 0-1.3.5-1.3 1.1 0 .2.1.4.2.6.2.2.4.3.8.3l1 .2c.8.1 1.3.3 1.6.7.5.4.7 1 .7 1.8 0 1.8-1.3 2.7-3.1 2.7zM28 0C12.6 0 0 12.6 0 28s12.6 28 28 28 28-12.6 28-28S43.4 0 28 0zm0 55C13.1 55 1 42.9 1 28S13.1 1 28 1s27 12.1 27 27-12.1 27-27 27z"/><path d="M28 9.1c-10.5 0-19 8.5-19 19s8.5 19 19 19 19-8.5 19-19-8.5-19-19-19zm17.6 15.5c-1.4-1-3-2.1-4.9-3 .1-2.7-.3-5.1-.7-6.8 2.9 2.5 4.9 5.9 5.6 9.8zm-8.7 7c0-2.6-.4-5.3-1.4-7.8-.6-1.4-1.3-2.6-2-3.8 2.2.4 4.4 1.2 6.3 2.1-.2 3-1 6.3-2.9 9.5zM23.2 12.4c2.7 1.4 5.6 3.5 8 6.4-2.1-.1-4.2.1-6.4.8-3.9 1.3-6.9 3.9-9.3 6.9.5-5.9 4-10.7 7.7-14.1zm2 8.1c2.3-.8 4.6-.9 6.9-.7 1 1.3 1.8 2.8 2.5 4.4 1.2 3 1.5 6.1 1.3 9-.4.5-.8 1-1.2 1.4-4.7 5.3-10.4 7.1-14.6 7.8-2.3-4-4.5-9-4.6-14.2 2.4-3.4 5.6-6.3 9.7-7.7zm13.6-6.8c.5 1.6 1 4.3 1 7.4-2.2-1-4.6-1.9-7.2-2.2-2.5-3.3-5.7-5.6-8.6-7.2.5-.4 1-.8 1.4-1.2l.2-.2c.8-.1 1.6-.2 2.4-.2 4 0 7.8 1.3 10.8 3.6zM23 11.1c-.2-.1-.3-.2-.5-.2.4-.1.7-.2 1.1-.3-.2.2-.4.4-.6.5zm-1.8.3c.3.2.7.3 1 .5-4 3.8-7.7 9.2-7.7 15.7v.3c-1.4 2-2.6 4.1-3.5 6.1-.6-1.9-1-3.8-1-5.9 0-7.6 4.7-14 11.2-16.7zm-9.7 23.9c.8-1.9 1.8-3.9 3.1-5.8.4 4.8 2.4 9.3 4.5 13-.6.1-1.1.1-1.5.1-2.7-1.8-4.7-4.4-6.1-7.3zm8.1 8.1c.1.2.3.5.4.7l-1.2-.6c.3 0 .6 0 .8-.1zm2.1 1.5c-.3-.5-.7-1-1-1.6 4.3-.7 10-2.7 14.7-7.9.1-.1.1-.2.2-.2-.7 4.2-2.2 7.9-3.5 10.5-1.3.3-2.6.5-4 .5-2.3-.2-4.4-.6-6.4-1.3zm11.6.3c1.4-2.9 3-7.1 3.4-11.6 2.6-3.6 3.7-7.5 3.9-10.9 2 1.1 3.8 2.3 5.1 3.3.1.7.1 1.4.1 2 .2 8.1-5.2 14.9-12.5 17.2z"/></svg>