<svg xmlns="http://www.w3.org/2000/svg" viewBox="0 0 233.3 233.3"><path d="M116.6 0C52.2 0 0 52.2 0 116.6 0 181 52.2 233.2 116.6 233.2c64.4 0 116.6-52.2 116.6-116.7C233.3 52.2 181.1 0 116.6 0zm0 3.4c62.5 0 113.2 50.7 113.2 113.2s-50.7 113.2-113.2 113.2S3.4 179.1 3.4 116.6C3.4 54 54.1 3.4 116.6 3.4zm.3 4l-.6 9.7c-.1 1 0 2 .2 2.9.7 3.1 3.7 4.2 6.6 4.4 1.6.1 3.2-.1 4.6-1 2.6-1.5 2.7-4 2.9-6.7l.5-8.4c-.6.1-1.3 0-1.9-.1l-.4 7.2c-.1 1.2-.2 3.9-.7 4.9-1 2-2.2 2.7-4.4 2.6-1-.1-1.9-.4-2.6-1.2-.8-.9-.9-1.6-1.1-2.8-.1-1.2 0-3.2.1-4.5l.4-6.7h-1.8c-.7-.1-1.2-.2-1.8-.3zm-8.8.2c-.4 0-.8 0-1.2.1-5.2.6-9.1 3.8-8.4 10 .5 4.8 4.7 7.5 9.7 7 1.6-.2 3.2-.6 4.6-1.5l.3-2.1-.3-.1c-1 1.1-2.6 2.1-4 2.2-3.6.4-5.9-2.2-6.4-6.2-.4-3.5.8-7.4 4.7-7.8 1.5-.2 3.1.6 4.2 1.7h.3c.1-.9.2-1.7.3-2.5-1.1-.6-2.5-.8-3.8-.8zm28.7 1.7l-3.7 15.8 1.8.3c.6.1 1.1.3 1.7.5l1.8-7.4h.2c.3 1 .7 2.2.9 2.9L141 27c.7.1 1.4.2 2.1.4l2.1.6-.6-1.6c-.9-2.5-1.8-4.9-2.6-7.4 2.3 0 4.1-1 4.6-3.3.4-1.6-.1-2.8-1.2-3.8-.9-.7-2.5-1.1-3.6-1.4l-5-1.2zm-42.4.6l-8.8 2.3 4 15.6 8.8-2.3c-.1-.3-.3-.6-.4-1 0-.3-.1-.7-.1-1-1.4.5-2.9 1.1-5.2 1.7l-1.5-5.8 2.4-.6c1-.3 2-.4 2.9-.5-.1-.3-.3-.6-.4-1-.1-.3-.1-.7-.1-1-.8.3-1.7.7-2.8.9l-2.4.6-1.3-4.9c2.3-.6 4-.9 5.4-1-.1-.3-.3-.6-.4-1 .1-.3-.1-.7-.1-1zm45.6 1.5c1.4.3 3.2.6 3.1 2.6 0 .5-.1.9-.1 1.2-.6 2.4-2.1 3.2-4.4 2.4l1.4-6.2zm12.5 2.2l-5.6 15.3c.6.2 1.2.3 1.7.5.6.2 1.1.5 1.6.7l5.6-15.3c-.6-.2-1.2-.3-1.7-.5-.6-.2-1.1-.5-1.6-.7zm-72.2.5c-.8 0-1.8.1-2.8.5-3.4 1.3-4.3 4.1-3.3 6.6 2.1 5.3 8.2 1.5 9.6 5 .6 1.5-.3 2.8-1.7 3.3-1.5.6-3.1.2-4-1.2l-.4.2c.2 1 .4 2 .5 3.1 1.3.3 2.7 0 3.9-.4 3.4-1.3 5.1-4.3 3.9-7.2-2-5.1-8.5-1.9-9.7-4.9-.5-1.3-.2-2.4 1.6-3.1 1.3-.5 2.4-.1 3.3.9l.3-.1c-.1-.8-.1-1.7-.2-2.5-.2-.2-.6-.2-1-.2zm79.2 2l-.3.9c-.1.3-.4.6-.6.9 1.2.4 2.6.9 4.1 1.6l-6.4 13.1c.6.2 1.1.4 1.7.7l1.5.9 6.4-13.1c1.3.6 2.5 1.4 3.7 2.2.1-.3.2-.6.3-1 .1-.3.4-.6.6-.8l-11-5.4zm13.2 6.6c-.3 3.6-.8 7.1-1.1 10.7l-3.9 5.7c.5.3 1.1.6 1.5.9.5.3.9.7 1.4 1.1l4.1-6.1c2.9-1.7 6.1-3 9.2-4.6-.3-.2-.7-.4-1-.6-.3-.2-.6-.4-.9-.7-1.9 1.2-5.6 3.4-6.9 3.8-.1-.4.1-1.7.4-3.2.2-1.5.5-3.2.7-4.6-.6-.4-1.2-.7-1.8-1.1-.6-.4-1.1-.8-1.7-1.3zM58.2 24.8c-.5.4-.9.7-1.4 1-.5.3-1 .6-1.6.9l8.6 13.6 7.6-4.8c-.2-.2-.5-.5-.6-.8-.2-.3-.3-.6-.4-.9-1.3 1-2.7 2.1-4.4 3.2l-7.8-12.2zm58.4 2.1C67.1 26.9 27 67.1 27 116.6s40.1 89.6 89.6 89.6c49.5 0 89.6-40.1 89.6-89.6.1-49.5-40.1-89.7-89.6-89.7zm0 2.2c48.3 0 87.4 39.1 87.4 87.4 0 48.3-39.1 87.4-87.4 87.4-48.3 0-87.4-39.1-87.4-87.4 0-48.2 39.2-87.4 87.4-87.4zm-69.8 3.8l-.6.6c-.2.2-.5.4-.7.5L51 50.9l.8-.8c.3-.2.6-.4.9-.7-.7-1.5-1.2-3-1.9-4.8L55 41c1.5.8 2.9 1.7 4.5 2.7.5-.5.9-1 1.5-1.4.5-.4 1.1-.8 1.6-1.2l-15.8-8.2zm1.6 4.6l5.2 2.8-3.3 2.8-1.9-5.6zm147.9 4.1l-16.6 6.2c.3.3.6.5.8.8.3.3.5.6.7.9 1.5-.8 3-1.4 4.7-2.1l3.8 4c-.7 1.6-1.6 3-2.5 4.6.5.5 1 .9 1.5 1.4.5.5.9 1 1.3 1.6l7.5-16.1c-.2-.2-.5-.4-.7-.6-.1-.2-.3-.4-.5-.7zm-158.9.1c-.2.3-.4.5-.5.8-.2.2-.4.5-.7.7l8.6 7.1c-5.1.1-10.1.6-15.1.8l-1.5 1.8 12.5 10.3c.2-.3.3-.5.6-.8.2-.2.4-.5.7-.7l-9-7.3 3.7-.3c3.9-.3 7.8-.4 11.9-.5l1.3-1.5-12.5-10.4zm155.6 3l-2.6 5.3-2.9-3.2 5.5-2.1zm-40.7 7.1v.1c-2.3.1-4.7.6-6.7 1h-.1c-2 .8-4.4 2-6.4 3.6-1.9 1.6-3.5 3.8-3.4 6.6-.2 4.4 2.2 7.7 2.6 11.6-.1 2.2-1.4 4.2-3.3 5.9-1.9 1.7-4.1 3-5.8 4l-.7.4h-1.9c-.2-1.3-.8-3.2-1.2-4.4.1-1.1-.2-2.1-.4-2.9-.3-.9-.4-1.4-.2-1.8l.2-.4-.2-.4c-1.1-3.1-1.4-6.1-1.5-9.6v-.2c-.4-1.7-.6-3.8-1.3-5.8h.1l-.4-.9c-.6-1.5-1.9-2.4-3.2-3-1.3-.6-2.6-.9-3.5-1.1-1-.2-2.2-.4-3.2-.4-.5 0-.9-.1-1.2-.1h-.6c-.6 0-1.2.1-1.8.3-.3.1-.7.3-.9.6-.1.1-.2.3-.3.4l-2.2-.2h-2c-.6 0-1.1.1-1.6.2-.6.2-1.1.4-1.6.8l-.2.2-.6 1.1c-.1.1-.1.2-.2.4-.7 2-.2 4 0 5.9l.1.9.3 2.8 1-3.2.2-.2c.4.1 1.7.7 4.6 2.1 0 .1.1.2.1.2v.3l.3.2c.3.3.4.5.5.7.1.2.1.5.1 1l-.9 2.4-.7 2.7v.2c0 .2-.2.7-.6 1.3-.3.6-.7 1.3-.7 2.2-.4.8-.9 1.9-.8 3.1l-2 4.9h-4.7l.1-.2c-2.3-1.1-4.9-2.4-6.4-4.5-.5-2.8.4-5.5 1.1-8.3.8-2.8 1.4-5.7.1-8.8-2.2-3.9-5.8-5.9-9.8-6.6-1.2-.2-2.5-.3-3.7-.3-.8 0-1.5.1-2.3.1-2 .2-3.9.7-5.7 1.3-6 3.5-9.2 8.9-11.1 14.8-1.9 5.9-2.6 12.5-3.6 18.5l-1.9 27.6c-.5 6.8.4 13.6-.3 20.1l-.1.8.7-.2c1.4-.5 2.7-1.3 3.8-2.4.7 4.2.3 8.9-.1 13.2l-.1.6h.6c2.1 0 3.8-1.4 5-3-.1 4-.7 8-1.7 11.9l-.1.2.4 1 .2.1c1.2.4 2.4.1 3.4-.3.9-.4 1.6-.9 2.4-1.4-.3 1.5-.5 3.1-.7 4.6h-2c-2.2 0-4 1.7-4.1 3.9v.1c.1 2.1 1.8 3.7 3.9 3.8v3.4h2.2v1.4h-2.1v5.9h10.7v-5.9h-1.6v-1.4H76v1.4h-1.6v5.9h10.8v-5.9H83v-1.4h2.2v-3.4h11.2l-.1.3v.2l1.7 2.3c0 .1.1.1.2.1l2.8-1.1.1.1h-.1l1.9 2.4c0 .1.1.1.2.1l2.7-1.1h.1-.1l2 1.6h.2l2.7-1h.1l3.7 2h.2l3.8-2 2.6 1h.2l2-1.6h-.1c.1 0 .1 0 .1-.1l2.7 1.2c.1 0 .2 0 .2-.1l1.9-2.4h-.1c.1 0 .1 0 .1-.1l2.6 1h.2c.1 0 .2 0 .2-.1l1.7-2.3v-.2l-.1-.3h.4v.1l.5.1s.5.1 1.1-.1h7.8l-.1.2.5-.2h6.5c.1.8.7 1.4 1.5 1.4s1.4-.6 1.5-1.4h1.4c.1 0 .3.1.3 0 .1.1.4.6.4.6v-.1c1 2.2 2.7 4.5 4.8 6.4 2.1 1.9 4.6 3.2 7.1 3.2 2.4 0 4.4-1.1 5.9-2.7s2.6-3.6 3.6-5.7c0 0 .3-.7.8-1.6.4-.9 1-1.8 1.2-2.1.9-.9 2.7-1.2 2.7-1.2l6-.8-6-.8s-1.8-.3-2.7-1.2c-.2-.2-.8-1.2-1.3-2.1s-.7-1.6-.7-1.6c-.7-1.5-1.5-3-2.4-4.4l.2-.2-.1-.3c-1.2-3.7-1.8-7.8-2.4-11.8v-.1c1.3.6 2.4.9 3.1.7.9-.2 1.3-.7 1.3-.7l.2-.2-.1-.2c-.9-3.8-1.6-8.5-1.9-13 .3.7.7 1.4 1.2 1.9.8.8 1.8 1.4 3 1.2l2.2-.5-.1-.5c-4.9-15.3-2.5-32.7-5.6-49l.3-1.2v-.1c-1-6.1-3.9-11.3-5.9-16.9v-.1c-2.2-4.6-4.5-10.2-9.9-13.1-1.6-1.4-3.6-1.8-5.6-1.9h-1.1zm-.2 1l.1.1c2.2-.1 4.2.3 5.9 1.7v.1c5.1 2.7 7.2 8 9.5 12.7 1.9 5.5 4.7 10.6 5.7 16.2-1.3 1.1-3 2-4.6 1.4l-1.4-1.6c-2.9-5.1-5.2-10.5-7.5-15.9.7.3 2 .2 2.9-.4 1-.9 1.8-1.9 2.3-3.1-1.5 1.2-3.8 2.3-5.8 1.5l-.3-.3c-2.5 1.9-5.9 3.6-9.2 2.3-.6 1.6-1.1 3.6-2.9 4.1l-1.5.1c.4.9 1.3 1.9 1.8 2.9.3 1.6.6 3.8-.3 5.2-.5 1.5-3.4.6-2.3 2.9.2 1.6.3 3.4-.6 4.6-1.4 1.5-3.2 2.8-4.9 2.6-.2 1.1-1.5 3-2 3.8-.2-5.1-1.1-8.6-1.1-8.6l-.1-.4H131c1.4-.9 3-1.9 4.5-3.2 1.9-1.8 3.5-4 3.6-6.6v-.1c-.4-4.2-2.7-7.4-2.6-11.5v-.1c-.1-2.4 1.2-4.3 3.1-5.9 1.8-1.5 4.1-2.7 6.1-3.5 1.9-.3 4.2-.9 6.4-1zm49.8.8c-1.6 0-3.3.5-5 1.6-4.7 3-4.4 8.1-1.6 12.3 1.1 1.7 2.7 3.3 4.4 4.7l5.5-3.6c-.4-.5-.7-.9-1.1-1.4-.3-.5-.6-1-.9-1.6l-4.6 3c-.6-.3-1.3-.8-2-1.8-2-3-1.1-6.1 2.4-8.4 3.3-2.2 7.4-2.5 9.6.8 1 1.6 1.2 3.4.5 5.2l.2.3c.8-.4 1.6-.6 2.4-.7-.1-2.1-.8-3.9-1.9-5.6-2-2.9-4.8-4.8-7.9-4.8zm-92.3 1.3h.4s3 .1 4.8.5c.2 0 .5.1.7.2h.2c.2.1.4.1.6.2.1 0 .2.1.3.1.2.1.3.1.5.2s.4.2.6.2c.1 0 .1.1.2.1.2.1.3.1.4.2.1.1.3.1.4.2.1.1.2.2.4.2 0 0 .1 0 .1.1.1.1.2.2.3.2l.1.1c.1.1.2.2.3.2l.1.1c.1.1.1.2.2.3l.1.1c.1.1.1.2.2.3 0 0 0 .1.1.1.1.1.2.3.2.4.9 2 1 4.3 1.5 6.5.1 3.5.4 6.7 1.6 10-.7 1.7 1.1 3.5.6 5.4.3 1.1.9 2.8 1.1 3.9 0 .2.1.3.1.4h-.5l-1.8-4.4.6-.1-1.4-4.3.6.1-1.7-3.6.7.1-.7-3.6h.4l-.7-2.7.7-.1-1.1-3.4.7 3.2-.8-.1.9 2.8-.7-.1 1 3.7-.9-.1 1.6 3.6s-1.1-.5-.8-.1c.3.4 1.7 4.4 1.7 4.4l-.8.1 1.9 4.7h-.8c-1.1-.7-1.1-1.2-1.7-1.6-.2.2.3.6.4.8l.5.7h-6c.3-.5.9-1 .3-1.2h-.1c-.7 0-1.3 1-1.8 1.2h-6.1c-.2-.5.9-1 .5-1.3-.8 0-1.6 1.1-2.2 1.3h-4.2c-.3-.3 1.1-.6.8-.9-.6.2-1.2.8-1.8.9h-.9l1.8-4.4c-.3-1 .4-2.2.9-3.2-.2-1.4 1.3-2.6 1.3-3.9l.7-2.5.9-2.6v-1.6c-.1-.2-.2-.4-.2-.6-.2-.2-.3-.5-.5-.7-4.4-2.2-6-2.7-6.1-2.7l.4-.6s.1-.2.3-.4c-.1.1-.2.2-.3.4 2.4.9 2.7 1 4.9 2.7l-1.2-1.1s-1-.9-3.5-1.9c.2-.2.3-.4.5-.4 2-.6 3.1.1 3.1.1l1.2.6 3 1.4s.6 0 0-.2c-2-.9-3.8-3-6.1-3-.4 0-.8.1-1.3.3-.9.5-1.4 1.9-1.8 2.8l-.1.1c-.2-2.6-.9-5 .5-7.1.1-.1.3-.2.4-.3l.1-.1c.1 0 .1-.1.2-.1s.1-.1.2-.1.2-.1.2-.1c.1 0 .2-.1.3-.1h.1c.1 0 .2-.1.3-.1h.2c.1 0 .2 0 .3-.1h.1c.3 0 .7-.1 1-.1 1.1 0 2.3.1 3.3.3.3.1.7.1 1 .1-.1-.4.5-.8 1.1-1 .1 0 .2-.1.3-.1h.4l.2.1zm-1.9 1.2l.5 1.3c.5 1.5.1 1.7.2 2.1l.2.5c1.1-1.2.5-2.6-.9-3.9zm-6.3.5c-1.6.1-2.1 2.1-1.9 3.9.6-1.7.7-2.8 2.2-3.9h-.3zm-24.7.8c1.2 0 2.4.1 3.6.3 3.7.7 7 2.5 9.1 5.9 1.2 2.7.6 5.4-.2 8.1-.8 2.8-1.8 5.7-1.2 8.8v.1l.1.1c1.3 1.9 3.2 3 5.1 4h-.4l-.1.4s-.6 4.1-.8 8.7l-.6 1.6c-1.4.9-2.6.2-3.9-.4-.7-1-1.8-2-1.2-3.3.4-.7 1-1.1 1.4-1.6-1.2.4-2.9 2.2-4.4.8-.6-1.6-2-3-1.3-4.9.4-.6.6-1.3 1.3-1.8-.7-.2-1.6.4-2.2-.2-1-1.5-.8-3.1-.6-5 .6-.6.9-1.3 1.7-1.7-.9-.4-2.1-1.2-1.9-2.4.2-2.7.9-5.2 2.9-7.1l-.1-.2c-2.3 2-5.1 3.7-8.2 2.6-1-.4-1.1-1.6-1.4-2.4-1.4 2.4-4.4 3-7.1 3.2-1.5-.1-2.4-1.8-3.8-2.2.6 1.1 1.8 2.5 3 3.2-.5 5.8-2.7 10.8-5.2 15.8-1.2 1.5-3.3 1.3-5 1.6.9-5.5 1.6-11.2 3.2-16.3 1.8-5.8 4.9-10.8 10.6-14.3 1.8-.6 3.6-1.1 5.5-1.3.7-.1 1.4-.1 2.1-.1zm34 1.4c-.8 0-1.2.6-1.6 1.5l-.4.3c1.1-.2 1.2 1.8 2.6 1.7 1.1.1 2.2-.7 2.7-1.8.9.1 1.7.2 2.5-.2l.1-.2c-.8.3-1.7.1-2.6-.2-1.1-.4-2.2-1.2-3.2-1.2l-.1.1zm-82.7.8c-2.6-.1-5.3 1.1-7.4 4.9-2.8 5.2-1.1 10 3.1 12.3 4.7 2.6 9.1.9 11.6-3.7 2.8-5.1 1-10.1-3.1-12.3-1.2-.7-2.7-1.2-4.2-1.2zm82.4.1h.1c-.1.6-.2 1.2.6 1.5 1 .2 1.1-.4 1.3-1.1.1-.1.8.2.8.3-.1.4-.4 1.2-1.1 1.5-.5.1-.8.2-1.3 0-.7-.2-1.2-1.1-1.2-1.7 0-.3.5-.5.8-.5zm-3.3.6c-.7 0-1.6.7-1.9.8.6.2 1.9.2 2.4 0 .2-.1-.2-.5-.1-.6-.1-.2-.3-.2-.4-.2zm31.1 0c-3.4 5.8 3.1 10.7 1.3 16.5 3.4-5.8-3.2-10.6-1.3-16.5zm-31.3 1.1c.9.8 2.8 1.7 2.3 3.3-.8.8-1.3.5-1.7.1l-3.4-2.1s2.5 1.8 3.7 2.9c1 .2 2.1-.2 2.4-1.3 0-.5-.8-1.5-1.8-2.2-.5-.1-1-.5-1.5-.7zm45.3 1.1c-.2.4.2 1.1.6 1.4l.1-.1c0-.6-.4-1-.7-1.3zm-126.1.4c1.3 0 2.7.5 3.9 1.1 3.5 1.9 5.9 5.1 4.2 8.3-1.7 3.1-5.2 2.8-8 1.3-4.7-2.5-5.9-5.4-4.4-8.4 1-1.7 2.6-2.3 4.3-2.3zm62.7.7c1.2 2.8-.5 5.6-1.2 8.1-.5 3.7-2.1 7.9 1.3 10.8-1.2-1.6-1.6-3.7-1.2-5.7.1-4.5 3.9-8.9 1.1-13.2zm-9.5 1.3c-.9.8-1 1.8-1.5 2.8.8-.9 1.7-1.7 1.5-2.8zm28.4 1.7c-.4.2-.4 1.5-.6 2.2l-1.1 2.5c.9-1.2 1.6-2.3 2.1-4.2-.1-.1-.1-.4-.4-.5zm50.7.2c2.4 5.2 4.4 10.7 7.1 15.8.1 1.2-.6 2.2-1.3 3.1-.9.6-1.9 1-3 .6-4.3-5.1-7.3-10.6-10.1-16.3 2.9.4 5.2-1.2 7.3-3.2zm-13.8.9h-.2l-.3.5c1 .6 2.2 1.4 3.1 1.4-.6-.6-1.4-1.9-2.6-1.9zm20.9.3c1.2 4.2 3 8.5 4.8 12.7-1.7-4.2-2.9-8.6-4.8-12.7zm49.4.6l-14.7 6.6 3.7 8.3c.3-.2.6-.4.9-.5.3-.1.7-.2 1-.3-.8-1.2-1.5-2.7-2.5-4.9l5.5-2.5 1 2.3c.4 1 .8 1.9 1 2.8.3-.2.6-.4.9-.5.3-.1.6-.2 1-.3-.5-.8-.9-1.6-1.4-2.6l-1-2.3 4.7-2.1c1 2.2 1.5 3.7 1.9 5.1.3-.2.6-.4.9-.5.3-.1.6-.2 1-.3l-3.9-8.3zM62.4 69.7c-.3 1.2-.5 2.3-.8 3.5.3-1.1.5-2.3.8-3.5zm-.8 3.5c-1.2 4.9-2.8 9.7-5.1 14.2 2.8-4.2 4-9.2 5.1-14.2zm11.2-3.4c.4.9 1.3 1.5 1.9 2.2-1.1 6.6-4.4 12.2-8.4 17.6-.8.7-2 .8-3 .4-.7-.3-1.3-1.1-1.8-1.7 1.9-5.1 3.9-10.2 4.7-15.8 2.7.3 4.7-1.3 6.6-2.7zm82.6.7c.8 3.8 2.9 7 4.6 10.3.9 1.3 1.5 3.3 3 3.8-2.2-4.9-5.9-9.1-7.6-14.1zm-75 .1c-.6 2.1-2.4 5.3 0 7.1-1 1.8-1.9 3.9-1.3 6.1-2.6 3.8-4.5 8.2-8.4 11.1-1.4.6-2.4-.7-2.9-1.7-1.7-3.6 2.8-5.9 3.6-9.1 1.9-3.8 3.5-7.7 4.4-11.9 1.8.3 3.3-.5 4.6-1.6zm3.3 0c-.5 1-1.6 1.2-1.6 2.2.5-.7 1.5-1.5 1.6-2.2zm66.1 0c3.4 5.4 5.4 11.7 10 16.8.4 1.9-.1 3.8-1 5.3-.8 1-1.9 1.8-3.1 1.5-3-3.7-5.9-7.5-7.9-11.6-.3-1 .6-1.9.8-2.9.3-2-.4-3.7-.9-5.4 1-1 1.7-2.3 2.1-3.7zm-78.5 2.1c-.4 1.7-.8 3.4-1.6 4.9-.2.6-.7 1.4-.2 1.8l1.8-6.4v-.3zm44.4 2.1l-1.5.8c-.4.2-2.1-.4-1.8-.3 1.4 1.2 2.1 1.6 3.3-.5zm-5.2.4c-.2 0-.4.2-.6.3-.9.5-1.6.2-2.5 0v.3c.4.2.7.5 1.2.4.8-.1 1.5-.3 2.1-.9-.1-.1-.2-.1-.2-.1zm32.5.7h-.2c.8 1.2 2.1 1.9 3.2 2.8-.1-.5-.3-1-.6-1.5-.7-.5-1.4-1.3-2.4-1.3zm-65 1c-2.1 5-4.4 9.8-7.3 14.2-.5.6-2 .4-1.7 1.5 1.5.5 2-1 3-1.7 2.2-4.5 4.4-9.1 6-14zm70.9 0c1.6 5.2 4.5 9.7 7.2 14.4.3.4 1.1 1.5 1.6.8-3.4-4.8-5.8-10.1-8.8-15.2zm-133.8.5c-.2.6-.3 1.2-.5 1.7-.2.6-.5 1.1-.7 1.6l15.3 5.6c.2-.6.3-1.2.5-1.7.2-.6.5-1.1.7-1.6l-15.3-5.6zm105.1.6c0 1.6-1.4 2-2.2 3.2-.8.4-1.7.3-2.5-.3-.1.7.3 1.2.8 1.7.9.8 1.5-.4 2.3-.5.9-1.1 2-2.6 1.6-4.1zm-6 .5c-.5 1.2-1.9 2.3-2.8 3.2-1 .2-1.7-.1-2.6-1 .3.7.2 1.6.9 2 .7.4 1.5-.2 2.1 0 1-1.2 1.9-2.6 2.4-4.2zm-6.6 1.2c-1.1.4-1.2 2.2-2.7 2.1-1-.3-.7-1.3-1.1-1.9-.3 1 0 2 .3 2.9.5.4 1-.3 1.4.1.6-1.2 2-2 2.1-3.2zm-23.5.4L82 81.4c.8-.2 1.9-.4 2.1-1.3zm-15.3.1c-1.1 3.1-2.3 6.4-4.2 8.8 1.7-.7 1.9-2.8 2.9-3.9.2-2 1.7-3 1.3-4.9zm151.6 1.1l-15.7 4.2.3.9c.1.3.1.6.2.9l11.1-3-1.9 3.2c-2 3.3-4.2 6.6-6.4 10l.5 2 15.7-4.2-.3-.9c-.1-.3-.2-.6-.2-.9L213 96.3c2.8-4.2 5.4-8.6 8-12.8l-.6-2.2zm-82.1.7c.6 1.6 1.7 3.2 3.2 4.3-.3-1.7-1.3-3.8-3.2-4.3zm7.8 1h.5c2.2 4.5 4.9 8.8 8.3 12.8.4 1.7-.6 2.8-1.6 4-.9.8-2.1 1.1-3.3.9-2.7-2.9-4.4-6.3-6.4-9.4 2-2.2 2.1-5.4 2.5-8.3zM12.5 84.4l-3 11.9c.3 0 .7 0 1 .1.3.1.7.2 1 .4.1-1.2.3-2.7.8-4.4l14.2 3.5.3-1.8c.1-.6.4-1.1.5-1.7l-14.2-3.5c.4-1.4.9-2.7 1.4-4-.3 0-.7-.1-1-.1-.4-.1-.7-.3-1-.4zm153.6.6c.7 1.7 2.8 2 4.4 1.9 1.7 13.6 1.7 27.8 5 40.8-1.8-13.5-2.8-27.6-4.2-41.4.6-.3 1.3-.6 1.8-1.2v.1c3.1 15.9.8 33.2 5.6 48.7l-1.2.3c-.7.2-1.5-.2-2.1-.9-.6-.7-1.1-1.5-1.4-2.4l-.2-.4-.3.1c-1.8-4.7-1-10.6-6.3-13.6-.6-10.1-1.3-20.2-1.9-30.3.3-.5.4-1.2.8-1.7zm-86.5.1c2.4 1 .3 4 1.8 5.7.4.8 2 .8 1.6 1.9-2.2 3.1-3.7 6.7-6.9 9.1-1.6.7-2.8-1.2-3.7-2.2-.5-.9-.7-1.8-.8-2.8 3.7-3.3 5.4-7.7 8-11.7zm7.1 1.1l-2 2.7c1-.7 1.5-1.7 2-2.7zm77.1 2l.2 1.7 1.4 28.1 1.3.9c.8 6.5.8 13.5 3.4 19.3-1.6-5.4-1.7-12-1.9-18 3.6 2.6 2.9 7.2 4.7 10.6l-.4.1v.4c.3 4.6.9 9.4 1.9 13.5-.2 0-.5 0-.8-.1-8.9-3.3-4.4-14.7-11.2-19.9L160 98.7l-.5-3.7c1-1.8 1.3-3.8 1.7-5.8l2.6-1zm-17.7 1c1.2 3.1 3.1 5.9 4.9 8.7.6.2 1.3.8 2 .4.2-1.2-1.2-.8-1.8-1.4-1.8-2.6-3.6-5-5.1-7.7zm-90.9.3c.7.8 2.1.6 2.7 1.5-.6 8.5-1.5 17-2.2 25.4-.5 5.9-.9 11.8-1.1 17.8 1.4-5.6 1.8-11.7 2.1-17.8.2-4.3.4-8.5.9-12.6l.6-12.8 2.6-1.4 2.3 2.4c-.8 8.2-1.4 16-1.5 24.4v2.1c-.4 1.7-1.8 3-2.5 4.5-2.3 4.9-1.3 11.2-6.3 14.8l.2.2c-.1.1-.2.1-.4.2.5-6.4-.2-12.9.3-19.3l1.9-27.5c.2-.6.3-1.2.4-1.9zm35.5 1.8l-.8 1.8.6-.7.2-1.1zm51.5.2c1.6 3.7 3.8 7.2 6.6 10.5.2 1.6-1.1 2.8-2.3 3.6-1.2.4-2.6-.3-3-1.6-1.1-4.1-6.6-7.4-3.6-12.2.7-.1 1.5-.2 2.3-.3zm-76.9 1.2c.5 0 .9.1 1.2 0 .6 1.6 1.4 3.2 2.7 4.4-.5 6.2-.7 12.8-1.1 19.3-.2 3.9-.5 7.8-1 11.5-2 2.3-2.5 5.2-3 8-1.9 4.5-1.5 10.4-6.7 13.2l-.2.4h.1-.2c.4-4.4.9-9.3-.1-13.7l-.2-1-.2.2c1.2-2.2 1.3-5.1 2.5-7.2.2 4.9.1 10.1.6 14.6 1.5-5.4.5-11.6.4-17.3.5-1.9 1.6-3.7 2.8-5.3.1-1.1.1-2.3.1-3.4.2-7.8.4-15.4.8-23.5.5-.2 1-.2 1.5-.2zm18.5.4c.6 1.3 1.6 3.3 3.5 3.1h.4v.7l-5.8 9.1c-.5.5-1.5.7-2.2.4-1.1-.8-2.6-1.9-2.6-3.3 3.5-2.6 4.6-6.6 6.7-10zm-5 .6c-1.1 1.8-2.3 3.5-3.8 5.2-.4.5-1.7.2-1.4 1h1.1c1.7-1.5 3.1-4 4.1-6.2zm62.1.9l3.2 8.2c.4.9 1.4 1.7 2.4 1.6.7-1.3-1.1-1.2-1.5-2.1l-4.1-7.7zm-3 1.6l5 9.8c-.8 1.8-2.8 2.4-4.5 2.6-.9-.1-2.3-.4-2.9-.8.5-2.1.9-4.1 1.1-6.1 1.2 1.9 1.3 5.3 4 5.4.4-.2.2-.6.3-.9-2.2-.9-3-3.8-4.1-5.8.1-1.1.1-2.2.2-3.2v-.5c.2-.2.5-.4.9-.5zm19.9 0c1.8 9.8 1.8 20.3 3 30.3 1.1.4 2.1 1.1 2.9 2.2.6 8.1 1.6 16.1 4.7 23.2-.4-2.8-1.4-5.6-1.7-8.4l-1-10c1.2 3.8 1.9 8.5 4.3 10.7v1.4c.6 3.9 1.3 7.9 2.4 11.7l-.3.2c-1.3-.5-2.8-.8-3.9-2-5.3-5.7-4.3-14-9.7-19.7-2-11.1-2.8-22.8-4.4-34.1 1.6-1.6 1-4.8 3.7-5.5zm-59.5 1h3.5V122l-.1-.1s-1.4-1.7-1.9-2.4c-.4-.5-1.2-1.9-1.5-2.3v-20zm7 0h3.7v32.7l-.5-.4h-.4.4c-.2-.1-.3-.3-.5-.4-.4-1.6-1.3-3-2.7-4.2V97.2zm-12.5 0h2.1v13.2c-.8-2.3-1.5-5.2-1.9-8.5-.2-1.4-.3-3.1-.2-4.7zm20 0h3.4v35.4c-1.1.6-1.7.9-1.7.9s-.6-.2-1.7-.9V97.2zm7.2 0h3.7v27.2c-.8 1.1-1.4 2.4-1.6 3.7-.1.1-.1.1-.2.1h.1v-.1c0 .1 0 .2-.1.2v-.1h-.2c-.1.1-.3.2-.4.3h.6v.1h-.6c-.1.1-.3.2-.4.3h.9v.1h-.9c-.1.1-.2.2-.4.3-1.8 1.5-3.2 2.4-4.2 3.1 2-1.3 3.6-2.6 3.6-2.6l.1-32.6zm7.2 0h3.5v20.4c0 .1-.6.8-1.5 2-.4.5-.9 1.1-1.4 1.7-.2.1-.4.1-.6.2V97.2zm6.9 0h2c-.1 4.1-.6 8.4-2 12.8V97.2zm-45.6.2c.6.5 1.3 0 2 0-.2 1.2.8 1.9 1.3 2.8 0 .5.1 1.1.1 1.5v.2c-1.9 2.3-2.6 5.4-4.8 7.8-1.5 1.2-2.8-.6-4-1.2-.3-.4-.5-.9-.6-1.4 2.9-2.8 4.3-6.3 6-9.7zm-18 .1h.2c.8 2.2 1.2 5.4 4 5.8.1 4.3.1 8.7 0 13.2-.2 6.9-.7 13.8-1.4 20.5-3.4 5.4-4.9 11.5-6.2 17.8-.5 2.5-3 4.3-5.2 5.3h-1.1v-.1c1.1-4.1 1.7-8.4 1.8-12.9v-.2l-.8-.8.6-.9 3-8.4c.3 5.6-.4 11.4-.9 16.7 2.3-6.1 2.2-13.6 1.9-20.4.3-1.6.8-3.1 2.2-4 0 0 .2-5.8.5-12.5l.9-18.9c.1-.2.3-.2.5-.2zM84 98.8c-1.3 2.2-2.8 4.8-4.8 6.4.6.1 1.1-.3 1.6-.6l3.2-5.8zm-58.8 1.4l-17 5v.9c0 .3-.1.6-.2.9l15.7 8.3v-1.1c0-.4.1-.7.2-1.1-1.6-.6-3-1.3-4.7-2.1l.5-5.5c1.6-.5 3.3-.8 5.1-1.2 0-.7 0-1.4.1-2.1 0-.6.2-1.3.3-2zm192.4.3c-.4 0-.7 0-1.1.1-4.9.4-7.6 4.5-7.2 9.6.1 1.6.6 3.2 1.4 4.6l2.1.3.1-.3c-1.1-1-2-2.6-2.1-4.1-.3-3.6 2.3-5.9 6.4-6.2 3.5-.3 7.4.9 7.7 4.9.1 1.5-.6 3.1-1.8 4.1v.3c.8.1 1.7.2 2.5.3.6-1.4.9-3.4.7-4.9-.5-4.8-3.3-8.6-8.7-8.7zm-67.8 2.2h2.7c1 11.5 3.1 22.6 4.1 34.2 1.7.8 2.6 2.6 3.4 4.1.5 5.2.8 10.5 2.9 15h.2c-.5-3.3-1.6-6.7-1.2-10.4 1.4 4.1 2.8 8.2 5.8 11.6l1 6.1-3.2-1.6c-7.4-5.3-6.5-14.5-11.6-21-2.5-11.2-3.9-22.9-5.3-34.6l1.2-3.4zm-57.6.2c.3 1.9.6 3.6 1 5.1-.4.7-1 1.3-1.7 1.7-.4-.1-.8.1-1.1.4-.1.2.1.4.3.5.9 0 1.6-.4 2.3-.9.1-.2.3-.4.5-.7.2.7.4 1.3.6 1.9-.3.2-.6.3-.8.4-1.6 1.2-3.3 0-4.7-.8l-.4-.4 4-7.2zm-15.9 1.5c.8 1.2 1.7 3.2 3.5 3.1h.4c-.1 2.9-.1 5.9-.2 9-.3 9.6-.9 19.5-1.5 29-4.4 4.6-3 11.6-6.3 16.6-.1.7-.4 1.3-.8 1.9h-4.8c.2-1.7.4-3.4.8-4.9l.1-.2-.5-.8h.1c-.3-2.1 1.6-3.2 1.9-5 .9-2.5 1.1-5.2 2.5-7.6-.5 5-1 10.2-1.7 14.9 1.5-2.5 1.5-5.8 2.1-8.6.5-3.9 1.1-7.6 1.4-11.5l1.8-1.8s.5-12.1.9-21.9l.3-12.2zm-58.1 1.5l-.4 4.3-5.3-2.7 5.7-1.6zm126 1.2c.3 0 .6.2 1.1.6l1.6-.3.5 1.4c1 11.4 3.1 22.4 5 33.3 3.4 3 4 7.3 5.8 11.1-5-3.2-7.7-8.7-9.5-13.9-1.7-4.2-2.7-8.6-4.3-12.8 0 0-2-11.4-2.4-16.8.9-.7 1.2-2.6 2.2-2.6zm-63 1.7c1.5.8 2.6 2.6 4.7 2l.3.4c.1 1.7.1 3.5-.1 5.3-.2 3.4-.6 6.8-.2 10l-.2.1-.3.1v.3c-.1 1.8-.2 3.6-.4 5.4.1-1.9.1-3.8.1-5.8-.7 8.9-2.2 17.6-5.7 25.3-1 2.5-3.1 4.8-3.8 7.1 1-.6 1.6-1.6 2.3-2.6-1 1.6-2.1 3.1-3.7 4.3 1.4-3.8 2.6-8 3.7-11.9l2.2-2.6c.4-10.4.9-20.1 1-29.8.1-2.4.1-5 .1-7.6zm54 .4c.1.1.3.2.4.2.7 4.1.2 9.6 2.2 13.1-.2.7-.9 1.7-1.8 1.8-.7-.1-1.6-.1-2.2-.4-.3-.1-.5-.3-.6-.6-.1-.1-.1-.3-.2-.5l-1-6c.7-1.3 1.4-2.6 1.9-3.8.9 2.4.2 5.5 1.1 8 .5-2.9-.3-5.9-.8-8.6.3-1.1.7-2.2 1-3.2zm1.5.5l1.5.7c.4 3.7 1.2 7.2 2.2 10.7.4-1.6-.6-3-.6-4.7-.2-1.9-.4-3.8-.9-5.7.4-.3.9-.4 1.5-.4.7 4.5 1.6 9 2.7 13.4-.1-.2-.2-.3-.3-.4l-.3-.5-.3.4c-.5 0-1 .1-1.4-.1-4.9-2.5-2.4-8.7-4.1-12.8v-.6zm-49.2 1.8c.4.2 1.1.6 1.4 1.2 0 1.3 0 2.5-.1 3.8-.2 2.7-.5 5.3-.8 7.9 0 0 .4.2.4 0 .7-2.4.8-5.3.9-8 0-1.2.1-2.4.1-3.4l1.9.4c.1.8.1 1.9 0 3.1-.1 3.2-.5 7-1.4 9l-.5-.1-.2.3s-.2.2-.4.3c-.2.1-.5.2-.8.3-.3.1-.6.1-.8.1H87c-.1-.1-.3-.1-.4-.1h-.2c.4-3 .5-6.5.6-9.8.3-1.8.4-3.5.5-5zm6.8 1c.1 1.3.1 2.6 0 4-.2 2.6-.5 5.1-.6 7.6.8-2 1.1-4.8 1.3-7.6.1-1 .1-2 .2-3 .7 1.6 1.4 2.9 1.9 3.7-.3 1.6-.5 4.4-.8 5.9h-.5l-.1.4c-.3 1.1-.7 1.8-2.1 2.2l-2 .1c.5-3.1.7-6.1.8-9.4 0-.8 0-1.7.1-2.5l1.8-1.4zm-70.6 4.4l-16.2 1.2c.1.3.1.6.1.9v.9l11.1-.8c-3.6 3.6-6.9 7.4-10.3 11.1l.2 2.4 16.2-1.2c0-.3-.1-.6-.1-.9v-1l-11.4.9 2.5-2.8c2.6-2.9 5.3-5.7 8.2-8.6l-.3-2.1zm202.6.3c-3.3 1.6-6.6 2.9-9.7 4.5l-6.8-.4v1.8c-.1.6-.1 1.2-.2 1.8l7.3.5c2.9 1.7 5.7 3.6 8.6 5.6v-1.2c0-.4.1-.8.1-1.2-2-1-5.8-3-6.8-4 .4-.3 1.6-.8 2.9-1.3 1.4-.6 3-1.2 4.3-1.7 0-.7-.1-1.4 0-2.1.1-.9.2-1.6.3-2.3zm-95.2 1l.8 4.1s-.6-1.1-1.6-1.2c-.6-.1-1-.1-1.3-.1.2-.3.5-.6.7-.9.8-1 1.3-1.7 1.4-1.9zm-29.3 4.5s.3.3.3.4h-.1l-.2-.4zm37.3 1.4l.4.1.4.3h.1c.3.1.9.2 1.4.2.3 0 .7-.1 1-.2l.7 1.2.6 2.8c1.7 4.4 2.6 9.4 4.3 14 1.6 4.6 4 9 8.6 12.1l.8.4 1.4.6.7 1.1c-.1.1-.2.2-.3.2-2.1 1.9-3.9 4.2-4.8 6.4 0 0-.4.5-.4.6.1 0-.1 0-.2.1h-1.4v-1.6c0-.9-.7-1.5-1.5-1.5s-1.5.7-1.5 1.5v1.6h-3.1v-.1c-.1-.6-.2-1.1-.5-1.4-.1-.1-.3-.3-.5-.4-.2-.2-.5-.4-.8-.5-.6-.4-1.4-.7-2.1-.9-.2-.1-.4-.1-.7-.2-1.5-7.7-3.5-15.1-4.9-22.8-.9-3.7-1.1-7.7-2.1-11.6h1.2l1.4-.1h.1c.6-.4 1.3-1.1 1.7-1.9zm-42.6.5c-.3.5-.6 1.1-.9 1.3l-.1.1v.1c-3.2 11-3.7 23.3-6.6 34.4-.4 0-1.2.2-2 .5-.9.3-1.8.7-2.2 1.5-.3.6-.6 1-.7 1.4 0 0 0 .1-.1.1H73.6l1-2.2c3.1-2.3 4.7-5.6 6.3-8.6 3.2-8 5-16.7 5.4-25.7h.3l.1.1c.2.1.2 0 .3 0h.3c.3 0 .6-.1.9-.2.3-.1.7-.2 1-.3.2-.1.3-.2.4-.4l1.5.4 2.3-.1c1.3-.3 2-1.1 2.4-2.1l.7-.3zm28.9.1l7.1 2.5.2-.8.2.1-.1-.6.1-.4.1.1c.1.1.2.1.3.1 1.1 3.8 1.3 7.9 2.2 11.9 1.4 7.6 3.3 14.9 4.8 22.4-.5-.1-1.1-.1-1.7 0-1 .2-1.5.2-1.9.2-.1-.1-.2-.2-.2-.4-.5-.6-.8-1-1.3-1.3l-.6-.3c-4.3-5.2-3.6-12.6-5.7-18.7-.4-1.9-.8-3.9-1.3-5.8.3 6.2 2.3 12 3.3 18 1 1.5.8 3.6 1.2 5.3-.2.6-.4 1.2-.7 1.8-.3.2-.5.4-.7.7-.2.2-.3.4-.4.6h-.2l-.1.1c-.1 0-.2.1-.3.1-.6.1-1.3.1-1.9.1-.4 0-.8.1-1.1.2-.4.1-.7.2-.9.4v.1l-.3-6.4-.4-.4-.8-9.5v-.5c1.9-2 3.1-4.4 3.2-7l-.1-.1c-.8 2.4-2.4 4.4-3.4 6.7l-.1-.2c.5-3.4-.3-6.7-.8-9.8-.4-2.7-.5-5.2.6-7.5.6-.5 1.2-1.1 1.7-1.7zm-24.4 0c1.4 0 2.7.1 2.8.1h.1c.5.5.9 1 1.5 1.6v-.3c1.9 2 2.3 4.6 2.1 7.5-.2 3.3-1 6.8-1 9.9l-.4.9-.4 12.8c-.6 1.2-.4 2.4-.4 3.6-.1-.1-.1-.1-.2-.1-.3-.2-.8-.4-1.6-.4-.7-.2-1.4-.2-2.1 0-.2.1-.4.1-.5.2h-.5l-2-5.1c.4-2.5.8-5.1.7-7.6-.9 4.4-2.4 9.7-6.7 13h-.9c-.5-.1-.9-.2-1.3-.3h-.1c2.9-11.2 3.4-23.4 6.5-34.2.3-.3.5-.7.7-1l-.2.6 1.1-.7.3.2c-.2-.6 1.1-.8 2.5-.7zm25.9.9c-1.2 1.4-3 2.1-3.9 3.2 1.5-.2 2.9-.9 4.1-1.7 1.3.6 2.8 1 4.3.6-1.7-.2-3.2-.8-4.5-2.1zm-25.1.5c-1.7 1.1-3.6 1.7-5.4 2.4v.2c1.8.1 3.9 0 5.4-.9 1.1 1.1 2.9 1.4 4.2 1.8v-.1c-1.1-1-3-2.1-4.2-3.4zm-.1 2.3c-.8 6.4-2.2 12.6-2.8 19.1l2.2-12.7c1.7 2.6 1.9 6.4 4.9 8.3-1-3-2.8-5.6-4.2-8.4l-.8-.1c.3-2.1.9-3.9.7-6.2zm28.2.9c1.7 6 4.1 12.1 7 17.8-2.5-5.5-4.1-11.9-6.7-17.8h-.3zm-9.4.1l1.3.1v.1l-1.3-.2zm.2.4l1.1.1v.1l-1.1-.2zm-11.7.1c.1.1 1.6 1.3 3.6 2.5-.9-.5-2.1-1.3-3.6-2.5zm-.3.2l-.4.1.4-.1zm11.8 0l1.2.1v.1l-1.2-.2zm-20 .1l-2.7 8.6-5.2 10.8.2.3c4.9-5.1 5.3-12.1 7.7-18.2v-1.5zm8.8.2l-1 .2v-.1l1-.1zm10.4 0l1.8.2h.3v.1l-2.1-.3zm7.6.2l-.2.1.2 2.1h.1v-.4l-.1-1.8zm-8 .4l2.4.6v.2l-2.4-.8zm1.8 0l.6.1-.6-.1zm-11.6 0l-1.1.3v-.1l1.1-.2zm11.4.7l.9.2v.1l-.9-.3zm-1.9.1l2.8 1.1v.2l-2.8-1.3zm-9.2.1l-1.4.6v-.1l1.4-.5zm.9 0l-2.3 1.1v-.2l2.3-.9zm8.1.3l3.1 1.3c0 .2 0 .3.1.5 0 .1 0 .3.1.4l-3.1-1.8 3 1.5v-.3l-3.2-1.6zm2.5.1l.5.2-.5-.2zm-10.3.2l-2.7 1.8v-.3l2.7-1.5zm7.4.3l3.7 2.1c0 .1 0 .3.1.4l-3.8-2.5zm-9.2.3l-.8.5v-.1l.8-.4zm2 .2l-2.9 2.4v-.4l2.9-2zm7.4.1l3.6 2.4c.1.3.1.6.1.8.1.3.1.5.1.8 0-.1 0-.2-.1-.3l-4.3-3.5 4 2.8.2.2c0-.1 0-.3-.1-.4l-3.5-2.8zm-8.8.3l-1.5 1.1v-.1l1.5-1zm1.8.1l-3.7 3.8c0-.2.1-.4.1-.6l3.6-3.2zm6.6.2l4.3 3.6c0 .2.1.4.1.6l-.4-.4-4-3.8zm-.6.1l4.4 3.9.7.6c0 .3.1.5.1.8l-5.2-5.3zm-7.1.1l-2.3 2.2v-.3l2.3-1.9zm1.7.5l-4.8 7.4c0-.4.1-.8.1-1.3l4.7-6.1zm5.5 0l5.1 5.3c0 .3 0 .5.1.8l-.4-.5-4.8-5.6zm-.8.2l5.9 7.8c0 .4-.1.8-.1 1.2l-5.8-9zm-5.9 0l-3.2 3.8c0-.2.1-.4.1-.6l3.1-3.2zm5.4.2l6.7 9.9.1.2.2 2.6-7-12.7zm1.1 0l4.6 5.3.8.9v.9l-5.4-7.1zm-4.7.1l-6 13.4.1-2.7 5.9-10.7zm-.4.1l-5.5 9.9v-.5l.4-.9v-1l5.1-7.5zm3.8.1l7.3 13.2.4 3.9-7.7-17.1zm-5 0l-3.6 4.7c0-.2.1-.5.1-.7l3.5-4zm3.1 1.3v27.1h-2.4l2.4-27.1zm.4 0l1.2 12.6 1.3 14.5h-2.5v-27.1zm101 .3l-.9 1.3-2.8 4.3-6.4-1.8 4.2 5.2-3.7 5.6 6.3-2.3 4.2 5.2-.3-6.7 6.3-2.4-6.4-1.8-.2-5.1-.3-1.5zm-102.7.5l-6.5 24.6-.3-.3c.1-1.6-.2-3.3.3-4.4l.1-.1v-.4l6.4-19.4zm3 .1l8.1 24.8c-.5.4-.9.8-1.3 1.3l-6.8-26.1zm-3.5.1l-5.9 18 .1-3.1 5.8-14.9zm3.9 0l8.2 21.1-.1-1-7.8-20 7.1 15.7-.1-.9.2 2.1.4.4.2 3.7.2 3.1c-.1.1-.2.2-.4.3l-7.9-24.5zm-4.3.1l-5.4 13.8.1-2.1 5.3-11.7zm1 .5l-5.2 25.6h-.3c-.2-.1-.3-.2-.5-.4 0-.3-.2-.6-.3-.9 0-.1-.1-.1-.1-.2l6.4-24.1zm2.7 0l6.8 25.6h-1.5l-5.3-25.6zm99.5.3l-.3 1.2-1.7 6.1-.8-2.1-.2-.6 3-4.6zm-101.5.1l-2.3 25.2h-1.4l3.7-25.2zm1.7 0l5.2 25.2h-1.5l-3.7-25.2zm-2 .1l-3.7 25.1h-1.5l5.2-25.1zm1.7.2l3.7 24.9h-1.4l-2.3-24.3v-.6zm-96.8.9v1.6l-.1 5.1-6.4 2 6.3 2.1-.1 6.7 4-5.4 6.3 2.2-3.9-5.5 4-5.4-6.4 2-3-4.2-.7-1.2zm.5 1.5l.4 1.2 1.9 6.1.4-1.2.5-1.6 5.3-1.6-6.2 4.4H24l3.2 4.5-1.3-.9-4.8-3.6.9 2.8-3.3 4.4.5-1.5 1.9-5.7-1.8-1.4-.5-.4.1-5.5zm188.1.4l1.3.9 5 3.3-2.2.1-.6.1-3.5-4.4zm8.7 2.4l5.3 1.5-7.6.4.9-.8 1.4-1.1zm-114.9 1.2c.1 4.1 1.9 8 4.5 11.1-1.4-3.7-3-7.3-4.3-11.1h-.2zm27.5.5l-2.6 6.9c1.3-1.2 1.7-2.8 2.3-4.3.6-.7.8-2.1.3-2.6zm85 .1l-.7 2.8-5.2 2 1.2-1 4.7-3.8zm.1 0l2.4 1.5.3 5.5-.6-1.5-2.1-5.5zm-199.9 2.6h1.6l6 .1-1.9 1.3-.5.3-5.2-1.7zm67.3 2.3c-.2.6-.4 1.1-.7 1.7-.4.8-.8 1.5-1.2 2.3.7-1.2 1.3-2.6 1.9-4zm79.3 6.4l.4.5-.4.3c-2 1.8-3.7 4.1-4.5 5.9 0 0-.1.2-.5.6 0 0-.1.1-.2.1s-.2.1-.3.1c-.2.1-.4.1-.4.1h-1.7v-.3h1.1s.7.1 1.1-.2c.4-.3.7-.9.7-.9.8-2 2.6-4.4 4.7-6.2zm-62.7.2c.4.6.9 1.4 1.3 2.2.4.9.7 1.4.8 1.6-.1.1-.2.2-.3.2-.3.4-.6.7-.8 1.1-.1.1-.2.3-.2.4-.2-.2-.5-.5-.8-.6-.5-.2-1.3-.2-1.3-.2s-.7.3-.7.6 0 .6.1.7c.1.1.4.3 1.1.5.4.1.8.2 1.1.3-.1.3-.2.5-.2.6l-.2.4c0 .1-.1.2-.1.2 0 .1-.1 0 0 0h-.4c-.2 0-.5-.1-.6-.2-.3-.2-.7-.5-1.4-.6h-.3c-.3-.1-.4-.1-.5-.1.1-.2.3-.3.4-.5v-.1h-.1c.1-.4.6-1.7.7-2.2h.1c0-.1.1-.4.1-.4v-.4c.2-.3.4-.7.5-.9.2-.4.7-1.2 1.2-1.8.3-.5.4-.6.5-.8zm63.1.5l1.6 2.4c-.5.8-.7 1.7-.7 2.6v.3h-.2c-2.5 0-4.5 2-4.5 4.5s2 4.5 4.5 4.5h.6c0 .2-.1.4-.1.6 0 2.5 2 4.5 4.5 4.5s4.5-2 4.5-4.5c0-.2-.1-.5-.1-.7h.8c2.5-.1 4.4-2.2 4.3-4.7-.1-2.5-2.2-4.4-4.7-4.3-.2 0-.4.1-.6.1v.1c.2-.1.4-.1.6-.1 2.4-.1 4.4 1.7 4.6 4.1.1 2.4-1.7 4.4-4.1 4.6h-.9v.1c0 .2.1.6.1.8 0 2.4-1.9 4.3-4.4 4.3-2.4 0-4.4-1.9-4.4-4.3 0-.2 0-.5.1-.7v-.1h-.9c-2.4 0-4.4-1.9-4.4-4.3s1.9-4.4 4.3-4.4h.4v-.4c0-.9.2-1.7.6-2.4l.2.3-.1.1c-.3.6-.5 1.3-.4 2 0 .4.1.7.2 1-.3-.1-.6-.2-1-.2-2.2 0-3.9 1.8-3.9 3.9 0 2.2 1.8 3.9 3.9 3.9.6 0 1.1-.2 1.6-.5-.2.5-.5 1.1-.5 1.6 0 2.2 1.8 3.9 3.9 3.9 2.2 0 3.9-1.8 3.9-3.9 0-.6-.2-1.1-.5-1.7.5.2 1.1.4 1.7.4 2.2-.1 3.9-2 3.8-4.1-.1-2.2-2-3.9-4.1-3.8-.2 0-.4 0-.6.1l-1-5.3c.8.2 1.5.3 2 .4l.3.1.9-.7c.2.3 1.9 2.9 2.4 4.1 0 0 1.3 3 2.2 3.9 1.2 1.2 3.2 1.5 3.2 1.5s-2 .3-3.2 1.5c-.9.9-2.2 3.9-2.2 3.9-1.8 4.1-4.4 7.9-8.7 7.9-4.4 0-9.4-5.1-11.2-9.1 0 0-.3-.6-.7-.9-.4-.3-1.1-.2-1.1-.2h-1.1v-.2h1.7s.2 0 .4.1c.1 0 .2.1.3.1.1 0 .2.1.2.1.4.3.5.6.5.6.1.1.3 0 .2-.1 0 0-.1-.3-.5-.6-.1-.1-.2-.1-.3-.1-.1 0-.2-.1-.4-.1-.2-.1-.5-.1-.5-.1h-1.7v-.6h.3s1.5-.1 2.2.2c.1.1.3.2.4.3l.6.9c.8 1.8 2.4 4.1 4.3 6 1.9 1.9 4.1 3.3 6.2 3.3s3.7-.9 5-2.3 2.3-3.2 3.1-5c0 0 1-2.6 1.9-3.9.2-.3.3-.3.5-.5h.1s.9-.5 2-.9v-.2h-.8s-1.2.2-2 1.5c-.9 1.4-1.9 3.9-1.9 3.9-.8 1.8-1.8 3.6-3.1 4.9-1.3 1.3-2.9 2.2-4.9 2.2-1.9 0-4.1-1.4-6-3.3s-3.5-4.2-4.3-6l-.3-.4c-.2-.5-.5-1-.8-1.2-.5-.4-2.4-.3-2.4-.3h-.3v-4.1h1.7s.2 0 .4-.1c.1 0 .2-.1.4-.1s.2-.1.3-.1c.4-.3.5-.6.5-.6.8-1.8 2.5-4 4.5-5.8.8 0 .9-.1 1.1-.2zm-27 .9c.8 0 1.2.1 1.6.3.4.2.7.6 1.1 1.2h-.2l.1.4.6 1.9c-.2.1-.5.2-.6.2-.9 0-3-.8-3-.8s.4.9 1 1.4c.6.6 1.6.7 2.1.8.2 0 .6-.1.9-.3l.5 1.5h.2c0 .1-.1.2-.2.2l-.1.1v-.1l-.4.1s-.6.2-1.3.3h-.8c-.1 0-.2-.1-.4-.1-.1-.1-.3-.1-.3-.1l-.1.1c-.6-.2-1.3-.6-1.7-1 0 0 0-.1-.1-.1l-1.1-2.8v-.1.1l-.5-1.1.1-.7c0-.1.1-.2.2-.3.5-.6 1.4-1.1 2.2-1.2l.2.1zm39.7.7v.3c.5.8.9 1.6 1.2 2.4 0 0 .5 1.2 1.1 2.4.1.1.3 0 .2-.1-.6-1.2-1.1-2.4-1.1-2.4-.4-.8-.9-1.7-1.4-2.6zm-33.4 1.1c.3 0 .5 0 .8.1v-.1c.5.1.9.2 1.4.3.7.2 1.4.5 2 .9.1.1.3.2.4.2l-.8-.4c-1-.2-2-.3-3-.3s-2 .1-2.8.3c1.5 1.2 3.9-.2 5.6.8 1.3.1 1 1.5 1.6 2.2.2 0 .3.1.4-.1.1-.1.1-.3.1-.4v.3c0 .1-.1.2-.2.3-.2.1-.9.4-1.1.5-.1 0-.1 0-.2.1-.3.1-.6.1-.8.1-.4-.1-1.1-.2-1.8-.3-.7-.1-1.5-.1-1.9-.2-.5-.1-.8-.1-1-.1-.1-.8-.3-1.6-.5-2.3-.1-.5-.3-1-.6-1.5.4 0 .8-.1 1.6-.2.3-.2.6-.2.8-.2zm-37.7.2v.1c1.6 0 2.3.2 2.6.4.2.1.3.2.4.4.1.1.2.3.4.5s.4.4.5.6c.1.1.2.2.2.3.2.3.2.5.2.6l-.1.1-.1.1-.1.1c-.1-.1-.1-.2-.1-.2s-2.4-1.9-3.6-2.1h-.3c-.8 0-1.9.4-2.3 1.1-.2.5-.7.5-.8.6-.5.5-.4 1-.3 1.2-.1 0-.2-.1-.4-.1h-.2c.1-.3.2-.8.7-1.6.2-.2.3-.5.5-.7.6-.7 1.4-1.3 2.5-1.3l.3-.1zm67.9.1l.1.4c.1.4.2.8.2 1.1l.1.5v-.4c0-.5-.1-1.1-.4-1.6zm-39.7.1c0 .5.1 1.1.2 1.5 0 .1.1.2.1.3l-2 .6-1.6.7-1.5 1s-.8.9-.9 1c0 0-.1.1-.1.2-.1 0-.3-.1-.4-.1-.2 0-.4-.1-.5-.1-.4-.1-.6-.1-.7-.1-.1 0-.1 0-.2-.1v-.3c.1-.3.2-.8.5-1.4.3-.5.8-1 1.4-1.4.6-.4 1.2-.8 1.5-1.1.1-.1.3-.2.6-.2.3-.1.7-.1 1.1-.1.9-.4 1.8-.4 2.5-.4zm-41.2.2c.3 0 .4 0 .6.1.2 0 .4.1.8.2.2.1.6.1 1 .1H94c0 .1-.1.1-.1.1-.2.4-.4.7-.5 1-.3 0-1-.1-1.8 0h-.9c-1 .1-1.5.3-1.7.4-.2.1-1.6.4-1.6.4l-1.5 1.5c-.1 0-.2 0-.2-.1-.3-.1-.6-.2-.9-.2-.1 0-.2-.1-.3-.1 0-.1.1-.2.2-.4.1-.1.2-.3.2-.4h-.1c.2-.3.3-.6.6-1.1.2-.4 1-.9 1.8-1.1.6-.2 1.2-.3 1.6-.4v.1l.3-.1zm61.7.1c.5 0 .9.4.9.9v9.3c0 .5-.4.9-.9.8-.5 0-.8-.4-.8-.8v-9.3c0-.5.3-.9.8-.9zm11.9.3l.1.1c1.3 1.6 2.9 2.5 4.3 3.4l.1.1v-.3c.1.1.2.1.3.2v.1l-.1.1s.1 0 .1.1l.5.5c.2.2.4.4.7.6.1.1.3.2.6.2s.6-.1.7-.4l.1-.1.8-2c.1 0 .2-.1.4-.1 1.9-.1 3.5 1.4 3.6 3.3.1 1.9-1.4 3.6-3.3 3.6-.7 0-1.3-.1-1.9-.4l-.8-.4.5.8c.3.5.5 1.2.5 1.9 0 1.9-1.5 3.5-3.4 3.5s-3.5-1.6-3.5-3.5c0-.7.2-1.3.5-1.9l-.3-.3c-.5.4-1.1.5-1.8.5-1.9 0-3.5-1.6-3.5-3.5s1.6-3.5 3.5-3.5c.4 0 .8.1 1.2.2l.5.2-.2-.5c-.1-.4-.3-.8-.3-1.2-.1-.4 0-.8.1-1.3zm-18.1.7l.1.1c.2.1.3.3.4.3.1.1.2.4.3.8-.1-.4-.5-.8-.8-1.2zm56.8.8l-.3.6c-.1.2-.2.4-.4.5l7.8 9.8c.1-.2.2-.5.4-.7.1-.2.3-.4.4-.7-.9-.8-1.6-1.7-2.4-2.7l1.9-3.4c1.2.1 2.4.4 3.6.7.2-.4.4-.9.6-1.3.2-.4.5-.8.8-1.2l-12.4-1.6zm-108.3.3v.5H93v.3c0 .1 0 .2-.1.3v.2s-.1.1-.2.1c-.2.1-.3.1-.5.2-.4.1-.9.3-1.3.3l.1.4h.3l1.2-.3c.2-.1.4-.2.6-.2 0 0 .1 0 .1-.1-.1.6-.2 1.7-.2 2.7 0 .4.1.9.3 1.3h-5.5s0-.1-.1-.1c-.4-.7-.3-1.9-.3-2.4.1-.4.2-.8.2-.9.9.2 1.9.2 2.6.1.3 0 .4-.1.6-.1h-.1l-.1-.1-.1-.1v-.2c-.1 0-.3.1-.6.1-.6.1-1.6.1-2.4-.1-.1 0-.3 0-.5-.1.7-.3.3-.8 2.2-.9 1.2-.2 3-.6 3.9-.9zm7 .1c.4 0 1.1.6 1.8.9.8.2 2-.6 2.7-.8.6-.1.9.2 1.3.5-.1.1-.2.1-.4.2l-.6.3c-.2.1-.3.1-.3.1-.8.2-2.5.3-3.5.4-.6 0-1.1-.1-1.6-.2-.2-.1-.3-.1-.5-.2.3-.3.8-1.1 1.1-1.2zm6.7.2c.7.4 1.2.9 1.8 1.7.5.8.5 2.6 0 3.8-.4.9-2.7 2-2.7 2s1.2-2.5 1.1-3.4c-.1-.9-.6-1.3-1.1-1.8-.4-.4-1.2-.9-1.2-.9s.8-.8 1.3-1h-.1s.6.8 1 1.2c.8.9 1 1.8.8 2.4-.3 1.3-.8 2.3-.8 2.3s.6-.6.9-1.4c.6-1.3.3-2.1.2-2.5-.4-1.1-1.7-2.1-1.7-2.1v-.1c.4-.1.6-.3.6-.4l-.1.2zm24.2.1c.2.3.4.7.6 1-.8.2-2 .6-2.8.9-.8.4-1.3 1.2-2.8.9-.1 0-.2 0-.3-.1 0-.1.1-.1.2-.2.3-.2.6-.5.8-.6.4-.3 1.2-.7 1.6-.8.4-.1 1.5-.7 1.6-.8.3-.2.7-.1 1.1-.3zm-67.4.8h1.9v.3h-1.7c-.4 0-1.2 0-1.8.6-.1.1.1.2.1.1.5-.5 1.3-.5 1.7-.5h1.7c-.2 1-.4 1.9-.7 2.8l-.2.6 2.4.3.2-.8c1-.6 2.1-1.3 3-2.2 0 0 .8-.3 1.6-.7.1 0 .1-.1.2-.1h12c-.1.5-.2 1.9.2 3.4.1.2.1.4.2.7H62.9c-1.1-.1-1.8-1.2-1.8-1.2 0 1 1.2 1.7 1.8 1.7h21.8c.1.2.3.4.4.6H63.8c-.4 0-1.2 0-1.7-.5H62c-.1 0-.1.1-.1.2.6.6 1.4.6 1.8.6h21.5c.1.1.2.1.2.2h-22c-1.7 0-3.2-1.4-3.3-3.1.3-1.6 1.7-3 3.5-3zm2.9 0h4.2c-.3.1-.5.2-.6.3h-3.6c-.1-.1 0-.2 0-.3zm6.5 0h10.8c0 .1.1.2.1.2H72.4c.2-.1.3-.1.5-.2h.1zm35.4 0h14.2c0 .1-.1.2-.1.3h-13.8c-.2-.1-.2-.2-.3-.3zm37.7 0h3.2v.3h-3.4c0-.1.1-.1.2-.3zm-52.6.2s1.1.1 1.7.3c.5.2 1.4.7 1.4.7s-.3.3-.4 1c-.1.7-.5 1.1-.4 2.1.1 1 1.4 2 1.9 2.4 0 0-.8.1-2.1-.1-1.1-.2-2.2-1.8-2.3-3.2-.1-1.5.2-3.2.2-3.2zm-60.4 0l-5.7 3.7c-.6.4-1.1.8-1.6 1.3-1.5 1.7-.8 3.9.3 5.6.6.9 1.4 1.8 2.5 2.2 2 .8 3.4-.2 5-1.1l5-3.2c-.1-.2-.3-.4-.4-.5l-.3-.6-4.3 2.7c-.7.4-2.3 1.5-3.1 1.6-1.5.3-2.5-.1-3.3-1.4-.4-.6-.6-1.3-.4-2 .2-.8.5-1.2 1.1-1.8.7-.6 1.8-1.3 2.6-1.8l4-2.6c-.3-.3-.5-.6-.8-1-.2-.3-.4-.7-.6-1.1zm51.3 0l1.1.3s-.1 1.4 0 2.2c.1.8.7 1.6.7 1.6s-.3-1.1-.3-1.6c0-.6.1-1.9.1-2 .4.1 1.5.3 1.5.3s-.2.5-.3 1.1c-.1.6-.1 1.8.3 2.6.9 1.7 2.6 1.9 2.6 1.9s-2.5.3-3.4-.1c-.9-.4-1.7-1.5-2.1-2.7-.6-2-.2-3.7-.2-3.6zm10.5.2s-.5 1-.5 1.9c0 1.5.1 2 .4 2.6.2.5 1.6 1.2 1.6 1.2s-1-.8-1.2-2c-.2-1.2.1-2.7.4-3.4l-.7-.3zm-28.5.1h3.3c-1 .9-2.2 1.7-3.2 2.2l-.2.1-.1.3-.5-.1c.4-.8.6-1.6.7-2.5zm42.3 0h13.6c0 .1-.1.3-.1.4-.1.2-.1.4-.1.5 0 .2.1.3.2.4.1.1.3.2.4.2 0 .2 0 .4.1.9s.2 1.1.4 1.6h-14.5c.2-.6.4-1.4.4-2.1 0-.7-.1-1.4-.4-1.9.1.1 0 0 0 0zm37.2 0h3.4v4.1h-3.4c.2-.6.4-1.4.4-2.2-.1-.9-.3-1.6-.4-1.9zm-47.4.1s.1 0 .3.1c.2.1.4.1.6.2.5.2 1.1.3 1.8.3.9-.1 2.3-.1 3.3-.3.1.1.7.4 1 .7.5.5.9.9 1 1.6 0 .2-.1.8-.3 1.4h-10c-.1-.1-.1-.3-.1-.4-.1-.4 0-.7.1-1 .1-.3.2-.6.3-1 0-.3.1-.5.2-.6.2 0 .4 0 .5-.1.2 0 .3-.2.4-.3.1-.1.2-.2.2-.4.1-.1.1-.2.1-.3.2.1.4 0 .6.1zm33.5.1l.2.2c.5.5 1.2.9 2 1.2l.2.2c.2.3.3.6.3.9 0 .5-.1 1-.2 1.4h-8.1c-.3-.7-.3-1.6-.3-2 1.6.2 2.6-.8 3.1-1 .6-.3 2.2-.7 2.8-.9zm13.3.1c.1.2.2.7.3 1.5 0 1-.2 1.8-.6 2.5-.1.3-.6.7-1.1.9h-.1c.2-.4.4-.6.6-1.2.3-1 0-2.2-.1-2.6-.1-.4-.2-.5-.4-.7h.3s.1 0 .1-.1c.1-.1.3-.1.4-.2.1.2.2.4.3.9.2.8.1 1.9.1 1.9s.4-1.2.3-1.9c-.1-.4-.2-.8-.3-1.1.1.2.1.1.2.1zm-6.8.1c.2 0 .5 0 .9.1.5.1 1.2.1 1.9.2s1.4.2 1.6.3h.4c0 .1.4.5.4.8.1.4.4 1.6.1 2.2v.1h-6.5c0-.1.1-.2.1-.2.2-.8.2-2 .2-2.5.2-.1.3-.1.5-.2s.4-.4.4-.8zm-47.7.4zm112.8 0l4.1.6-1.5 2.7-2.6-3.3zm-66.7.8c0 .4.1 1.4-.1 2.1-.3.9-1.1 1.7-1.9 2.1-.4.2-.4.1-.6.2.2-.4.4-.8.6-1.1.4-.6.4-1.4.4-2.2 0-.4-.2-.7-.4-1h.4c.5.1 1.1 0 1.6-.1zm-13.3.1h.3c.1 0 .1 0 .2.1.1 0 .3.1.5.1 0 .5 0 1.4.1 1.8.2.6.8 1.1.8 1.1s-.4-1.2-.4-1.8c0-.3.1-.7.1-1 .1.1.3.1.4.1 0 .4-.1 1.5.5 2.5.3.6.6.9.9 1.1.3.2.6.2.9.3.3.1.4.1.7.1-.4.2-.8.5-1.3.4-.5-.1-1.1-.4-1.7-.9-.6-.4-1.1-1-1.3-1.3-.3-.5-.5-1.2-.6-1.9-.2-.3-.2-.4-.1-.7zm12.4.3l-.3.1s0 1.3-.1 1.7c-.1.4-.4 1.2-.4 1.2s.7-1 .8-1.6c.1-.6 0-1.4 0-1.4zm42.3.7h.3c-.6.3-1.1.5-1.2.6.5-.3.9-.6.9-.6zm20.6 1.2c-1 .5-2 1.4-2.6 2.3-2.1 3-2.2 6.6 1.3 9.1 2.8 2 6.1 1.1 8.2-1.9.6-.9 1.2-2 1.3-3.1l-1-1.1-.2.1c.1 1-.1 2.3-.7 3.2-1.5 2.1-3.9 2.1-6.3.4-2-1.4-3.5-3.9-1.9-6.1.6-.9 1.8-1.4 2.9-1.4l.1-.2c-.3-.5-.7-.9-1.1-1.3zm-90.4.8h15.1c.1.2.3.4.5.6h-16.4c.4-.2.6-.4.8-.6zm-20.4 0h5.4c.1.1.2.3.3.4.1.1.1.2.2.2h-5.1c-.3-.2-.5-.4-.8-.6zm8.5 0h9.4l-.3.6h-8.6l-.3-.3c0-.1-.1-.2-.2-.3zm30.1 0h7.6l-.4.6h-6.2c-.2-.1-.4-.1-.5-.2-.2-.1-.3-.2-.5-.4zm10.4 0h6.6l-.3.6h-6.7c.1-.2.2-.4.4-.6zm8.6 0h3.6v.6h-4.1c.2-.2.4-.4.5-.6zm-56.5.8h4.9l.2.2h-4.5c-.1 0-.3-.1-.6-.2zm8.3 0h8.3c-.1.1-.1.2-.1.2h-7.9c-.2-.1-.2-.1-.3-.2zm10 0h16.9c.1.1.2.2.3.2h-17.5l.1-.1c0-.1.1-.1.2-.1zm22.5 0h3.8c-.1.1-.1.1-.1.2h-3.8l.1-.2zm6.4 0h6.8c0 .1-.1.2-.1.2h-6.9c0-.1.1-.1.2-.2zm8.6 0h4.3v.2h-4.7c.2 0 .3-.1.4-.2zm-80.7.8h19.4v2.3h-2.2v3.5h.1v-3.5h2.2v-2.4h.7v2.8h-2.2v3h1.4v3.8h-8.4v-3.7h1.6v-3h-5.1v3h.8v3.7h-8.4v-3.7h2.2v-3.5h-2.1v.1h2.1v.4h-2.1v-2.8zm32.5.3H99l-.5 1.4.3.1.6-1.5h2.2l-.5 1.4-2.8 1.1-1.6-2.1.1-.4zm5 0h2.2l-.8 3 .3.1.8-3.1h.8l-.1.1.3-.1h.9l-.6 2.9-2.7 1.1-1.8-2.4.7-1.6zm4.9 0h1.9l-.6 3.9h.3l.6-3.9h1.9l-.3 3.6-2.5 1-1.9-1.5.6-3.1zm4.5 0h3.1v3.9h.3v-3.9h3.2l.3 3.6-3.7 1.9-3.6-1.9.4-3.6zm7.1 0h1.8l.6 3.9h.3l-.6-3.9h1.9l.6 3.1-1.9 1.5-2.4-.9-.3-3.7zm4.4 0h1.9l.8 3.1.3-.1-.8-3h.9c.4.2.8.4 1.1.5h.4l.4 1.2-1.8 2.4-2.7-1.1-.5-3zm6.2 0h.9l.6 1.5.3-.1-.5-1.4h2.2l.2.4-1.6 2.1-2.8-1.1-.3-1c.3 0 .7-.2 1-.4zm-57.9 2v3.5h.1l-.1-3.5 5.8.1v.4h.1v-.5H71zm-31.2 1.3l-8.7 7.4.5.5c.2.2.3.4.4.5l6.2-5.2-.3 2.6c-.3 2.7-.7 5.4-1.1 8.3l.9 1.1 8.8-7.4c-.2-.1-.3-.3-.5-.5-.1-.2-.3-.4-.4-.6l-6 5c.5-3.5.9-7.1 1.3-10.6l-1.1-1.1zm32.8 2.1h.8v4.2h-9.2v-.4h8.5l-.1-3.8zm11 0h.8v4.2h-9.2v-.4h8.5l-.1-3.8zm108.1.6c-.2.3-.5.7-.7 1l-.9.9 8.8 7.4c.2-.3.5-.7.7-1l.9-.9-8.8-7.4zm-2.9 4.7c-.3 0-.6.1-.8.2-.7.2-1.6 1.1-2.1 1.7l-2.5 2.5 8.2 8c.3-.3.5-.6.8-.9.3-.3.6-.6.9-.8l-3.8-3.8.1-.1c.7.2 1.6.4 2.1.5l3.9 1c.3-.4.6-.8 1-1.1.4-.4.8-.7 1.1-1l-1.2-.3c-1.8-.4-3.6-.7-5.4-1.2.8-1.3.8-2.8-.3-4-.5-.5-1-.7-1.6-.8l-.4.1zM48 184.4l-8.1 8.1c.3.3.7.5.9.8.3.3.6.6.8.9l8.1-8.1c-.3-.3-.7-.5-.9-.8-.2-.3-.5-.6-.8-.9zm139.6.2c.2 0 .5.1.8.3.3.2.5.4.7.5 1.2 1.2 1.2 2.4-.1 3.5l-3.2-3.1c.5-.6 1-1.3 1.8-1.2zm-136.9 2.5c-.1.2-.2.4-.4.6-.2.2-.4.3-.5.5.7.5 1.6 1.1 2.5 1.9l-6.7 7.8c.3.2.7.5 1 .8l.9.9 6.7-7.8c.8.7 1.4 1.4 2.1 2.1.1-.2.2-.4.4-.6l.5-.5-6.5-5.7zm131.7.7l-4.9 4.1 7.4 8.7 4.8-4.1c-.2-.2-.4-.3-.5-.5-.1-.2-.3-.4-.4-.6-.7.8-1.5 1.6-2.8 2.7l-2.8-3.2 1.3-1.1c.6-.5 1.1-.9 1.7-1.2-.2-.2-.4-.3-.5-.5-.1-.2-.3-.4-.4-.6-.4.5-.9 1-1.4 1.4l-1.3 1.1-2.3-2.7c1.3-1.1 2.2-1.8 3.1-2.3-.2-.2-.4-.3-.5-.5-.3-.2-.4-.5-.5-.7zM58 193.3l-6.7 9.2 5.2 3.8c.1-.2.2-.4.4-.6.1-.2.3-.4.5-.5-.9-.5-1.9-1.1-3.3-2.1l2.5-3.4 1.4 1c.6.4 1.1.9 1.6 1.3.1-.2.2-.4.4-.6.1-.2.3-.4.5-.5-.6-.3-1.1-.6-1.7-1.1l-1.4-1 2.1-2.9c1.4 1 2.2 1.8 3 2.4l.3-.6c.1-.2.3-.4.5-.5l-5.3-3.9zm117.5.4c-.2.2-.4.4-.6.5l-.6.3c.5 3.1.8 6.1 1.2 8.7-2.6-1.4-5.1-2.8-7.6-4.4l-.5.5-.6.3c1.9 3.8 3.6 7.3 5 10.4.2-.2.4-.4.6-.5.2-.1.5-.2.7-.4-1.3-2-2.4-4-3.7-6.7 2.5 1.5 5.1 2.9 7.2 4.2.1-.2.3-.2.5-.3-.5-2.8-.9-5.6-1.3-8.5 1.7 2 3.4 3.9 5 6.1.4-.3.7-.6 1.1-.8.4-.3.8-.5 1.2-.7-2.3-2.5-4.6-5.3-7.6-8.7zm-111.1 4.2l-5.7 9.9 4 2.3c3 1.7 6.4 1.1 8.3-2.2 1.4-2.4 1.3-5.3-1.7-7.2l-4.9-2.8zm1.7 2.1l1.4.8c2 1.2 2.7 3 1.1 5.7-2 3.4-4.1 3.5-6.1 2.4l-1.2-.7 4.8-8.2zm94.9 2.5c-.2.1-.4.2-.6.4-.2.1-.4.1-.6.2l1 12.5c.2-.1.4-.3.7-.4.2-.1.5-.2.7-.3-.2-1.2-.3-2.3-.5-3.6l3.5-1.8c.9.8 1.7 1.6 2.6 2.6.4-.2.8-.5 1.2-.7.4-.2.9-.4 1.3-.6l-9.3-8.3zm.4 3.4l3.1 2.8-2.7 1.4-.4-4.2zm-81.1.1c-1.6-.1-2.8.8-3.3 2.2-1.6 3.8 3.5 4.8 2.4 7.3-.5 1.1-1.5 1.3-2.5.9-1.1-.4-1.7-1.4-1.5-2.6l-.3-.1c-.4.6-.8 1.2-1.3 1.8.5.8 1.4 1.4 2.2 1.7 2.4 1 4.8.3 5.6-1.7 1.5-3.6-3.4-5.2-2.6-7.3.4-.9 1.1-1.3 2.4-.8.9.4 1.3 1.2 1.2 2.1l.2.1c.4-.5.8-.9 1.1-1.3-.2-.5-1-1.3-2.2-1.8-.3-.3-.8-.4-1.4-.5zm71.5 1.2l-6.1 2.2 3.9 10.8 2.1-.8-1.9-5.2 4-1.4-.5-1.1-3.9 1.4-1.1-3.2 4.1-1.5-.6-1.2zm-66.7.8c0 .2-.1.5-.1.7-.1.2-.2.4-.3.7.9.1 1.9.3 3.1.7l-3 9.9c.4.1.8.1 1.2.3.4.1.8.3 1.2.4l3-9.8c1 .3 1.9.7 2.8 1.1 0-.2.1-.5.1-.7l.3-.6-8.3-2.7zm54.9 2.7c-.5 0-1.1.1-1.6.2-4.1.9-5.9 4.1-5.2 7.4.8 3.8 3.7 5.4 7.4 4.6 4-.9 5.9-4.2 5.2-7.4-.6-2.3-2.2-4.9-5.8-4.8zm-42.1.6L91 221.8c.3 0 .5 0 .8.1.3.1.5.1.8.2.5-1.1 1.1-2 1.8-3.2l3.8.8c.2 1.2.3 2.4.5 3.7.5 0 1 .1 1.4.2.5.1.9.2 1.4.4l-2.4-12.3c-.2 0-.4 0-.6-.1-.2-.2-.4-.2-.6-.3zm41.4.5c2 .1 3.2 2.1 3.6 3.9.6 2.8 0 5.5-2.6 6.1-2.5.5-3.9-1.5-4.4-3.7-.8-3.7.2-5.7 2.5-6.2.4-.1.7-.1.9-.1zm-35.7.7v.7c0 .3-.1.5-.2.7.9 0 1.9 0 3.1.1l-.9 10.2h1.3c.4 0 .8.1 1.2.2l.9-10.2c1 .1 2 .3 3 .5v-.7c0-.2 0-.4.1-.7l-8.5-.8zm21.2.6h-.4c-2.6.1-3.9 1.8-3.8 3.7.2 4.1 5.2 2.9 5.3 5.6.1 1.2-.9 1.9-1.9 1.9-1.2.1-2.1-.6-2.4-1.8h-.3c-.1.7-.2 1.5-.4 2.2.8.5 1.9.6 2.8.6 2.6-.1 4.5-1.8 4.4-3.9-.2-3.9-5.3-3.3-5.4-5.6-.1-1 .4-1.6 1.8-1.7 1 0 1.6.5 2 1.4h.3c.1-.6.3-1.1.5-1.7-.6-.3-1.5-.7-2.5-.7zm-11.7.4v11.4h6.4c0-.2-.1-.5-.1-.7s.1-.5.1-.7c-1 .1-2.2.2-3.9.2v-4.2h1.7c.8 0 1.4.1 2.1.2 0-.3-.1-.5-.1-.7 0-.2.1-.5.1-.7-.6.1-1.3.2-2.1.2h-1.7v-3.6c1.7 0 2.8.1 3.8.2 0-.2-.1-.5-.1-.7 0-.2.1-.5.1-.7l-6.3-.2zm-15.8 1l.7 4.1-3-.6 2.3-3.5z"/></svg>