<svg xmlns="http://www.w3.org/2000/svg" viewBox="0 0 248.3 144.9"><defs><style>.cls-1{fill:none;stroke-dasharray:4 4;}.cls-1,.cls-2,.cls-3,.cls-4,.cls-5{stroke:#755ef8;stroke-linecap:round;stroke-linejoin:round;}.cls-2{fill:#b1f5fd;}.cls-3{fill:#b8aef8;}.cls-4{fill:#65eafd;}.cls-5{fill:#8beefd;}</style></defs><title>Asset 7abstract</title><g id="Layer_2" data-name="Layer 2"><g id="letters"><path class="cls-1" d="M141.9,19.3a15.6,15.6,0,0,0,1-5.3,13.5,13.5,0,0,0-27,0,13.6,13.6,0,0,0,1.1,5.3,17.4,17.4,0,1,0,24.9,0Z"/><line class="cls-1" x1="129.4" y1="29" x2="129.4" y2="64"/><path class="cls-2" d="M30.2,91a13.6,13.6,0,0,0,1.1-5.3,13.5,13.5,0,0,0-27,0A13.6,13.6,0,0,0,5.4,91a17.3,17.3,0,1,0,29.7,12A16.8,16.8,0,0,0,30.2,91Z"/><line class="cls-3" x1="17.8" y1="100.7" x2="17.8" y2="135.7"/><polygon class="cls-4" points="213.1 42.2 178.5 62.3 213.1 82.2 247.8 62.2 213.1 42.2"/><polygon class="cls-2" points="161.2 72.2 161.2 112.2 195.8 132.2 195.8 92.2 161.2 72.2"/><polygon class="cls-5" points="247.8 62.2 213.1 82.2 213.1 122.3 247.8 102.3 247.8 62.2"/><line class="cls-1" x1="178.5" y1="62.2" x2="161.1" y2="72.2"/><line class="cls-1" x1="213.1" y1="82.2" x2="195.8" y2="92.2"/><line class="cls-1" x1="213.1" y1="122.2" x2="195.8" y2="132.2"/><path class="cls-2" d="M66.8,72.2c0-3.1,2-6.3,6.2-8.7,8.3-4.7,21.7-4.7,30,0,4.1,2.4,6.2,5.6,6.2,8.7v60m0,0c0,3.1-2.1,6.3-6.2,8.7-8.3,4.7-21.7,4.7-30,0-4.2-2.4-6.2-5.6-6.2-8.7v-60"/><ellipse class="cls-4" cx="88" cy="72.2" rx="21.2" ry="12.2"/></g></g></svg>