<svg xmlns="http://www.w3.org/2000/svg" viewBox="0 0 208.9 111.1"><defs><style>.cls-1{fill:#fff1b3;}.cls-1,.cls-2,.cls-3,.cls-4{stroke:#ed1973;stroke-linecap:round;stroke-linejoin:round;}.cls-2{fill:none;stroke-dasharray:4 4;}.cls-3{fill:#ffe98c;}.cls-4{fill:#ffe166;}</style></defs><title>Asset 4abstract</title><g id="Layer_2" data-name="Layer 2"><g id="letters"><polygon class="cls-1" points="69.8 0.5 52.5 50.5 69.8 60.5 69.8 0.5"/><polygon class="cls-2" points="69.8 0.5 87.1 50.5 69.8 60.5 69.8 0.5"/><polygon class="cls-1" points="17.8 50.6 0.5 100.6 17.8 110.6 17.8 50.6"/><polygon class="cls-3" points="17.8 50.6 35.1 100.6 17.8 110.6 17.8 50.6"/><circle class="cls-4" cx="104.4" cy="80.6" r="17.3"/><polygon class="cls-4" points="173.7 0.5 139.1 20.5 173.7 40.5 208.4 20.5 173.7 0.5"/><polygon class="cls-1" points="139.1 20.5 139.1 60.5 173.7 80.5 173.7 40.5 139.1 20.5"/><polygon class="cls-3" points="208.4 20.5 173.7 40.5 173.7 80.5 208.4 60.5 208.4 20.5"/></g></g></svg>