<svg xmlns="http://www.w3.org/2000/svg" xmlns:xlink="http://www.w3.org/1999/xlink" viewBox="0 0 292.8 219.6"><defs><style>.cls-1,.cls-10,.cls-5{fill:none;}.cls-1,.cls-10,.cls-2,.cls-3,.cls-6,.cls-8{stroke:#6046f8;}.cls-1,.cls-10,.cls-2,.cls-3,.cls-5,.cls-6,.cls-8{stroke-linecap:round;stroke-linejoin:round;}.cls-1,.cls-2,.cls-3,.cls-6,.cls-8{stroke-width:1.18px;}.cls-2{fill:#ed8eb7;}.cls-3,.cls-7{fill:#fff;}.cls-4,.cls-6{fill:#ed478e;}.cls-5{stroke:#ed478e;stroke-width:5.29px;}.cls-8{fill:#ed6ba3;}.cls-9{clip-path:url(#clip-path);}.cls-10{stroke-width:0.59px;}.cls-11{clip-path:url(#clip-path-2);}</style><clipPath id="clip-path"><polygon class="cls-1" points="180.9 77.5 180.9 89.3 224.9 103.2 224.9 91.6 180.9 77.5"/></clipPath><clipPath id="clip-path-2"><polygon class="cls-1" points="180.9 95.1 180.9 106.9 224.9 120.8 224.9 109.3 180.9 95.1"/></clipPath></defs><title>Asset 16</title><g id="Layer_2" data-name="Layer 2"><g id="letters"><path class="cls-2" d="M117.6,119.3l15.4-8.8,1.2-.7a92.2,92.2,0,0,1,18.3.1l29.3,16.9c.7,2.5.1,8.3-.5,11.9l-.4,2.3,44,14.2,3-6.2c1.3-2.6,2.3-4.3,2.8-6.9,1-5.4,1.2-7.5,1.2-7.5V62.5c.9,8.3-7,22.1-7,22.1l-44-14.2.4-2.2c.6-3.7,1.2-9.5.5-12L152.5,39.3a92.2,92.2,0,0,0-18.3-.1l-1.2.7L54.7,85.1c-.9,1.5-.6,7,.9,10.1l.2.2,29.3,16.9c5,.8,14.9.1,20.1-.5l4.3-.6,8.1,8.1"/><polygon class="cls-3" points="180.9 70.4 180.9 141 224.9 155.2 224.9 84.6 180.9 70.4"/><line class="cls-1" x1="52" y1="132.8" x2="52" y2="203.4"/><line class="cls-1" x1="19.7" y1="114.2" x2="19.7" y2="184.7"/><ellipse class="cls-2" cx="134.9" cy="151.1" rx="49.9" ry="28.8"/><ellipse class="cls-3" cx="134.9" cy="148.5" rx="42" ry="24.3"/><ellipse class="cls-4" cx="134.9" cy="149.9" rx="37.5" ry="21.7"/><path class="cls-5" d="M153.2,74.6c-1.3-2.6-3.3-4.3-6.6-4.3-8.7,0-8.7,11.8-8.7,21.4v60.6"/><path class="cls-5" d="M119.1,65.4c1.2-3.3,3.3-5.5,7.1-5.5,8.7,0,8.7,14.2,8.7,23.8v69.6"/><path class="cls-5" d="M150.7,65.5c-1.2-3.3-3.3-5.5-7.1-5.5-8.7-.1-8.7,14.1-8.7,23.7v69.6"/><path class="cls-5" d="M116.6,74.6c1.3-2.6,3.3-4.3,6.6-4.3,8.7,0,8.7,11.8,8.7,21.4v60.6"/><path class="cls-5" d="M114.2,84.3s1-6.8,6-6.8c8.7,0,8.7,21.4,8.7,31v42.8"/><path class="cls-5" d="M155.6,84.3s-1-6.8-6-6.8c-8.7,0-8.7,21.4-8.7,31v42.8"/><path class="cls-1" d="M153.2,74.6c-1.3-2.6-3.3-4.3-6.6-4.3-8.7,0-8.7,11.8-8.7,21.4v60.6"/><path class="cls-1" d="M119.1,65.4c1.2-3.3,3.3-5.5,7.1-5.5,8.7,0,8.7,14.2,8.7,23.8v69.6"/><path class="cls-1" d="M150.7,65.5c-1.2-3.3-3.3-5.5-7.1-5.5-8.7-.1-8.7,14.1-8.7,23.7v69.6"/><path class="cls-1" d="M116.6,74.6c1.3-2.6,3.3-4.3,6.6-4.3,8.7,0,8.7,11.8,8.7,21.4v60.6"/><path class="cls-1" d="M114.2,84.3s1-6.8,6-6.8c8.7,0,8.7,21.4,8.7,31v42.8"/><path class="cls-1" d="M155.6,84.3s-1-6.8-6-6.8c-8.7,0-8.7,21.4-8.7,31v42.8"/><path class="cls-6" d="M134.2,39.2a92.2,92.2,0,0,1,18.3.1l29.3,16.9c.7,2.5.1,8.3-.5,12l-.4,2.2,44,14.2,3-6.2a33.3,33.3,0,0,0,2.8-6.9c3.6-15.6-.8-27.2-13.1-34.3L185.3,18.5c-8.3-4.7-20-6.9-23.4-7.4-10.2-1.6-32.9-1-40.3-.2a54.9,54.9,0,0,0-21.7,6.9L18.4,64.9c-6.5,3.7-10.7,8-12.3,12.7s-2,17.3.6,23,6.9,10.1,13,13.6L52,132.8c12.5,7.2,33,9.8,59.5,7.6h.1a112.6,112.6,0,0,0,16.4-2.8l6.6-1.4-25.1-25-4.3.6c-5.2.6-15.1,1.3-20.1.5L55.8,95.4l-.2-.2c-1.5-3.1-1.8-8.6-.9-10.1L133,39.9Z"/><path class="cls-3" d="M134.6,136.2l-6.6,1.4a112.6,112.6,0,0,1-16.4,2.8h-.1c-26.5,2.2-47-.4-59.5-7.6L19.7,114.2c-6.1-3.5-11-8.7-13-13.6A24.4,24.4,0,0,1,5,93v70.6a25.1,25.1,0,0,0,1.7,7.6c2,4.9,6.9,10,13,13.5L52,203.4c12.5,7.2,33,9.8,59.5,7.6h.1a112.6,112.6,0,0,0,16.4-2.8l6.6-1.4Z"/><polygon class="cls-6" points="43.7 34.2 102.1 0.6 122.4 10.8 64.9 46.5 43.7 71 22.4 58.8 43.7 34.2"/><polygon class="cls-2" points="64.9 46.5 122.4 10.8 138.6 18.8 138.6 29.8 43.7 84.5 43.7 71 64.9 46.5"/><polygon class="cls-7" points="22.4 58.8 43.7 71 43.7 84.5 22.4 72.3 22.4 58.8"/><polygon class="cls-1" points="22.4 58.8 43.7 71 43.7 84.5 22.4 72.3 22.4 58.8"/><polygon class="cls-6" points="13.3 174.4 6.9 178.1 55.1 205.9 61.5 202.2 13.3 174.4"/><polygon class="cls-3" points="6.9 178.1 6.9 182.8 55.1 210.6 55.1 205.9 6.9 178.1"/><polygon class="cls-8" points="61.5 202.2 55.1 205.9 55.1 210.6 61.4 207 61.5 202.2"/><path class="cls-6" d="M25.1,145.8c-5.6-3.3-10.1-.6-10.1,5.8v23.8l20.3,11.7V163.3C35.3,156.9,30.7,149,25.1,145.8Z"/><polygon class="cls-2" points="15 175.4 35.3 163.3 35.3 187.1 15 175.4"/><path class="cls-6" d="M49,159.6c-5.6-3.2-10.1-.6-10.1,5.9v23.7l20.2,11.7V177.2C59.1,170.7,54.6,162.8,49,159.6Z"/><polygon class="cls-2" points="38.9 189.2 59.1 177.2 59.1 200.9 38.9 189.2"/><polygon class="cls-6" points="6.9 182.9 0.6 186.5 48.7 214.4 55.1 210.7 6.9 182.9"/><polygon class="cls-3" points="0.6 186.5 0.6 191.2 48.8 219.1 48.7 214.4 0.6 186.5"/><polygon class="cls-8" points="55.1 210.7 48.7 214.4 48.8 219.1 55 215.4 55.1 210.7"/><path class="cls-3" d="M180.3,9.2c0-1.6,1.1-3.2,3.2-4.4a16.5,16.5,0,0,1,15,0c2.1,1.2,3.1,2.8,3.1,4.4V44.3m0,0c0,1.6-1,3.2-3.1,4.4a16.5,16.5,0,0,1-15,0c-2.1-1.2-3.2-2.8-3.2-4.4V9.2"/><ellipse class="cls-6" cx="191" cy="9.2" rx="10.6" ry="6.1"/><path class="cls-3" d="M195.7,41c0-1.6,1-3.1,3.1-4.3a16.5,16.5,0,0,1,15,0c2.1,1.2,3.2,2.7,3.2,4.3V64.4m0,0c0,1.6-1.1,3.1-3.2,4.3a16.5,16.5,0,0,1-15,0c-2.1-1.2-3.1-2.7-3.1-4.3V41"/><ellipse class="cls-6" cx="206.3" cy="41" rx="10.6" ry="6.1"/><line class="cls-2" x1="28.7" y1="140.9" x2="49.1" y2="152.6"/><g class="cls-9"><line class="cls-10" x1="292.5" y1="58.4" x2="292.5" y2="176.1"/><line class="cls-10" x1="288.9" y1="58.4" x2="288.9" y2="176.1"/><line class="cls-10" x1="285.4" y1="58.4" x2="285.4" y2="176.1"/><line class="cls-10" x1="281.9" y1="58.4" x2="281.9" y2="176.1"/><line class="cls-10" x1="278.4" y1="58.4" x2="278.4" y2="176.1"/><line class="cls-10" x1="274.8" y1="58.4" x2="274.8" y2="176.1"/><line class="cls-10" x1="271.3" y1="58.4" x2="271.3" y2="176.1"/><line class="cls-10" x1="267.8" y1="58.4" x2="267.8" y2="176.1"/><line class="cls-10" x1="264.2" y1="58.4" x2="264.2" y2="176.1"/><line class="cls-10" x1="260.7" y1="58.4" x2="260.7" y2="176.1"/><line class="cls-10" x1="257.2" y1="58.4" x2="257.2" y2="176.1"/><line class="cls-10" x1="253.7" y1="58.4" x2="253.7" y2="176.1"/><line class="cls-10" x1="250.1" y1="58.4" x2="250.1" y2="176.1"/><line class="cls-10" x1="246.6" y1="58.4" x2="246.6" y2="176.1"/><line class="cls-10" x1="243.1" y1="58.4" x2="243.1" y2="176.1"/><line class="cls-10" x1="239.5" y1="58.4" x2="239.5" y2="176.1"/><line class="cls-10" x1="236" y1="58.4" x2="236" y2="176.1"/><line class="cls-10" x1="232.5" y1="58.4" x2="232.5" y2="176.1"/><line class="cls-10" x1="229" y1="58.4" x2="229" y2="176.1"/><line class="cls-10" x1="225.4" y1="58.4" x2="225.4" y2="176.1"/><line class="cls-10" x1="221.9" y1="58.4" x2="221.9" y2="176.1"/><line class="cls-10" x1="218.4" y1="58.4" x2="218.4" y2="176.1"/><line class="cls-10" x1="214.8" y1="58.4" x2="214.8" y2="176.1"/><line class="cls-10" x1="211.3" y1="58.4" x2="211.3" y2="176.1"/><line class="cls-10" x1="207.8" y1="58.4" x2="207.8" y2="176.1"/><line class="cls-10" x1="204.3" y1="58.4" x2="204.3" y2="176.1"/><line class="cls-10" x1="200.7" y1="58.4" x2="200.7" y2="176.1"/><line class="cls-10" x1="197.2" y1="58.4" x2="197.2" y2="176.1"/><line class="cls-10" x1="193.7" y1="58.4" x2="193.7" y2="176.1"/><line class="cls-10" x1="190.1" y1="58.4" x2="190.1" y2="176.1"/><line class="cls-10" x1="186.6" y1="58.4" x2="186.6" y2="176.1"/><line class="cls-10" x1="183.1" y1="58.4" x2="183.1" y2="176.1"/><line class="cls-10" x1="179.6" y1="58.4" x2="179.6" y2="176.1"/><line class="cls-10" x1="176" y1="58.4" x2="176" y2="176.1"/><line class="cls-10" x1="172.5" y1="58.4" x2="172.5" y2="176.1"/><line class="cls-10" x1="169" y1="58.4" x2="169" y2="176.1"/><line class="cls-10" x1="165.4" y1="58.4" x2="165.4" y2="176.1"/><line class="cls-10" x1="161.9" y1="58.4" x2="161.9" y2="176.1"/><line class="cls-10" x1="158.4" y1="58.4" x2="158.4" y2="176.1"/><line class="cls-10" x1="154.9" y1="58.4" x2="154.9" y2="176.1"/><line class="cls-10" x1="151.3" y1="58.4" x2="151.3" y2="176.1"/></g><polygon class="cls-1" points="180.9 77.5 180.9 89.3 224.9 103.2 224.9 91.6 180.9 77.5"/><g class="cls-11"><line class="cls-10" x1="292.5" y1="76.1" x2="292.5" y2="193.7"/><line class="cls-10" x1="288.9" y1="76.1" x2="288.9" y2="193.7"/><line class="cls-10" x1="285.4" y1="76.1" x2="285.4" y2="193.7"/><line class="cls-10" x1="281.9" y1="76.1" x2="281.9" y2="193.7"/><line class="cls-10" x1="278.4" y1="76.1" x2="278.4" y2="193.7"/><line class="cls-10" x1="274.8" y1="76.1" x2="274.8" y2="193.7"/><line class="cls-10" x1="271.3" y1="76.1" x2="271.3" y2="193.7"/><line class="cls-10" x1="267.8" y1="76.1" x2="267.8" y2="193.7"/><line class="cls-10" x1="264.2" y1="76.1" x2="264.2" y2="193.7"/><line class="cls-10" x1="260.7" y1="76.1" x2="260.7" y2="193.7"/><line class="cls-10" x1="257.2" y1="76.1" x2="257.2" y2="193.7"/><line class="cls-10" x1="253.7" y1="76.1" x2="253.7" y2="193.7"/><line class="cls-10" x1="250.1" y1="76.1" x2="250.1" y2="193.7"/><line class="cls-10" x1="246.6" y1="76.1" x2="246.6" y2="193.7"/><line class="cls-10" x1="243.1" y1="76.1" x2="243.1" y2="193.7"/><line class="cls-10" x1="239.5" y1="76.1" x2="239.5" y2="193.7"/><line class="cls-10" x1="236" y1="76.1" x2="236" y2="193.7"/><line class="cls-10" x1="232.5" y1="76.1" x2="232.5" y2="193.7"/><line class="cls-10" x1="229" y1="76.1" x2="229" y2="193.7"/><line class="cls-10" x1="225.4" y1="76.1" x2="225.4" y2="193.7"/><line class="cls-10" x1="221.9" y1="76.1" x2="221.9" y2="193.7"/><line class="cls-10" x1="218.4" y1="76.1" x2="218.4" y2="193.7"/><line class="cls-10" x1="214.8" y1="76.1" x2="214.8" y2="193.7"/><line class="cls-10" x1="211.3" y1="76.1" x2="211.3" y2="193.7"/><line class="cls-10" x1="207.8" y1="76.1" x2="207.8" y2="193.7"/><line class="cls-10" x1="204.3" y1="76.1" x2="204.3" y2="193.7"/><line class="cls-10" x1="200.7" y1="76.1" x2="200.7" y2="193.7"/><line class="cls-10" x1="197.2" y1="76.1" x2="197.2" y2="193.7"/><line class="cls-10" x1="193.7" y1="76.1" x2="193.7" y2="193.7"/><line class="cls-10" x1="190.1" y1="76.1" x2="190.1" y2="193.7"/><line class="cls-10" x1="186.6" y1="76.1" x2="186.6" y2="193.7"/><line class="cls-10" x1="183.1" y1="76.1" x2="183.1" y2="193.7"/><line class="cls-10" x1="179.6" y1="76.1" x2="179.6" y2="193.7"/><line class="cls-10" x1="176" y1="76.1" x2="176" y2="193.7"/><line class="cls-10" x1="172.5" y1="76.1" x2="172.5" y2="193.7"/><line class="cls-10" x1="169" y1="76.1" x2="169" y2="193.7"/><line class="cls-10" x1="165.4" y1="76.1" x2="165.4" y2="193.7"/><line class="cls-10" x1="161.9" y1="76.1" x2="161.9" y2="193.7"/><line class="cls-10" x1="158.4" y1="76.1" x2="158.4" y2="193.7"/><line class="cls-10" x1="154.9" y1="76.1" x2="154.9" y2="193.7"/><line class="cls-10" x1="151.3" y1="76.1" x2="151.3" y2="193.7"/></g><polygon class="cls-1" points="180.9 95.1 180.9 106.9 224.9 120.8 224.9 109.3 180.9 95.1"/></g></g></svg>