<svg xmlns="http://www.w3.org/2000/svg" viewBox="0 0 259.1 250"><defs><style>.cls-1{fill:#fff;}.cls-1,.cls-3,.cls-4,.cls-5,.cls-6{stroke:#6046f8;stroke-linecap:round;stroke-linejoin:round;stroke-width:1.18px;}.cls-2,.cls-4{fill:#ed8eb7;}.cls-3{fill:none;}.cls-5{fill:#ed478e;}.cls-6{fill:#ed6ba3;}</style></defs><title>Asset 15</title><g id="Layer_2" data-name="Layer 2"><g id="letters"><polygon class="cls-1" points="0.6 91.4 0.6 161.9 38.6 183.9 38.6 113.3 0.6 91.4"/><polygon class="cls-2" points="82.8 100.9 82.8 171.5 38.6 183.9 38.6 113.3 82.8 100.9"/><polygon class="cls-3" points="82.8 100.9 82.8 171.5 38.6 183.9 38.6 113.3 82.8 100.9"/><polygon class="cls-1" points="82.8 100.9 135.6 131.3 114.1 156.9 114.1 189.5 82.8 171.5 82.8 100.9"/><polygon class="cls-2" points="152 178.8 152 249.4 258.5 122.3 258.5 51.8 152 178.8"/><polygon class="cls-3" points="152 178.8 152 249.4 258.5 122.3 258.5 51.8 152 178.8"/><polygon class="cls-4" points="187.4 71.1 128.6 87.7 158.5 104.9 187.4 71.1"/><polygon class="cls-5" points="251.7 75.4 251.7 110.7 241.5 122.7 241.5 88.3 251.7 75.4"/><polygon class="cls-1" points="251.7 111 249.1 109.4 249.1 78.7 251.7 75.7 251.7 111"/><polygon class="cls-6" points="251.7 110.7 241.5 122.7 241.5 117.8 249.1 109.1 251.7 110.7"/><polygon class="cls-5" points="236.4 93.6 236.4 128.9 226.2 140.9 226.2 106.6 236.4 93.6"/><polygon class="cls-1" points="236.4 129.2 233.8 127.7 233.8 97 236.4 93.9 236.4 129.2"/><polygon class="cls-6" points="236.4 128.9 226.2 140.9 226.3 136.1 233.8 127.4 236.4 128.9"/><polygon class="cls-5" points="221.1 112 221.1 147.2 210.9 159.2 210.9 124.9 221.1 112"/><polygon class="cls-1" points="221.1 147.6 218.4 146 218.4 115.3 221.1 112.3 221.1 147.6"/><polygon class="cls-6" points="221.1 147.2 210.9 159.2 210.9 154.4 218.4 145.7 221.1 147.2"/><polygon class="cls-5" points="205.8 130.2 205.8 165.5 195.6 177.5 195.6 143.1 205.8 130.2"/><polygon class="cls-1" points="205.8 165.8 203.2 164.3 203.2 133.6 205.8 130.5 205.8 165.8"/><polygon class="cls-6" points="205.8 165.5 195.6 177.5 195.6 172.7 203.2 164 205.8 165.5"/><polygon class="cls-4" points="88.8 112.6 88.8 136.1 129.6 159.6 129.6 136.1 88.8 112.6"/><polygon class="cls-5" points="88.8 136.1 91.5 134.6 91.5 114.1 88.8 112.6 88.8 136.1"/><polygon class="cls-5" points="88.8 136.1 129.6 159.6 129.6 156.5 91.5 134.6 88.8 136.1"/><polygon class="cls-4" points="88.8 143.1 88.8 166.7 129.6 190.2 129.6 166.7 88.8 143.1"/><polygon class="cls-5" points="88.8 166.7 91.5 165.1 91.5 144.7 88.8 143.1 88.8 166.7"/><polygon class="cls-5" points="88.8 166.7 129.6 190.2 129.6 187.1 91.5 165.1 88.8 166.7"/><path class="cls-5" d="M220.9,30.1.6,91.4l38,21.9,44.2-12.4,52.8,30.4-21.5,25.6L152,178.8l106.5-127Zm-62.4,74.8L128.6,87.7l58.8-16.6Z"/><polygon class="cls-1" points="114.1 156.9 114.1 227.5 152 249.4 152 178.8 114.1 156.9"/><polygon class="cls-5" points="212.7 35.8 192.4 47.6 212.7 59.3 233.1 47.6 212.7 35.8"/><polygon class="cls-1" points="192.4 47.6 192.4 59.3 212.7 71.1 212.7 59.3 192.4 47.6"/><polygon class="cls-4" points="233.1 47.6 212.7 59.3 212.7 71.1 233.1 59.3 233.1 47.6"/><polygon class="cls-4" points="212.7 0.6 212.7 19.4 233.1 31.2 222.9 15.9 233.1 12.3 212.7 0.6"/><line class="cls-3" x1="212.7" y1="47.6" x2="212.7" y2="0.6"/><polygon class="cls-5" points="114.1 62 93.7 73.7 134.5 97.3 154.8 85.5 114.1 62"/><polygon class="cls-1" points="93.7 73.7 82.1 92.9 143.2 128.2 134.5 97.3 93.7 73.7"/><polygon class="cls-4" points="154.8 85.5 134.5 97.3 143.2 128.2 161.7 115.9 154.8 85.5"/><path class="cls-1" d="M144.1,58.9a3.1,3.1,0,0,1,1.8-2.5,9.5,9.5,0,0,1,8.7,0,3.1,3.1,0,0,1,1.8,2.5v8.7m0,0a3.1,3.1,0,0,1-1.8,2.5,9.5,9.5,0,0,1-8.7,0,3.1,3.1,0,0,1-1.8-2.5V58.9"/><ellipse class="cls-5" cx="150.2" cy="58.9" rx="6.2" ry="3.6"/><path class="cls-1" d="M189.4,85a3.1,3.1,0,0,1,1.8-2.5,9.7,9.7,0,0,1,8.8,0,3.1,3.1,0,0,1,1.8,2.5v8.7m0,0a3.1,3.1,0,0,1-1.8,2.5,9.7,9.7,0,0,1-8.8,0,3.1,3.1,0,0,1-1.8-2.5V85"/><ellipse class="cls-5" cx="195.6" cy="85" rx="6.2" ry="3.6"/><polygon class="cls-4" points="4.3 99.4 4.3 158.2 34.9 175.8 34.9 117 4.3 99.4"/><polygon class="cls-5" points="4.3 158.2 34.9 140.6 34.9 175.8 4.3 158.2"/><line class="cls-4" x1="19.6" y1="108.2" x2="19.6" y2="167"/><line class="cls-4" x1="4.3" y1="128.8" x2="34.9" y2="146.4"/><polygon class="cls-4" points="117.8 164.9 117.8 223.7 148.3 241.4 148.3 182.6 117.8 164.9"/><polygon class="cls-5" points="117.8 223.7 148.3 206.1 148.3 241.4 117.8 223.7"/><line class="cls-4" x1="133.1" y1="173.7" x2="133.1" y2="232.5"/><line class="cls-4" x1="117.8" y1="194.3" x2="148.3" y2="212"/></g></g></svg>