<svg xmlns="http://www.w3.org/2000/svg" xmlns:xlink="http://www.w3.org/1999/xlink" viewBox="0 0 312.6 273.6"><defs><style>.cls-1,.cls-7{fill:none;}.cls-1,.cls-2,.cls-3,.cls-4,.cls-5,.cls-7{stroke:#6046f8;stroke-linecap:round;stroke-linejoin:round;}.cls-1,.cls-2,.cls-3,.cls-4,.cls-5{stroke-width:1.18px;}.cls-2,.cls-8{fill:#fff;}.cls-11,.cls-3{fill:#ed6ba3;}.cls-10,.cls-4{fill:#ed8eb7;}.cls-5{fill:#ed478e;}.cls-6{clip-path:url(#clip-path);}.cls-7{stroke-width:0.59px;}.cls-9{clip-path:url(#clip-path-2);}.cls-12{clip-path:url(#clip-path-3);}.cls-13{fill:#6046f8;}</style><clipPath id="clip-path"><polygon class="cls-1" points="27.8 175 27.8 186.8 102.6 230 102.9 218.4 27.8 175"/></clipPath><clipPath id="clip-path-2"><polygon class="cls-2" points="198.9 77.1 198.9 100.6 241.7 125.3 241.7 101.8 198.9 77.1"/></clipPath><clipPath id="clip-path-3"><polygon class="cls-3" points="193.7 125.5 173.4 137.2 193.7 149 214.1 137.2 193.7 125.5"/></clipPath></defs><title>Asset 10</title><g id="Layer_2" data-name="Layer 2"><g id="letters"><path class="cls-4" d="M279,172.6c-1.7,6-7.8,10.2-12.3,12.8l-79.2,45.7a56.8,56.8,0,0,1-21.7,7.2c-8.3,1-30,1-40.1-.7-4.3-.7-15.2-2.8-22.8-7.1L27.8,187.1V116.5l75.1,43.4c7.6,4.4,18.5,6.5,22.8,7.2,10.1,1.7,31.8,1.6,40.1.6a55.1,55.1,0,0,0,21.7-7.2l79.2-45.7c4.5-2.6,10.6-6.7,12.3-12.8a54.2,54.2,0,0,0,1.6-13.8v77.7Z"/><path class="cls-5" d="M192.3,116.6V62.7L229.2,84l.8.5c1,2,1.5,6.4-.1,10.3Z"/><path class="cls-4" d="M152.7,139.4c-2.6.6-11.8.4-17-.3h-.2L97.8,117.3l94.5-54.6v53.9Z"/><polygon class="cls-2" points="27.8 116.5 102.9 159.9 102.9 230.5 27.8 187.1 27.8 116.5"/><polygon class="cls-5" points="68.5 151.8 68.5 175.3 78.7 181.2 78.7 157.7 68.5 151.8"/><polygon class="cls-4" points="68.5 175.3 78.7 169.5 78.7 157.7 68.5 151.8 68.5 175.3"/><line class="cls-4" x1="27.8" y1="175.3" x2="102.9" y2="218.7"/><polygon class="cls-5" points="38 134.2 38 157.7 48.2 163.6 48.2 140 38 134.2"/><polygon class="cls-4" points="38 157.7 48.2 151.8 48.2 140 38 134.2 38 157.7"/><polygon class="cls-5" points="52.9 142.7 52.9 166.2 63.1 172.1 63.1 148.6 52.9 142.7"/><polygon class="cls-4" points="52.9 166.2 63.1 160.3 63.1 148.6 52.9 142.7 52.9 166.2"/><polygon class="cls-5" points="83.8 160.6 83.8 184.2 94 190 94 166.5 83.8 160.6"/><polygon class="cls-4" points="83.8 184.2 94 178.3 94 166.5 83.8 160.6 83.8 184.2"/><g class="cls-6"><line class="cls-7" x1="141.4" y1="155.7" x2="141.4" y2="273.3"/><line class="cls-7" x1="137.9" y1="155.7" x2="137.9" y2="273.3"/><line class="cls-7" x1="134.4" y1="155.7" x2="134.4" y2="273.3"/><line class="cls-7" x1="130.9" y1="155.7" x2="130.9" y2="273.3"/><line class="cls-7" x1="127.3" y1="155.7" x2="127.3" y2="273.3"/><line class="cls-7" x1="123.8" y1="155.7" x2="123.8" y2="273.3"/><line class="cls-7" x1="120.3" y1="155.7" x2="120.3" y2="273.3"/><line class="cls-7" x1="116.7" y1="155.7" x2="116.7" y2="273.3"/><line class="cls-7" x1="113.2" y1="155.7" x2="113.2" y2="273.3"/><line class="cls-7" x1="109.7" y1="155.7" x2="109.7" y2="273.3"/><line class="cls-7" x1="106.2" y1="155.7" x2="106.2" y2="273.3"/><line class="cls-7" x1="102.6" y1="155.7" x2="102.6" y2="273.3"/><line class="cls-7" x1="99.1" y1="155.7" x2="99.1" y2="273.3"/><line class="cls-7" x1="95.6" y1="155.7" x2="95.6" y2="273.3"/><line class="cls-7" x1="92" y1="155.7" x2="92" y2="273.3"/><line class="cls-7" x1="88.5" y1="155.7" x2="88.5" y2="273.3"/><line class="cls-7" x1="85" y1="155.7" x2="85" y2="273.3"/><line class="cls-7" x1="81.5" y1="155.7" x2="81.5" y2="273.3"/><line class="cls-7" x1="77.9" y1="155.7" x2="77.9" y2="273.3"/><line class="cls-7" x1="74.4" y1="155.7" x2="74.4" y2="273.3"/><line class="cls-7" x1="70.9" y1="155.7" x2="70.9" y2="273.3"/><line class="cls-7" x1="67.3" y1="155.7" x2="67.3" y2="273.3"/><line class="cls-7" x1="63.8" y1="155.7" x2="63.8" y2="273.3"/><line class="cls-7" x1="60.3" y1="155.7" x2="60.3" y2="273.3"/><line class="cls-7" x1="56.8" y1="155.7" x2="56.8" y2="273.3"/><line class="cls-7" x1="53.2" y1="155.7" x2="53.2" y2="273.3"/><line class="cls-7" x1="49.7" y1="155.7" x2="49.7" y2="273.3"/><line class="cls-7" x1="46.2" y1="155.7" x2="46.2" y2="273.3"/><line class="cls-7" x1="42.6" y1="155.7" x2="42.6" y2="273.3"/><line class="cls-7" x1="39.1" y1="155.7" x2="39.1" y2="273.3"/><line class="cls-7" x1="35.6" y1="155.7" x2="35.6" y2="273.3"/><line class="cls-7" x1="32.1" y1="155.7" x2="32.1" y2="273.3"/><line class="cls-7" x1="28.5" y1="155.7" x2="28.5" y2="273.3"/><line class="cls-7" x1="25" y1="155.7" x2="25" y2="273.3"/><line class="cls-7" x1="21.5" y1="155.7" x2="21.5" y2="273.3"/><line class="cls-7" x1="17.9" y1="155.7" x2="17.9" y2="273.3"/><line class="cls-7" x1="14.4" y1="155.7" x2="14.4" y2="273.3"/><line class="cls-7" x1="10.9" y1="155.7" x2="10.9" y2="273.3"/><line class="cls-7" x1="7.4" y1="155.7" x2="7.4" y2="273.3"/><line class="cls-7" x1="3.8" y1="155.7" x2="3.8" y2="273.3"/><line class="cls-7" x1="0.3" y1="155.7" x2="0.3" y2="273.3"/></g><polygon class="cls-1" points="27.8 175 27.8 186.8 102.6 230 102.9 218.4 27.8 175"/><polygon class="cls-5" points="48.1 170.6 48.1 194.2 68.5 205.9 68.5 182.4 48.1 170.6"/><polygon class="cls-4" points="48.1 194.2 68.5 182.4 48.1 170.6 48.1 194.2"/><polygon class="cls-2" points="44.7 196.2 65.1 207.9 65.1 212.6 44.7 200.9 44.7 196.2"/><polygon class="cls-5" points="44.7 196.2 48.2 194.1 68.5 205.9 65.1 207.9 44.7 196.2"/><polygon class="cls-3" points="65.1 212.6 68.5 210.5 68.5 205.9 65.1 207.9 65.1 212.6"/><polygon class="cls-2" points="41.3 203.1 61.6 214.8 61.6 219.5 41.3 207.8 41.3 203.1"/><polygon class="cls-5" points="41.3 203.1 44.8 201 65.1 212.8 61.6 214.8 41.3 203.1"/><polygon class="cls-3" points="61.6 219.5 65.1 217.4 65.1 212.8 61.6 214.8 61.6 219.5"/><line class="cls-4" x1="27.8" y1="128.3" x2="102.9" y2="171.6"/><polygon class="cls-5" points="184.7 77.7 184.7 101.2 144 124.7 144 101.2 184.7 77.7"/><polygon class="cls-2" points="184.7 101.2 182.1 99.7 182.1 79.2 184.7 77.7 184.7 101.2"/><polygon class="cls-5" points="184.7 101.2 144 124.7 144 121.7 182.1 99.7 184.7 101.2"/><polygon class="cls-5" points="139.3 103.5 139.3 127 129.1 132.9 129.1 109.4 139.3 103.5"/><polygon class="cls-2" points="139.3 127 136.6 125.5 136.6 105 139.3 103.5 139.3 127"/><polygon class="cls-3" points="139.3 127 129.1 132.9 129.1 129.9 136.6 125.5 139.3 127"/><polygon class="cls-5" points="155.1 124.1 155.1 147.6 144.9 153.5 144.9 129.9 155.1 124.1"/><polygon class="cls-2" points="155.1 147.6 152.5 146.1 152.5 125.6 155.1 124.1 155.1 147.6"/><polygon class="cls-3" points="155.1 147.6 144.9 153.5 144.9 150.5 152.5 146.1 155.1 147.6"/><polygon class="cls-8" points="198.9 77.1 198.9 100.6 241.7 125.3 241.7 101.8 198.9 77.1"/><g class="cls-9"><line class="cls-7" x1="312.3" y1="58.2" x2="312.3" y2="175.8"/><line class="cls-7" x1="308.7" y1="58.2" x2="308.7" y2="175.8"/><line class="cls-7" x1="305.2" y1="58.2" x2="305.2" y2="175.8"/><line class="cls-7" x1="301.7" y1="58.2" x2="301.7" y2="175.8"/><line class="cls-7" x1="298.1" y1="58.2" x2="298.1" y2="175.8"/><line class="cls-7" x1="294.6" y1="58.2" x2="294.6" y2="175.8"/><line class="cls-7" x1="291.1" y1="58.2" x2="291.1" y2="175.8"/><line class="cls-7" x1="287.6" y1="58.2" x2="287.6" y2="175.8"/><line class="cls-7" x1="284" y1="58.2" x2="284" y2="175.8"/><line class="cls-7" x1="280.5" y1="58.2" x2="280.5" y2="175.8"/><line class="cls-7" x1="277" y1="58.2" x2="277" y2="175.8"/><line class="cls-7" x1="273.4" y1="58.2" x2="273.4" y2="175.8"/><line class="cls-7" x1="269.9" y1="58.2" x2="269.9" y2="175.8"/><line class="cls-7" x1="266.4" y1="58.2" x2="266.4" y2="175.8"/><line class="cls-7" x1="262.9" y1="58.2" x2="262.9" y2="175.8"/><line class="cls-7" x1="259.3" y1="58.2" x2="259.3" y2="175.8"/><line class="cls-7" x1="255.8" y1="58.2" x2="255.8" y2="175.8"/><line class="cls-7" x1="252.3" y1="58.2" x2="252.3" y2="175.8"/><line class="cls-7" x1="248.7" y1="58.2" x2="248.7" y2="175.8"/><line class="cls-7" x1="245.2" y1="58.2" x2="245.2" y2="175.8"/><line class="cls-7" x1="241.7" y1="58.2" x2="241.7" y2="175.8"/><line class="cls-7" x1="238.2" y1="58.2" x2="238.2" y2="175.8"/><line class="cls-7" x1="234.6" y1="58.2" x2="234.6" y2="175.8"/><line class="cls-7" x1="231.1" y1="58.2" x2="231.1" y2="175.8"/><line class="cls-7" x1="227.6" y1="58.2" x2="227.6" y2="175.8"/><line class="cls-7" x1="224" y1="58.2" x2="224" y2="175.8"/><line class="cls-7" x1="220.5" y1="58.2" x2="220.5" y2="175.8"/><line class="cls-7" x1="217" y1="58.2" x2="217" y2="175.8"/><line class="cls-7" x1="213.5" y1="58.2" x2="213.5" y2="175.8"/><line class="cls-7" x1="209.9" y1="58.2" x2="209.9" y2="175.8"/><line class="cls-7" x1="206.4" y1="58.2" x2="206.4" y2="175.8"/><line class="cls-7" x1="202.9" y1="58.2" x2="202.9" y2="175.8"/><line class="cls-7" x1="199.3" y1="58.2" x2="199.3" y2="175.8"/><line class="cls-7" x1="195.8" y1="58.2" x2="195.8" y2="175.8"/><line class="cls-7" x1="192.3" y1="58.2" x2="192.3" y2="175.8"/><line class="cls-7" x1="188.8" y1="58.2" x2="188.8" y2="175.8"/><line class="cls-7" x1="185.2" y1="58.2" x2="185.2" y2="175.8"/><line class="cls-7" x1="181.7" y1="58.2" x2="181.7" y2="175.8"/><line class="cls-7" x1="178.2" y1="58.2" x2="178.2" y2="175.8"/><line class="cls-7" x1="174.6" y1="58.2" x2="174.6" y2="175.8"/><line class="cls-7" x1="171.1" y1="58.2" x2="171.1" y2="175.8"/></g><polygon class="cls-1" points="198.9 77.1 198.9 100.6 241.7 125.3 241.7 101.8 198.9 77.1"/><path class="cls-5" d="M279.2,79c-1.7-4.6-6.8-9.8-13-13.3L191,22.3,27.8,116.5l75.1,43.4c7.6,4.4,18.5,6.5,22.8,7.2,10.1,1.7,31.8,1.6,40.1.6a55.1,55.1,0,0,0,21.7-7.2l79.2-45.7c4.5-2.6,10.6-6.7,12.3-12.8C280.1,98.2,281.9,85.3,279.2,79ZM192.3,62.7,229.2,84l.8.5c1,2,1.5,6.4-.1,10.3l-77.2,44.6c-2.6.6-11.8.4-17-.3h-.2L97.8,117.3Z"/><polygon class="cls-2" points="24.3 126.2 99.7 169.7 93.8 180.5 18.5 136.8 24.3 126.2"/><polygon class="cls-5" points="24.3 126.2 27.8 124.2 102.9 167.7 99.7 169.7 24.3 126.2"/><polygon class="cls-3" points="93.8 180.5 102.9 172.4 102.9 167.7 99.7 169.7 93.8 180.5"/><polygon class="cls-5" points="192.7 0.6 172.3 12.3 192.7 24.1 213 12.3 192.7 0.6"/><polygon class="cls-2" points="172.3 12.3 172.3 41.8 192.7 53.5 192.7 24.1 172.3 12.3"/><polygon class="cls-10" points="213 12.3 192.7 24.1 192.7 53.5 213 41.8 213 12.3"/><polygon class="cls-1" points="213 12.3 192.7 24.1 192.7 53.5 213 41.8 213 12.3"/><polygon class="cls-11" points="193.7 125.5 173.4 137.2 193.7 149 214.1 137.2 193.7 125.5"/><g class="cls-12"><polygon class="cls-2" points="183.6 141.1 203.9 152.9 203.9 157.6 183.6 145.8 183.6 141.1"/><polygon class="cls-5" points="183.6 141.1 187.1 139.1 207.4 150.9 203.9 152.9 183.6 141.1"/><polygon class="cls-3" points="203.9 157.6 207.4 155.5 207.4 150.9 203.9 152.9 203.9 157.6"/><polygon class="cls-2" points="180.1 148 200.5 159.8 200.5 164.5 180.1 152.7 180.1 148"/><polygon class="cls-5" points="180.1 148 183.6 146 203.9 157.7 200.5 159.8 180.1 148"/><polygon class="cls-3" points="200.5 164.5 203.9 162.3 203.9 157.7 200.5 159.8 200.5 164.5"/><polygon class="cls-2" points="190.3 127.5 210.7 139.3 210.7 144 190.3 132.2 190.3 127.5"/><polygon class="cls-5" points="190.3 127.5 193.8 125.5 214.1 137.2 210.7 139.3 190.3 127.5"/><polygon class="cls-3" points="210.7 144 214.1 141.8 214.1 137.2 210.7 139.3 210.7 144"/><polygon class="cls-2" points="186.9 134.4 207.3 146.1 207.2 150.9 186.9 139.1 186.9 134.4"/><polygon class="cls-5" points="186.9 134.4 190.4 132.4 210.7 144.1 207.3 146.1 186.9 134.4"/><polygon class="cls-3" points="207.2 150.9 210.7 148.7 210.7 144.1 207.3 146.1 207.2 150.9"/></g><polygon class="cls-1" points="193.7 125.5 173.4 137.2 193.7 149 214.1 137.2 193.7 125.5"/><polygon class="cls-2" points="230 41.5 209.6 53.3 209.6 58 230 46.2 230 41.5"/><polygon class="cls-5" points="230 41.5 226.5 39.5 206.2 51.2 209.6 53.3 230 41.5"/><polygon class="cls-3" points="209.6 58 206.2 55.8 206.2 51.2 209.6 53.3 209.6 58"/><polygon class="cls-2" points="233.4 48.4 213.1 60.2 213.1 64.9 233.4 53.1 233.4 48.4"/><polygon class="cls-5" points="233.4 48.4 229.9 46.4 209.6 58.1 213.1 60.2 233.4 48.4"/><polygon class="cls-3" points="213.1 64.9 209.6 62.7 209.6 58.1 213.1 60.2 213.1 64.9"/><polygon class="cls-2" points="223.3 27.9 202.9 39.6 202.9 44.4 223.3 32.6 223.3 27.9"/><polygon class="cls-5" points="223.3 27.9 219.8 25.9 199.4 37.6 202.9 39.6 223.3 27.9"/><polygon class="cls-3" points="202.9 44.4 199.4 42.2 199.4 37.6 202.9 39.6 202.9 44.4"/><polygon class="cls-2" points="226.7 34.8 206.3 46.5 206.3 51.2 226.7 39.5 226.7 34.8"/><polygon class="cls-5" points="226.7 34.8 223.2 32.8 202.9 44.5 206.3 46.5 226.7 34.8"/><polygon class="cls-3" points="206.3 51.2 202.9 49.1 202.9 44.5 206.3 46.5 206.3 51.2"/><polygon class="cls-2" points="216.4 14.3 196.1 26 196.1 30.7 216.4 19 216.4 14.3"/><polygon class="cls-5" points="216.4 14.3 212.9 12.3 192.6 24 196.1 26 216.4 14.3"/><polygon class="cls-3" points="196.1 30.7 192.6 28.6 192.6 24 196.1 26 196.1 30.7"/><polygon class="cls-2" points="219.9 21.2 199.5 32.9 199.5 37.6 219.9 25.9 219.9 21.2"/><polygon class="cls-5" points="219.9 21.2 216.4 19.1 196.1 30.9 199.5 32.9 219.9 21.2"/><polygon class="cls-3" points="199.5 37.6 196.1 35.5 196.1 30.9 199.5 32.9 199.5 37.6"/><polygon class="cls-5" points="143.1 8.2 71.8 49.4 82 55.3 153.3 14.1 143.1 8.2"/><polygon class="cls-2" points="71.8 49.4 71.8 102.3 82 108.2 82 55.3 71.8 49.4"/><polygon class="cls-10" points="153.3 14.1 82 55.3 82 108.2 153.1 67.1 153.3 14.1"/><polygon class="cls-1" points="153.3 14.1 82 55.3 82 108.2 153.1 67.1 153.3 14.1"/><polygon class="cls-2" points="127.8 29.2 127.8 29.2 107.4 40.9 107.4 40.9 87.1 52.7 87.1 99.7 97.3 84.4 107.4 88 107.4 88 107.4 88 117.6 72.7 127.8 76.2 127.8 76.2 127.8 76.2 138 60.9 148.2 64.4 148.2 17.4 127.8 29.2"/><path class="cls-13" d="M102,54a2.7,2.7,0,0,0-2.1.3l-2.7,1.5C95.4,56.9,94,60,93.6,61a12.5,12.5,0,0,0-.6,1.8l-.2.7,3.4-.6.2-.6a8.5,8.5,0,0,1,.9-1.9l2.6-1.5.5.3v2.3l-5.1,6.4a9,9,0,0,0-2.1,5.4v6.4l10.6-6.1V69l-7.1,4.1V71.4l.2-.3,5-6.3a9.4,9.4,0,0,0,2.1-5.4V57.2a4.1,4.1,0,0,0-.5-2.1A3.9,3.9,0,0,0,102,54Z"/><path class="cls-13" d="M114.8,46.3a2.5,2.5,0,0,0-1.8.4l-2.8,1.6a5.7,5.7,0,0,0-1.8,1.7,35.6,35.6,0,0,0-2,3.8,7.4,7.4,0,0,0-.5,2.5V66.9a3.4,3.4,0,0,0,.5,2,5,5,0,0,0,2,1.5,3,3,0,0,0,1.8-.3l2.8-1.7a5.7,5.7,0,0,0,1.8-1.7,17.4,17.4,0,0,0,2-3.8,7.4,7.4,0,0,0,.5-2.5V49.8a3.7,3.7,0,0,0-.5-2A4.4,4.4,0,0,0,114.8,46.3ZM113.7,52V62.3a7.6,7.6,0,0,1-.8,1.6l-2.5,1.5a1.4,1.4,0,0,1-.9-.6V54.4l.9-1.6,2.5-1.5A2.1,2.1,0,0,1,113.7,52Z"/><polygon class="cls-13" points="120.6 47 123.6 45.3 123.6 62.1 127.2 60.1 127.2 38.6 120.6 42.4 120.6 47"/><path class="cls-13" d="M143.4,34.4a4.1,4.1,0,0,0-.5-2.1,5.3,5.3,0,0,0-1.5-1.1,2.4,2.4,0,0,0-2.1.3l-2.9,1.7a6.4,6.4,0,0,0-2,2,16.4,16.4,0,0,0-1.6,2.9,9.1,9.1,0,0,0-.5,2.7v2.7a2.6,2.6,0,0,0,.9,2.3,7.5,7.5,0,0,0-.9,3.4V52a4.1,4.1,0,0,0,.5,2.1,5.7,5.7,0,0,0,1.5,1.2,2.4,2.4,0,0,0,2.1-.4l2.9-1.7a4.8,4.8,0,0,0,2-2,16.4,16.4,0,0,0,1.6-2.9,8.6,8.6,0,0,0,.5-2.7V42.8a3.2,3.2,0,0,0-.8-2.4,8,8,0,0,0,.8-3.3Zm-3.3,4.5h0Zm-.3.2a3,3,0,0,1-.5,1l-2.9,1.7a.9.9,0,0,1-.5-.4V38.9a7.4,7.4,0,0,1,.6-1.1l2.9-1.7a.9.9,0,0,1,.5.4Zm-3.4,7.2,2.8-1.6c.1-.1.5.1.6.3v2.7a3,3,0,0,1-.5,1l-2.9,1.7a.9.9,0,0,1-.5-.4V47.4A4.8,4.8,0,0,1,136.4,46.3Zm3.7,1.2Z"/><polygon class="cls-2" points="269.5 113.2 249.1 125 249.1 153.2 259.3 137.9 269.5 141.4 269.5 113.2"/><polygon class="cls-2" points="206.3 149.8 185.9 161.5 185.9 189.8 196.1 174.5 206.3 178 206.3 149.8"/></g></g></svg>