<svg xmlns="http://www.w3.org/2000/svg" xmlns:xlink="http://www.w3.org/1999/xlink" viewBox="0 0 294.5 270.5"><defs><style>.cls-1,.cls-7{fill:#ed6ba3;}.cls-1,.cls-10,.cls-4,.cls-5,.cls-6,.cls-9{stroke:#6046f8;stroke-linecap:round;stroke-linejoin:round;}.cls-1,.cls-4,.cls-5,.cls-6,.cls-9{stroke-width:1.18px;}.cls-2,.cls-9{fill:none;}.cls-3,.cls-6{fill:#ed8eb7;}.cls-4{fill:#ed478e;}.cls-10,.cls-5{fill:#fff;}.cls-8{clip-path:url(#clip-path);}.cls-10{stroke-width:1.05px;}.cls-11{isolation:isolate;}.cls-12{clip-path:url(#clip-path-2);}.cls-13{fill:#6046f8;}</style><clipPath id="clip-path"><polygon class="cls-1" points="36.2 112.3 15.9 124 36.2 135.8 56.6 124 36.2 112.3"/></clipPath><clipPath id="clip-path-2"><polygon class="cls-2" points="221.2 148.3 221.1 112.7 245.1 110.8 244.9 146.1 221.2 148.3"/></clipPath></defs><title>Asset 17</title><g id="Layer_2" data-name="Layer 2"><g id="letters"><polygon class="cls-3" points="183.9 159.4 102.4 206.4 163.6 241.7 245.1 194.7 183.9 159.4"/><path class="cls-4" d="M140.2,139.5c1.5-9.4,3-18.6,4.3-26.9l149.4-7.7L249.5,79.2h-2.8l-56.5,3.1-50.8,2.7,60.1-34.7L163.9,29.8.6,124l35.6,20.6,60.7-35-10.5,64L131,199.3l1-7.4C134.2,176.8,137.2,157.8,140.2,139.5Z"/><polygon class="cls-5" points="0.6 124 0.6 194.6 36.2 215.2 36.2 144.6 0.6 124"/><polygon class="cls-4" points="144.5 112.6 131 199.3 131 269.9 144.5 183.2 144.5 112.6"/><polygon class="cls-5" points="144.5 112.6 144.5 183.2 293.9 175.4 293.9 104.9 144.5 112.6"/><path class="cls-6" d="M86.4,173.6l10.5,6.6-60.7,35V144.6l60.7-35Zm53-88.5,60.1-3.3V50.4Z"/><polygon class="cls-7" points="36.2 112.3 15.9 124 36.2 135.8 56.6 124 36.2 112.3"/><g class="cls-8"><polygon class="cls-5" points="26.1 127.9 46.4 139.7 46.4 144.4 26.1 132.6 26.1 127.9"/><polygon class="cls-4" points="26.1 127.9 29.6 125.9 49.9 137.7 46.4 139.7 26.1 127.9"/><polygon class="cls-1" points="46.4 144.4 49.9 142.3 49.9 137.7 46.4 139.7 46.4 144.4"/><polygon class="cls-5" points="22.6 134.8 43 146.6 43 151.3 22.6 139.5 22.6 134.8"/><polygon class="cls-4" points="22.6 134.8 26.1 132.8 46.4 144.5 43 146.6 22.6 134.8"/><polygon class="cls-1" points="43 151.3 46.4 149.1 46.4 144.5 43 146.6 43 151.3"/><polygon class="cls-5" points="32.8 114.3 53.2 126.1 53.2 130.8 32.8 119 32.8 114.3"/><polygon class="cls-4" points="32.8 114.3 36.3 112.3 56.6 124 53.2 126.1 32.8 114.3"/><polygon class="cls-1" points="53.2 130.8 56.6 128.6 56.6 124 53.2 126.1 53.2 130.8"/><polygon class="cls-5" points="29.4 121.2 49.8 132.9 49.7 137.7 29.4 125.9 29.4 121.2"/><polygon class="cls-4" points="29.4 121.2 32.9 119.2 53.2 130.9 49.8 132.9 29.4 121.2"/><polygon class="cls-1" points="49.7 137.7 53.2 135.5 53.2 130.9 49.8 132.9 49.7 137.7"/></g><polygon class="cls-9" points="36.2 112.3 15.9 124 36.2 135.8 56.6 124 36.2 112.3"/><path class="cls-10" d="M251.6,153.8l-4-3.6-4.1,4.3-4.2-3.6-4.9,4.3-4.8-3.5-4.9,4.3-4.6-3.6-4.8,4.4V108.9l36.3-1.9Z"/><polygon class="cls-6" points="249.2 47.9 249.2 66.7 269.5 78.5 259.3 63.2 269.5 59.6 249.2 47.9"/><line class="cls-9" x1="249.2" y1="94.9" x2="249.2" y2="47.9"/><polygon class="cls-6" points="163.6 0.6 163.6 19.4 183.9 31.2 173.7 15.9 183.9 12.3 163.6 0.6"/><line class="cls-9" x1="163.6" y1="47.6" x2="163.6" y2="0.6"/><polygon class="cls-4" points="159.7 99.5 178.5 88.6 197.3 99.5 178.5 110.3 159.7 99.5"/><polygon class="cls-5" points="159.7 99.5 159.7 142.9 178.5 175.4 178.5 110.3 159.7 99.5"/><polygon class="cls-5" points="178.5 175.4 150.3 202.6 178.5 218.9 178.5 175.4"/><path class="cls-6" d="M197.3,142.9l-18.8,32.5V110.3l18.8-10.8Zm-18.8,76,28.2-16.3-28.2-27.2Z"/><polygon class="cls-4" points="5.7 135.9 5.7 159.4 15.9 165.3 15.9 141.7 5.7 135.9"/><polygon class="cls-6" points="5.7 159.4 15.9 153.5 15.9 141.7 5.7 135.9 5.7 159.4"/><polygon class="cls-4" points="21 144.7 21 168.2 31.2 174.1 31.2 150.6 21 144.7"/><polygon class="cls-6" points="21 168.2 31.2 162.3 31.2 150.6 21 144.7 21 168.2"/><polygon class="cls-4" points="5.7 165.3 5.7 188.8 15.9 194.7 15.9 171.1 5.7 165.3"/><polygon class="cls-6" points="5.7 188.8 15.9 182.9 15.9 171.1 5.7 165.3 5.7 188.8"/><polygon class="cls-4" points="21 174.1 21 197.6 31.2 203.5 31.2 180 21 174.1"/><polygon class="cls-6" points="21 197.6 31.2 191.7 31.2 180 21 174.1 21 197.6"/><polygon class="cls-4" points="87.2 178.7 97.4 184.6 56.6 208.1 46.4 202.3 87.2 178.7"/><polygon class="cls-6" points="97.4 184.6 97.4 191.7 56.6 215.2 56.6 208.1 97.4 184.6"/><polygon class="cls-5" points="46.4 202.3 56.6 208.1 56.6 215.2 46.4 209.3 46.4 202.3"/><polygon class="cls-5" points="86.4 173.6 86.4 244.2 131 269.9 131 199.3 86.4 173.6"/><polygon class="cls-6" points="93.4 183.5 93.4 242.3 124 260 124 201.2 93.4 183.5"/><polygon class="cls-4" points="93.4 242.3 124 224.7 124 260 93.4 242.3"/><line class="cls-6" x1="108.7" y1="192.3" x2="108.7" y2="251.2"/><line class="cls-6" x1="93.4" y1="212.9" x2="124" y2="230.6"/><polygon class="cls-4" points="75 162.3 75 185.8 54.6 197.6 54.6 174.1 75 162.3"/><polygon class="cls-1" points="75 185.8 54.6 174.1 75 162.3 75 185.8"/><line class="cls-5" x1="64.8" y1="168.2" x2="64.8" y2="191.7"/><line class="cls-5" x1="62.7" y1="181.3" x2="60.2" y2="182.8"/><line class="cls-5" x1="69.7" y1="177.6" x2="67.1" y2="179.1"/><polygon class="cls-5" points="75 122.3 54.6 134.1 54.6 161.7 64.8 145.8 75 150.5 75 122.3"/><polygon class="cls-5" points="89.9 77.8 110.3 89.6 110.3 94.3 89.9 82.5 89.9 77.8"/><polygon class="cls-4" points="89.9 77.8 93.4 75.8 113.8 87.5 110.3 89.6 89.9 77.8"/><polygon class="cls-1" points="110.3 94.3 113.8 92.1 113.8 87.5 110.3 89.6 110.3 94.3"/><polygon class="cls-5" points="101.9 70.9 122.2 82.7 122.2 87.4 101.9 75.6 101.9 70.9"/><polygon class="cls-4" points="101.9 70.9 105.4 68.9 125.7 80.6 122.2 82.7 101.9 70.9"/><polygon class="cls-1" points="122.2 87.4 125.7 85.2 125.7 80.6 122.2 82.7 122.2 87.4"/><polygon class="cls-5" points="113.8 64 134.1 75.8 134.1 80.5 113.8 68.7 113.8 64"/><polygon class="cls-4" points="113.8 64 117.3 62 137.6 73.8 134.1 75.8 113.8 64"/><polygon class="cls-1" points="134.1 80.5 137.6 78.4 137.6 73.8 134.1 75.8 134.1 80.5"/><polygon class="cls-5" points="125.7 57.1 146.1 68.9 146 73.6 125.7 61.8 125.7 57.1"/><polygon class="cls-4" points="125.7 57.1 129.2 55.1 149.5 66.9 146.1 68.9 125.7 57.1"/><polygon class="cls-1" points="146 73.6 149.5 71.5 149.5 66.9 146.1 68.9 146 73.6"/><polygon class="cls-5" points="137.6 50.3 158 62 157.9 66.7 137.6 55 137.6 50.3"/><polygon class="cls-4" points="137.6 50.3 141.1 48.2 161.4 60 158 62 137.6 50.3"/><polygon class="cls-1" points="157.9 66.7 161.4 64.6 161.4 60 158 62 157.9 66.7"/><path class="cls-5" d="M114.5,172.3a3.2,3.2,0,0,1,1.8-2.6,10.2,10.2,0,0,1,8.7,0,3.1,3.1,0,0,1,1.8,2.6V181m0,0a3.1,3.1,0,0,1-1.8,2.5,9.5,9.5,0,0,1-8.7,0,3.1,3.1,0,0,1-1.8-2.5v-8.7"/><ellipse class="cls-4" cx="120.7" cy="172.3" rx="6.2" ry="3.6"/><path class="cls-5" d="M95.7,160.9a3.1,3.1,0,0,1,1.8-2.5,9.5,9.5,0,0,1,8.7,0,3.1,3.1,0,0,1,1.8,2.5v8.7m0,0a3.1,3.1,0,0,1-1.8,2.5,9.5,9.5,0,0,1-8.7,0,3.1,3.1,0,0,1-1.8-2.5v-8.7"/><ellipse class="cls-4" cx="101.9" cy="160.9" rx="6.2" ry="3.6"/><g class="cls-11"><g class="cls-12"><path class="cls-13" d="M228.2,112.1l-2.6.2-1.4.4-1,.8a6,6,0,0,0-.8.8l-.5.7a.3.3,0,0,0-.1.2l-.2.3-.2.3c0,.1-.1.3-.1.4l-.2.6,3.6.8.2-.5.2-.3.2-.3c.1-.1.1-.2.2-.2l.2-.2,2.3-.2h.4c0,.1.1.1.1.2v1.4l-4.9,3-.9.7a2.7,2.7,0,0,0-.7.8,3.6,3.6,0,0,0-.4.9,3.1,3.1,0,0,0-.1,1V129l10.6-.9v-3.8l-6.8.6v-1l4.9-3,.9-.7.6-.8a4.1,4.1,0,0,0,.5-.9,3.4,3.4,0,0,0,.1-1v-2.1a.9.9,0,0,1-.1-.5c-.1-.2-.1-.3-.2-.4s-.2-.3-.2-.5-.2-.2-.3-.3l-.4-.4-.5-.4-.3-.2-.5-.3-.5-.2h-1.1"/><path class="cls-13" d="M238.3,124l-.2-.2h-.2c0-.1-.1-.1-.2-.2a.3.3,0,0,1-.1-.2v-7.5l.2-.2v-.2l.2-.2.2-.2h2.6l.2.2.2.2V123l-.2.2-.2.2c-.1.1-.1.2-.2.2s-.1.1-.1.2l-2.3.2m2.5-12.9-2.7.2h-.9l-.5.2-.4.3a1,1,0,0,0-.5.4l-.6.6-.5.6-.4.5c-.1.2-.2.3-.2.5l-.2.4c0,.2-.1.3-.1.5v8.8c0,.1.1.3.1.4l.2.4a.5.5,0,0,0,.2.4l.3.4.6.6c.2.1.3.3.5.5l.5.3.5.2h1.4l2.7-.2h.4l.5-.2.4-.2a.5.5,0,0,0,.4-.2l.6-.5.6-.6.5-.6.3-.4h0a.5.5,0,0,0,.2-.4c.1-.1.1-.3.2-.4s.1-.3.1-.5v-8.7a.9.9,0,0,0-.1-.5v-.4l-.3-.4-.3-.4-.5-.5-.5-.5-.6-.4-.4-.2h-1.4"/><polyline class="cls-13" points="229.3 131.4 222.5 132 222.6 135.8 225.5 135.5 225.5 147.8 229.3 147.4 229.3 131.4"/><path class="cls-13" d="M237.9,143.1h-.3v-2h.2c0-.1,0-.1.1-.2h.1l2.6-.2h.5v2h-.1l-2.8.3m.1-6.2h-.1a.1.1,0,0,1-.1-.1h-.2v-1.8h.1v-.2h.1l2.7-.2h.2a.1.1,0,0,0,.1.1h.1v1.8a.1.1,0,0,0-.1.1h-.3l-2.6.3m2.7-6.6-2.8.3h-1.1l-.5.3-.5.3-.3.4-.5.4-.4.5-.3.4c-.1.1-.1.3-.2.4l-.2.5a1.1,1.1,0,0,1-.1.5v2.4a1.7,1.7,0,0,0,.1.7.9.9,0,0,0,.1.5l.3.5q0,.2.3.3c-.2.2-.3.3-.3.5l-.3.5-.2.6v3.1c0,.2.1.3.1.5s.1.3.2.4.1.3.2.4l.3.4.4.4.4.3.4.3.5.2.5.2h1.1l2.7-.3h.6l.5-.2.5-.2.4-.3.4-.4.4-.4.4-.5a.5.5,0,0,0,.3-.4h0l.3-.4c0-.2.1-.3.1-.5a.7.7,0,0,0,.1-.5.7.7,0,0,0,.1-.5v-2a1.3,1.3,0,0,0-.1-.6c0-.2-.1-.4-.1-.6l-.3-.4-.3-.4a.5.5,0,0,0,.3-.4l.3-.5c0-.2.1-.4.1-.6a1.5,1.5,0,0,0,.1-.7v-2.4a.7.7,0,0,1-.1-.5c-.1-.1-.1-.3-.2-.4s-.1-.3-.2-.4l-.3-.3-.4-.4-.4-.4-.4-.3-.4-.2-.5-.2h-1.1"/></g></g></g></g></svg>