<svg xmlns="http://www.w3.org/2000/svg" viewBox="0 0 239.9 230.8"><defs><style>.cls-1{fill:gray;}.cls-1,.cls-2,.cls-3,.cls-4,.cls-5,.cls-6{stroke:#6046f8;stroke-linecap:round;stroke-linejoin:round;stroke-width:1.18px;}.cls-2{fill:#ed8eb7;}.cls-3{fill:#fff;}.cls-4{fill:#ed478e;}.cls-5{fill:#ed6ba3;}.cls-6{fill:none;}</style></defs><title>Asset 18</title><g id="Layer_2" data-name="Layer 2"><g id="letters"><path class="cls-1" d="M171.2,180.9l-47.7-50.2.4-.3,12.3-7.1a76.6,76.6,0,0,1,16.4.3h.1l36.3,21c1.2,3.6-.1,9.4-.7,11.5l-.8,2.4,43.6,13.9,2.4-3.8a28.8,28.8,0,0,0,4.1-8.9c1.8-7.7,5.5-23.6-13.1-34.3l-38.3-22.1c-8.2-4.8-19.9-6.9-23.3-7.5-9.9-1.5-32.2-1.3-40.6-.4a56.9,56.9,0,0,0-21.7,7.3l-13.9,8c-12.5,7.2-20.7,20.4-9.1,32.1l48.1,49.8c0,.1-.1.3-.2.3l-14.6,8.5a95.8,95.8,0,0,1-17.6-.3L50.9,176.6h-.1c-1-5.4.7-11.5.7-11.6l.7-2.5L7.8,149.7l-2.1,3.9-1,1.9a22.5,22.5,0,0,0-2.6,5.9c-2.5,10-4,24.5,13.1,34.3l45,26c6.6,3.8,16.7,6.4,23.4,7.5,9.6,1.5,31.4,1.2,40.2.2a53.2,53.2,0,0,0,22.1-7.1l16.3-9.4C174.6,205.7,182.8,192.6,171.2,180.9Z"/><path class="cls-2" d="M171.7,134.6l17.3,10c1.2,3.6-.1,9.4-.7,11.5l-.8,2.4,43.6,13.9,2.4-3.8a28.8,28.8,0,0,0,4.1-8.9,48.1,48.1,0,0,0,1.7-10.9V78.2a48.1,48.1,0,0,1-1.7,10.9,28.8,28.8,0,0,1-4.1,8.9l-2.4,3.9-43.6-14,.8-2.4c.6-2,1.9-7.9.7-11.5L152.7,53h-.1a69.9,69.9,0,0,0-16.4-.2l-12.3,7.1-.4.3,47.7,50.1c8.1,8.2,6.5,17.2.5,24.3"/><path class="cls-3" d="M1,166.9c-1.4,9.4.1,20.7,14.2,28.8l45,26c6.6,3.8,16.7,6.4,23.4,7.5,9.6,1.5,31.4,1.2,40.2.2a53.2,53.2,0,0,0,22.1-7.1l16.3-9.4c8.4-4.9,14.9-12.5,14.6-20.6V121.8c.3,8-6.2,15.7-14.6,20.6l-16.3,9.4a56.3,56.3,0,0,1-22.1,7.1c-8.8.9-30.6,1.2-40.2-.3-6.7-1.1-16.8-3.7-23.4-7.4l-45-26A29.5,29.5,0,0,1,.8,104.8Z"/><path class="cls-2" d="M72.3,118.4l21,12.2a104.7,104.7,0,0,0,17.6.2l14.6-8.4c.1-.1.2-.2.2-.3L77.6,72.2a18.3,18.3,0,0,1-5.4-9.7v55.9"/><path class="cls-4" d="M52.2,91.9s-2.9,7.8-1.4,14.2l1.4.8Z"/><path class="cls-2" d="M3.9,135.4,5.5,138a41.6,41.6,0,0,0,5.9,6V128a44.5,44.5,0,0,1-5.9-6.5A15.8,15.8,0,0,1,4,119.1Z"/><polygon class="cls-2" points="29.7 155.2 24.3 152.1 19.4 149.3 19.4 132.8 24.3 135.7 29.7 138.7 29.7 155.2"/><polygon class="cls-2" points="47.5 165.5 43 162.9 38.8 160.5 38.8 144 43 146.4 47.5 149.1 47.5 165.5"/><path class="cls-2" d="M64.9,175.2l-4.7-2.3-4.1-2.4V154l4.1,2.4,4.7,2.3Z"/><path class="cls-2" d="M83.6,180.3l-4-.7-4.3-1V162.1l4.3,1,4,.8Z"/><path class="cls-2" d="M103.5,181.4H93.6V164.7l4.5.2h5.4Z"/><path class="cls-2" d="M119.3,180.9l-4.6.3h-3.8V164.8h3.8l4.6-.2Z"/><path class="cls-2" d="M135.1,178.2l-4.1,1.2-3.7.7V163.6l3.7-.7,4.1-1.1Z"/><path class="cls-2" d="M148.6,171.9l-2.7,1.6-3,1.5V158.6l3-1.6,2.7-1.6Z"/><polygon class="cls-2" points="162.2 164 158.9 166 155.2 168 155.2 151.6 158.9 149.5 162.2 147.6 162.2 164"/><path class="cls-2" d="M173.1,154.6l-2.3,2.7a30.7,30.7,0,0,1-2.6,2.5V143.4l2.6-2.5,2.3-2.8Z"/><path class="cls-4" d="M1.5,123.6l1.6,2.6a47.6,47.6,0,0,0,5.9,6l2.4-4.2a44.5,44.5,0,0,1-5.9-6.5A15.8,15.8,0,0,1,4,119.1Z"/><polygon class="cls-4" points="28.5 143.4 23.2 140.4 18.2 137.5 19.4 132.8 24.3 135.7 29.7 138.7 28.5 143.4"/><polygon class="cls-4" points="46.1 153.4 41.5 150.7 37.3 148.3 38.8 144 43 146.4 47.5 149.1 46.1 153.4"/><path class="cls-4" d="M63.4,163.6a41.2,41.2,0,0,1-4.7-2.2l-4.2-2.5,1.6-4.9,4.1,2.4,4.7,2.3Z"/><path class="cls-4" d="M82.8,168.4l-4-.8-4.4-1,.9-4.5,4.3,1,4,.8Z"/><path class="cls-4" d="M104.1,169.6h-6l-4.8-.2.3-4.7,4.5.2h5.4Z"/><path class="cls-4" d="M119.9,169.3l-4.6.3h-3.9l-.5-4.9h3.8l4.6-.2Z"/><path class="cls-4" d="M135.9,166.6l-4,1.1-3.7.7-.9-4.8,3.7-.7,4.1-1.1Z"/><path class="cls-4" d="M150.1,160.1l-2.8,1.6-2.9,1.6-1.5-4.7,3-1.6,2.7-1.6Z"/><polygon class="cls-4" points="163.7 152.6 160.4 154.5 156.8 156.6 155.2 151.6 158.9 149.5 162.2 147.6 163.7 152.6"/><path class="cls-4" d="M175,143a31.1,31.1,0,0,1-2.3,2.8,30.7,30.7,0,0,1-2.6,2.5l-1.9-4.9,2.6-2.5,2.3-2.8Z"/><path class="cls-2" d="M3.9,156.6c.5.8,1,1.7,1.6,2.5a42.2,42.2,0,0,0,5.9,6.1v-16a44.5,44.5,0,0,1-5.9-6.5A16.5,16.5,0,0,1,4,140.2Z"/><polygon class="cls-2" points="29.7 176.4 24.3 173.3 19.4 170.4 19.4 154 24.3 156.8 29.7 159.9 29.7 176.4"/><polygon class="cls-2" points="47.5 186.7 43 184.1 38.8 181.6 38.8 165.2 43 167.6 47.5 170.2 47.5 186.7"/><path class="cls-2" d="M64.9,196.3a40.9,40.9,0,0,1-4.7-2.3l-4.1-2.4V175.2l4.1,2.4,4.7,2.3Z"/><path class="cls-2" d="M83.6,201.5l-4-.7-4.3-1.1V183.3l4.3,1,4,.7Z"/><path class="cls-2" d="M103.5,202.6H93.6V185.9h9.9Z"/><path class="cls-2" d="M119.3,202.1l-4.6.2-3.8.2V186h3.8l4.6-.3Z"/><path class="cls-2" d="M135.1,199.4l-4.1,1.1-3.7.8V184.8l3.7-.7,4.1-1.1Z"/><path class="cls-2" d="M148.6,193l-2.7,1.6-3,1.6V179.7l3-1.5,2.7-1.6Z"/><polygon class="cls-2" points="162.2 185.2 158.9 187.1 155.2 189.2 155.2 172.7 158.9 170.7 162.2 168.8 162.2 185.2"/><path class="cls-2" d="M173.1,175.7a31.1,31.1,0,0,1-2.3,2.8,30.7,30.7,0,0,1-2.6,2.5V164.5a30.7,30.7,0,0,0,2.6-2.5l2.3-2.7Z"/><path class="cls-4" d="M1.5,144.8l1.6,2.6a47.6,47.6,0,0,0,5.9,6l2.4-4.2a44.5,44.5,0,0,1-5.9-6.5A16.5,16.5,0,0,1,4,140.2Z"/><polygon class="cls-4" points="28.5 164.6 23.2 161.5 18.2 158.7 19.4 154 24.3 156.8 29.7 159.9 28.5 164.6"/><polygon class="cls-4" points="46.1 174.5 41.5 171.9 37.3 169.5 38.8 165.2 43 167.6 47.5 170.2 46.1 174.5"/><path class="cls-4" d="M63.4,184.8a41.2,41.2,0,0,1-4.7-2.3l-4.2-2.4,1.6-4.9,4.1,2.4,4.7,2.3Z"/><path class="cls-4" d="M82.8,189.5l-4-.7-4.4-1,.9-4.5,4.3,1,4,.7Z"/><path class="cls-4" d="M104.1,190.8H93.3l.3-4.7h9.9Z"/><path class="cls-4" d="M119.9,190.5l-4.6.3h-3.9l-.5-4.9h3.8l4.6-.3Z"/><path class="cls-4" d="M135.9,187.8l-4,1.1-3.7.7-.9-4.8,3.7-.7,4.1-1.1Z"/><path class="cls-4" d="M150.1,181.3l-2.8,1.6-2.9,1.6-1.5-4.8,3-1.5,2.7-1.6Z"/><polygon class="cls-4" points="163.7 173.8 160.4 175.7 156.8 177.8 155.2 172.7 158.9 170.7 162.2 168.8 163.7 173.8"/><path class="cls-4" d="M175,164.2a31.1,31.1,0,0,1-2.3,2.8l-2.6,2.5-1.9-5a30.7,30.7,0,0,0,2.6-2.5l2.3-2.7Z"/><path class="cls-2" d="M3.9,177.7a22.6,22.6,0,0,0,1.6,2.6,37.1,37.1,0,0,0,5.9,6V170.4a50.3,50.3,0,0,1-5.9-6.5A23.6,23.6,0,0,1,4,161.4Z"/><polygon class="cls-2" points="29.7 197.6 24.3 194.5 19.4 191.6 19.4 175.1 24.3 178 29.7 181.1 29.7 197.6"/><polygon class="cls-2" points="47.5 207.9 43 205.2 38.8 202.8 38.8 186.3 43 188.8 47.5 191.4 47.5 207.9"/><path class="cls-2" d="M64.9,217.5l-4.7-2.3-4.1-2.4V196.3l4.1,2.4a40.9,40.9,0,0,0,4.7,2.3Z"/><path class="cls-2" d="M83.6,222.7l-4-.8-4.3-1V204.4l4.3,1.1,4,.7Z"/><path class="cls-2" d="M103.5,223.7H98.1l-4.5-.2V207.1h9.9Z"/><path class="cls-2" d="M119.3,223.3l-4.6.2h-3.8V207.2l3.8-.2,4.6-.2Z"/><path class="cls-2" d="M135.1,220.6l-4.1,1.1-3.7.7V206l3.7-.7,4.1-1.2Z"/><path class="cls-2" d="M148.6,214.2l-2.7,1.6-3,1.6V200.9l3-1.6,2.7-1.6Z"/><polygon class="cls-2" points="162.2 206.4 158.9 208.3 155.2 210.4 155.2 193.9 158.9 191.8 162.2 189.9 162.2 206.4"/><path class="cls-2" d="M173.1,196.9a31.1,31.1,0,0,1-2.3,2.8l-2.6,2.5V185.7a30.7,30.7,0,0,0,2.6-2.5,31.1,31.1,0,0,0,2.3-2.8Z"/><path class="cls-4" d="M1.5,166l1.6,2.6a55.4,55.4,0,0,0,5.9,6l2.4-4.2a50.3,50.3,0,0,1-5.9-6.5A23.6,23.6,0,0,1,4,161.4Z"/><polygon class="cls-4" points="28.5 185.8 23.2 182.7 18.2 179.8 19.4 175.1 24.3 178 29.7 181.1 28.5 185.8"/><polygon class="cls-4" points="46.1 195.7 41.5 193.1 37.3 190.6 38.8 186.3 43 188.8 47.5 191.4 46.1 195.7"/><path class="cls-4" d="M63.4,206a41.2,41.2,0,0,1-4.7-2.3l-4.2-2.4,1.6-5,4.1,2.4a40.9,40.9,0,0,0,4.7,2.3Z"/><path class="cls-4" d="M82.8,210.7l-4-.7-4.4-1.1.9-4.5,4.3,1.1,4,.7Z"/><path class="cls-4" d="M104.1,212h-6l-4.8-.2.3-4.6h9.9Z"/><path class="cls-4" d="M119.9,211.7l-4.6.2-3.9.2-.5-4.9,3.8-.2,4.6-.2Z"/><path class="cls-4" d="M135.9,208.9c-1.3.5-2.7.8-4,1.2l-3.7.7-.9-4.8,3.7-.7,4.1-1.2Z"/><path class="cls-4" d="M150.1,202.4l-2.8,1.7-2.9,1.5-1.5-4.7,3-1.6,2.7-1.6Z"/><polygon class="cls-4" points="163.7 195 160.4 196.9 156.8 199 155.2 193.9 158.9 191.8 162.2 189.9 163.7 195"/><path class="cls-4" d="M175,185.4l-2.3,2.8-2.6,2.4-1.9-4.9a30.7,30.7,0,0,0,2.6-2.5,31.1,31.1,0,0,0,2.3-2.8Z"/><polygon class="cls-2" points="219.9 143.4 219.9 149 214.7 151.6 219.9 143.4"/><polygon class="cls-3" points="76.2 77.1 76.2 100.7 86.4 113.6 86.4 87.7 76.2 77.1"/><polygon class="cls-4" points="76.2 103 78.9 101.5 78.9 79.8 76.2 77.1 76.2 103"/><polygon class="cls-4" points="76.2 103 86.4 113.6 86.4 109.5 78.9 101.5 76.2 103"/><polygon class="cls-3" points="76.2 109 76.2 132.5 86.4 145.4 86.4 119.5 76.2 109"/><polygon class="cls-4" points="76.2 134.8 78.9 133.3 78.9 111.7 76.2 109 76.2 134.8"/><polygon class="cls-4" points="76.2 134.8 86.4 145.4 86.4 141.3 78.9 133.3 76.2 134.8"/><polygon class="cls-3" points="91.6 93 91.6 116.6 101.8 129.5 101.8 103.6 91.6 93"/><polygon class="cls-4" points="91.6 118.9 94.2 117.4 94.2 95.8 91.6 93 91.6 118.9"/><polygon class="cls-4" points="91.6 118.9 101.8 129.5 101.8 125.4 94.2 117.4 91.6 118.9"/><path class="cls-4" d="M171.2,110.3,123.5,60.2l.4-.3,12.3-7.1a69.9,69.9,0,0,1,16.4.2h.1L189,74c1.2,3.6-.1,9.5-.7,11.5l-.8,2.4,43.6,14,2.4-3.9a28.8,28.8,0,0,0,4.1-8.9c1.8-7.7,5.5-23.6-13.1-34.3L186.2,32.7c-8.2-4.8-19.9-6.9-23.3-7.5-9.9-1.5-32.2-1.3-40.6-.3a57.1,57.1,0,0,0-21.7,7.2L86.7,40.2c-12.5,7.2-20.7,20.3-9.1,32l48.1,49.9c0,.1-.1.2-.2.3l-14.6,8.4a104.7,104.7,0,0,1-17.6-.2L50.9,106.1h-.1c-1-5.5.7-11.6.7-11.7l.7-2.5L7.8,79.1,5.7,83l-1,1.9a22.5,22.5,0,0,0-2.6,5.9c-2.5,10-4,24.5,13.1,34.4l45,26c6.6,3.7,16.7,6.3,23.4,7.4,9.6,1.5,31.4,1.2,40.2.3a56.3,56.3,0,0,0,22.1-7.1l16.3-9.4C174.6,135.1,182.8,122,171.2,110.3Z"/><polygon class="cls-3" points="231.1 101.9 231.1 172.4 187.5 158.5 187.5 87.9 231.1 101.9"/><polygon class="cls-4" points="199.1 138.6 199.1 162.1 219.5 168.5 219.5 145 199.1 138.6"/><polygon class="cls-5" points="199.1 162.1 219.5 145 199.1 138.6 199.1 162.1"/><line class="cls-3" x1="209.3" y1="141.8" x2="209.3" y2="165.3"/><line class="cls-6" x1="206.9" y1="152.9" x2="204.7" y2="152.2"/><line class="cls-6" x1="213.8" y1="155.1" x2="211.6" y2="154.4"/><polygon class="cls-3" points="199.6 136.9 193.7 145 214.7 151.6 219.9 143.4 199.6 136.9"/><polygon class="cls-4" points="199.1 109.1 199.1 132.7 219.5 139.1 219.5 115.5 199.1 109.1"/><polygon class="cls-5" points="199.1 132.7 219.5 115.6 219.5 103.8 199.1 97.3 199.1 132.7"/><line class="cls-3" x1="209.3" y1="100.5" x2="209.3" y2="135.9"/><line class="cls-6" x1="199.1" y1="100.8" x2="219.5" y2="107.3"/><line class="cls-6" x1="199.1" y1="104.4" x2="219.5" y2="110.8"/><line class="cls-6" x1="199.1" y1="107.9" x2="219.5" y2="114.3"/><line class="cls-6" x1="199.1" y1="111.4" x2="219.5" y2="117.9"/><line class="cls-6" x1="199.1" y1="114.9" x2="219.5" y2="121.4"/><line class="cls-6" x1="199.1" y1="118.5" x2="219.5" y2="124.9"/><line class="cls-6" x1="199.1" y1="122" x2="219.5" y2="128.5"/><line class="cls-6" x1="199.1" y1="125.5" x2="219.5" y2="132"/><line class="cls-6" x1="199.1" y1="129.1" x2="219.5" y2="135.5"/><path class="cls-2" d="M231.1,78.3s8.8-11,8.2-24.8V78.2s1,11-8.2,23.7Z"/><polygon class="cls-2" points="77.6 48.7 77.6 72.2 123.5 60.2 123.5 36.6 77.6 48.7"/><path class="cls-3" d="M77.6,72.2s-6-5.6-5.6-13.8V36.6s.5,7.3,5.6,12.1Z"/><polygon class="cls-4" points="110.8 39.9 110.8 63.4 90.4 68.9 90.4 45.4 110.8 39.9"/><polygon class="cls-5" points="110.8 63.4 90.4 45.4 110.8 39.9 110.8 63.4"/><line class="cls-3" x1="100.6" y1="42.6" x2="100.6" y2="66.2"/><line class="cls-6" x1="102.9" y1="54.2" x2="105.1" y2="53.5"/><line class="cls-6" x1="96" y1="56.4" x2="98.3" y2="55.7"/><ellipse class="cls-2" cx="118.7" cy="69.9" rx="5.4" ry="3.1"/><line class="cls-6" x1="118.7" y1="75.9" x2="118.7" y2="73.3"/><ellipse class="cls-2" cx="105.2" cy="80" rx="5.4" ry="3.1"/><line class="cls-6" x1="105.2" y1="86" x2="105.2" y2="83.4"/><ellipse class="cls-2" cx="132.8" cy="84" rx="5.4" ry="3.1"/><line class="cls-6" x1="132.8" y1="90" x2="132.8" y2="87.4"/><ellipse class="cls-2" cx="119.3" cy="94.1" rx="5.4" ry="3.1"/><line class="cls-6" x1="119.3" y1="100.1" x2="119.3" y2="97.5"/><ellipse class="cls-2" cx="146.9" cy="98.2" rx="5.4" ry="3.1"/><line class="cls-6" x1="146.9" y1="104.1" x2="146.9" y2="101.5"/><ellipse class="cls-2" cx="133.4" cy="108.3" rx="5.4" ry="3.1"/><line class="cls-6" x1="133.4" y1="114.2" x2="133.4" y2="111.6"/><ellipse class="cls-2" cx="161" cy="112.3" rx="5.4" ry="3.1"/><line class="cls-6" x1="161" y1="118.3" x2="161" y2="115.6"/><ellipse class="cls-2" cx="147.5" cy="122.4" rx="5.4" ry="3.1"/><line class="cls-6" x1="147.5" y1="128.4" x2="147.5" y2="125.7"/><polygon class="cls-2" points="152.3 29.1 152.3 52.7 182.9 70.3 182.9 46.8 152.3 29.1"/><polygon class="cls-4" points="152.3 52.7 173.1 41.3 190.2 50.9 189.7 74.3 152.3 52.7"/><line class="cls-2" x1="172.5" y1="40.7" x2="172.5" y2="64.2"/><line class="cls-2" x1="152.3" y1="40.9" x2="189.8" y2="62.5"/><path class="cls-4" d="M123.5,36.6l.4-.3,12.3-7.1a76.6,76.6,0,0,1,16.4.3h.1l36.3,21c1.2,3.6-.1,9.4-.7,11.5l-.8,2.4,43.6,13.9,2.4-3.8a28.8,28.8,0,0,0,4.1-8.9c1.8-7.7,5.5-23.6-13.1-34.3L186.2,9.2c-8.2-4.8-19.9-6.9-23.3-7.5C153,.2,130.7.4,122.3,1.4a55.4,55.4,0,0,0-21.7,7.2l-13.9,8C74.2,23.8,66,37,77.6,48.7Z"/><polygon class="cls-2" points="187.5 64.4 187.5 87.9 231.1 101.9 231.1 78.3 187.5 64.4"/><path class="cls-3" d="M97.9,18.1a3.1,3.1,0,0,1,1.8-2.5,9.5,9.5,0,0,1,8.7,0,3.1,3.1,0,0,1,1.8,2.5v8.7m0,0a3.1,3.1,0,0,1-1.8,2.5,9.5,9.5,0,0,1-8.7,0,3.1,3.1,0,0,1-1.8-2.5V18.1"/><ellipse class="cls-4" cx="104" cy="18.1" rx="6.2" ry="3.6"/><path class="cls-3" d="M129.7,7.7a3.1,3.1,0,0,1,1.8-2.6,9.5,9.5,0,0,1,8.7,0A3.1,3.1,0,0,1,142,7.7v8.7m0,0a3.1,3.1,0,0,1-1.8,2.5,9.5,9.5,0,0,1-8.7,0,3.1,3.1,0,0,1-1.8-2.5V7.7"/><ellipse class="cls-4" cx="135.8" cy="7.7" rx="6.2" ry="3.6"/><path class="cls-3" d="M164.9,13.7a3.1,3.1,0,0,1,1.8-2.5,9.5,9.5,0,0,1,8.7,0,3.1,3.1,0,0,1,1.8,2.5v8.8m0,0a3.1,3.1,0,0,1-1.8,2.5,9.5,9.5,0,0,1-8.7,0,3.1,3.1,0,0,1-1.8-2.5V13.7"/><ellipse class="cls-4" cx="171" cy="13.7" rx="6.2" ry="3.6"/><path class="cls-3" d="M192.4,27.5a3.1,3.1,0,0,1,1.8-2.5,9.5,9.5,0,0,1,8.7,0,3,3,0,0,1,1.9,2.5v8.7m0,0a3,3,0,0,1-1.9,2.5,9.5,9.5,0,0,1-8.7,0,3.1,3.1,0,0,1-1.8-2.5V27.5"/><ellipse class="cls-4" cx="198.6" cy="27.5" rx="6.2" ry="3.6"/><path class="cls-3" d="M208.8,51.7a3.1,3.1,0,0,1,1.8-2.5,9.5,9.5,0,0,1,8.7,0,3.1,3.1,0,0,1,1.8,2.5v8.7m0,0a3.1,3.1,0,0,1-1.8,2.5,9.5,9.5,0,0,1-8.7,0,3.1,3.1,0,0,1-1.8-2.5V51.7"/><ellipse class="cls-4" cx="214.9" cy="51.7" rx="6.2" ry="3.6"/></g></g></svg>