<?xml version="1.0" encoding="UTF-8"?>
<svg width="201px" height="172px" viewBox="0 0 201 172" version="1.1" xmlns="http://www.w3.org/2000/svg" xmlns:xlink="http://www.w3.org/1999/xlink">
    <!-- Generator: Sketch 50.2 (55047) - http://www.bohemiancoding.com/sketch -->
    <title>Misc2</title>
    <desc>Created with Sketch.</desc>
    <defs></defs>
    <g id="Page-1" stroke="none" stroke-width="1" fill="none" fill-rule="evenodd" stroke-linecap="round" stroke-linejoin="round">
        <g id="Misc2" transform="translate(1.000000, 0.000000)" stroke="#ED1973">
            <g id="Group-3" transform="translate(77.000000, 111.000000)">
                <polygon id="Shape" fill="#B8AEF8" fill-rule="nonzero" points="18.08 0.25 0.76 50.25 18.08 60.25"></polygon>
                <path d="M18.08,0.25 L35.4,50.25 L18.08,60.25 L18.08,0.25 Z" id="Shape" stroke-dasharray="4"></path>
            </g>
            <g id="Group-5" fill-rule="nonzero">
                <polygon id="Shape" fill="#B8AEF8" points="17.44 0.25 0.12 50.25 17.44 60.25"></polygon>
                <polygon id="Shape" fill="#9988F8" points="17.44 0.25 34.76 50.25 17.44 60.25"></polygon>
            </g>
            <g id="Group-4" transform="translate(95.000000, 3.000000)" fill-rule="nonzero">
                <polygon id="Shape" fill="#755EF8" points="35.05 16.25 0.4 36.25 69.69 76.25 104.33 56.25"></polygon>
                <polygon id="Shape" fill="#B8AEF8" points="0.4 36.25 0.41 76.25 69.68 116.25 69.69 76.25"></polygon>
                <polygon id="Shape" fill="#9988F8" points="104.33 56.25 69.69 76.25 69.68 116.25 104.32 96.25"></polygon>
                <circle id="Oval" fill="#9988F8" cx="35.04" cy="17.37" r="17.32"></circle>
            </g>
        </g>
    </g>
</svg>